{
  "stats": {
    "filename": "외워두세요_BPM72_4-4.mid",
    "total_notes": 222,
    "total_duration_sec": 39.9,
    "avg_tempo": 72.0,
    "pitch_range": [
      31,
      69
    ],
    "pitch_mean": 58.7,
    "pitch_std": 7.2,
    "velocity_range": [
      39,
      99
    ],
    "velocity_mean": 65.5,
    "velocity_std": 8.3,
    "duration_mean": 0.517,
    "duration_std": 0.3544,
    "estimated_key": "E",
    "num_instruments": 2,
    "time_signatures": [
      "4/4"
    ]
  },
  "composer_tags": {
    "rhythm_type": "dense",
    "rhythm_regularity": 0.455,
    "note_density_per_sec": 5.56,
    "avg_ioi": 0.4032,
    "harmony_type": "triadic",
    "harmonic_brightness": 0.538,
    "harmony_ratio": 0.802,
    "avg_polyphony": 3.56,
    "max_polyphony": 6,
    "accompaniment_pattern": "block_chord",
    "arpeggio_ratio": 0.027,
    "voicing_type": "open",
    "avg_voicing_spread": 15.0,
    "pitch_range": 38,
    "register": "tenor",
    "dynamic_profile": "expressive",
    "dynamic_level": "mezzo-forte",
    "velocity_range": 60,
    "tempo_bpm": 72.0,
    "tempo_category": "adagio"
  },
  "notes": [
    {
      "pitch": 55,
      "start": 2.0833,
      "end": 2.4722,
      "duration": 0.3889,
      "velocity": 63,
      "instrument": 0,
      "instrument_name": "Acoustic Grand Piano",
      "is_drum": false
    },
    {
      "pitch": 59,
      "start": 2.5,
      "end": 2.9132,
      "duration": 0.4132,
      "velocity": 51,
      "instrument": 0,
      "instrument_name": "Acoustic Grand Piano",
      "is_drum": false
    },
    {
      "pitch": 60,
      "start": 2.9167,
      "end": 3.1076,
      "duration": 0.191,
      "velocity": 62,
      "instrument": 0,
      "instrument_name": "Acoustic Grand Piano",
      "is_drum": false
    },
    {
      "pitch": 62,
      "start": 3.125,
      "end": 4.6319,
      "duration": 1.5069,
      "velocity": 65,
      "instrument": 0,
      "instrument_name": "Acoustic Grand Piano",
      "is_drum": false
    },
    {
      "pitch": 55,
      "start": 3.3333,
      "end": 3.7326,
      "duration": 0.3993,
      "velocity": 61,
      "instrument": 0,
      "instrument_name": "Acoustic Grand Piano",
      "is_drum": false
    },
    {
      "pitch": 64,
      "start": 3.3333,
      "end": 3.7396,
      "duration": 0.4062,
      "velocity": 65,
      "instrument": 0,
      "instrument_name": "Acoustic Grand Piano",
      "is_drum": false
    },
    {
      "pitch": 62,
      "start": 3.3333,
      "end": 3.7448,
      "duration": 0.4115,
      "velocity": 66,
      "instrument": 0,
      "instrument_name": "Acoustic Grand Piano",
      "is_drum": false
    },
    {
      "pitch": 48,
      "start": 3.3333,
      "end": 4.2431,
      "duration": 0.9097,
      "velocity": 54,
      "instrument": 0,
      "instrument_name": "Acoustic Grand Piano",
      "is_drum": false
    },
    {
      "pitch": 55,
      "start": 4.1667,
      "end": 4.3837,
      "duration": 0.217,
      "velocity": 70,
      "instrument": 0,
      "instrument_name": "Acoustic Grand Piano",
      "is_drum": false
    },
    {
      "pitch": 64,
      "start": 4.1667,
      "end": 4.4045,
      "duration": 0.2378,
      "velocity": 69,
      "instrument": 0,
      "instrument_name": "Acoustic Grand Piano",
      "is_drum": false
    },
    {
      "pitch": 62,
      "start": 4.1667,
      "end": 4.4115,
      "duration": 0.2448,
      "velocity": 73,
      "instrument": 0,
      "instrument_name": "Acoustic Grand Piano",
      "is_drum": false
    },
    {
      "pitch": 64,
      "start": 4.5833,
      "end": 4.8351,
      "duration": 0.2517,
      "velocity": 62,
      "instrument": 0,
      "instrument_name": "Acoustic Grand Piano",
      "is_drum": false
    },
    {
      "pitch": 48,
      "start": 4.5833,
      "end": 4.6424,
      "duration": 0.059,
      "velocity": 54,
      "instrument": 0,
      "instrument_name": "Acoustic Grand Piano",
      "is_drum": false
    },
    {
      "pitch": 55,
      "start": 4.5833,
      "end": 4.6476,
      "duration": 0.0642,
      "velocity": 68,
      "instrument": 0,
      "instrument_name": "Acoustic Grand Piano",
      "is_drum": false
    },
    {
      "pitch": 64,
      "start": 5.0,
      "end": 6.7187,
      "duration": 1.7187,
      "velocity": 62,
      "instrument": 0,
      "instrument_name": "Acoustic Grand Piano",
      "is_drum": false
    },
    {
      "pitch": 60,
      "start": 5.0,
      "end": 5.4149,
      "duration": 0.4149,
      "velocity": 69,
      "instrument": 0,
      "instrument_name": "Acoustic Grand Piano",
      "is_drum": false
    },
    {
      "pitch": 55,
      "start": 5.0,
      "end": 5.4167,
      "duration": 0.4167,
      "velocity": 55,
      "instrument": 0,
      "instrument_name": "Acoustic Grand Piano",
      "is_drum": false
    },
    {
      "pitch": 64,
      "start": 5.0,
      "end": 5.4288,
      "duration": 0.4288,
      "velocity": 65,
      "instrument": 0,
      "instrument_name": "Acoustic Grand Piano",
      "is_drum": false
    },
    {
      "pitch": 48,
      "start": 5.0,
      "end": 6.6667,
      "duration": 1.6667,
      "velocity": 50,
      "instrument": 0,
      "instrument_name": "Acoustic Grand Piano",
      "is_drum": false
    },
    {
      "pitch": 55,
      "start": 5.8333,
      "end": 6.2205,
      "duration": 0.3872,
      "velocity": 64,
      "instrument": 0,
      "instrument_name": "Acoustic Grand Piano",
      "is_drum": false
    },
    {
      "pitch": 60,
      "start": 5.8333,
      "end": 6.2656,
      "duration": 0.4323,
      "velocity": 80,
      "instrument": 0,
      "instrument_name": "Acoustic Grand Piano",
      "is_drum": false
    },
    {
      "pitch": 64,
      "start": 5.8333,
      "end": 6.2726,
      "duration": 0.4392,
      "velocity": 69,
      "instrument": 0,
      "instrument_name": "Acoustic Grand Piano",
      "is_drum": false
    },
    {
      "pitch": 59,
      "start": 6.6667,
      "end": 7.1424,
      "duration": 0.4757,
      "velocity": 79,
      "instrument": 0,
      "instrument_name": "Acoustic Grand Piano",
      "is_drum": false
    },
    {
      "pitch": 57,
      "start": 6.6667,
      "end": 7.1458,
      "duration": 0.4792,
      "velocity": 77,
      "instrument": 0,
      "instrument_name": "Acoustic Grand Piano",
      "is_drum": false
    },
    {
      "pitch": 64,
      "start": 6.6667,
      "end": 7.1458,
      "duration": 0.4792,
      "velocity": 75,
      "instrument": 0,
      "instrument_name": "Acoustic Grand Piano",
      "is_drum": false
    },
    {
      "pitch": 47,
      "start": 6.6667,
      "end": 8.3229,
      "duration": 1.6562,
      "velocity": 60,
      "instrument": 0,
      "instrument_name": "Acoustic Grand Piano",
      "is_drum": false
    },
    {
      "pitch": 64,
      "start": 7.5,
      "end": 7.8958,
      "duration": 0.3958,
      "velocity": 74,
      "instrument": 0,
      "instrument_name": "Acoustic Grand Piano",
      "is_drum": false
    },
    {
      "pitch": 64,
      "start": 7.5,
      "end": 7.7691,
      "duration": 0.2691,
      "velocity": 74,
      "instrument": 0,
      "instrument_name": "Acoustic Grand Piano",
      "is_drum": false
    },
    {
      "pitch": 59,
      "start": 7.5,
      "end": 7.8125,
      "duration": 0.3125,
      "velocity": 79,
      "instrument": 0,
      "instrument_name": "Acoustic Grand Piano",
      "is_drum": false
    },
    {
      "pitch": 57,
      "start": 7.5,
      "end": 7.8194,
      "duration": 0.3194,
      "velocity": 74,
      "instrument": 0,
      "instrument_name": "Acoustic Grand Piano",
      "is_drum": false
    },
    {
      "pitch": 62,
      "start": 7.9167,
      "end": 8.151,
      "duration": 0.2344,
      "velocity": 39,
      "instrument": 0,
      "instrument_name": "Acoustic Grand Piano",
      "is_drum": false
    },
    {
      "pitch": 65,
      "start": 8.125,
      "end": 8.7969,
      "duration": 0.6719,
      "velocity": 62,
      "instrument": 0,
      "instrument_name": "Acoustic Grand Piano",
      "is_drum": false
    },
    {
      "pitch": 56,
      "start": 8.3333,
      "end": 8.809,
      "duration": 0.4757,
      "velocity": 70,
      "instrument": 0,
      "instrument_name": "Acoustic Grand Piano",
      "is_drum": false
    },
    {
      "pitch": 65,
      "start": 8.3333,
      "end": 8.842,
      "duration": 0.5087,
      "velocity": 80,
      "instrument": 0,
      "instrument_name": "Acoustic Grand Piano",
      "is_drum": false
    },
    {
      "pitch": 59,
      "start": 8.3333,
      "end": 8.8437,
      "duration": 0.5104,
      "velocity": 68,
      "instrument": 0,
      "instrument_name": "Acoustic Grand Piano",
      "is_drum": false
    },
    {
      "pitch": 52,
      "start": 8.3333,
      "end": 9.4757,
      "duration": 1.1424,
      "velocity": 62,
      "instrument": 0,
      "instrument_name": "Acoustic Grand Piano",
      "is_drum": false
    },
    {
      "pitch": 64,
      "start": 8.75,
      "end": 8.9635,
      "duration": 0.2135,
      "velocity": 59,
      "instrument": 0,
      "instrument_name": "Acoustic Grand Piano",
      "is_drum": false
    },
    {
      "pitch": 62,
      "start": 8.9583,
      "end": 9.3837,
      "duration": 0.4253,
      "velocity": 62,
      "instrument": 0,
      "instrument_name": "Acoustic Grand Piano",
      "is_drum": false
    },
    {
      "pitch": 56,
      "start": 9.1667,
      "end": 9.4931,
      "duration": 0.3264,
      "velocity": 65,
      "instrument": 0,
      "instrument_name": "Acoustic Grand Piano",
      "is_drum": false
    },
    {
      "pitch": 59,
      "start": 9.1667,
      "end": 9.5087,
      "duration": 0.342,
      "velocity": 68,
      "instrument": 0,
      "instrument_name": "Acoustic Grand Piano",
      "is_drum": false
    },
    {
      "pitch": 64,
      "start": 9.1667,
      "end": 9.5312,
      "duration": 0.3646,
      "velocity": 62,
      "instrument": 0,
      "instrument_name": "Acoustic Grand Piano",
      "is_drum": false
    },
    {
      "pitch": 60,
      "start": 9.375,
      "end": 9.7934,
      "duration": 0.4184,
      "velocity": 76,
      "instrument": 0,
      "instrument_name": "Acoustic Grand Piano",
      "is_drum": false
    },
    {
      "pitch": 62,
      "start": 9.7917,
      "end": 10.9913,
      "duration": 1.1997,
      "velocity": 75,
      "instrument": 0,
      "instrument_name": "Acoustic Grand Piano",
      "is_drum": false
    },
    {
      "pitch": 62,
      "start": 10.0,
      "end": 10.4028,
      "duration": 0.4028,
      "velocity": 81,
      "instrument": 0,
      "instrument_name": "Acoustic Grand Piano",
      "is_drum": false
    },
    {
      "pitch": 55,
      "start": 10.0,
      "end": 10.4045,
      "duration": 0.4045,
      "velocity": 67,
      "instrument": 0,
      "instrument_name": "Acoustic Grand Piano",
      "is_drum": false
    },
    {
      "pitch": 59,
      "start": 10.0,
      "end": 10.4132,
      "duration": 0.4132,
      "velocity": 67,
      "instrument": 0,
      "instrument_name": "Acoustic Grand Piano",
      "is_drum": false
    },
    {
      "pitch": 45,
      "start": 10.0,
      "end": 10.816,
      "duration": 0.816,
      "velocity": 66,
      "instrument": 0,
      "instrument_name": "Acoustic Grand Piano",
      "is_drum": false
    },
    {
      "pitch": 55,
      "start": 10.8333,
      "end": 11.224,
      "duration": 0.3906,
      "velocity": 62,
      "instrument": 0,
      "instrument_name": "Acoustic Grand Piano",
      "is_drum": false
    },
    {
      "pitch": 59,
      "start": 10.8333,
      "end": 11.2326,
      "duration": 0.3993,
      "velocity": 65,
      "instrument": 0,
      "instrument_name": "Acoustic Grand Piano",
      "is_drum": false
    },
    {
      "pitch": 62,
      "start": 10.8333,
      "end": 11.2361,
      "duration": 0.4028,
      "velocity": 73,
      "instrument": 0,
      "instrument_name": "Acoustic Grand Piano",
      "is_drum": false
    },
    {
      "pitch": 64,
      "start": 11.25,
      "end": 11.3281,
      "duration": 0.0781,
      "velocity": 56,
      "instrument": 0,
      "instrument_name": "Acoustic Grand Piano",
      "is_drum": false
    },
    {
      "pitch": 45,
      "start": 11.25,
      "end": 11.3038,
      "duration": 0.0538,
      "velocity": 60,
      "instrument": 0,
      "instrument_name": "Acoustic Grand Piano",
      "is_drum": false
    },
    {
      "pitch": 64,
      "start": 11.4583,
      "end": 13.3108,
      "duration": 1.8524,
      "velocity": 60,
      "instrument": 0,
      "instrument_name": "Acoustic Grand Piano",
      "is_drum": false
    },
    {
      "pitch": 64,
      "start": 11.6667,
      "end": 12.151,
      "duration": 0.4844,
      "velocity": 70,
      "instrument": 0,
      "instrument_name": "Acoustic Grand Piano",
      "is_drum": false
    },
    {
      "pitch": 55,
      "start": 11.6667,
      "end": 12.158,
      "duration": 0.4913,
      "velocity": 58,
      "instrument": 0,
      "instrument_name": "Acoustic Grand Piano",
      "is_drum": false
    },
    {
      "pitch": 60,
      "start": 11.6667,
      "end": 12.1615,
      "duration": 0.4948,
      "velocity": 70,
      "instrument": 0,
      "instrument_name": "Acoustic Grand Piano",
      "is_drum": false
    },
    {
      "pitch": 45,
      "start": 11.6667,
      "end": 13.2656,
      "duration": 1.599,
      "velocity": 68,
      "instrument": 0,
      "instrument_name": "Acoustic Grand Piano",
      "is_drum": false
    },
    {
      "pitch": 55,
      "start": 12.5,
      "end": 12.9583,
      "duration": 0.4583,
      "velocity": 74,
      "instrument": 0,
      "instrument_name": "Acoustic Grand Piano",
      "is_drum": false
    },
    {
      "pitch": 60,
      "start": 12.5,
      "end": 12.9583,
      "duration": 0.4583,
      "velocity": 80,
      "instrument": 0,
      "instrument_name": "Acoustic Grand Piano",
      "is_drum": false
    },
    {
      "pitch": 64,
      "start": 12.5,
      "end": 12.9931,
      "duration": 0.4931,
      "velocity": 80,
      "instrument": 0,
      "instrument_name": "Acoustic Grand Piano",
      "is_drum": false
    },
    {
      "pitch": 65,
      "start": 13.3333,
      "end": 13.6528,
      "duration": 0.3194,
      "velocity": 72,
      "instrument": 0,
      "instrument_name": "Acoustic Grand Piano",
      "is_drum": false
    },
    {
      "pitch": 62,
      "start": 13.3333,
      "end": 13.658,
      "duration": 0.3247,
      "velocity": 63,
      "instrument": 0,
      "instrument_name": "Acoustic Grand Piano",
      "is_drum": false
    },
    {
      "pitch": 58,
      "start": 13.3333,
      "end": 13.6719,
      "duration": 0.3385,
      "velocity": 63,
      "instrument": 0,
      "instrument_name": "Acoustic Grand Piano",
      "is_drum": false
    },
    {
      "pitch": 31,
      "start": 13.3333,
      "end": 14.4635,
      "duration": 1.1302,
      "velocity": 57,
      "instrument": 0,
      "instrument_name": "Acoustic Grand Piano",
      "is_drum": false
    },
    {
      "pitch": 64,
      "start": 14.1667,
      "end": 14.6233,
      "duration": 0.4566,
      "velocity": 73,
      "instrument": 0,
      "instrument_name": "Acoustic Grand Piano",
      "is_drum": false
    },
    {
      "pitch": 55,
      "start": 14.1667,
      "end": 14.4983,
      "duration": 0.3316,
      "velocity": 67,
      "instrument": 0,
      "instrument_name": "Acoustic Grand Piano",
      "is_drum": false
    },
    {
      "pitch": 60,
      "start": 14.1667,
      "end": 14.5069,
      "duration": 0.3403,
      "velocity": 69,
      "instrument": 0,
      "instrument_name": "Acoustic Grand Piano",
      "is_drum": false
    },
    {
      "pitch": 64,
      "start": 14.1667,
      "end": 14.5521,
      "duration": 0.3854,
      "velocity": 74,
      "instrument": 0,
      "instrument_name": "Acoustic Grand Piano",
      "is_drum": false
    },
    {
      "pitch": 62,
      "start": 14.5833,
      "end": 14.7726,
      "duration": 0.1892,
      "velocity": 49,
      "instrument": 0,
      "instrument_name": "Acoustic Grand Piano",
      "is_drum": false
    },
    {
      "pitch": 65,
      "start": 14.7917,
      "end": 15.4514,
      "duration": 0.6597,
      "velocity": 62,
      "instrument": 0,
      "instrument_name": "Acoustic Grand Piano",
      "is_drum": false
    },
    {
      "pitch": 58,
      "start": 15.0,
      "end": 15.3906,
      "duration": 0.3906,
      "velocity": 62,
      "instrument": 0,
      "instrument_name": "Acoustic Grand Piano",
      "is_drum": false
    },
    {
      "pitch": 62,
      "start": 15.0,
      "end": 15.3941,
      "duration": 0.3941,
      "velocity": 55,
      "instrument": 0,
      "instrument_name": "Acoustic Grand Piano",
      "is_drum": false
    },
    {
      "pitch": 65,
      "start": 15.0,
      "end": 15.4184,
      "duration": 0.4184,
      "velocity": 68,
      "instrument": 0,
      "instrument_name": "Acoustic Grand Piano",
      "is_drum": false
    },
    {
      "pitch": 36,
      "start": 15.0,
      "end": 16.3663,
      "duration": 1.3663,
      "velocity": 55,
      "instrument": 0,
      "instrument_name": "Acoustic Grand Piano",
      "is_drum": false
    },
    {
      "pitch": 64,
      "start": 15.4167,
      "end": 15.6163,
      "duration": 0.1997,
      "velocity": 60,
      "instrument": 0,
      "instrument_name": "Acoustic Grand Piano",
      "is_drum": false
    },
    {
      "pitch": 62,
      "start": 15.625,
      "end": 16.0139,
      "duration": 0.3889,
      "velocity": 62,
      "instrument": 0,
      "instrument_name": "Acoustic Grand Piano",
      "is_drum": false
    },
    {
      "pitch": 60,
      "start": 15.8333,
      "end": 16.2569,
      "duration": 0.4236,
      "velocity": 67,
      "instrument": 0,
      "instrument_name": "Acoustic Grand Piano",
      "is_drum": false
    },
    {
      "pitch": 67,
      "start": 15.8333,
      "end": 16.2621,
      "duration": 0.4288,
      "velocity": 69,
      "instrument": 0,
      "instrument_name": "Acoustic Grand Piano",
      "is_drum": false
    },
    {
      "pitch": 64,
      "start": 15.8333,
      "end": 16.2726,
      "duration": 0.4392,
      "velocity": 59,
      "instrument": 0,
      "instrument_name": "Acoustic Grand Piano",
      "is_drum": false
    },
    {
      "pitch": 60,
      "start": 16.0417,
      "end": 16.4687,
      "duration": 0.4271,
      "velocity": 76,
      "instrument": 0,
      "instrument_name": "Acoustic Grand Piano",
      "is_drum": false
    },
    {
      "pitch": 67,
      "start": 16.4583,
      "end": 17.8871,
      "duration": 1.4288,
      "velocity": 75,
      "instrument": 0,
      "instrument_name": "Acoustic Grand Piano",
      "is_drum": false
    },
    {
      "pitch": 60,
      "start": 16.6667,
      "end": 17.151,
      "duration": 0.4844,
      "velocity": 69,
      "instrument": 0,
      "instrument_name": "Acoustic Grand Piano",
      "is_drum": false
    },
    {
      "pitch": 65,
      "start": 16.6667,
      "end": 17.151,
      "duration": 0.4844,
      "velocity": 68,
      "instrument": 0,
      "instrument_name": "Acoustic Grand Piano",
      "is_drum": false
    },
    {
      "pitch": 67,
      "start": 16.6667,
      "end": 17.1545,
      "duration": 0.4878,
      "velocity": 61,
      "instrument": 0,
      "instrument_name": "Acoustic Grand Piano",
      "is_drum": false
    },
    {
      "pitch": 41,
      "start": 16.6667,
      "end": 17.5764,
      "duration": 0.9097,
      "velocity": 56,
      "instrument": 0,
      "instrument_name": "Acoustic Grand Piano",
      "is_drum": false
    },
    {
      "pitch": 65,
      "start": 17.5,
      "end": 17.9635,
      "duration": 0.4635,
      "velocity": 65,
      "instrument": 0,
      "instrument_name": "Acoustic Grand Piano",
      "is_drum": false
    },
    {
      "pitch": 60,
      "start": 17.5,
      "end": 17.967,
      "duration": 0.467,
      "velocity": 60,
      "instrument": 0,
      "instrument_name": "Acoustic Grand Piano",
      "is_drum": false
    },
    {
      "pitch": 67,
      "start": 17.5,
      "end": 17.9722,
      "duration": 0.4722,
      "velocity": 67,
      "instrument": 0,
      "instrument_name": "Acoustic Grand Piano",
      "is_drum": false
    },
    {
      "pitch": 69,
      "start": 17.9167,
      "end": 18.0243,
      "duration": 0.1076,
      "velocity": 65,
      "instrument": 0,
      "instrument_name": "Acoustic Grand Piano",
      "is_drum": false
    },
    {
      "pitch": 41,
      "start": 17.9167,
      "end": 17.9687,
      "duration": 0.0521,
      "velocity": 50,
      "instrument": 0,
      "instrument_name": "Acoustic Grand Piano",
      "is_drum": false
    },
    {
      "pitch": 69,
      "start": 18.125,
      "end": 19.9583,
      "duration": 1.8333,
      "velocity": 71,
      "instrument": 0,
      "instrument_name": "Acoustic Grand Piano",
      "is_drum": false
    },
    {
      "pitch": 65,
      "start": 18.3333,
      "end": 18.7969,
      "duration": 0.4635,
      "velocity": 59,
      "instrument": 0,
      "instrument_name": "Acoustic Grand Piano",
      "is_drum": false
    },
    {
      "pitch": 60,
      "start": 18.3333,
      "end": 18.8021,
      "duration": 0.4687,
      "velocity": 60,
      "instrument": 0,
      "instrument_name": "Acoustic Grand Piano",
      "is_drum": false
    },
    {
      "pitch": 69,
      "start": 18.3333,
      "end": 18.8073,
      "duration": 0.474,
      "velocity": 71,
      "instrument": 0,
      "instrument_name": "Acoustic Grand Piano",
      "is_drum": false
    },
    {
      "pitch": 41,
      "start": 18.3333,
      "end": 19.2413,
      "duration": 0.908,
      "velocity": 62,
      "instrument": 0,
      "instrument_name": "Acoustic Grand Piano",
      "is_drum": false
    },
    {
      "pitch": 65,
      "start": 19.1667,
      "end": 19.5365,
      "duration": 0.3698,
      "velocity": 68,
      "instrument": 0,
      "instrument_name": "Acoustic Grand Piano",
      "is_drum": false
    },
    {
      "pitch": 60,
      "start": 19.1667,
      "end": 19.5608,
      "duration": 0.3941,
      "velocity": 68,
      "instrument": 0,
      "instrument_name": "Acoustic Grand Piano",
      "is_drum": false
    },
    {
      "pitch": 69,
      "start": 19.1667,
      "end": 19.5642,
      "duration": 0.3976,
      "velocity": 74,
      "instrument": 0,
      "instrument_name": "Acoustic Grand Piano",
      "is_drum": false
    },
    {
      "pitch": 41,
      "start": 19.5833,
      "end": 19.6354,
      "duration": 0.0521,
      "velocity": 56,
      "instrument": 0,
      "instrument_name": "Acoustic Grand Piano",
      "is_drum": false
    },
    {
      "pitch": 69,
      "start": 20.0,
      "end": 20.4323,
      "duration": 0.4323,
      "velocity": 72,
      "instrument": 0,
      "instrument_name": "Acoustic Grand Piano",
      "is_drum": false
    },
    {
      "pitch": 65,
      "start": 20.0,
      "end": 20.434,
      "duration": 0.434,
      "velocity": 58,
      "instrument": 0,
      "instrument_name": "Acoustic Grand Piano",
      "is_drum": false
    },
    {
      "pitch": 62,
      "start": 20.0,
      "end": 20.434,
      "duration": 0.434,
      "velocity": 65,
      "instrument": 0,
      "instrument_name": "Acoustic Grand Piano",
      "is_drum": false
    },
    {
      "pitch": 59,
      "start": 20.0,
      "end": 20.4358,
      "duration": 0.4358,
      "velocity": 58,
      "instrument": 0,
      "instrument_name": "Acoustic Grand Piano",
      "is_drum": false
    },
    {
      "pitch": 41,
      "start": 20.0,
      "end": 20.8507,
      "duration": 0.8507,
      "velocity": 52,
      "instrument": 0,
      "instrument_name": "Acoustic Grand Piano",
      "is_drum": false
    },
    {
      "pitch": 65,
      "start": 20.8333,
      "end": 21.2344,
      "duration": 0.401,
      "velocity": 65,
      "instrument": 0,
      "instrument_name": "Acoustic Grand Piano",
      "is_drum": false
    },
    {
      "pitch": 62,
      "start": 20.8333,
      "end": 21.2396,
      "duration": 0.4062,
      "velocity": 70,
      "instrument": 0,
      "instrument_name": "Acoustic Grand Piano",
      "is_drum": false
    },
    {
      "pitch": 69,
      "start": 20.8333,
      "end": 21.2396,
      "duration": 0.4062,
      "velocity": 73,
      "instrument": 0,
      "instrument_name": "Acoustic Grand Piano",
      "is_drum": false
    },
    {
      "pitch": 59,
      "start": 20.8333,
      "end": 21.2413,
      "duration": 0.408,
      "velocity": 57,
      "instrument": 0,
      "instrument_name": "Acoustic Grand Piano",
      "is_drum": false
    },
    {
      "pitch": 62,
      "start": 21.25,
      "end": 21.3142,
      "duration": 0.0642,
      "velocity": 69,
      "instrument": 0,
      "instrument_name": "Acoustic Grand Piano",
      "is_drum": false
    },
    {
      "pitch": 41,
      "start": 21.25,
      "end": 23.3333,
      "duration": 2.0833,
      "velocity": 59,
      "instrument": 0,
      "instrument_name": "Acoustic Grand Piano",
      "is_drum": false
    },
    {
      "pitch": 62,
      "start": 21.4583,
      "end": 22.0903,
      "duration": 0.6319,
      "velocity": 77,
      "instrument": 0,
      "instrument_name": "Acoustic Grand Piano",
      "is_drum": false
    },
    {
      "pitch": 69,
      "start": 21.6667,
      "end": 22.6684,
      "duration": 1.0017,
      "velocity": 73,
      "instrument": 0,
      "instrument_name": "Acoustic Grand Piano",
      "is_drum": false
    },
    {
      "pitch": 65,
      "start": 21.6667,
      "end": 22.7969,
      "duration": 1.1302,
      "velocity": 62,
      "instrument": 0,
      "instrument_name": "Acoustic Grand Piano",
      "is_drum": false
    },
    {
      "pitch": 62,
      "start": 21.6667,
      "end": 22.8073,
      "duration": 1.1406,
      "velocity": 67,
      "instrument": 0,
      "instrument_name": "Acoustic Grand Piano",
      "is_drum": false
    },
    {
      "pitch": 59,
      "start": 21.6667,
      "end": 22.8108,
      "duration": 1.1441,
      "velocity": 60,
      "instrument": 0,
      "instrument_name": "Acoustic Grand Piano",
      "is_drum": false
    },
    {
      "pitch": 60,
      "start": 22.0833,
      "end": 22.3038,
      "duration": 0.2205,
      "velocity": 64,
      "instrument": 0,
      "instrument_name": "Acoustic Grand Piano",
      "is_drum": false
    },
    {
      "pitch": 59,
      "start": 22.2917,
      "end": 22.6146,
      "duration": 0.3229,
      "velocity": 61,
      "instrument": 0,
      "instrument_name": "Acoustic Grand Piano",
      "is_drum": false
    },
    {
      "pitch": 69,
      "start": 22.7083,
      "end": 23.0955,
      "duration": 0.3872,
      "velocity": 81,
      "instrument": 0,
      "instrument_name": "Acoustic Grand Piano",
      "is_drum": false
    },
    {
      "pitch": 67,
      "start": 23.125,
      "end": 23.75,
      "duration": 0.625,
      "velocity": 55,
      "instrument": 0,
      "instrument_name": "Acoustic Grand Piano",
      "is_drum": false
    },
    {
      "pitch": 58,
      "start": 23.3333,
      "end": 23.6858,
      "duration": 0.3524,
      "velocity": 55,
      "instrument": 0,
      "instrument_name": "Acoustic Grand Piano",
      "is_drum": false
    },
    {
      "pitch": 62,
      "start": 23.3333,
      "end": 23.6962,
      "duration": 0.3628,
      "velocity": 50,
      "instrument": 0,
      "instrument_name": "Acoustic Grand Piano",
      "is_drum": false
    },
    {
      "pitch": 67,
      "start": 23.3333,
      "end": 23.6996,
      "duration": 0.3663,
      "velocity": 58,
      "instrument": 0,
      "instrument_name": "Acoustic Grand Piano",
      "is_drum": false
    },
    {
      "pitch": 52,
      "start": 23.3333,
      "end": 24.1128,
      "duration": 0.7795,
      "velocity": 47,
      "instrument": 0,
      "instrument_name": "Acoustic Grand Piano",
      "is_drum": false
    },
    {
      "pitch": 67,
      "start": 23.75,
      "end": 25.0486,
      "duration": 1.2986,
      "velocity": 55,
      "instrument": 0,
      "instrument_name": "Acoustic Grand Piano",
      "is_drum": false
    },
    {
      "pitch": 67,
      "start": 24.1667,
      "end": 24.5121,
      "duration": 0.3455,
      "velocity": 62,
      "instrument": 0,
      "instrument_name": "Acoustic Grand Piano",
      "is_drum": false
    },
    {
      "pitch": 62,
      "start": 24.1667,
      "end": 24.5364,
      "duration": 0.3698,
      "velocity": 58,
      "instrument": 0,
      "instrument_name": "Acoustic Grand Piano",
      "is_drum": false
    },
    {
      "pitch": 58,
      "start": 24.1667,
      "end": 24.5694,
      "duration": 0.4028,
      "velocity": 59,
      "instrument": 0,
      "instrument_name": "Acoustic Grand Piano",
      "is_drum": false
    },
    {
      "pitch": 52,
      "start": 24.5833,
      "end": 24.7309,
      "duration": 0.1476,
      "velocity": 49,
      "instrument": 0,
      "instrument_name": "Acoustic Grand Piano",
      "is_drum": false
    },
    {
      "pitch": 65,
      "start": 25.0,
      "end": 25.4427,
      "duration": 0.4427,
      "velocity": 68,
      "instrument": 0,
      "instrument_name": "Acoustic Grand Piano",
      "is_drum": false
    },
    {
      "pitch": 61,
      "start": 25.0,
      "end": 25.4462,
      "duration": 0.4462,
      "velocity": 58,
      "instrument": 0,
      "instrument_name": "Acoustic Grand Piano",
      "is_drum": false
    },
    {
      "pitch": 57,
      "start": 25.0,
      "end": 25.4531,
      "duration": 0.4531,
      "velocity": 62,
      "instrument": 0,
      "instrument_name": "Acoustic Grand Piano",
      "is_drum": false
    },
    {
      "pitch": 45,
      "start": 25.0,
      "end": 26.2639,
      "duration": 1.2639,
      "velocity": 47,
      "instrument": 0,
      "instrument_name": "Acoustic Grand Piano",
      "is_drum": false
    },
    {
      "pitch": 61,
      "start": 25.8333,
      "end": 26.1753,
      "duration": 0.342,
      "velocity": 61,
      "instrument": 0,
      "instrument_name": "Acoustic Grand Piano",
      "is_drum": false
    },
    {
      "pitch": 64,
      "start": 25.8333,
      "end": 26.1823,
      "duration": 0.349,
      "velocity": 68,
      "instrument": 0,
      "instrument_name": "Acoustic Grand Piano",
      "is_drum": false
    },
    {
      "pitch": 57,
      "start": 25.8333,
      "end": 26.2396,
      "duration": 0.4062,
      "velocity": 68,
      "instrument": 0,
      "instrument_name": "Acoustic Grand Piano",
      "is_drum": false
    },
    {
      "pitch": 64,
      "start": 26.4583,
      "end": 26.658,
      "duration": 0.1997,
      "velocity": 76,
      "instrument": 0,
      "instrument_name": "Acoustic Grand Piano",
      "is_drum": false
    },
    {
      "pitch": 65,
      "start": 26.6667,
      "end": 27.0625,
      "duration": 0.3958,
      "velocity": 65,
      "instrument": 0,
      "instrument_name": "Acoustic Grand Piano",
      "is_drum": false
    },
    {
      "pitch": 57,
      "start": 26.6667,
      "end": 27.0538,
      "duration": 0.3872,
      "velocity": 59,
      "instrument": 0,
      "instrument_name": "Acoustic Grand Piano",
      "is_drum": false
    },
    {
      "pitch": 60,
      "start": 26.6667,
      "end": 27.0608,
      "duration": 0.3941,
      "velocity": 76,
      "instrument": 0,
      "instrument_name": "Acoustic Grand Piano",
      "is_drum": false
    },
    {
      "pitch": 53,
      "start": 26.6667,
      "end": 27.0625,
      "duration": 0.3958,
      "velocity": 57,
      "instrument": 0,
      "instrument_name": "Acoustic Grand Piano",
      "is_drum": false
    },
    {
      "pitch": 50,
      "start": 26.6667,
      "end": 27.4566,
      "duration": 0.7899,
      "velocity": 49,
      "instrument": 0,
      "instrument_name": "Acoustic Grand Piano",
      "is_drum": false
    },
    {
      "pitch": 67,
      "start": 27.0833,
      "end": 27.2934,
      "duration": 0.2101,
      "velocity": 65,
      "instrument": 0,
      "instrument_name": "Acoustic Grand Piano",
      "is_drum": false
    },
    {
      "pitch": 64,
      "start": 27.2917,
      "end": 27.6059,
      "duration": 0.3142,
      "velocity": 57,
      "instrument": 0,
      "instrument_name": "Acoustic Grand Piano",
      "is_drum": false
    },
    {
      "pitch": 53,
      "start": 27.5,
      "end": 27.8403,
      "duration": 0.3403,
      "velocity": 67,
      "instrument": 0,
      "instrument_name": "Acoustic Grand Piano",
      "is_drum": false
    },
    {
      "pitch": 57,
      "start": 27.5,
      "end": 27.8628,
      "duration": 0.3628,
      "velocity": 68,
      "instrument": 0,
      "instrument_name": "Acoustic Grand Piano",
      "is_drum": false
    },
    {
      "pitch": 60,
      "start": 27.5,
      "end": 27.8889,
      "duration": 0.3889,
      "velocity": 80,
      "instrument": 0,
      "instrument_name": "Acoustic Grand Piano",
      "is_drum": false
    },
    {
      "pitch": 65,
      "start": 27.7083,
      "end": 28.1163,
      "duration": 0.408,
      "velocity": 72,
      "instrument": 0,
      "instrument_name": "Acoustic Grand Piano",
      "is_drum": false
    },
    {
      "pitch": 50,
      "start": 27.9167,
      "end": 28.2951,
      "duration": 0.3785,
      "velocity": 52,
      "instrument": 0,
      "instrument_name": "Acoustic Grand Piano",
      "is_drum": false
    },
    {
      "pitch": 64,
      "start": 28.125,
      "end": 28.3403,
      "duration": 0.2153,
      "velocity": 58,
      "instrument": 0,
      "instrument_name": "Acoustic Grand Piano",
      "is_drum": false
    },
    {
      "pitch": 62,
      "start": 28.3333,
      "end": 28.7187,
      "duration": 0.3854,
      "velocity": 59,
      "instrument": 0,
      "instrument_name": "Acoustic Grand Piano",
      "is_drum": false
    },
    {
      "pitch": 62,
      "start": 28.3333,
      "end": 28.6979,
      "duration": 0.3646,
      "velocity": 66,
      "instrument": 0,
      "instrument_name": "Acoustic Grand Piano",
      "is_drum": false
    },
    {
      "pitch": 67,
      "start": 28.3333,
      "end": 28.7031,
      "duration": 0.3698,
      "velocity": 66,
      "instrument": 0,
      "instrument_name": "Acoustic Grand Piano",
      "is_drum": false
    },
    {
      "pitch": 60,
      "start": 28.3333,
      "end": 28.7413,
      "duration": 0.408,
      "velocity": 58,
      "instrument": 0,
      "instrument_name": "Acoustic Grand Piano",
      "is_drum": false
    },
    {
      "pitch": 43,
      "start": 28.3333,
      "end": 29.5469,
      "duration": 1.2135,
      "velocity": 49,
      "instrument": 0,
      "instrument_name": "Acoustic Grand Piano",
      "is_drum": false
    },
    {
      "pitch": 55,
      "start": 28.75,
      "end": 29.1667,
      "duration": 0.4167,
      "velocity": 68,
      "instrument": 0,
      "instrument_name": "Acoustic Grand Piano",
      "is_drum": false
    },
    {
      "pitch": 59,
      "start": 29.1667,
      "end": 29.5729,
      "duration": 0.4062,
      "velocity": 76,
      "instrument": 0,
      "instrument_name": "Acoustic Grand Piano",
      "is_drum": false
    },
    {
      "pitch": 59,
      "start": 29.1667,
      "end": 29.5191,
      "duration": 0.3524,
      "velocity": 68,
      "instrument": 0,
      "instrument_name": "Acoustic Grand Piano",
      "is_drum": false
    },
    {
      "pitch": 55,
      "start": 29.1667,
      "end": 29.5278,
      "duration": 0.3611,
      "velocity": 70,
      "instrument": 0,
      "instrument_name": "Acoustic Grand Piano",
      "is_drum": false
    },
    {
      "pitch": 60,
      "start": 29.5833,
      "end": 29.7847,
      "duration": 0.2014,
      "velocity": 68,
      "instrument": 0,
      "instrument_name": "Acoustic Grand Piano",
      "is_drum": false
    },
    {
      "pitch": 62,
      "start": 29.7917,
      "end": 31.2222,
      "duration": 1.4306,
      "velocity": 50,
      "instrument": 0,
      "instrument_name": "Acoustic Grand Piano",
      "is_drum": false
    },
    {
      "pitch": 36,
      "start": 30.0,
      "end": 30.3385,
      "duration": 0.3385,
      "velocity": 50,
      "instrument": 0,
      "instrument_name": "Acoustic Grand Piano",
      "is_drum": false
    },
    {
      "pitch": 60,
      "start": 30.0,
      "end": 30.3837,
      "duration": 0.3837,
      "velocity": 68,
      "instrument": 0,
      "instrument_name": "Acoustic Grand Piano",
      "is_drum": false
    },
    {
      "pitch": 55,
      "start": 30.0,
      "end": 30.3871,
      "duration": 0.3872,
      "velocity": 65,
      "instrument": 0,
      "instrument_name": "Acoustic Grand Piano",
      "is_drum": false
    },
    {
      "pitch": 62,
      "start": 30.0,
      "end": 30.3871,
      "duration": 0.3872,
      "velocity": 67,
      "instrument": 0,
      "instrument_name": "Acoustic Grand Piano",
      "is_drum": false
    },
    {
      "pitch": 43,
      "start": 30.4167,
      "end": 30.8246,
      "duration": 0.408,
      "velocity": 58,
      "instrument": 0,
      "instrument_name": "Acoustic Grand Piano",
      "is_drum": false
    },
    {
      "pitch": 50,
      "start": 30.8333,
      "end": 31.243,
      "duration": 0.4097,
      "velocity": 69,
      "instrument": 0,
      "instrument_name": "Acoustic Grand Piano",
      "is_drum": false
    },
    {
      "pitch": 55,
      "start": 30.8333,
      "end": 31.2639,
      "duration": 0.4306,
      "velocity": 72,
      "instrument": 0,
      "instrument_name": "Acoustic Grand Piano",
      "is_drum": false
    },
    {
      "pitch": 60,
      "start": 30.8333,
      "end": 31.2673,
      "duration": 0.434,
      "velocity": 79,
      "instrument": 0,
      "instrument_name": "Acoustic Grand Piano",
      "is_drum": false
    },
    {
      "pitch": 62,
      "start": 30.8333,
      "end": 31.2812,
      "duration": 0.4479,
      "velocity": 74,
      "instrument": 0,
      "instrument_name": "Acoustic Grand Piano",
      "is_drum": false
    },
    {
      "pitch": 64,
      "start": 31.25,
      "end": 31.5087,
      "duration": 0.2587,
      "velocity": 64,
      "instrument": 0,
      "instrument_name": "Acoustic Grand Piano",
      "is_drum": false
    },
    {
      "pitch": 43,
      "start": 31.25,
      "end": 31.6753,
      "duration": 0.4253,
      "velocity": 56,
      "instrument": 0,
      "instrument_name": "Acoustic Grand Piano",
      "is_drum": false
    },
    {
      "pitch": 64,
      "start": 31.6667,
      "end": 32.717,
      "duration": 1.0503,
      "velocity": 68,
      "instrument": 0,
      "instrument_name": "Acoustic Grand Piano",
      "is_drum": false
    },
    {
      "pitch": 60,
      "start": 31.6667,
      "end": 32.0989,
      "duration": 0.4323,
      "velocity": 73,
      "instrument": 0,
      "instrument_name": "Acoustic Grand Piano",
      "is_drum": false
    },
    {
      "pitch": 64,
      "start": 31.6667,
      "end": 32.1042,
      "duration": 0.4375,
      "velocity": 70,
      "instrument": 0,
      "instrument_name": "Acoustic Grand Piano",
      "is_drum": false
    },
    {
      "pitch": 55,
      "start": 31.6667,
      "end": 32.1042,
      "duration": 0.4375,
      "velocity": 63,
      "instrument": 0,
      "instrument_name": "Acoustic Grand Piano",
      "is_drum": false
    },
    {
      "pitch": 62,
      "start": 31.6667,
      "end": 32.1215,
      "duration": 0.4549,
      "velocity": 64,
      "instrument": 0,
      "instrument_name": "Acoustic Grand Piano",
      "is_drum": false
    },
    {
      "pitch": 52,
      "start": 31.6667,
      "end": 32.5347,
      "duration": 0.8681,
      "velocity": 69,
      "instrument": 0,
      "instrument_name": "Acoustic Grand Piano",
      "is_drum": false
    },
    {
      "pitch": 60,
      "start": 32.5,
      "end": 32.9705,
      "duration": 0.4705,
      "velocity": 71,
      "instrument": 0,
      "instrument_name": "Acoustic Grand Piano",
      "is_drum": false
    },
    {
      "pitch": 55,
      "start": 32.5,
      "end": 32.9809,
      "duration": 0.4809,
      "velocity": 66,
      "instrument": 0,
      "instrument_name": "Acoustic Grand Piano",
      "is_drum": false
    },
    {
      "pitch": 64,
      "start": 32.5,
      "end": 32.993,
      "duration": 0.4931,
      "velocity": 68,
      "instrument": 0,
      "instrument_name": "Acoustic Grand Piano",
      "is_drum": false
    },
    {
      "pitch": 62,
      "start": 32.5,
      "end": 33.0017,
      "duration": 0.5017,
      "velocity": 66,
      "instrument": 0,
      "instrument_name": "Acoustic Grand Piano",
      "is_drum": false
    },
    {
      "pitch": 48,
      "start": 32.9167,
      "end": 33.2691,
      "duration": 0.3524,
      "velocity": 62,
      "instrument": 0,
      "instrument_name": "Acoustic Grand Piano",
      "is_drum": false
    },
    {
      "pitch": 64,
      "start": 33.3333,
      "end": 33.7048,
      "duration": 0.3715,
      "velocity": 75,
      "instrument": 0,
      "instrument_name": "Acoustic Grand Piano",
      "is_drum": false
    },
    {
      "pitch": 59,
      "start": 33.3333,
      "end": 33.7101,
      "duration": 0.3767,
      "velocity": 71,
      "instrument": 0,
      "instrument_name": "Acoustic Grand Piano",
      "is_drum": false
    },
    {
      "pitch": 57,
      "start": 33.3333,
      "end": 33.7135,
      "duration": 0.3802,
      "velocity": 70,
      "instrument": 0,
      "instrument_name": "Acoustic Grand Piano",
      "is_drum": false
    },
    {
      "pitch": 47,
      "start": 33.3333,
      "end": 34.1476,
      "duration": 0.8142,
      "velocity": 63,
      "instrument": 0,
      "instrument_name": "Acoustic Grand Piano",
      "is_drum": false
    },
    {
      "pitch": 64,
      "start": 34.1667,
      "end": 34.6389,
      "duration": 0.4722,
      "velocity": 68,
      "instrument": 0,
      "instrument_name": "Acoustic Grand Piano",
      "is_drum": false
    },
    {
      "pitch": 64,
      "start": 34.1667,
      "end": 34.5,
      "duration": 0.3333,
      "velocity": 79,
      "instrument": 0,
      "instrument_name": "Acoustic Grand Piano",
      "is_drum": false
    },
    {
      "pitch": 57,
      "start": 34.1667,
      "end": 34.5364,
      "duration": 0.3698,
      "velocity": 75,
      "instrument": 0,
      "instrument_name": "Acoustic Grand Piano",
      "is_drum": false
    },
    {
      "pitch": 59,
      "start": 34.1667,
      "end": 34.5399,
      "duration": 0.3733,
      "velocity": 79,
      "instrument": 0,
      "instrument_name": "Acoustic Grand Piano",
      "is_drum": false
    },
    {
      "pitch": 62,
      "start": 34.5833,
      "end": 34.7812,
      "duration": 0.1979,
      "velocity": 58,
      "instrument": 0,
      "instrument_name": "Acoustic Grand Piano",
      "is_drum": false
    },
    {
      "pitch": 47,
      "start": 34.5833,
      "end": 34.9826,
      "duration": 0.3993,
      "velocity": 66,
      "instrument": 0,
      "instrument_name": "Acoustic Grand Piano",
      "is_drum": false
    },
    {
      "pitch": 65,
      "start": 34.7917,
      "end": 35.3767,
      "duration": 0.5851,
      "velocity": 56,
      "instrument": 0,
      "instrument_name": "Acoustic Grand Piano",
      "is_drum": false
    },
    {
      "pitch": 56,
      "start": 35.0,
      "end": 35.4548,
      "duration": 0.4549,
      "velocity": 64,
      "instrument": 0,
      "instrument_name": "Acoustic Grand Piano",
      "is_drum": false
    },
    {
      "pitch": 59,
      "start": 35.0,
      "end": 35.4774,
      "duration": 0.4774,
      "velocity": 66,
      "instrument": 0,
      "instrument_name": "Acoustic Grand Piano",
      "is_drum": false
    },
    {
      "pitch": 65,
      "start": 35.0,
      "end": 35.4809,
      "duration": 0.4809,
      "velocity": 79,
      "instrument": 0,
      "instrument_name": "Acoustic Grand Piano",
      "is_drum": false
    },
    {
      "pitch": 40,
      "start": 35.0,
      "end": 36.2656,
      "duration": 1.2656,
      "velocity": 57,
      "instrument": 0,
      "instrument_name": "Acoustic Grand Piano",
      "is_drum": false
    },
    {
      "pitch": 64,
      "start": 35.4167,
      "end": 35.6562,
      "duration": 0.2396,
      "velocity": 55,
      "instrument": 0,
      "instrument_name": "Acoustic Grand Piano",
      "is_drum": false
    },
    {
      "pitch": 62,
      "start": 35.625,
      "end": 36.0382,
      "duration": 0.4132,
      "velocity": 60,
      "instrument": 0,
      "instrument_name": "Acoustic Grand Piano",
      "is_drum": false
    },
    {
      "pitch": 64,
      "start": 35.8333,
      "end": 36.1962,
      "duration": 0.3628,
      "velocity": 65,
      "instrument": 0,
      "instrument_name": "Acoustic Grand Piano",
      "is_drum": false
    },
    {
      "pitch": 59,
      "start": 35.8333,
      "end": 36.217,
      "duration": 0.3837,
      "velocity": 68,
      "instrument": 0,
      "instrument_name": "Acoustic Grand Piano",
      "is_drum": false
    },
    {
      "pitch": 56,
      "start": 35.8333,
      "end": 36.2257,
      "duration": 0.3924,
      "velocity": 61,
      "instrument": 0,
      "instrument_name": "Acoustic Grand Piano",
      "is_drum": false
    },
    {
      "pitch": 60,
      "start": 36.0417,
      "end": 36.4357,
      "duration": 0.3941,
      "velocity": 65,
      "instrument": 0,
      "instrument_name": "Acoustic Grand Piano",
      "is_drum": false
    },
    {
      "pitch": 62,
      "start": 36.4583,
      "end": 37.7847,
      "duration": 1.3264,
      "velocity": 70,
      "instrument": 0,
      "instrument_name": "Acoustic Grand Piano",
      "is_drum": false
    },
    {
      "pitch": 62,
      "start": 36.6667,
      "end": 37.1094,
      "duration": 0.4427,
      "velocity": 73,
      "instrument": 0,
      "instrument_name": "Acoustic Grand Piano",
      "is_drum": false
    },
    {
      "pitch": 55,
      "start": 36.6667,
      "end": 37.1128,
      "duration": 0.4462,
      "velocity": 61,
      "instrument": 0,
      "instrument_name": "Acoustic Grand Piano",
      "is_drum": false
    },
    {
      "pitch": 59,
      "start": 36.6667,
      "end": 37.1146,
      "duration": 0.4479,
      "velocity": 70,
      "instrument": 0,
      "instrument_name": "Acoustic Grand Piano",
      "is_drum": false
    },
    {
      "pitch": 45,
      "start": 36.6667,
      "end": 37.5017,
      "duration": 0.8351,
      "velocity": 62,
      "instrument": 0,
      "instrument_name": "Acoustic Grand Piano",
      "is_drum": false
    },
    {
      "pitch": 55,
      "start": 37.5,
      "end": 37.8871,
      "duration": 0.3872,
      "velocity": 68,
      "instrument": 0,
      "instrument_name": "Acoustic Grand Piano",
      "is_drum": false
    },
    {
      "pitch": 59,
      "start": 37.5,
      "end": 37.8958,
      "duration": 0.3958,
      "velocity": 69,
      "instrument": 0,
      "instrument_name": "Acoustic Grand Piano",
      "is_drum": false
    },
    {
      "pitch": 62,
      "start": 37.5,
      "end": 37.9167,
      "duration": 0.4167,
      "velocity": 76,
      "instrument": 0,
      "instrument_name": "Acoustic Grand Piano",
      "is_drum": false
    },
    {
      "pitch": 64,
      "start": 37.9167,
      "end": 38.0017,
      "duration": 0.0851,
      "velocity": 59,
      "instrument": 0,
      "instrument_name": "Acoustic Grand Piano",
      "is_drum": false
    },
    {
      "pitch": 45,
      "start": 37.9167,
      "end": 37.9653,
      "duration": 0.0486,
      "velocity": 64,
      "instrument": 0,
      "instrument_name": "Acoustic Grand Piano",
      "is_drum": false
    },
    {
      "pitch": 64,
      "start": 38.125,
      "end": 39.2986,
      "duration": 1.1736,
      "velocity": 62,
      "instrument": 0,
      "instrument_name": "Acoustic Grand Piano",
      "is_drum": false
    },
    {
      "pitch": 60,
      "start": 38.3333,
      "end": 38.8212,
      "duration": 0.4878,
      "velocity": 65,
      "instrument": 0,
      "instrument_name": "Acoustic Grand Piano",
      "is_drum": false
    },
    {
      "pitch": 64,
      "start": 38.3333,
      "end": 38.8229,
      "duration": 0.4896,
      "velocity": 72,
      "instrument": 0,
      "instrument_name": "Acoustic Grand Piano",
      "is_drum": false
    },
    {
      "pitch": 57,
      "start": 38.3333,
      "end": 38.8246,
      "duration": 0.4913,
      "velocity": 71,
      "instrument": 0,
      "instrument_name": "Acoustic Grand Piano",
      "is_drum": false
    },
    {
      "pitch": 45,
      "start": 38.3333,
      "end": 39.2274,
      "duration": 0.8941,
      "velocity": 68,
      "instrument": 0,
      "instrument_name": "Acoustic Grand Piano",
      "is_drum": false
    },
    {
      "pitch": 60,
      "start": 39.1667,
      "end": 39.6476,
      "duration": 0.4809,
      "velocity": 78,
      "instrument": 0,
      "instrument_name": "Acoustic Grand Piano",
      "is_drum": false
    },
    {
      "pitch": 57,
      "start": 39.1667,
      "end": 39.6597,
      "duration": 0.4931,
      "velocity": 85,
      "instrument": 0,
      "instrument_name": "Acoustic Grand Piano",
      "is_drum": false
    },
    {
      "pitch": 64,
      "start": 39.1667,
      "end": 39.6927,
      "duration": 0.526,
      "velocity": 83,
      "instrument": 0,
      "instrument_name": "Acoustic Grand Piano",
      "is_drum": false
    },
    {
      "pitch": 45,
      "start": 39.5833,
      "end": 39.8993,
      "duration": 0.316,
      "velocity": 99,
      "instrument": 0,
      "instrument_name": "Acoustic Grand Piano",
      "is_drum": false
    }
  ],
  "embedding": [
    0.13963963963963963,
    0.009009009009009009,
    0.15315315315315314,
    0.0,
    0.18468468468468469,
    0.11261261261261261,
    0.0,
    0.14864864864864866,
    0.018018018018018018,
    0.11711711711711711,
    0.018018018018018018,
    0.0990990990990991,
    0.13122171945701358,
    0.004524886877828055,
    0.013574660633484163,
    0.027149321266968326,
    0.004524886877828055,
    0.049773755656108594,
    0.013574660633484163,
    0.049773755656108594,
    0.058823529411764705,
    0.049773755656108594,
    0.058823529411764705,
    0.004524886877828055,
    0.03619909502262444,
    0.01809954751131222,
    0.058823529411764705,
    0.05429864253393665,
    0.06787330316742081,
    0.058823529411764705,
    0.004524886877828055,
    0.06334841628959276,
    0.004524886877828055,
    0.03619909502262444,
    0.01809954751131222,
    0.0,
    0.11312217194570136,
    0.0,
    0.0,
    0.013513513513513514,
    0.38738738738738737,
    0.5540540540540541,
    0.04054054054054054,
    0.0045045045045045045,
    0.0,
    0.04054054054054054,
    0.07657657657657657,
    0.6801801801801802,
    0.09009009009009009,
    0.10810810810810811,
    0.0045045045045045045,
    0.0,
    0.0,
    0.0,
    0.0,
    0.4622047244094488,
    0.18,
    0.515748031496063,
    0.20750000000000002,
    0.0517,
    0.03544,
    0.36,
    0.0665,
    0.16216216216216217,
    0.13963963963963963,
    0.11261261261261261,
    0.08558558558558559,
    0.08558558558558559,
    0.07657657657657657,
    0.04504504504504504,
    0.04504504504504504,
    0.036036036036036036,
    0.036036036036036036,
    0.02702702702702703,
    0.018018018018018018,
    0.018018018018018018,
    0.018018018018018018,
    0.018018018018018018,
    0.013513513513513514,
    0.013513513513513514,
    0.013513513513513514,
    0.009009009009009009,
    0.009009009009009009,
    0.009009009009009009,
    0.0045045045045045045,
    0.0045045045045045045,
    0.0,
    0.0,
    0.0,
    0.0,
    0.0,
    0.0,
    0.0,
    0.0,
    0.0,
    0.0,
    0.0,
    0.0,
    0.0,
    0.0,
    0.0,
    0.0,
    0.0,
    0.0,
    0.0,
    0.0,
    0.0,
    0.0,
    0.0,
    0.0,
    0.0,
    0.0,
    0.0,
    0.0,
    0.0,
    0.0,
    0.0,
    0.0,
    0.0,
    0.0,
    0.0,
    0.0,
    0.0,
    0.0,
    0.0,
    0.0,
    0.0,
    0.0
  ],
  "pitch_histogram": [
    0.0,
    0.0,
    0.0,
    0.0,
    0.0,
    0.0,
    0.0,
    0.0,
    0.0,
    0.0,
    0.0,
    0.0,
    0.0,
    0.0,
    0.0,
    0.0,
    0.0,
    0.0,
    0.0,
    0.0,
    0.0,
    0.0,
    0.0,
    0.0,
    0.0,
    0.0,
    0.0,
    0.0,
    0.0,
    0.0,
    0.0,
    0.0045045045045045045,
    0.0,
    0.0,
    0.0,
    0.0,
    0.009009009009009009,
    0.0,
    0.0,
    0.0,
    0.0045045045045045045,
    0.02702702702702703,
    0.0,
    0.013513513513513514,
    0.0,
    0.036036036036036036,
    0.0,
    0.013513513513513514,
    0.018018018018018018,
    0.0,
    0.013513513513513514,
    0.0,
    0.018018018018018018,
    0.009009009009009009,
    0.0,
    0.08558558558558559,
    0.018018018018018018,
    0.04504504504504504,
    0.018018018018018018,
    0.08558558558558559,
    0.11261261261261261,
    0.009009009009009009,
    0.13963963963963963,
    0.0,
    0.16216216216216217,
    0.07657657657657657,
    0.0,
    0.04504504504504504,
    0.0,
    0.036036036036036036,
    0.0,
    0.0,
    0.0,
    0.0,
    0.0,
    0.0,
    0.0,
    0.0,
    0.0,
    0.0,
    0.0,
    0.0,
    0.0,
    0.0,
    0.0,
    0.0,
    0.0,
    0.0,
    0.0,
    0.0,
    0.0,
    0.0,
    0.0,
    0.0,
    0.0,
    0.0,
    0.0,
    0.0,
    0.0,
    0.0,
    0.0,
    0.0,
    0.0,
    0.0,
    0.0,
    0.0,
    0.0,
    0.0,
    0.0,
    0.0,
    0.0,
    0.0,
    0.0,
    0.0,
    0.0,
    0.0,
    0.0,
    0.0,
    0.0,
    0.0,
    0.0,
    0.0,
    0.0,
    0.0,
    0.0,
    0.0,
    0.0,
    0.0
  ],
  "pitch_class_histogram": [
    0.13963963963963963,
    0.009009009009009009,
    0.15315315315315314,
    0.0,
    0.18468468468468469,
    0.11261261261261261,
    0.0,
    0.14864864864864866,
    0.018018018018018018,
    0.11711711711711711,
    0.018018018018018018,
    0.0990990990990991
  ],
  "interval_histogram": [
    0.13122171945701358,
    0.004524886877828055,
    0.013574660633484163,
    0.027149321266968326,
    0.004524886877828055,
    0.049773755656108594,
    0.013574660633484163,
    0.049773755656108594,
    0.058823529411764705,
    0.049773755656108594,
    0.058823529411764705,
    0.004524886877828055,
    0.03619909502262444,
    0.01809954751131222,
    0.058823529411764705,
    0.05429864253393665,
    0.06787330316742081,
    0.058823529411764705,
    0.004524886877828055,
    0.06334841628959276,
    0.004524886877828055,
    0.03619909502262444,
    0.01809954751131222,
    0.0,
    0.11312217194570136
  ],
  "velocity_histogram": [
    0.0,
    0.0,
    0.013513513513513514,
    0.38738738738738737,
    0.5540540540540541,
    0.04054054054054054,
    0.0045045045045045045,
    0.0
  ],
  "duration_histogram": [
    0.04054054054054054,
    0.07657657657657657,
    0.6801801801801802,
    0.09009009009009009,
    0.10810810810810811,
    0.0045045045045045045,
    0.0,
    0.0,
    0.0,
    0.0
  ]
}