{
  "stats": {
    "filename": "두 사람_BPM70_4-4.mid",
    "total_notes": 184,
    "total_duration_sec": 30.86,
    "avg_tempo": 70.0,
    "pitch_range": [
      44,
      81
    ],
    "pitch_mean": 66.1,
    "pitch_std": 8.2,
    "velocity_range": [
      37,
      101
    ],
    "velocity_mean": 66.7,
    "velocity_std": 11.6,
    "duration_mean": 0.392,
    "duration_std": 0.3012,
    "estimated_key": "E",
    "num_instruments": 2,
    "time_signatures": [
      "4/4"
    ]
  },
  "composer_tags": {
    "rhythm_type": "dense",
    "rhythm_regularity": 1.0,
    "note_density_per_sec": 5.98,
    "avg_ioi": 0.2143,
    "harmony_type": "dyadic",
    "harmonic_brightness": 0.429,
    "harmony_ratio": 0.435,
    "avg_polyphony": 2.0,
    "max_polyphony": 2,
    "accompaniment_pattern": "comping",
    "arpeggio_ratio": 0.011,
    "voicing_type": "semi_open",
    "avg_voicing_spread": 9.2,
    "pitch_range": 37,
    "register": "alto",
    "dynamic_profile": "expressive",
    "dynamic_level": "mezzo-forte",
    "velocity_range": 64,
    "tempo_bpm": 70.0,
    "tempo_category": "adagio"
  },
  "notes": [
    {
      "pitch": 57,
      "start": 0.0,
      "end": 0.75,
      "duration": 0.75,
      "velocity": 37,
      "instrument": 0,
      "instrument_name": "Acoustic Grand Piano",
      "is_drum": false
    },
    {
      "pitch": 64,
      "start": 0.2143,
      "end": 0.4732,
      "duration": 0.2589,
      "velocity": 42,
      "instrument": 0,
      "instrument_name": "Acoustic Grand Piano",
      "is_drum": false
    },
    {
      "pitch": 71,
      "start": 0.4286,
      "end": 0.6464,
      "duration": 0.2179,
      "velocity": 47,
      "instrument": 0,
      "instrument_name": "Acoustic Grand Piano",
      "is_drum": false
    },
    {
      "pitch": 73,
      "start": 0.6429,
      "end": 1.0732,
      "duration": 0.4304,
      "velocity": 71,
      "instrument": 0,
      "instrument_name": "Acoustic Grand Piano",
      "is_drum": false
    },
    {
      "pitch": 57,
      "start": 0.8571,
      "end": 1.5679,
      "duration": 0.7107,
      "velocity": 63,
      "instrument": 0,
      "instrument_name": "Acoustic Grand Piano",
      "is_drum": false
    },
    {
      "pitch": 64,
      "start": 1.0714,
      "end": 1.2964,
      "duration": 0.225,
      "velocity": 55,
      "instrument": 0,
      "instrument_name": "Acoustic Grand Piano",
      "is_drum": false
    },
    {
      "pitch": 71,
      "start": 1.2857,
      "end": 1.5125,
      "duration": 0.2268,
      "velocity": 49,
      "instrument": 0,
      "instrument_name": "Acoustic Grand Piano",
      "is_drum": false
    },
    {
      "pitch": 73,
      "start": 1.5,
      "end": 1.9571,
      "duration": 0.4571,
      "velocity": 76,
      "instrument": 0,
      "instrument_name": "Acoustic Grand Piano",
      "is_drum": false
    },
    {
      "pitch": 57,
      "start": 1.7143,
      "end": 2.4464,
      "duration": 0.7321,
      "velocity": 67,
      "instrument": 0,
      "instrument_name": "Acoustic Grand Piano",
      "is_drum": false
    },
    {
      "pitch": 64,
      "start": 1.9286,
      "end": 2.1714,
      "duration": 0.2429,
      "velocity": 62,
      "instrument": 0,
      "instrument_name": "Acoustic Grand Piano",
      "is_drum": false
    },
    {
      "pitch": 71,
      "start": 2.1429,
      "end": 2.3893,
      "duration": 0.2464,
      "velocity": 52,
      "instrument": 0,
      "instrument_name": "Acoustic Grand Piano",
      "is_drum": false
    },
    {
      "pitch": 73,
      "start": 2.3571,
      "end": 2.7893,
      "duration": 0.4321,
      "velocity": 73,
      "instrument": 0,
      "instrument_name": "Acoustic Grand Piano",
      "is_drum": false
    },
    {
      "pitch": 57,
      "start": 2.5714,
      "end": 3.1732,
      "duration": 0.6018,
      "velocity": 70,
      "instrument": 0,
      "instrument_name": "Acoustic Grand Piano",
      "is_drum": false
    },
    {
      "pitch": 64,
      "start": 2.7857,
      "end": 3.0018,
      "duration": 0.2161,
      "velocity": 63,
      "instrument": 0,
      "instrument_name": "Acoustic Grand Piano",
      "is_drum": false
    },
    {
      "pitch": 71,
      "start": 3.0,
      "end": 3.2161,
      "duration": 0.2161,
      "velocity": 53,
      "instrument": 0,
      "instrument_name": "Acoustic Grand Piano",
      "is_drum": false
    },
    {
      "pitch": 73,
      "start": 3.2143,
      "end": 3.6411,
      "duration": 0.4268,
      "velocity": 76,
      "instrument": 0,
      "instrument_name": "Acoustic Grand Piano",
      "is_drum": false
    },
    {
      "pitch": 57,
      "start": 3.4286,
      "end": 4.1661,
      "duration": 0.7375,
      "velocity": 76,
      "instrument": 0,
      "instrument_name": "Acoustic Grand Piano",
      "is_drum": false
    },
    {
      "pitch": 64,
      "start": 3.6429,
      "end": 3.8536,
      "duration": 0.2107,
      "velocity": 64,
      "instrument": 0,
      "instrument_name": "Acoustic Grand Piano",
      "is_drum": false
    },
    {
      "pitch": 71,
      "start": 3.8571,
      "end": 4.0893,
      "duration": 0.2321,
      "velocity": 46,
      "instrument": 0,
      "instrument_name": "Acoustic Grand Piano",
      "is_drum": false
    },
    {
      "pitch": 73,
      "start": 4.0714,
      "end": 4.4696,
      "duration": 0.3982,
      "velocity": 68,
      "instrument": 0,
      "instrument_name": "Acoustic Grand Piano",
      "is_drum": false
    },
    {
      "pitch": 64,
      "start": 4.2857,
      "end": 4.6107,
      "duration": 0.325,
      "velocity": 72,
      "instrument": 0,
      "instrument_name": "Acoustic Grand Piano",
      "is_drum": false
    },
    {
      "pitch": 57,
      "start": 4.2857,
      "end": 4.8232,
      "duration": 0.5375,
      "velocity": 86,
      "instrument": 0,
      "instrument_name": "Acoustic Grand Piano",
      "is_drum": false
    },
    {
      "pitch": 64,
      "start": 4.5,
      "end": 4.8304,
      "duration": 0.3304,
      "velocity": 64,
      "instrument": 0,
      "instrument_name": "Acoustic Grand Piano",
      "is_drum": false
    },
    {
      "pitch": 64,
      "start": 4.7143,
      "end": 4.8375,
      "duration": 0.1232,
      "velocity": 64,
      "instrument": 0,
      "instrument_name": "Acoustic Grand Piano",
      "is_drum": false
    },
    {
      "pitch": 71,
      "start": 4.7143,
      "end": 5.025,
      "duration": 0.3107,
      "velocity": 54,
      "instrument": 0,
      "instrument_name": "Acoustic Grand Piano",
      "is_drum": false
    },
    {
      "pitch": 64,
      "start": 4.9286,
      "end": 5.4161,
      "duration": 0.4875,
      "velocity": 83,
      "instrument": 0,
      "instrument_name": "Acoustic Grand Piano",
      "is_drum": false
    },
    {
      "pitch": 73,
      "start": 4.9286,
      "end": 5.1518,
      "duration": 0.2232,
      "velocity": 62,
      "instrument": 0,
      "instrument_name": "Acoustic Grand Piano",
      "is_drum": false
    },
    {
      "pitch": 56,
      "start": 5.1429,
      "end": 5.7679,
      "duration": 0.625,
      "velocity": 75,
      "instrument": 0,
      "instrument_name": "Acoustic Grand Piano",
      "is_drum": false
    },
    {
      "pitch": 64,
      "start": 5.3571,
      "end": 5.6089,
      "duration": 0.2518,
      "velocity": 66,
      "instrument": 0,
      "instrument_name": "Acoustic Grand Piano",
      "is_drum": false
    },
    {
      "pitch": 64,
      "start": 5.5714,
      "end": 5.6804,
      "duration": 0.1089,
      "velocity": 68,
      "instrument": 0,
      "instrument_name": "Acoustic Grand Piano",
      "is_drum": false
    },
    {
      "pitch": 71,
      "start": 5.5714,
      "end": 5.7929,
      "duration": 0.2214,
      "velocity": 57,
      "instrument": 0,
      "instrument_name": "Acoustic Grand Piano",
      "is_drum": false
    },
    {
      "pitch": 64,
      "start": 5.7857,
      "end": 6.45,
      "duration": 0.6643,
      "velocity": 68,
      "instrument": 0,
      "instrument_name": "Acoustic Grand Piano",
      "is_drum": false
    },
    {
      "pitch": 76,
      "start": 5.7857,
      "end": 6.1429,
      "duration": 0.3571,
      "velocity": 80,
      "instrument": 0,
      "instrument_name": "Acoustic Grand Piano",
      "is_drum": false
    },
    {
      "pitch": 56,
      "start": 6.0,
      "end": 6.3286,
      "duration": 0.3286,
      "velocity": 81,
      "instrument": 0,
      "instrument_name": "Acoustic Grand Piano",
      "is_drum": false
    },
    {
      "pitch": 64,
      "start": 6.2143,
      "end": 6.3875,
      "duration": 0.1732,
      "velocity": 55,
      "instrument": 0,
      "instrument_name": "Acoustic Grand Piano",
      "is_drum": false
    },
    {
      "pitch": 62,
      "start": 6.4286,
      "end": 6.6393,
      "duration": 0.2107,
      "velocity": 82,
      "instrument": 0,
      "instrument_name": "Acoustic Grand Piano",
      "is_drum": false
    },
    {
      "pitch": 71,
      "start": 6.4286,
      "end": 6.6161,
      "duration": 0.1875,
      "velocity": 61,
      "instrument": 0,
      "instrument_name": "Acoustic Grand Piano",
      "is_drum": false
    },
    {
      "pitch": 64,
      "start": 6.6429,
      "end": 7.7982,
      "duration": 1.1554,
      "velocity": 73,
      "instrument": 0,
      "instrument_name": "Acoustic Grand Piano",
      "is_drum": false
    },
    {
      "pitch": 76,
      "start": 6.6429,
      "end": 7.0446,
      "duration": 0.4018,
      "velocity": 72,
      "instrument": 0,
      "instrument_name": "Acoustic Grand Piano",
      "is_drum": false
    },
    {
      "pitch": 55,
      "start": 6.8571,
      "end": 7.6161,
      "duration": 0.7589,
      "velocity": 68,
      "instrument": 0,
      "instrument_name": "Acoustic Grand Piano",
      "is_drum": false
    },
    {
      "pitch": 64,
      "start": 7.0714,
      "end": 7.3018,
      "duration": 0.2304,
      "velocity": 48,
      "instrument": 0,
      "instrument_name": "Acoustic Grand Piano",
      "is_drum": false
    },
    {
      "pitch": 71,
      "start": 7.2857,
      "end": 7.5589,
      "duration": 0.2732,
      "velocity": 60,
      "instrument": 0,
      "instrument_name": "Acoustic Grand Piano",
      "is_drum": false
    },
    {
      "pitch": 76,
      "start": 7.5,
      "end": 8.0661,
      "duration": 0.5661,
      "velocity": 74,
      "instrument": 0,
      "instrument_name": "Acoustic Grand Piano",
      "is_drum": false
    },
    {
      "pitch": 55,
      "start": 7.7143,
      "end": 8.6036,
      "duration": 0.8893,
      "velocity": 75,
      "instrument": 0,
      "instrument_name": "Acoustic Grand Piano",
      "is_drum": false
    },
    {
      "pitch": 64,
      "start": 7.9286,
      "end": 8.3911,
      "duration": 0.4625,
      "velocity": 58,
      "instrument": 0,
      "instrument_name": "Acoustic Grand Piano",
      "is_drum": false
    },
    {
      "pitch": 71,
      "start": 8.1428,
      "end": 8.45,
      "duration": 0.3071,
      "velocity": 62,
      "instrument": 0,
      "instrument_name": "Acoustic Grand Piano",
      "is_drum": false
    },
    {
      "pitch": 76,
      "start": 8.3571,
      "end": 8.6482,
      "duration": 0.2911,
      "velocity": 62,
      "instrument": 0,
      "instrument_name": "Acoustic Grand Piano",
      "is_drum": false
    },
    {
      "pitch": 61,
      "start": 8.5714,
      "end": 8.8339,
      "duration": 0.2625,
      "velocity": 73,
      "instrument": 0,
      "instrument_name": "Acoustic Grand Piano",
      "is_drum": false
    },
    {
      "pitch": 54,
      "start": 8.5714,
      "end": 9.4018,
      "duration": 0.8304,
      "velocity": 80,
      "instrument": 0,
      "instrument_name": "Acoustic Grand Piano",
      "is_drum": false
    },
    {
      "pitch": 66,
      "start": 8.7857,
      "end": 8.9964,
      "duration": 0.2107,
      "velocity": 49,
      "instrument": 0,
      "instrument_name": "Acoustic Grand Piano",
      "is_drum": false
    },
    {
      "pitch": 61,
      "start": 9.0,
      "end": 9.3036,
      "duration": 0.3036,
      "velocity": 71,
      "instrument": 0,
      "instrument_name": "Acoustic Grand Piano",
      "is_drum": false
    },
    {
      "pitch": 70,
      "start": 9.0,
      "end": 9.2125,
      "duration": 0.2125,
      "velocity": 68,
      "instrument": 0,
      "instrument_name": "Acoustic Grand Piano",
      "is_drum": false
    },
    {
      "pitch": 66,
      "start": 9.2143,
      "end": 9.8053,
      "duration": 0.5911,
      "velocity": 75,
      "instrument": 0,
      "instrument_name": "Acoustic Grand Piano",
      "is_drum": false
    },
    {
      "pitch": 76,
      "start": 9.2143,
      "end": 9.5893,
      "duration": 0.375,
      "velocity": 79,
      "instrument": 0,
      "instrument_name": "Acoustic Grand Piano",
      "is_drum": false
    },
    {
      "pitch": 54,
      "start": 9.4286,
      "end": 10.0553,
      "duration": 0.6268,
      "velocity": 76,
      "instrument": 0,
      "instrument_name": "Acoustic Grand Piano",
      "is_drum": false
    },
    {
      "pitch": 66,
      "start": 9.6428,
      "end": 9.8643,
      "duration": 0.2214,
      "velocity": 62,
      "instrument": 0,
      "instrument_name": "Acoustic Grand Piano",
      "is_drum": false
    },
    {
      "pitch": 64,
      "start": 9.8571,
      "end": 10.0,
      "duration": 0.1429,
      "velocity": 62,
      "instrument": 0,
      "instrument_name": "Acoustic Grand Piano",
      "is_drum": false
    },
    {
      "pitch": 70,
      "start": 9.8571,
      "end": 10.1036,
      "duration": 0.2464,
      "velocity": 65,
      "instrument": 0,
      "instrument_name": "Acoustic Grand Piano",
      "is_drum": false
    },
    {
      "pitch": 64,
      "start": 10.0714,
      "end": 10.45,
      "duration": 0.3786,
      "velocity": 66,
      "instrument": 0,
      "instrument_name": "Acoustic Grand Piano",
      "is_drum": false
    },
    {
      "pitch": 76,
      "start": 10.0714,
      "end": 10.2803,
      "duration": 0.2089,
      "velocity": 83,
      "instrument": 0,
      "instrument_name": "Acoustic Grand Piano",
      "is_drum": false
    },
    {
      "pitch": 50,
      "start": 10.2857,
      "end": 10.9143,
      "duration": 0.6286,
      "velocity": 58,
      "instrument": 0,
      "instrument_name": "Acoustic Grand Piano",
      "is_drum": false
    },
    {
      "pitch": 62,
      "start": 10.5,
      "end": 10.6161,
      "duration": 0.1161,
      "velocity": 72,
      "instrument": 0,
      "instrument_name": "Acoustic Grand Piano",
      "is_drum": false
    },
    {
      "pitch": 66,
      "start": 10.5,
      "end": 10.6893,
      "duration": 0.1893,
      "velocity": 62,
      "instrument": 0,
      "instrument_name": "Acoustic Grand Piano",
      "is_drum": false
    },
    {
      "pitch": 62,
      "start": 10.7143,
      "end": 11.4518,
      "duration": 0.7375,
      "velocity": 85,
      "instrument": 0,
      "instrument_name": "Acoustic Grand Piano",
      "is_drum": false
    },
    {
      "pitch": 69,
      "start": 10.7143,
      "end": 10.9393,
      "duration": 0.225,
      "velocity": 60,
      "instrument": 0,
      "instrument_name": "Acoustic Grand Piano",
      "is_drum": false
    },
    {
      "pitch": 74,
      "start": 10.9286,
      "end": 11.2696,
      "duration": 0.3411,
      "velocity": 82,
      "instrument": 0,
      "instrument_name": "Acoustic Grand Piano",
      "is_drum": false
    },
    {
      "pitch": 50,
      "start": 11.1428,
      "end": 11.7214,
      "duration": 0.5786,
      "velocity": 73,
      "instrument": 0,
      "instrument_name": "Acoustic Grand Piano",
      "is_drum": false
    },
    {
      "pitch": 66,
      "start": 11.3571,
      "end": 11.5196,
      "duration": 0.1625,
      "velocity": 60,
      "instrument": 0,
      "instrument_name": "Acoustic Grand Piano",
      "is_drum": false
    },
    {
      "pitch": 69,
      "start": 11.5714,
      "end": 11.6821,
      "duration": 0.1107,
      "velocity": 50,
      "instrument": 0,
      "instrument_name": "Acoustic Grand Piano",
      "is_drum": false
    },
    {
      "pitch": 73,
      "start": 11.7857,
      "end": 12.1661,
      "duration": 0.3804,
      "velocity": 71,
      "instrument": 0,
      "instrument_name": "Acoustic Grand Piano",
      "is_drum": false
    },
    {
      "pitch": 50,
      "start": 12.0,
      "end": 12.6428,
      "duration": 0.6429,
      "velocity": 72,
      "instrument": 0,
      "instrument_name": "Acoustic Grand Piano",
      "is_drum": false
    },
    {
      "pitch": 65,
      "start": 12.2143,
      "end": 12.4125,
      "duration": 0.1982,
      "velocity": 54,
      "instrument": 0,
      "instrument_name": "Acoustic Grand Piano",
      "is_drum": false
    },
    {
      "pitch": 71,
      "start": 12.4286,
      "end": 12.6125,
      "duration": 0.1839,
      "velocity": 50,
      "instrument": 0,
      "instrument_name": "Acoustic Grand Piano",
      "is_drum": false
    },
    {
      "pitch": 62,
      "start": 12.6428,
      "end": 12.8803,
      "duration": 0.2375,
      "velocity": 88,
      "instrument": 0,
      "instrument_name": "Acoustic Grand Piano",
      "is_drum": false
    },
    {
      "pitch": 74,
      "start": 12.6428,
      "end": 12.9536,
      "duration": 0.3107,
      "velocity": 81,
      "instrument": 0,
      "instrument_name": "Acoustic Grand Piano",
      "is_drum": false
    },
    {
      "pitch": 64,
      "start": 12.8571,
      "end": 13.3089,
      "duration": 0.4518,
      "velocity": 74,
      "instrument": 0,
      "instrument_name": "Acoustic Grand Piano",
      "is_drum": false
    },
    {
      "pitch": 50,
      "start": 12.8571,
      "end": 13.4,
      "duration": 0.5429,
      "velocity": 79,
      "instrument": 0,
      "instrument_name": "Acoustic Grand Piano",
      "is_drum": false
    },
    {
      "pitch": 65,
      "start": 13.0714,
      "end": 13.1964,
      "duration": 0.125,
      "velocity": 60,
      "instrument": 0,
      "instrument_name": "Acoustic Grand Piano",
      "is_drum": false
    },
    {
      "pitch": 62,
      "start": 13.2857,
      "end": 13.4214,
      "duration": 0.1357,
      "velocity": 77,
      "instrument": 0,
      "instrument_name": "Acoustic Grand Piano",
      "is_drum": false
    },
    {
      "pitch": 71,
      "start": 13.2857,
      "end": 13.4178,
      "duration": 0.1321,
      "velocity": 74,
      "instrument": 0,
      "instrument_name": "Acoustic Grand Piano",
      "is_drum": false
    },
    {
      "pitch": 62,
      "start": 13.5,
      "end": 13.8857,
      "duration": 0.3857,
      "velocity": 81,
      "instrument": 0,
      "instrument_name": "Acoustic Grand Piano",
      "is_drum": false
    },
    {
      "pitch": 74,
      "start": 13.5,
      "end": 13.6053,
      "duration": 0.1054,
      "velocity": 90,
      "instrument": 0,
      "instrument_name": "Acoustic Grand Piano",
      "is_drum": false
    },
    {
      "pitch": 45,
      "start": 13.7143,
      "end": 14.3875,
      "duration": 0.6732,
      "velocity": 62,
      "instrument": 0,
      "instrument_name": "Acoustic Grand Piano",
      "is_drum": false
    },
    {
      "pitch": 61,
      "start": 13.9286,
      "end": 14.2393,
      "duration": 0.3107,
      "velocity": 84,
      "instrument": 0,
      "instrument_name": "Acoustic Grand Piano",
      "is_drum": false
    },
    {
      "pitch": 64,
      "start": 13.9286,
      "end": 14.1714,
      "duration": 0.2429,
      "velocity": 62,
      "instrument": 0,
      "instrument_name": "Acoustic Grand Piano",
      "is_drum": false
    },
    {
      "pitch": 71,
      "start": 14.1428,
      "end": 14.3982,
      "duration": 0.2554,
      "velocity": 53,
      "instrument": 0,
      "instrument_name": "Acoustic Grand Piano",
      "is_drum": false
    },
    {
      "pitch": 61,
      "start": 14.3571,
      "end": 15.0178,
      "duration": 0.6607,
      "velocity": 75,
      "instrument": 0,
      "instrument_name": "Acoustic Grand Piano",
      "is_drum": false
    },
    {
      "pitch": 73,
      "start": 14.3571,
      "end": 14.7428,
      "duration": 0.3857,
      "velocity": 75,
      "instrument": 0,
      "instrument_name": "Acoustic Grand Piano",
      "is_drum": false
    },
    {
      "pitch": 45,
      "start": 14.5714,
      "end": 15.4036,
      "duration": 0.8321,
      "velocity": 72,
      "instrument": 0,
      "instrument_name": "Acoustic Grand Piano",
      "is_drum": false
    },
    {
      "pitch": 64,
      "start": 14.7857,
      "end": 15.0303,
      "duration": 0.2446,
      "velocity": 55,
      "instrument": 0,
      "instrument_name": "Acoustic Grand Piano",
      "is_drum": false
    },
    {
      "pitch": 71,
      "start": 15.0,
      "end": 15.2518,
      "duration": 0.2518,
      "velocity": 57,
      "instrument": 0,
      "instrument_name": "Acoustic Grand Piano",
      "is_drum": false
    },
    {
      "pitch": 73,
      "start": 15.2143,
      "end": 15.6321,
      "duration": 0.4179,
      "velocity": 80,
      "instrument": 0,
      "instrument_name": "Acoustic Grand Piano",
      "is_drum": false
    },
    {
      "pitch": 44,
      "start": 15.4286,
      "end": 16.2732,
      "duration": 0.8446,
      "velocity": 68,
      "instrument": 0,
      "instrument_name": "Acoustic Grand Piano",
      "is_drum": false
    },
    {
      "pitch": 64,
      "start": 15.6428,
      "end": 15.9,
      "duration": 0.2571,
      "velocity": 65,
      "instrument": 0,
      "instrument_name": "Acoustic Grand Piano",
      "is_drum": false
    },
    {
      "pitch": 71,
      "start": 15.8571,
      "end": 16.1036,
      "duration": 0.2464,
      "velocity": 51,
      "instrument": 0,
      "instrument_name": "Acoustic Grand Piano",
      "is_drum": false
    },
    {
      "pitch": 61,
      "start": 16.0714,
      "end": 16.2946,
      "duration": 0.2232,
      "velocity": 61,
      "instrument": 0,
      "instrument_name": "Acoustic Grand Piano",
      "is_drum": false
    },
    {
      "pitch": 73,
      "start": 16.0714,
      "end": 16.5161,
      "duration": 0.4446,
      "velocity": 75,
      "instrument": 0,
      "instrument_name": "Acoustic Grand Piano",
      "is_drum": false
    },
    {
      "pitch": 69,
      "start": 16.2857,
      "end": 16.7428,
      "duration": 0.4571,
      "velocity": 79,
      "instrument": 0,
      "instrument_name": "Acoustic Grand Piano",
      "is_drum": false
    },
    {
      "pitch": 49,
      "start": 16.2857,
      "end": 17.2303,
      "duration": 0.9446,
      "velocity": 78,
      "instrument": 0,
      "instrument_name": "Acoustic Grand Piano",
      "is_drum": false
    },
    {
      "pitch": 65,
      "start": 16.5,
      "end": 16.7339,
      "duration": 0.2339,
      "velocity": 69,
      "instrument": 0,
      "instrument_name": "Acoustic Grand Piano",
      "is_drum": false
    },
    {
      "pitch": 68,
      "start": 16.7143,
      "end": 16.8821,
      "duration": 0.1679,
      "velocity": 69,
      "instrument": 0,
      "instrument_name": "Acoustic Grand Piano",
      "is_drum": false
    },
    {
      "pitch": 71,
      "start": 16.7143,
      "end": 16.9678,
      "duration": 0.2536,
      "velocity": 58,
      "instrument": 0,
      "instrument_name": "Acoustic Grand Piano",
      "is_drum": false
    },
    {
      "pitch": 69,
      "start": 16.9286,
      "end": 18.3714,
      "duration": 1.4429,
      "velocity": 60,
      "instrument": 0,
      "instrument_name": "Acoustic Grand Piano",
      "is_drum": false
    },
    {
      "pitch": 73,
      "start": 16.9286,
      "end": 17.2268,
      "duration": 0.2982,
      "velocity": 75,
      "instrument": 0,
      "instrument_name": "Acoustic Grand Piano",
      "is_drum": false
    },
    {
      "pitch": 54,
      "start": 17.1428,
      "end": 17.7518,
      "duration": 0.6089,
      "velocity": 78,
      "instrument": 0,
      "instrument_name": "Acoustic Grand Piano",
      "is_drum": false
    },
    {
      "pitch": 69,
      "start": 17.3571,
      "end": 17.6125,
      "duration": 0.2554,
      "velocity": 75,
      "instrument": 0,
      "instrument_name": "Acoustic Grand Piano",
      "is_drum": false
    },
    {
      "pitch": 76,
      "start": 17.5714,
      "end": 17.7964,
      "duration": 0.225,
      "velocity": 50,
      "instrument": 0,
      "instrument_name": "Acoustic Grand Piano",
      "is_drum": false
    },
    {
      "pitch": 81,
      "start": 17.7857,
      "end": 18.1553,
      "duration": 0.3696,
      "velocity": 82,
      "instrument": 0,
      "instrument_name": "Acoustic Grand Piano",
      "is_drum": false
    },
    {
      "pitch": 54,
      "start": 18.0,
      "end": 18.5339,
      "duration": 0.5339,
      "velocity": 72,
      "instrument": 0,
      "instrument_name": "Acoustic Grand Piano",
      "is_drum": false
    },
    {
      "pitch": 69,
      "start": 18.2143,
      "end": 18.3911,
      "duration": 0.1768,
      "velocity": 63,
      "instrument": 0,
      "instrument_name": "Acoustic Grand Piano",
      "is_drum": false
    },
    {
      "pitch": 76,
      "start": 18.4286,
      "end": 18.6643,
      "duration": 0.2357,
      "velocity": 74,
      "instrument": 0,
      "instrument_name": "Acoustic Grand Piano",
      "is_drum": false
    },
    {
      "pitch": 81,
      "start": 18.6428,
      "end": 18.9428,
      "duration": 0.3,
      "velocity": 90,
      "instrument": 0,
      "instrument_name": "Acoustic Grand Piano",
      "is_drum": false
    },
    {
      "pitch": 68,
      "start": 18.8571,
      "end": 19.1268,
      "duration": 0.2696,
      "velocity": 80,
      "instrument": 0,
      "instrument_name": "Acoustic Grand Piano",
      "is_drum": false
    },
    {
      "pitch": 53,
      "start": 18.8571,
      "end": 19.4393,
      "duration": 0.5821,
      "velocity": 72,
      "instrument": 0,
      "instrument_name": "Acoustic Grand Piano",
      "is_drum": false
    },
    {
      "pitch": 69,
      "start": 19.0714,
      "end": 19.5232,
      "duration": 0.4518,
      "velocity": 70,
      "instrument": 0,
      "instrument_name": "Acoustic Grand Piano",
      "is_drum": false
    },
    {
      "pitch": 68,
      "start": 19.2857,
      "end": 19.4982,
      "duration": 0.2125,
      "velocity": 76,
      "instrument": 0,
      "instrument_name": "Acoustic Grand Piano",
      "is_drum": false
    },
    {
      "pitch": 73,
      "start": 19.2857,
      "end": 19.5107,
      "duration": 0.225,
      "velocity": 54,
      "instrument": 0,
      "instrument_name": "Acoustic Grand Piano",
      "is_drum": false
    },
    {
      "pitch": 69,
      "start": 19.5,
      "end": 20.1196,
      "duration": 0.6196,
      "velocity": 75,
      "instrument": 0,
      "instrument_name": "Acoustic Grand Piano",
      "is_drum": false
    },
    {
      "pitch": 80,
      "start": 19.5,
      "end": 19.9178,
      "duration": 0.4179,
      "velocity": 80,
      "instrument": 0,
      "instrument_name": "Acoustic Grand Piano",
      "is_drum": false
    },
    {
      "pitch": 53,
      "start": 19.7143,
      "end": 20.5232,
      "duration": 0.8089,
      "velocity": 72,
      "instrument": 0,
      "instrument_name": "Acoustic Grand Piano",
      "is_drum": false
    },
    {
      "pitch": 69,
      "start": 19.9286,
      "end": 20.3946,
      "duration": 0.4661,
      "velocity": 61,
      "instrument": 0,
      "instrument_name": "Acoustic Grand Piano",
      "is_drum": false
    },
    {
      "pitch": 73,
      "start": 20.1428,
      "end": 20.425,
      "duration": 0.2821,
      "velocity": 68,
      "instrument": 0,
      "instrument_name": "Acoustic Grand Piano",
      "is_drum": false
    },
    {
      "pitch": 71,
      "start": 20.3571,
      "end": 20.4786,
      "duration": 0.1214,
      "velocity": 75,
      "instrument": 0,
      "instrument_name": "Acoustic Grand Piano",
      "is_drum": false
    },
    {
      "pitch": 80,
      "start": 20.3571,
      "end": 20.5625,
      "duration": 0.2054,
      "velocity": 84,
      "instrument": 0,
      "instrument_name": "Acoustic Grand Piano",
      "is_drum": false
    },
    {
      "pitch": 71,
      "start": 20.5714,
      "end": 20.9553,
      "duration": 0.3839,
      "velocity": 75,
      "instrument": 0,
      "instrument_name": "Acoustic Grand Piano",
      "is_drum": false
    },
    {
      "pitch": 52,
      "start": 20.5714,
      "end": 21.2036,
      "duration": 0.6321,
      "velocity": 61,
      "instrument": 0,
      "instrument_name": "Acoustic Grand Piano",
      "is_drum": false
    },
    {
      "pitch": 69,
      "start": 20.7857,
      "end": 21.0018,
      "duration": 0.2161,
      "velocity": 58,
      "instrument": 0,
      "instrument_name": "Acoustic Grand Piano",
      "is_drum": false
    },
    {
      "pitch": 69,
      "start": 21.0,
      "end": 21.1268,
      "duration": 0.1268,
      "velocity": 77,
      "instrument": 0,
      "instrument_name": "Acoustic Grand Piano",
      "is_drum": false
    },
    {
      "pitch": 73,
      "start": 21.0,
      "end": 21.2053,
      "duration": 0.2054,
      "velocity": 61,
      "instrument": 0,
      "instrument_name": "Acoustic Grand Piano",
      "is_drum": false
    },
    {
      "pitch": 69,
      "start": 21.2143,
      "end": 21.6178,
      "duration": 0.4036,
      "velocity": 80,
      "instrument": 0,
      "instrument_name": "Acoustic Grand Piano",
      "is_drum": false
    },
    {
      "pitch": 78,
      "start": 21.2143,
      "end": 21.5446,
      "duration": 0.3304,
      "velocity": 72,
      "instrument": 0,
      "instrument_name": "Acoustic Grand Piano",
      "is_drum": false
    },
    {
      "pitch": 52,
      "start": 21.4286,
      "end": 22.2053,
      "duration": 0.7768,
      "velocity": 75,
      "instrument": 0,
      "instrument_name": "Acoustic Grand Piano",
      "is_drum": false
    },
    {
      "pitch": 64,
      "start": 21.6428,
      "end": 21.8625,
      "duration": 0.2196,
      "velocity": 56,
      "instrument": 0,
      "instrument_name": "Acoustic Grand Piano",
      "is_drum": false
    },
    {
      "pitch": 69,
      "start": 21.6428,
      "end": 21.8982,
      "duration": 0.2554,
      "velocity": 68,
      "instrument": 0,
      "instrument_name": "Acoustic Grand Piano",
      "is_drum": false
    },
    {
      "pitch": 68,
      "start": 21.8571,
      "end": 23.1446,
      "duration": 1.2875,
      "velocity": 101,
      "instrument": 0,
      "instrument_name": "Acoustic Grand Piano",
      "is_drum": false
    },
    {
      "pitch": 73,
      "start": 21.8571,
      "end": 22.1321,
      "duration": 0.275,
      "velocity": 72,
      "instrument": 0,
      "instrument_name": "Acoustic Grand Piano",
      "is_drum": false
    },
    {
      "pitch": 78,
      "start": 22.0714,
      "end": 22.3232,
      "duration": 0.2518,
      "velocity": 75,
      "instrument": 0,
      "instrument_name": "Acoustic Grand Piano",
      "is_drum": false
    },
    {
      "pitch": 47,
      "start": 22.2857,
      "end": 23.1053,
      "duration": 0.8196,
      "velocity": 76,
      "instrument": 0,
      "instrument_name": "Acoustic Grand Piano",
      "is_drum": false
    },
    {
      "pitch": 66,
      "start": 22.5,
      "end": 22.6803,
      "duration": 0.1804,
      "velocity": 58,
      "instrument": 0,
      "instrument_name": "Acoustic Grand Piano",
      "is_drum": false
    },
    {
      "pitch": 69,
      "start": 22.7143,
      "end": 22.8982,
      "duration": 0.1839,
      "velocity": 47,
      "instrument": 0,
      "instrument_name": "Acoustic Grand Piano",
      "is_drum": false
    },
    {
      "pitch": 75,
      "start": 22.9285,
      "end": 23.3714,
      "duration": 0.4429,
      "velocity": 75,
      "instrument": 0,
      "instrument_name": "Acoustic Grand Piano",
      "is_drum": false
    },
    {
      "pitch": 47,
      "start": 23.1428,
      "end": 23.9571,
      "duration": 0.8143,
      "velocity": 82,
      "instrument": 0,
      "instrument_name": "Acoustic Grand Piano",
      "is_drum": false
    },
    {
      "pitch": 66,
      "start": 23.3571,
      "end": 23.5446,
      "duration": 0.1875,
      "velocity": 59,
      "instrument": 0,
      "instrument_name": "Acoustic Grand Piano",
      "is_drum": false
    },
    {
      "pitch": 66,
      "start": 23.5714,
      "end": 24.0232,
      "duration": 0.4518,
      "velocity": 93,
      "instrument": 0,
      "instrument_name": "Acoustic Grand Piano",
      "is_drum": false
    },
    {
      "pitch": 69,
      "start": 23.5714,
      "end": 23.8268,
      "duration": 0.2554,
      "velocity": 55,
      "instrument": 0,
      "instrument_name": "Acoustic Grand Piano",
      "is_drum": false
    },
    {
      "pitch": 75,
      "start": 23.7857,
      "end": 23.9839,
      "duration": 0.1982,
      "velocity": 70,
      "instrument": 0,
      "instrument_name": "Acoustic Grand Piano",
      "is_drum": false
    },
    {
      "pitch": 64,
      "start": 24.0,
      "end": 25.2518,
      "duration": 1.2518,
      "velocity": 74,
      "instrument": 0,
      "instrument_name": "Acoustic Grand Piano",
      "is_drum": false
    },
    {
      "pitch": 47,
      "start": 24.0,
      "end": 24.7357,
      "duration": 0.7357,
      "velocity": 52,
      "instrument": 0,
      "instrument_name": "Acoustic Grand Piano",
      "is_drum": false
    },
    {
      "pitch": 66,
      "start": 24.2143,
      "end": 24.3803,
      "duration": 0.1661,
      "velocity": 48,
      "instrument": 0,
      "instrument_name": "Acoustic Grand Piano",
      "is_drum": false
    },
    {
      "pitch": 69,
      "start": 24.4285,
      "end": 24.6375,
      "duration": 0.2089,
      "velocity": 47,
      "instrument": 0,
      "instrument_name": "Acoustic Grand Piano",
      "is_drum": false
    },
    {
      "pitch": 74,
      "start": 24.6428,
      "end": 25.0643,
      "duration": 0.4214,
      "velocity": 75,
      "instrument": 0,
      "instrument_name": "Acoustic Grand Piano",
      "is_drum": false
    },
    {
      "pitch": 47,
      "start": 24.8571,
      "end": 25.3464,
      "duration": 0.4893,
      "velocity": 58,
      "instrument": 0,
      "instrument_name": "Acoustic Grand Piano",
      "is_drum": false
    },
    {
      "pitch": 66,
      "start": 25.0714,
      "end": 25.2071,
      "duration": 0.1357,
      "velocity": 49,
      "instrument": 0,
      "instrument_name": "Acoustic Grand Piano",
      "is_drum": false
    },
    {
      "pitch": 69,
      "start": 25.2857,
      "end": 25.5018,
      "duration": 0.2161,
      "velocity": 45,
      "instrument": 0,
      "instrument_name": "Acoustic Grand Piano",
      "is_drum": false
    },
    {
      "pitch": 74,
      "start": 25.5,
      "end": 25.7428,
      "duration": 0.2429,
      "velocity": 65,
      "instrument": 0,
      "instrument_name": "Acoustic Grand Piano",
      "is_drum": false
    },
    {
      "pitch": 68,
      "start": 25.7143,
      "end": 26.1268,
      "duration": 0.4125,
      "velocity": 88,
      "instrument": 0,
      "instrument_name": "Acoustic Grand Piano",
      "is_drum": false
    },
    {
      "pitch": 47,
      "start": 25.7143,
      "end": 26.3643,
      "duration": 0.65,
      "velocity": 63,
      "instrument": 0,
      "instrument_name": "Acoustic Grand Piano",
      "is_drum": false
    },
    {
      "pitch": 66,
      "start": 25.9285,
      "end": 26.0821,
      "duration": 0.1536,
      "velocity": 57,
      "instrument": 0,
      "instrument_name": "Acoustic Grand Piano",
      "is_drum": false
    },
    {
      "pitch": 66,
      "start": 26.1428,
      "end": 26.2553,
      "duration": 0.1125,
      "velocity": 71,
      "instrument": 0,
      "instrument_name": "Acoustic Grand Piano",
      "is_drum": false
    },
    {
      "pitch": 69,
      "start": 26.1428,
      "end": 26.366,
      "duration": 0.2232,
      "velocity": 52,
      "instrument": 0,
      "instrument_name": "Acoustic Grand Piano",
      "is_drum": false
    },
    {
      "pitch": 66,
      "start": 26.3571,
      "end": 26.7339,
      "duration": 0.3768,
      "velocity": 78,
      "instrument": 0,
      "instrument_name": "Acoustic Grand Piano",
      "is_drum": false
    },
    {
      "pitch": 74,
      "start": 26.3571,
      "end": 26.5446,
      "duration": 0.1875,
      "velocity": 71,
      "instrument": 0,
      "instrument_name": "Acoustic Grand Piano",
      "is_drum": false
    },
    {
      "pitch": 57,
      "start": 26.5714,
      "end": 27.4285,
      "duration": 0.8571,
      "velocity": 64,
      "instrument": 0,
      "instrument_name": "Acoustic Grand Piano",
      "is_drum": false
    },
    {
      "pitch": 64,
      "start": 26.7857,
      "end": 27.0,
      "duration": 0.2143,
      "velocity": 65,
      "instrument": 0,
      "instrument_name": "Acoustic Grand Piano",
      "is_drum": false
    },
    {
      "pitch": 74,
      "start": 26.7857,
      "end": 27.0535,
      "duration": 0.2679,
      "velocity": 69,
      "instrument": 0,
      "instrument_name": "Acoustic Grand Piano",
      "is_drum": false
    },
    {
      "pitch": 64,
      "start": 27.0,
      "end": 29.1428,
      "duration": 2.1429,
      "velocity": 82,
      "instrument": 0,
      "instrument_name": "Acoustic Grand Piano",
      "is_drum": false
    },
    {
      "pitch": 69,
      "start": 27.0,
      "end": 27.2125,
      "duration": 0.2125,
      "velocity": 58,
      "instrument": 0,
      "instrument_name": "Acoustic Grand Piano",
      "is_drum": false
    },
    {
      "pitch": 66,
      "start": 27.2143,
      "end": 27.3714,
      "duration": 0.1571,
      "velocity": 67,
      "instrument": 0,
      "instrument_name": "Acoustic Grand Piano",
      "is_drum": false
    },
    {
      "pitch": 52,
      "start": 27.4285,
      "end": 28.8178,
      "duration": 1.3893,
      "velocity": 62,
      "instrument": 0,
      "instrument_name": "Acoustic Grand Piano",
      "is_drum": false
    },
    {
      "pitch": 71,
      "start": 27.6428,
      "end": 27.8303,
      "duration": 0.1875,
      "velocity": 59,
      "instrument": 0,
      "instrument_name": "Acoustic Grand Piano",
      "is_drum": false
    },
    {
      "pitch": 74,
      "start": 27.8571,
      "end": 27.9571,
      "duration": 0.1,
      "velocity": 52,
      "instrument": 0,
      "instrument_name": "Acoustic Grand Piano",
      "is_drum": false
    },
    {
      "pitch": 71,
      "start": 28.0714,
      "end": 28.275,
      "duration": 0.2036,
      "velocity": 54,
      "instrument": 0,
      "instrument_name": "Acoustic Grand Piano",
      "is_drum": false
    },
    {
      "pitch": 78,
      "start": 28.2857,
      "end": 28.4446,
      "duration": 0.1589,
      "velocity": 62,
      "instrument": 0,
      "instrument_name": "Acoustic Grand Piano",
      "is_drum": false
    },
    {
      "pitch": 71,
      "start": 28.5,
      "end": 28.6803,
      "duration": 0.1804,
      "velocity": 49,
      "instrument": 0,
      "instrument_name": "Acoustic Grand Piano",
      "is_drum": false
    },
    {
      "pitch": 74,
      "start": 28.7143,
      "end": 28.8714,
      "duration": 0.1571,
      "velocity": 47,
      "instrument": 0,
      "instrument_name": "Acoustic Grand Piano",
      "is_drum": false
    },
    {
      "pitch": 71,
      "start": 28.9285,
      "end": 29.1393,
      "duration": 0.2107,
      "velocity": 71,
      "instrument": 0,
      "instrument_name": "Acoustic Grand Piano",
      "is_drum": false
    },
    {
      "pitch": 52,
      "start": 29.1428,
      "end": 30.8571,
      "duration": 1.7143,
      "velocity": 62,
      "instrument": 0,
      "instrument_name": "Acoustic Grand Piano",
      "is_drum": false
    },
    {
      "pitch": 71,
      "start": 29.3571,
      "end": 29.575,
      "duration": 0.2179,
      "velocity": 61,
      "instrument": 0,
      "instrument_name": "Acoustic Grand Piano",
      "is_drum": false
    },
    {
      "pitch": 74,
      "start": 29.5714,
      "end": 29.741,
      "duration": 0.1696,
      "velocity": 47,
      "instrument": 0,
      "instrument_name": "Acoustic Grand Piano",
      "is_drum": false
    },
    {
      "pitch": 71,
      "start": 29.7857,
      "end": 30.0107,
      "duration": 0.225,
      "velocity": 49,
      "instrument": 0,
      "instrument_name": "Acoustic Grand Piano",
      "is_drum": false
    },
    {
      "pitch": 80,
      "start": 30.0,
      "end": 30.1875,
      "duration": 0.1875,
      "velocity": 69,
      "instrument": 0,
      "instrument_name": "Acoustic Grand Piano",
      "is_drum": false
    },
    {
      "pitch": 71,
      "start": 30.2143,
      "end": 30.4107,
      "duration": 0.1964,
      "velocity": 46,
      "instrument": 0,
      "instrument_name": "Acoustic Grand Piano",
      "is_drum": false
    },
    {
      "pitch": 74,
      "start": 30.4285,
      "end": 30.625,
      "duration": 0.1964,
      "velocity": 49,
      "instrument": 0,
      "instrument_name": "Acoustic Grand Piano",
      "is_drum": false
    },
    {
      "pitch": 71,
      "start": 30.6428,
      "end": 30.7732,
      "duration": 0.1304,
      "velocity": 54,
      "instrument": 0,
      "instrument_name": "Acoustic Grand Piano",
      "is_drum": false
    }
  ],
  "embedding": [
    0.0,
    0.11413043478260869,
    0.11413043478260869,
    0.010869565217391304,
    0.20652173913043478,
    0.02717391304347826,
    0.11413043478260869,
    0.010869565217391304,
    0.059782608695652176,
    0.16304347826086957,
    0.010869565217391304,
    0.16847826086956522,
    0.18032786885245902,
    0.00546448087431694,
    0.02185792349726776,
    0.0273224043715847,
    0.0,
    0.03278688524590164,
    0.01092896174863388,
    0.00546448087431694,
    0.0273224043715847,
    0.03825136612021858,
    0.02185792349726776,
    0.01092896174863388,
    0.0273224043715847,
    0.0,
    0.03278688524590164,
    0.07103825136612021,
    0.0273224043715847,
    0.06557377049180328,
    0.02185792349726776,
    0.12568306010928962,
    0.01639344262295082,
    0.04918032786885246,
    0.01092896174863388,
    0.00546448087431694,
    0.16393442622950818,
    0.0,
    0.0,
    0.05434782608695652,
    0.3641304347826087,
    0.44021739130434784,
    0.1358695652173913,
    0.005434782608695652,
    0.0,
    0.0,
    0.44565217391304346,
    0.32065217391304346,
    0.1956521739130435,
    0.03260869565217391,
    0.005434782608695652,
    0.0,
    0.0,
    0.0,
    0.0,
    0.5204724409448819,
    0.205,
    0.5251968503937008,
    0.29,
    0.0392,
    0.03012,
    0.35,
    0.05143333333333333,
    0.14130434782608695,
    0.14130434782608695,
    0.10326086956521739,
    0.08152173913043478,
    0.07608695652173914,
    0.059782608695652176,
    0.043478260869565216,
    0.03804347826086957,
    0.03260869565217391,
    0.02717391304347826,
    0.02717391304347826,
    0.02717391304347826,
    0.021739130434782608,
    0.021739130434782608,
    0.021739130434782608,
    0.016304347826086956,
    0.016304347826086956,
    0.016304347826086956,
    0.010869565217391304,
    0.010869565217391304,
    0.010869565217391304,
    0.010869565217391304,
    0.010869565217391304,
    0.010869565217391304,
    0.010869565217391304,
    0.005434782608695652,
    0.005434782608695652,
    0.0,
    0.0,
    0.0,
    0.0,
    0.0,
    0.0,
    0.0,
    0.0,
    0.0,
    0.0,
    0.0,
    0.0,
    0.0,
    0.0,
    0.0,
    0.0,
    0.0,
    0.0,
    0.0,
    0.0,
    0.0,
    0.0,
    0.0,
    0.0,
    0.0,
    0.0,
    0.0,
    0.0,
    0.0,
    0.0,
    0.0,
    0.0,
    0.0,
    0.0,
    0.0,
    0.0,
    0.0,
    0.0
  ],
  "pitch_histogram": [
    0.0,
    0.0,
    0.0,
    0.0,
    0.0,
    0.0,
    0.0,
    0.0,
    0.0,
    0.0,
    0.0,
    0.0,
    0.0,
    0.0,
    0.0,
    0.0,
    0.0,
    0.0,
    0.0,
    0.0,
    0.0,
    0.0,
    0.0,
    0.0,
    0.0,
    0.0,
    0.0,
    0.0,
    0.0,
    0.0,
    0.0,
    0.0,
    0.0,
    0.0,
    0.0,
    0.0,
    0.0,
    0.0,
    0.0,
    0.0,
    0.0,
    0.0,
    0.0,
    0.0,
    0.005434782608695652,
    0.010869565217391304,
    0.0,
    0.02717391304347826,
    0.0,
    0.005434782608695652,
    0.021739130434782608,
    0.0,
    0.021739130434782608,
    0.010869565217391304,
    0.021739130434782608,
    0.010869565217391304,
    0.010869565217391304,
    0.03804347826086957,
    0.0,
    0.0,
    0.0,
    0.02717391304347826,
    0.03260869565217391,
    0.0,
    0.14130434782608695,
    0.016304347826086956,
    0.07608695652173914,
    0.0,
    0.02717391304347826,
    0.10326086956521739,
    0.010869565217391304,
    0.14130434782608695,
    0.0,
    0.08152173913043478,
    0.059782608695652176,
    0.010869565217391304,
    0.043478260869565216,
    0.0,
    0.016304347826086956,
    0.0,
    0.016304347826086956,
    0.010869565217391304,
    0.0,
    0.0,
    0.0,
    0.0,
    0.0,
    0.0,
    0.0,
    0.0,
    0.0,
    0.0,
    0.0,
    0.0,
    0.0,
    0.0,
    0.0,
    0.0,
    0.0,
    0.0,
    0.0,
    0.0,
    0.0,
    0.0,
    0.0,
    0.0,
    0.0,
    0.0,
    0.0,
    0.0,
    0.0,
    0.0,
    0.0,
    0.0,
    0.0,
    0.0,
    0.0,
    0.0,
    0.0,
    0.0,
    0.0,
    0.0,
    0.0,
    0.0,
    0.0,
    0.0,
    0.0,
    0.0
  ],
  "pitch_class_histogram": [
    0.0,
    0.11413043478260869,
    0.11413043478260869,
    0.010869565217391304,
    0.20652173913043478,
    0.02717391304347826,
    0.11413043478260869,
    0.010869565217391304,
    0.059782608695652176,
    0.16304347826086957,
    0.010869565217391304,
    0.16847826086956522
  ],
  "interval_histogram": [
    0.18032786885245902,
    0.00546448087431694,
    0.02185792349726776,
    0.0273224043715847,
    0.0,
    0.03278688524590164,
    0.01092896174863388,
    0.00546448087431694,
    0.0273224043715847,
    0.03825136612021858,
    0.02185792349726776,
    0.01092896174863388,
    0.0273224043715847,
    0.0,
    0.03278688524590164,
    0.07103825136612021,
    0.0273224043715847,
    0.06557377049180328,
    0.02185792349726776,
    0.12568306010928962,
    0.01639344262295082,
    0.04918032786885246,
    0.01092896174863388,
    0.00546448087431694,
    0.16393442622950818
  ],
  "velocity_histogram": [
    0.0,
    0.0,
    0.05434782608695652,
    0.3641304347826087,
    0.44021739130434784,
    0.1358695652173913,
    0.005434782608695652,
    0.0
  ],
  "duration_histogram": [
    0.0,
    0.44565217391304346,
    0.32065217391304346,
    0.1956521739130435,
    0.03260869565217391,
    0.005434782608695652,
    0.0,
    0.0,
    0.0,
    0.0
  ]
}