{
  "stats": {
    "filename": "땅과 하늘 사이_BPM94_4-4.mid",
    "total_notes": 105,
    "total_duration_sec": 33.19,
    "avg_tempo": 94.0,
    "pitch_range": [
      40,
      74
    ],
    "pitch_mean": 58.3,
    "pitch_std": 5.8,
    "velocity_range": [
      37,
      86
    ],
    "velocity_mean": 64.5,
    "velocity_std": 10.2,
    "duration_mean": 0.9733,
    "duration_std": 0.817,
    "estimated_key": "D",
    "num_instruments": 2,
    "time_signatures": [
      "4/4"
    ]
  },
  "composer_tags": {
    "rhythm_type": "moderate",
    "rhythm_regularity": 0.211,
    "note_density_per_sec": 3.16,
    "avg_ioi": 0.5443,
    "harmony_type": "triadic",
    "harmonic_brightness": 0.429,
    "harmony_ratio": 0.638,
    "avg_polyphony": 3.53,
    "max_polyphony": 6,
    "accompaniment_pattern": "block_chord",
    "arpeggio_ratio": 0.0,
    "voicing_type": "semi_open",
    "avg_voicing_spread": 13.8,
    "pitch_range": 34,
    "register": "tenor",
    "dynamic_profile": "moderate",
    "dynamic_level": "mezzo-forte",
    "velocity_range": 49,
    "tempo_bpm": 94.0,
    "tempo_category": "andante"
  },
  "notes": [
    {
      "pitch": 62,
      "start": 2.5532,
      "end": 3.4787,
      "duration": 0.9255,
      "velocity": 51,
      "instrument": 0,
      "instrument_name": "Acoustic Grand Piano",
      "is_drum": false
    },
    {
      "pitch": 55,
      "start": 2.5532,
      "end": 4.3152,
      "duration": 1.762,
      "velocity": 54,
      "instrument": 0,
      "instrument_name": "Acoustic Grand Piano",
      "is_drum": false
    },
    {
      "pitch": 62,
      "start": 2.5532,
      "end": 4.516,
      "duration": 1.9628,
      "velocity": 69,
      "instrument": 0,
      "instrument_name": "Acoustic Grand Piano",
      "is_drum": false
    },
    {
      "pitch": 59,
      "start": 2.5532,
      "end": 4.5771,
      "duration": 2.0239,
      "velocity": 58,
      "instrument": 0,
      "instrument_name": "Acoustic Grand Piano",
      "is_drum": false
    },
    {
      "pitch": 43,
      "start": 2.5532,
      "end": 4.6569,
      "duration": 2.1037,
      "velocity": 45,
      "instrument": 0,
      "instrument_name": "Acoustic Grand Piano",
      "is_drum": false
    },
    {
      "pitch": 59,
      "start": 3.5106,
      "end": 4.9681,
      "duration": 1.4574,
      "velocity": 69,
      "instrument": 0,
      "instrument_name": "Acoustic Grand Piano",
      "is_drum": false
    },
    {
      "pitch": 54,
      "start": 5.1064,
      "end": 6.4255,
      "duration": 1.3191,
      "velocity": 58,
      "instrument": 0,
      "instrument_name": "Acoustic Grand Piano",
      "is_drum": false
    },
    {
      "pitch": 57,
      "start": 5.1064,
      "end": 6.4282,
      "duration": 1.3218,
      "velocity": 58,
      "instrument": 0,
      "instrument_name": "Acoustic Grand Piano",
      "is_drum": false
    },
    {
      "pitch": 62,
      "start": 5.1064,
      "end": 6.4362,
      "duration": 1.3298,
      "velocity": 60,
      "instrument": 0,
      "instrument_name": "Acoustic Grand Piano",
      "is_drum": false
    },
    {
      "pitch": 47,
      "start": 5.1064,
      "end": 7.0784,
      "duration": 1.9721,
      "velocity": 52,
      "instrument": 0,
      "instrument_name": "Acoustic Grand Piano",
      "is_drum": false
    },
    {
      "pitch": 57,
      "start": 5.4255,
      "end": 5.7513,
      "duration": 0.3258,
      "velocity": 67,
      "instrument": 0,
      "instrument_name": "Acoustic Grand Piano",
      "is_drum": false
    },
    {
      "pitch": 60,
      "start": 5.7447,
      "end": 6.0465,
      "duration": 0.3019,
      "velocity": 66,
      "instrument": 0,
      "instrument_name": "Acoustic Grand Piano",
      "is_drum": false
    },
    {
      "pitch": 59,
      "start": 6.0638,
      "end": 6.2154,
      "duration": 0.1516,
      "velocity": 54,
      "instrument": 0,
      "instrument_name": "Acoustic Grand Piano",
      "is_drum": false
    },
    {
      "pitch": 59,
      "start": 6.383,
      "end": 6.7114,
      "duration": 0.3285,
      "velocity": 64,
      "instrument": 0,
      "instrument_name": "Acoustic Grand Piano",
      "is_drum": false
    },
    {
      "pitch": 57,
      "start": 6.7021,
      "end": 7.0186,
      "duration": 0.3165,
      "velocity": 68,
      "instrument": 0,
      "instrument_name": "Acoustic Grand Piano",
      "is_drum": false
    },
    {
      "pitch": 55,
      "start": 7.0213,
      "end": 7.3909,
      "duration": 0.3697,
      "velocity": 68,
      "instrument": 0,
      "instrument_name": "Acoustic Grand Piano",
      "is_drum": false
    },
    {
      "pitch": 54,
      "start": 7.3404,
      "end": 7.6702,
      "duration": 0.3298,
      "velocity": 70,
      "instrument": 0,
      "instrument_name": "Acoustic Grand Piano",
      "is_drum": false
    },
    {
      "pitch": 57,
      "start": 7.6596,
      "end": 8.5891,
      "duration": 0.9295,
      "velocity": 65,
      "instrument": 0,
      "instrument_name": "Acoustic Grand Piano",
      "is_drum": false
    },
    {
      "pitch": 55,
      "start": 7.6596,
      "end": 9.4401,
      "duration": 1.7806,
      "velocity": 56,
      "instrument": 0,
      "instrument_name": "Acoustic Grand Piano",
      "is_drum": false
    },
    {
      "pitch": 59,
      "start": 7.6596,
      "end": 9.4734,
      "duration": 1.8138,
      "velocity": 58,
      "instrument": 0,
      "instrument_name": "Acoustic Grand Piano",
      "is_drum": false
    },
    {
      "pitch": 62,
      "start": 7.6596,
      "end": 9.5146,
      "duration": 1.8551,
      "velocity": 67,
      "instrument": 0,
      "instrument_name": "Acoustic Grand Piano",
      "is_drum": false
    },
    {
      "pitch": 52,
      "start": 7.6596,
      "end": 12.3604,
      "duration": 4.7008,
      "velocity": 49,
      "instrument": 0,
      "instrument_name": "Acoustic Grand Piano",
      "is_drum": false
    },
    {
      "pitch": 55,
      "start": 8.617,
      "end": 10.1476,
      "duration": 1.5306,
      "velocity": 72,
      "instrument": 0,
      "instrument_name": "Acoustic Grand Piano",
      "is_drum": false
    },
    {
      "pitch": 66,
      "start": 10.2128,
      "end": 10.5505,
      "duration": 0.3378,
      "velocity": 75,
      "instrument": 0,
      "instrument_name": "Acoustic Grand Piano",
      "is_drum": false
    },
    {
      "pitch": 57,
      "start": 10.2128,
      "end": 10.5758,
      "duration": 0.363,
      "velocity": 77,
      "instrument": 0,
      "instrument_name": "Acoustic Grand Piano",
      "is_drum": false
    },
    {
      "pitch": 62,
      "start": 11.4893,
      "end": 11.625,
      "duration": 0.1356,
      "velocity": 76,
      "instrument": 0,
      "instrument_name": "Acoustic Grand Piano",
      "is_drum": false
    },
    {
      "pitch": 55,
      "start": 11.4893,
      "end": 11.6303,
      "duration": 0.141,
      "velocity": 71,
      "instrument": 0,
      "instrument_name": "Acoustic Grand Piano",
      "is_drum": false
    },
    {
      "pitch": 62,
      "start": 12.7659,
      "end": 13.7473,
      "duration": 0.9814,
      "velocity": 75,
      "instrument": 0,
      "instrument_name": "Acoustic Grand Piano",
      "is_drum": false
    },
    {
      "pitch": 55,
      "start": 12.7659,
      "end": 14.9348,
      "duration": 2.1689,
      "velocity": 57,
      "instrument": 0,
      "instrument_name": "Acoustic Grand Piano",
      "is_drum": false
    },
    {
      "pitch": 52,
      "start": 12.7659,
      "end": 14.9401,
      "duration": 2.1742,
      "velocity": 65,
      "instrument": 0,
      "instrument_name": "Acoustic Grand Piano",
      "is_drum": false
    },
    {
      "pitch": 62,
      "start": 12.7659,
      "end": 15.0824,
      "duration": 2.3165,
      "velocity": 69,
      "instrument": 0,
      "instrument_name": "Acoustic Grand Piano",
      "is_drum": false
    },
    {
      "pitch": 45,
      "start": 12.7659,
      "end": 16.5957,
      "duration": 3.8298,
      "velocity": 61,
      "instrument": 0,
      "instrument_name": "Acoustic Grand Piano",
      "is_drum": false
    },
    {
      "pitch": 60,
      "start": 13.7234,
      "end": 14.8338,
      "duration": 1.1104,
      "velocity": 79,
      "instrument": 0,
      "instrument_name": "Acoustic Grand Piano",
      "is_drum": false
    },
    {
      "pitch": 60,
      "start": 15.3191,
      "end": 16.5758,
      "duration": 1.2566,
      "velocity": 84,
      "instrument": 0,
      "instrument_name": "Acoustic Grand Piano",
      "is_drum": false
    },
    {
      "pitch": 59,
      "start": 15.6383,
      "end": 15.9694,
      "duration": 0.3311,
      "velocity": 75,
      "instrument": 0,
      "instrument_name": "Acoustic Grand Piano",
      "is_drum": false
    },
    {
      "pitch": 60,
      "start": 15.9574,
      "end": 16.2486,
      "duration": 0.2912,
      "velocity": 74,
      "instrument": 0,
      "instrument_name": "Acoustic Grand Piano",
      "is_drum": false
    },
    {
      "pitch": 59,
      "start": 16.2766,
      "end": 16.4375,
      "duration": 0.1609,
      "velocity": 62,
      "instrument": 0,
      "instrument_name": "Acoustic Grand Piano",
      "is_drum": false
    },
    {
      "pitch": 59,
      "start": 16.5957,
      "end": 16.9082,
      "duration": 0.3125,
      "velocity": 76,
      "instrument": 0,
      "instrument_name": "Acoustic Grand Piano",
      "is_drum": false
    },
    {
      "pitch": 59,
      "start": 16.5957,
      "end": 17.1702,
      "duration": 0.5745,
      "velocity": 66,
      "instrument": 0,
      "instrument_name": "Acoustic Grand Piano",
      "is_drum": false
    },
    {
      "pitch": 64,
      "start": 16.5957,
      "end": 17.2167,
      "duration": 0.621,
      "velocity": 65,
      "instrument": 0,
      "instrument_name": "Acoustic Grand Piano",
      "is_drum": false
    },
    {
      "pitch": 49,
      "start": 16.5957,
      "end": 17.3431,
      "duration": 0.7473,
      "velocity": 58,
      "instrument": 0,
      "instrument_name": "Acoustic Grand Piano",
      "is_drum": false
    },
    {
      "pitch": 57,
      "start": 16.9149,
      "end": 17.0505,
      "duration": 0.1356,
      "velocity": 67,
      "instrument": 0,
      "instrument_name": "Acoustic Grand Piano",
      "is_drum": false
    },
    {
      "pitch": 57,
      "start": 17.234,
      "end": 17.5452,
      "duration": 0.3112,
      "velocity": 76,
      "instrument": 0,
      "instrument_name": "Acoustic Grand Piano",
      "is_drum": false
    },
    {
      "pitch": 55,
      "start": 17.5532,
      "end": 17.7181,
      "duration": 0.1649,
      "velocity": 69,
      "instrument": 0,
      "instrument_name": "Acoustic Grand Piano",
      "is_drum": false
    },
    {
      "pitch": 55,
      "start": 17.8723,
      "end": 18.484,
      "duration": 0.6117,
      "velocity": 74,
      "instrument": 0,
      "instrument_name": "Acoustic Grand Piano",
      "is_drum": false
    },
    {
      "pitch": 64,
      "start": 17.8723,
      "end": 19.7686,
      "duration": 1.8963,
      "velocity": 44,
      "instrument": 0,
      "instrument_name": "Acoustic Grand Piano",
      "is_drum": false
    },
    {
      "pitch": 67,
      "start": 17.8723,
      "end": 19.8537,
      "duration": 1.9814,
      "velocity": 68,
      "instrument": 0,
      "instrument_name": "Acoustic Grand Piano",
      "is_drum": false
    },
    {
      "pitch": 50,
      "start": 17.8723,
      "end": 19.9175,
      "duration": 2.0452,
      "velocity": 54,
      "instrument": 0,
      "instrument_name": "Acoustic Grand Piano",
      "is_drum": false
    },
    {
      "pitch": 60,
      "start": 17.8723,
      "end": 19.9295,
      "duration": 2.0572,
      "velocity": 58,
      "instrument": 0,
      "instrument_name": "Acoustic Grand Piano",
      "is_drum": false
    },
    {
      "pitch": 54,
      "start": 18.5106,
      "end": 18.8231,
      "duration": 0.3125,
      "velocity": 62,
      "instrument": 0,
      "instrument_name": "Acoustic Grand Piano",
      "is_drum": false
    },
    {
      "pitch": 57,
      "start": 18.8298,
      "end": 20.1808,
      "duration": 1.3511,
      "velocity": 67,
      "instrument": 0,
      "instrument_name": "Acoustic Grand Piano",
      "is_drum": false
    },
    {
      "pitch": 57,
      "start": 20.4255,
      "end": 21.1582,
      "duration": 0.7327,
      "velocity": 56,
      "instrument": 0,
      "instrument_name": "Acoustic Grand Piano",
      "is_drum": false
    },
    {
      "pitch": 62,
      "start": 20.4255,
      "end": 21.1755,
      "duration": 0.75,
      "velocity": 61,
      "instrument": 0,
      "instrument_name": "Acoustic Grand Piano",
      "is_drum": false
    },
    {
      "pitch": 66,
      "start": 20.4255,
      "end": 21.2087,
      "duration": 0.7832,
      "velocity": 62,
      "instrument": 0,
      "instrument_name": "Acoustic Grand Piano",
      "is_drum": false
    },
    {
      "pitch": 50,
      "start": 20.4255,
      "end": 22.5372,
      "duration": 2.1117,
      "velocity": 47,
      "instrument": 0,
      "instrument_name": "Acoustic Grand Piano",
      "is_drum": false
    },
    {
      "pitch": 57,
      "start": 21.7021,
      "end": 22.0133,
      "duration": 0.3112,
      "velocity": 77,
      "instrument": 0,
      "instrument_name": "Acoustic Grand Piano",
      "is_drum": false
    },
    {
      "pitch": 69,
      "start": 21.7021,
      "end": 21.9494,
      "duration": 0.2473,
      "velocity": 38,
      "instrument": 0,
      "instrument_name": "Acoustic Grand Piano",
      "is_drum": false
    },
    {
      "pitch": 59,
      "start": 22.0212,
      "end": 22.3404,
      "duration": 0.3191,
      "velocity": 68,
      "instrument": 0,
      "instrument_name": "Acoustic Grand Piano",
      "is_drum": false
    },
    {
      "pitch": 71,
      "start": 22.0212,
      "end": 22.1476,
      "duration": 0.1263,
      "velocity": 70,
      "instrument": 0,
      "instrument_name": "Acoustic Grand Piano",
      "is_drum": false
    },
    {
      "pitch": 60,
      "start": 22.3404,
      "end": 22.6662,
      "duration": 0.3258,
      "velocity": 75,
      "instrument": 0,
      "instrument_name": "Acoustic Grand Piano",
      "is_drum": false
    },
    {
      "pitch": 72,
      "start": 22.3404,
      "end": 22.5611,
      "duration": 0.2207,
      "velocity": 86,
      "instrument": 0,
      "instrument_name": "Acoustic Grand Piano",
      "is_drum": false
    },
    {
      "pitch": 62,
      "start": 22.6595,
      "end": 23.7167,
      "duration": 1.0572,
      "velocity": 76,
      "instrument": 0,
      "instrument_name": "Acoustic Grand Piano",
      "is_drum": false
    },
    {
      "pitch": 74,
      "start": 22.6595,
      "end": 23.4827,
      "duration": 0.8231,
      "velocity": 85,
      "instrument": 0,
      "instrument_name": "Acoustic Grand Piano",
      "is_drum": false
    },
    {
      "pitch": 47,
      "start": 22.9787,
      "end": 24.9534,
      "duration": 1.9747,
      "velocity": 66,
      "instrument": 0,
      "instrument_name": "Acoustic Grand Piano",
      "is_drum": false
    },
    {
      "pitch": 54,
      "start": 23.2978,
      "end": 24.9228,
      "duration": 1.625,
      "velocity": 64,
      "instrument": 0,
      "instrument_name": "Acoustic Grand Piano",
      "is_drum": false
    },
    {
      "pitch": 57,
      "start": 23.617,
      "end": 24.8909,
      "duration": 1.2739,
      "velocity": 40,
      "instrument": 0,
      "instrument_name": "Acoustic Grand Piano",
      "is_drum": false
    },
    {
      "pitch": 62,
      "start": 23.9361,
      "end": 25.0292,
      "duration": 1.0931,
      "velocity": 59,
      "instrument": 0,
      "instrument_name": "Acoustic Grand Piano",
      "is_drum": false
    },
    {
      "pitch": 66,
      "start": 24.2553,
      "end": 24.9787,
      "duration": 0.7234,
      "velocity": 68,
      "instrument": 0,
      "instrument_name": "Acoustic Grand Piano",
      "is_drum": false
    },
    {
      "pitch": 62,
      "start": 25.5319,
      "end": 25.847,
      "duration": 0.3152,
      "velocity": 68,
      "instrument": 0,
      "instrument_name": "Acoustic Grand Piano",
      "is_drum": false
    },
    {
      "pitch": 66,
      "start": 25.5319,
      "end": 26.4122,
      "duration": 0.8803,
      "velocity": 69,
      "instrument": 0,
      "instrument_name": "Acoustic Grand Piano",
      "is_drum": false
    },
    {
      "pitch": 62,
      "start": 25.5319,
      "end": 26.4149,
      "duration": 0.883,
      "velocity": 68,
      "instrument": 0,
      "instrument_name": "Acoustic Grand Piano",
      "is_drum": false
    },
    {
      "pitch": 57,
      "start": 25.5319,
      "end": 26.4747,
      "duration": 0.9428,
      "velocity": 70,
      "instrument": 0,
      "instrument_name": "Acoustic Grand Piano",
      "is_drum": false
    },
    {
      "pitch": 40,
      "start": 25.5319,
      "end": 28.0851,
      "duration": 2.5532,
      "velocity": 43,
      "instrument": 0,
      "instrument_name": "Acoustic Grand Piano",
      "is_drum": false
    },
    {
      "pitch": 50,
      "start": 25.5319,
      "end": 28.0851,
      "duration": 2.5532,
      "velocity": 47,
      "instrument": 0,
      "instrument_name": "Acoustic Grand Piano",
      "is_drum": false
    },
    {
      "pitch": 60,
      "start": 25.851,
      "end": 26.1462,
      "duration": 0.2952,
      "velocity": 59,
      "instrument": 0,
      "instrument_name": "Acoustic Grand Piano",
      "is_drum": false
    },
    {
      "pitch": 59,
      "start": 26.1702,
      "end": 26.3204,
      "duration": 0.1503,
      "velocity": 62,
      "instrument": 0,
      "instrument_name": "Acoustic Grand Piano",
      "is_drum": false
    },
    {
      "pitch": 59,
      "start": 26.4893,
      "end": 27.0824,
      "duration": 0.5931,
      "velocity": 71,
      "instrument": 0,
      "instrument_name": "Acoustic Grand Piano",
      "is_drum": false
    },
    {
      "pitch": 56,
      "start": 26.8085,
      "end": 27.6609,
      "duration": 0.8524,
      "velocity": 69,
      "instrument": 0,
      "instrument_name": "Acoustic Grand Piano",
      "is_drum": false
    },
    {
      "pitch": 59,
      "start": 26.8085,
      "end": 27.6635,
      "duration": 0.8551,
      "velocity": 67,
      "instrument": 0,
      "instrument_name": "Acoustic Grand Piano",
      "is_drum": false
    },
    {
      "pitch": 64,
      "start": 26.8085,
      "end": 27.6662,
      "duration": 0.8577,
      "velocity": 73,
      "instrument": 0,
      "instrument_name": "Acoustic Grand Piano",
      "is_drum": false
    },
    {
      "pitch": 56,
      "start": 27.1276,
      "end": 27.472,
      "duration": 0.3444,
      "velocity": 37,
      "instrument": 0,
      "instrument_name": "Acoustic Grand Piano",
      "is_drum": false
    },
    {
      "pitch": 62,
      "start": 27.4468,
      "end": 27.7819,
      "duration": 0.3351,
      "velocity": 62,
      "instrument": 0,
      "instrument_name": "Acoustic Grand Piano",
      "is_drum": false
    },
    {
      "pitch": 60,
      "start": 27.7659,
      "end": 28.968,
      "duration": 1.2021,
      "velocity": 69,
      "instrument": 0,
      "instrument_name": "Acoustic Grand Piano",
      "is_drum": false
    },
    {
      "pitch": 55,
      "start": 28.0851,
      "end": 29.1157,
      "duration": 1.0306,
      "velocity": 54,
      "instrument": 0,
      "instrument_name": "Acoustic Grand Piano",
      "is_drum": false
    },
    {
      "pitch": 60,
      "start": 28.0851,
      "end": 29.2167,
      "duration": 1.1316,
      "velocity": 67,
      "instrument": 0,
      "instrument_name": "Acoustic Grand Piano",
      "is_drum": false
    },
    {
      "pitch": 45,
      "start": 28.0851,
      "end": 29.5133,
      "duration": 1.4282,
      "velocity": 57,
      "instrument": 0,
      "instrument_name": "Acoustic Grand Piano",
      "is_drum": false
    },
    {
      "pitch": 52,
      "start": 28.0851,
      "end": 30.2699,
      "duration": 2.1848,
      "velocity": 55,
      "instrument": 0,
      "instrument_name": "Acoustic Grand Piano",
      "is_drum": false
    },
    {
      "pitch": 59,
      "start": 29.6808,
      "end": 30.0266,
      "duration": 0.3457,
      "velocity": 66,
      "instrument": 0,
      "instrument_name": "Acoustic Grand Piano",
      "is_drum": false
    },
    {
      "pitch": 60,
      "start": 30.0,
      "end": 30.3032,
      "duration": 0.3032,
      "velocity": 83,
      "instrument": 0,
      "instrument_name": "Acoustic Grand Piano",
      "is_drum": false
    },
    {
      "pitch": 59,
      "start": 30.3191,
      "end": 30.6516,
      "duration": 0.3324,
      "velocity": 76,
      "instrument": 0,
      "instrument_name": "Acoustic Grand Piano",
      "is_drum": false
    },
    {
      "pitch": 67,
      "start": 30.3191,
      "end": 31.4215,
      "duration": 1.1024,
      "velocity": 79,
      "instrument": 0,
      "instrument_name": "Acoustic Grand Piano",
      "is_drum": false
    },
    {
      "pitch": 60,
      "start": 30.6383,
      "end": 30.9734,
      "duration": 0.3351,
      "velocity": 71,
      "instrument": 0,
      "instrument_name": "Acoustic Grand Piano",
      "is_drum": false
    },
    {
      "pitch": 64,
      "start": 30.6383,
      "end": 31.3377,
      "duration": 0.6995,
      "velocity": 57,
      "instrument": 0,
      "instrument_name": "Acoustic Grand Piano",
      "is_drum": false
    },
    {
      "pitch": 60,
      "start": 30.6383,
      "end": 31.3976,
      "duration": 0.7593,
      "velocity": 59,
      "instrument": 0,
      "instrument_name": "Acoustic Grand Piano",
      "is_drum": false
    },
    {
      "pitch": 50,
      "start": 30.6383,
      "end": 31.4308,
      "duration": 0.7926,
      "velocity": 50,
      "instrument": 0,
      "instrument_name": "Acoustic Grand Piano",
      "is_drum": false
    },
    {
      "pitch": 59,
      "start": 30.9574,
      "end": 31.2473,
      "duration": 0.2899,
      "velocity": 68,
      "instrument": 0,
      "instrument_name": "Acoustic Grand Piano",
      "is_drum": false
    },
    {
      "pitch": 57,
      "start": 31.2766,
      "end": 31.4109,
      "duration": 0.1343,
      "velocity": 62,
      "instrument": 0,
      "instrument_name": "Acoustic Grand Piano",
      "is_drum": false
    },
    {
      "pitch": 57,
      "start": 31.5957,
      "end": 32.0811,
      "duration": 0.4854,
      "velocity": 74,
      "instrument": 0,
      "instrument_name": "Acoustic Grand Piano",
      "is_drum": false
    },
    {
      "pitch": 62,
      "start": 31.9148,
      "end": 32.468,
      "duration": 0.5532,
      "velocity": 67,
      "instrument": 0,
      "instrument_name": "Acoustic Grand Piano",
      "is_drum": false
    },
    {
      "pitch": 48,
      "start": 31.9148,
      "end": 32.4853,
      "duration": 0.5705,
      "velocity": 47,
      "instrument": 0,
      "instrument_name": "Acoustic Grand Piano",
      "is_drum": false
    },
    {
      "pitch": 57,
      "start": 31.9148,
      "end": 32.488,
      "duration": 0.5731,
      "velocity": 66,
      "instrument": 0,
      "instrument_name": "Acoustic Grand Piano",
      "is_drum": false
    },
    {
      "pitch": 66,
      "start": 31.9148,
      "end": 32.4893,
      "duration": 0.5745,
      "velocity": 67,
      "instrument": 0,
      "instrument_name": "Acoustic Grand Piano",
      "is_drum": false
    },
    {
      "pitch": 57,
      "start": 32.234,
      "end": 32.5837,
      "duration": 0.3497,
      "velocity": 68,
      "instrument": 0,
      "instrument_name": "Acoustic Grand Piano",
      "is_drum": false
    },
    {
      "pitch": 66,
      "start": 32.5531,
      "end": 32.8656,
      "duration": 0.3125,
      "velocity": 80,
      "instrument": 0,
      "instrument_name": "Acoustic Grand Piano",
      "is_drum": false
    },
    {
      "pitch": 62,
      "start": 33.0319,
      "end": 33.1914,
      "duration": 0.1596,
      "velocity": 67,
      "instrument": 0,
      "instrument_name": "Acoustic Grand Piano",
      "is_drum": false
    }
  ],
  "embedding": [
    0.13333333333333333,
    0.009523809523809525,
    0.19047619047619047,
    0.0,
    0.0761904761904762,
    0.0,
    0.09523809523809523,
    0.11428571428571428,
    0.01904761904761905,
    0.18095238095238095,
    0.0,
    0.18095238095238095,
    0.09615384615384616,
    0.009615384615384616,
    0.038461538461538464,
    0.019230769230769232,
    0.009615384615384616,
    0.038461538461538464,
    0.009615384615384616,
    0.028846153846153848,
    0.038461538461538464,
    0.028846153846153848,
    0.057692307692307696,
    0.057692307692307696,
    0.08653846153846154,
    0.019230769230769232,
    0.0,
    0.08653846153846154,
    0.04807692307692308,
    0.07692307692307693,
    0.009615384615384616,
    0.057692307692307696,
    0.019230769230769232,
    0.04807692307692308,
    0.04807692307692308,
    0.009615384615384616,
    0.057692307692307696,
    0.0,
    0.0,
    0.08571428571428572,
    0.3047619047619048,
    0.5619047619047619,
    0.047619047619047616,
    0.0,
    0.0,
    0.0,
    0.11428571428571428,
    0.26666666666666666,
    0.24761904761904763,
    0.24761904761904763,
    0.11428571428571428,
    0.009523809523809525,
    0.0,
    0.0,
    0.0,
    0.4590551181102362,
    0.145,
    0.5078740157480315,
    0.255,
    0.09733,
    0.0817,
    0.47,
    0.05531666666666666,
    0.1523809523809524,
    0.1523809523809524,
    0.14285714285714285,
    0.11428571428571428,
    0.08571428571428572,
    0.05714285714285714,
    0.0380952380952381,
    0.0380952380952381,
    0.0380952380952381,
    0.02857142857142857,
    0.01904761904761905,
    0.01904761904761905,
    0.01904761904761905,
    0.01904761904761905,
    0.009523809523809525,
    0.009523809523809525,
    0.009523809523809525,
    0.009523809523809525,
    0.009523809523809525,
    0.009523809523809525,
    0.009523809523809525,
    0.009523809523809525,
    0.0,
    0.0,
    0.0,
    0.0,
    0.0,
    0.0,
    0.0,
    0.0,
    0.0,
    0.0,
    0.0,
    0.0,
    0.0,
    0.0,
    0.0,
    0.0,
    0.0,
    0.0,
    0.0,
    0.0,
    0.0,
    0.0,
    0.0,
    0.0,
    0.0,
    0.0,
    0.0,
    0.0,
    0.0,
    0.0,
    0.0,
    0.0,
    0.0,
    0.0,
    0.0,
    0.0,
    0.0,
    0.0,
    0.0,
    0.0,
    0.0,
    0.0,
    0.0
  ],
  "pitch_histogram": [
    0.0,
    0.0,
    0.0,
    0.0,
    0.0,
    0.0,
    0.0,
    0.0,
    0.0,
    0.0,
    0.0,
    0.0,
    0.0,
    0.0,
    0.0,
    0.0,
    0.0,
    0.0,
    0.0,
    0.0,
    0.0,
    0.0,
    0.0,
    0.0,
    0.0,
    0.0,
    0.0,
    0.0,
    0.0,
    0.0,
    0.0,
    0.0,
    0.0,
    0.0,
    0.0,
    0.0,
    0.0,
    0.0,
    0.0,
    0.0,
    0.009523809523809525,
    0.0,
    0.0,
    0.009523809523809525,
    0.0,
    0.01904761904761905,
    0.0,
    0.01904761904761905,
    0.009523809523809525,
    0.009523809523809525,
    0.0380952380952381,
    0.0,
    0.02857142857142857,
    0.0,
    0.0380952380952381,
    0.08571428571428572,
    0.01904761904761905,
    0.1523809523809524,
    0.0,
    0.1523809523809524,
    0.11428571428571428,
    0.0,
    0.14285714285714285,
    0.0,
    0.0380952380952381,
    0.0,
    0.05714285714285714,
    0.01904761904761905,
    0.0,
    0.009523809523809525,
    0.0,
    0.009523809523809525,
    0.009523809523809525,
    0.0,
    0.009523809523809525,
    0.0,
    0.0,
    0.0,
    0.0,
    0.0,
    0.0,
    0.0,
    0.0,
    0.0,
    0.0,
    0.0,
    0.0,
    0.0,
    0.0,
    0.0,
    0.0,
    0.0,
    0.0,
    0.0,
    0.0,
    0.0,
    0.0,
    0.0,
    0.0,
    0.0,
    0.0,
    0.0,
    0.0,
    0.0,
    0.0,
    0.0,
    0.0,
    0.0,
    0.0,
    0.0,
    0.0,
    0.0,
    0.0,
    0.0,
    0.0,
    0.0,
    0.0,
    0.0,
    0.0,
    0.0,
    0.0,
    0.0,
    0.0,
    0.0,
    0.0,
    0.0,
    0.0,
    0.0
  ],
  "pitch_class_histogram": [
    0.13333333333333333,
    0.009523809523809525,
    0.19047619047619047,
    0.0,
    0.0761904761904762,
    0.0,
    0.09523809523809523,
    0.11428571428571428,
    0.01904761904761905,
    0.18095238095238095,
    0.0,
    0.18095238095238095
  ],
  "interval_histogram": [
    0.09615384615384616,
    0.009615384615384616,
    0.038461538461538464,
    0.019230769230769232,
    0.009615384615384616,
    0.038461538461538464,
    0.009615384615384616,
    0.028846153846153848,
    0.038461538461538464,
    0.028846153846153848,
    0.057692307692307696,
    0.057692307692307696,
    0.08653846153846154,
    0.019230769230769232,
    0.0,
    0.08653846153846154,
    0.04807692307692308,
    0.07692307692307693,
    0.009615384615384616,
    0.057692307692307696,
    0.019230769230769232,
    0.04807692307692308,
    0.04807692307692308,
    0.009615384615384616,
    0.057692307692307696
  ],
  "velocity_histogram": [
    0.0,
    0.0,
    0.08571428571428572,
    0.3047619047619048,
    0.5619047619047619,
    0.047619047619047616,
    0.0,
    0.0
  ],
  "duration_histogram": [
    0.0,
    0.11428571428571428,
    0.26666666666666666,
    0.24761904761904763,
    0.24761904761904763,
    0.11428571428571428,
    0.009523809523809525,
    0.0,
    0.0,
    0.0
  ]
}