{
  "stats": {
    "filename": "내게 오는길_BPM72_4-4.mid",
    "total_notes": 211,
    "total_duration_sec": 41.63,
    "avg_tempo": 72.0,
    "pitch_range": [
      38,
      72
    ],
    "pitch_mean": 59.4,
    "pitch_std": 8.6,
    "velocity_range": [
      43,
      88
    ],
    "velocity_mean": 66.2,
    "velocity_std": 8.6,
    "duration_mean": 0.5621,
    "duration_std": 0.3654,
    "estimated_key": "D#",
    "num_instruments": 2,
    "time_signatures": [
      "4/4",
      "2/4",
      "4/4"
    ]
  },
  "composer_tags": {
    "rhythm_type": "dense",
    "rhythm_regularity": 0.346,
    "note_density_per_sec": 5.13,
    "avg_ioi": 0.4125,
    "harmony_type": "triadic",
    "harmonic_brightness": 0.382,
    "harmony_ratio": 0.711,
    "avg_polyphony": 3.85,
    "max_polyphony": 6,
    "accompaniment_pattern": "block_chord",
    "arpeggio_ratio": 0.01,
    "voicing_type": "open",
    "avg_voicing_spread": 17.8,
    "pitch_range": 34,
    "register": "tenor",
    "dynamic_profile": "moderate",
    "dynamic_level": "mezzo-forte",
    "velocity_range": 45,
    "tempo_bpm": 72.0,
    "tempo_category": "adagio"
  },
  "notes": [
    {
      "pitch": 39,
      "start": 0.0,
      "end": 0.4028,
      "duration": 0.4028,
      "velocity": 65,
      "instrument": 0,
      "instrument_name": "Acoustic Grand Piano",
      "is_drum": false
    },
    {
      "pitch": 46,
      "start": 0.4167,
      "end": 0.783,
      "duration": 0.3663,
      "velocity": 49,
      "instrument": 0,
      "instrument_name": "Acoustic Grand Piano",
      "is_drum": false
    },
    {
      "pitch": 51,
      "start": 0.8333,
      "end": 1.2413,
      "duration": 0.408,
      "velocity": 68,
      "instrument": 0,
      "instrument_name": "Acoustic Grand Piano",
      "is_drum": false
    },
    {
      "pitch": 58,
      "start": 0.8333,
      "end": 1.2465,
      "duration": 0.4132,
      "velocity": 73,
      "instrument": 0,
      "instrument_name": "Acoustic Grand Piano",
      "is_drum": false
    },
    {
      "pitch": 63,
      "start": 1.25,
      "end": 1.3385,
      "duration": 0.0885,
      "velocity": 66,
      "instrument": 0,
      "instrument_name": "Acoustic Grand Piano",
      "is_drum": false
    },
    {
      "pitch": 41,
      "start": 1.6667,
      "end": 2.1441,
      "duration": 0.4774,
      "velocity": 61,
      "instrument": 0,
      "instrument_name": "Acoustic Grand Piano",
      "is_drum": false
    },
    {
      "pitch": 63,
      "start": 1.6667,
      "end": 2.4635,
      "duration": 0.7969,
      "velocity": 69,
      "instrument": 0,
      "instrument_name": "Acoustic Grand Piano",
      "is_drum": false
    },
    {
      "pitch": 56,
      "start": 1.6667,
      "end": 2.5035,
      "duration": 0.8368,
      "velocity": 62,
      "instrument": 0,
      "instrument_name": "Acoustic Grand Piano",
      "is_drum": false
    },
    {
      "pitch": 53,
      "start": 2.0833,
      "end": 2.9288,
      "duration": 0.8455,
      "velocity": 68,
      "instrument": 0,
      "instrument_name": "Acoustic Grand Piano",
      "is_drum": false
    },
    {
      "pitch": 62,
      "start": 2.5,
      "end": 2.8958,
      "duration": 0.3958,
      "velocity": 62,
      "instrument": 0,
      "instrument_name": "Acoustic Grand Piano",
      "is_drum": false
    },
    {
      "pitch": 63,
      "start": 2.9167,
      "end": 4.1128,
      "duration": 1.1962,
      "velocity": 78,
      "instrument": 0,
      "instrument_name": "Acoustic Grand Piano",
      "is_drum": false
    },
    {
      "pitch": 43,
      "start": 3.3333,
      "end": 4.1319,
      "duration": 0.7986,
      "velocity": 59,
      "instrument": 0,
      "instrument_name": "Acoustic Grand Piano",
      "is_drum": false
    },
    {
      "pitch": 55,
      "start": 3.75,
      "end": 4.1962,
      "duration": 0.4462,
      "velocity": 73,
      "instrument": 0,
      "instrument_name": "Acoustic Grand Piano",
      "is_drum": false
    },
    {
      "pitch": 58,
      "start": 4.1667,
      "end": 4.6024,
      "duration": 0.4358,
      "velocity": 76,
      "instrument": 0,
      "instrument_name": "Acoustic Grand Piano",
      "is_drum": false
    },
    {
      "pitch": 63,
      "start": 4.5833,
      "end": 5.8559,
      "duration": 1.2726,
      "velocity": 75,
      "instrument": 0,
      "instrument_name": "Acoustic Grand Piano",
      "is_drum": false
    },
    {
      "pitch": 41,
      "start": 5.0,
      "end": 5.9635,
      "duration": 0.9635,
      "velocity": 73,
      "instrument": 0,
      "instrument_name": "Acoustic Grand Piano",
      "is_drum": false
    },
    {
      "pitch": 53,
      "start": 5.4167,
      "end": 6.026,
      "duration": 0.6094,
      "velocity": 76,
      "instrument": 0,
      "instrument_name": "Acoustic Grand Piano",
      "is_drum": false
    },
    {
      "pitch": 62,
      "start": 5.8333,
      "end": 6.2604,
      "duration": 0.4271,
      "velocity": 68,
      "instrument": 0,
      "instrument_name": "Acoustic Grand Piano",
      "is_drum": false
    },
    {
      "pitch": 58,
      "start": 6.25,
      "end": 7.0799,
      "duration": 0.8299,
      "velocity": 88,
      "instrument": 0,
      "instrument_name": "Acoustic Grand Piano",
      "is_drum": false
    },
    {
      "pitch": 39,
      "start": 6.6667,
      "end": 7.0642,
      "duration": 0.3976,
      "velocity": 68,
      "instrument": 0,
      "instrument_name": "Acoustic Grand Piano",
      "is_drum": false
    },
    {
      "pitch": 46,
      "start": 7.0833,
      "end": 7.4931,
      "duration": 0.4097,
      "velocity": 60,
      "instrument": 0,
      "instrument_name": "Acoustic Grand Piano",
      "is_drum": false
    },
    {
      "pitch": 51,
      "start": 7.5,
      "end": 7.8767,
      "duration": 0.3767,
      "velocity": 67,
      "instrument": 0,
      "instrument_name": "Acoustic Grand Piano",
      "is_drum": false
    },
    {
      "pitch": 58,
      "start": 7.5,
      "end": 7.9618,
      "duration": 0.4618,
      "velocity": 80,
      "instrument": 0,
      "instrument_name": "Acoustic Grand Piano",
      "is_drum": false
    },
    {
      "pitch": 63,
      "start": 7.9167,
      "end": 8.0781,
      "duration": 0.1615,
      "velocity": 72,
      "instrument": 0,
      "instrument_name": "Acoustic Grand Piano",
      "is_drum": false
    },
    {
      "pitch": 41,
      "start": 8.3333,
      "end": 8.7621,
      "duration": 0.4288,
      "velocity": 70,
      "instrument": 0,
      "instrument_name": "Acoustic Grand Piano",
      "is_drum": false
    },
    {
      "pitch": 56,
      "start": 8.3333,
      "end": 9.1493,
      "duration": 0.816,
      "velocity": 78,
      "instrument": 0,
      "instrument_name": "Acoustic Grand Piano",
      "is_drum": false
    },
    {
      "pitch": 63,
      "start": 8.3333,
      "end": 9.1719,
      "duration": 0.8385,
      "velocity": 63,
      "instrument": 0,
      "instrument_name": "Acoustic Grand Piano",
      "is_drum": false
    },
    {
      "pitch": 53,
      "start": 8.75,
      "end": 9.6111,
      "duration": 0.8611,
      "velocity": 59,
      "instrument": 0,
      "instrument_name": "Acoustic Grand Piano",
      "is_drum": false
    },
    {
      "pitch": 62,
      "start": 9.1667,
      "end": 9.5937,
      "duration": 0.4271,
      "velocity": 65,
      "instrument": 0,
      "instrument_name": "Acoustic Grand Piano",
      "is_drum": false
    },
    {
      "pitch": 63,
      "start": 9.5833,
      "end": 10.8351,
      "duration": 1.2517,
      "velocity": 72,
      "instrument": 0,
      "instrument_name": "Acoustic Grand Piano",
      "is_drum": false
    },
    {
      "pitch": 43,
      "start": 10.0,
      "end": 10.4201,
      "duration": 0.4201,
      "velocity": 71,
      "instrument": 0,
      "instrument_name": "Acoustic Grand Piano",
      "is_drum": false
    },
    {
      "pitch": 55,
      "start": 10.4167,
      "end": 11.1233,
      "duration": 0.7066,
      "velocity": 66,
      "instrument": 0,
      "instrument_name": "Acoustic Grand Piano",
      "is_drum": false
    },
    {
      "pitch": 58,
      "start": 10.8333,
      "end": 11.3021,
      "duration": 0.4687,
      "velocity": 73,
      "instrument": 0,
      "instrument_name": "Acoustic Grand Piano",
      "is_drum": false
    },
    {
      "pitch": 63,
      "start": 11.25,
      "end": 11.3125,
      "duration": 0.0625,
      "velocity": 56,
      "instrument": 0,
      "instrument_name": "Acoustic Grand Piano",
      "is_drum": false
    },
    {
      "pitch": 63,
      "start": 11.6667,
      "end": 13.6354,
      "duration": 1.9687,
      "velocity": 67,
      "instrument": 0,
      "instrument_name": "Acoustic Grand Piano",
      "is_drum": false
    },
    {
      "pitch": 56,
      "start": 11.6667,
      "end": 13.684,
      "duration": 2.0174,
      "velocity": 57,
      "instrument": 0,
      "instrument_name": "Acoustic Grand Piano",
      "is_drum": false
    },
    {
      "pitch": 60,
      "start": 11.6667,
      "end": 13.7049,
      "duration": 2.0382,
      "velocity": 62,
      "instrument": 0,
      "instrument_name": "Acoustic Grand Piano",
      "is_drum": false
    },
    {
      "pitch": 46,
      "start": 11.6667,
      "end": 13.8351,
      "duration": 2.1684,
      "velocity": 72,
      "instrument": 0,
      "instrument_name": "Acoustic Grand Piano",
      "is_drum": false
    },
    {
      "pitch": 62,
      "start": 14.1667,
      "end": 14.6406,
      "duration": 0.474,
      "velocity": 79,
      "instrument": 0,
      "instrument_name": "Acoustic Grand Piano",
      "is_drum": false
    },
    {
      "pitch": 58,
      "start": 14.5833,
      "end": 14.9149,
      "duration": 0.3316,
      "velocity": 73,
      "instrument": 0,
      "instrument_name": "Acoustic Grand Piano",
      "is_drum": false
    },
    {
      "pitch": 67,
      "start": 15.0,
      "end": 15.368,
      "duration": 0.3681,
      "velocity": 66,
      "instrument": 0,
      "instrument_name": "Acoustic Grand Piano",
      "is_drum": false
    },
    {
      "pitch": 63,
      "start": 15.0,
      "end": 15.375,
      "duration": 0.375,
      "velocity": 62,
      "instrument": 0,
      "instrument_name": "Acoustic Grand Piano",
      "is_drum": false
    },
    {
      "pitch": 65,
      "start": 15.0,
      "end": 15.3889,
      "duration": 0.3889,
      "velocity": 65,
      "instrument": 0,
      "instrument_name": "Acoustic Grand Piano",
      "is_drum": false
    },
    {
      "pitch": 39,
      "start": 15.0,
      "end": 15.7743,
      "duration": 0.7743,
      "velocity": 51,
      "instrument": 0,
      "instrument_name": "Acoustic Grand Piano",
      "is_drum": false
    },
    {
      "pitch": 51,
      "start": 15.0,
      "end": 16.2639,
      "duration": 1.2639,
      "velocity": 47,
      "instrument": 0,
      "instrument_name": "Acoustic Grand Piano",
      "is_drum": false
    },
    {
      "pitch": 58,
      "start": 15.8333,
      "end": 16.2448,
      "duration": 0.4115,
      "velocity": 69,
      "instrument": 0,
      "instrument_name": "Acoustic Grand Piano",
      "is_drum": false
    },
    {
      "pitch": 65,
      "start": 15.8333,
      "end": 16.243,
      "duration": 0.4097,
      "velocity": 73,
      "instrument": 0,
      "instrument_name": "Acoustic Grand Piano",
      "is_drum": false
    },
    {
      "pitch": 63,
      "start": 15.8333,
      "end": 16.2517,
      "duration": 0.4184,
      "velocity": 49,
      "instrument": 0,
      "instrument_name": "Acoustic Grand Piano",
      "is_drum": false
    },
    {
      "pitch": 67,
      "start": 15.8333,
      "end": 16.2708,
      "duration": 0.4375,
      "velocity": 73,
      "instrument": 0,
      "instrument_name": "Acoustic Grand Piano",
      "is_drum": false
    },
    {
      "pitch": 63,
      "start": 16.25,
      "end": 16.3871,
      "duration": 0.1372,
      "velocity": 63,
      "instrument": 0,
      "instrument_name": "Acoustic Grand Piano",
      "is_drum": false
    },
    {
      "pitch": 39,
      "start": 16.25,
      "end": 16.3281,
      "duration": 0.0781,
      "velocity": 64,
      "instrument": 0,
      "instrument_name": "Acoustic Grand Piano",
      "is_drum": false
    },
    {
      "pitch": 63,
      "start": 16.6667,
      "end": 17.0781,
      "duration": 0.4115,
      "velocity": 75,
      "instrument": 0,
      "instrument_name": "Acoustic Grand Piano",
      "is_drum": false
    },
    {
      "pitch": 68,
      "start": 16.6667,
      "end": 17.1128,
      "duration": 0.4462,
      "velocity": 68,
      "instrument": 0,
      "instrument_name": "Acoustic Grand Piano",
      "is_drum": false
    },
    {
      "pitch": 63,
      "start": 16.6667,
      "end": 17.1198,
      "duration": 0.4531,
      "velocity": 62,
      "instrument": 0,
      "instrument_name": "Acoustic Grand Piano",
      "is_drum": false
    },
    {
      "pitch": 65,
      "start": 16.6667,
      "end": 17.1198,
      "duration": 0.4531,
      "velocity": 68,
      "instrument": 0,
      "instrument_name": "Acoustic Grand Piano",
      "is_drum": false
    },
    {
      "pitch": 41,
      "start": 16.6667,
      "end": 17.9444,
      "duration": 1.2778,
      "velocity": 53,
      "instrument": 0,
      "instrument_name": "Acoustic Grand Piano",
      "is_drum": false
    },
    {
      "pitch": 53,
      "start": 16.6667,
      "end": 17.9878,
      "duration": 1.3212,
      "velocity": 62,
      "instrument": 0,
      "instrument_name": "Acoustic Grand Piano",
      "is_drum": false
    },
    {
      "pitch": 62,
      "start": 17.0833,
      "end": 17.5121,
      "duration": 0.4288,
      "velocity": 58,
      "instrument": 0,
      "instrument_name": "Acoustic Grand Piano",
      "is_drum": false
    },
    {
      "pitch": 63,
      "start": 17.5,
      "end": 17.6701,
      "duration": 0.1701,
      "velocity": 65,
      "instrument": 0,
      "instrument_name": "Acoustic Grand Piano",
      "is_drum": false
    },
    {
      "pitch": 65,
      "start": 17.5,
      "end": 17.9115,
      "duration": 0.4115,
      "velocity": 66,
      "instrument": 0,
      "instrument_name": "Acoustic Grand Piano",
      "is_drum": false
    },
    {
      "pitch": 63,
      "start": 17.5,
      "end": 17.9149,
      "duration": 0.4149,
      "velocity": 67,
      "instrument": 0,
      "instrument_name": "Acoustic Grand Piano",
      "is_drum": false
    },
    {
      "pitch": 68,
      "start": 17.5,
      "end": 17.9323,
      "duration": 0.4323,
      "velocity": 69,
      "instrument": 0,
      "instrument_name": "Acoustic Grand Piano",
      "is_drum": false
    },
    {
      "pitch": 63,
      "start": 17.9167,
      "end": 18.6892,
      "duration": 0.7726,
      "velocity": 76,
      "instrument": 0,
      "instrument_name": "Acoustic Grand Piano",
      "is_drum": false
    },
    {
      "pitch": 70,
      "start": 18.3333,
      "end": 18.6632,
      "duration": 0.3299,
      "velocity": 73,
      "instrument": 0,
      "instrument_name": "Acoustic Grand Piano",
      "is_drum": false
    },
    {
      "pitch": 67,
      "start": 18.3333,
      "end": 18.6788,
      "duration": 0.3455,
      "velocity": 58,
      "instrument": 0,
      "instrument_name": "Acoustic Grand Piano",
      "is_drum": false
    },
    {
      "pitch": 63,
      "start": 18.3333,
      "end": 18.7031,
      "duration": 0.3698,
      "velocity": 61,
      "instrument": 0,
      "instrument_name": "Acoustic Grand Piano",
      "is_drum": false
    },
    {
      "pitch": 43,
      "start": 18.3333,
      "end": 19.3785,
      "duration": 1.0451,
      "velocity": 49,
      "instrument": 0,
      "instrument_name": "Acoustic Grand Piano",
      "is_drum": false
    },
    {
      "pitch": 55,
      "start": 18.3333,
      "end": 19.4878,
      "duration": 1.1545,
      "velocity": 49,
      "instrument": 0,
      "instrument_name": "Acoustic Grand Piano",
      "is_drum": false
    },
    {
      "pitch": 58,
      "start": 19.1667,
      "end": 19.5503,
      "duration": 0.3837,
      "velocity": 59,
      "instrument": 0,
      "instrument_name": "Acoustic Grand Piano",
      "is_drum": false
    },
    {
      "pitch": 62,
      "start": 19.1667,
      "end": 19.4896,
      "duration": 0.3229,
      "velocity": 75,
      "instrument": 0,
      "instrument_name": "Acoustic Grand Piano",
      "is_drum": false
    },
    {
      "pitch": 70,
      "start": 19.1667,
      "end": 19.5052,
      "duration": 0.3385,
      "velocity": 76,
      "instrument": 0,
      "instrument_name": "Acoustic Grand Piano",
      "is_drum": false
    },
    {
      "pitch": 70,
      "start": 19.5833,
      "end": 20.4601,
      "duration": 0.8767,
      "velocity": 68,
      "instrument": 0,
      "instrument_name": "Acoustic Grand Piano",
      "is_drum": false
    },
    {
      "pitch": 70,
      "start": 20.0,
      "end": 20.4288,
      "duration": 0.4288,
      "velocity": 72,
      "instrument": 0,
      "instrument_name": "Acoustic Grand Piano",
      "is_drum": false
    },
    {
      "pitch": 63,
      "start": 20.0,
      "end": 20.4496,
      "duration": 0.4497,
      "velocity": 65,
      "instrument": 0,
      "instrument_name": "Acoustic Grand Piano",
      "is_drum": false
    },
    {
      "pitch": 67,
      "start": 20.0,
      "end": 20.4687,
      "duration": 0.4687,
      "velocity": 62,
      "instrument": 0,
      "instrument_name": "Acoustic Grand Piano",
      "is_drum": false
    },
    {
      "pitch": 44,
      "start": 20.0,
      "end": 20.7621,
      "duration": 0.7622,
      "velocity": 60,
      "instrument": 0,
      "instrument_name": "Acoustic Grand Piano",
      "is_drum": false
    },
    {
      "pitch": 56,
      "start": 20.0,
      "end": 21.4653,
      "duration": 1.4653,
      "velocity": 53,
      "instrument": 0,
      "instrument_name": "Acoustic Grand Piano",
      "is_drum": false
    },
    {
      "pitch": 68,
      "start": 20.4167,
      "end": 20.6615,
      "duration": 0.2448,
      "velocity": 56,
      "instrument": 0,
      "instrument_name": "Acoustic Grand Piano",
      "is_drum": false
    },
    {
      "pitch": 67,
      "start": 20.625,
      "end": 21.0642,
      "duration": 0.4392,
      "velocity": 76,
      "instrument": 0,
      "instrument_name": "Acoustic Grand Piano",
      "is_drum": false
    },
    {
      "pitch": 67,
      "start": 20.8333,
      "end": 21.3889,
      "duration": 0.5556,
      "velocity": 80,
      "instrument": 0,
      "instrument_name": "Acoustic Grand Piano",
      "is_drum": false
    },
    {
      "pitch": 63,
      "start": 21.0417,
      "end": 21.401,
      "duration": 0.3594,
      "velocity": 72,
      "instrument": 0,
      "instrument_name": "Acoustic Grand Piano",
      "is_drum": false
    },
    {
      "pitch": 44,
      "start": 21.25,
      "end": 21.4549,
      "duration": 0.2049,
      "velocity": 73,
      "instrument": 0,
      "instrument_name": "Acoustic Grand Piano",
      "is_drum": false
    },
    {
      "pitch": 60,
      "start": 21.4583,
      "end": 22.2587,
      "duration": 0.8003,
      "velocity": 63,
      "instrument": 0,
      "instrument_name": "Acoustic Grand Piano",
      "is_drum": false
    },
    {
      "pitch": 68,
      "start": 21.6667,
      "end": 22.0156,
      "duration": 0.349,
      "velocity": 70,
      "instrument": 0,
      "instrument_name": "Acoustic Grand Piano",
      "is_drum": false
    },
    {
      "pitch": 65,
      "start": 21.6667,
      "end": 22.0278,
      "duration": 0.3611,
      "velocity": 66,
      "instrument": 0,
      "instrument_name": "Acoustic Grand Piano",
      "is_drum": false
    },
    {
      "pitch": 60,
      "start": 21.6667,
      "end": 22.0399,
      "duration": 0.3733,
      "velocity": 68,
      "instrument": 0,
      "instrument_name": "Acoustic Grand Piano",
      "is_drum": false
    },
    {
      "pitch": 41,
      "start": 21.6667,
      "end": 22.7812,
      "duration": 1.1146,
      "velocity": 58,
      "instrument": 0,
      "instrument_name": "Acoustic Grand Piano",
      "is_drum": false
    },
    {
      "pitch": 53,
      "start": 21.6667,
      "end": 22.8055,
      "duration": 1.1389,
      "velocity": 49,
      "instrument": 0,
      "instrument_name": "Acoustic Grand Piano",
      "is_drum": false
    },
    {
      "pitch": 67,
      "start": 22.5,
      "end": 22.9236,
      "duration": 0.4236,
      "velocity": 76,
      "instrument": 0,
      "instrument_name": "Acoustic Grand Piano",
      "is_drum": false
    },
    {
      "pitch": 60,
      "start": 22.5,
      "end": 22.8542,
      "duration": 0.3542,
      "velocity": 85,
      "instrument": 0,
      "instrument_name": "Acoustic Grand Piano",
      "is_drum": false
    },
    {
      "pitch": 68,
      "start": 22.5,
      "end": 22.8785,
      "duration": 0.3785,
      "velocity": 84,
      "instrument": 0,
      "instrument_name": "Acoustic Grand Piano",
      "is_drum": false
    },
    {
      "pitch": 63,
      "start": 22.5,
      "end": 22.8941,
      "duration": 0.3941,
      "velocity": 80,
      "instrument": 0,
      "instrument_name": "Acoustic Grand Piano",
      "is_drum": false
    },
    {
      "pitch": 65,
      "start": 22.9167,
      "end": 23.3437,
      "duration": 0.4271,
      "velocity": 68,
      "instrument": 0,
      "instrument_name": "Acoustic Grand Piano",
      "is_drum": false
    },
    {
      "pitch": 58,
      "start": 23.3333,
      "end": 23.776,
      "duration": 0.4427,
      "velocity": 61,
      "instrument": 0,
      "instrument_name": "Acoustic Grand Piano",
      "is_drum": false
    },
    {
      "pitch": 65,
      "start": 23.3333,
      "end": 23.7864,
      "duration": 0.4531,
      "velocity": 65,
      "instrument": 0,
      "instrument_name": "Acoustic Grand Piano",
      "is_drum": false
    },
    {
      "pitch": 58,
      "start": 23.3333,
      "end": 23.7917,
      "duration": 0.4583,
      "velocity": 70,
      "instrument": 0,
      "instrument_name": "Acoustic Grand Piano",
      "is_drum": false
    },
    {
      "pitch": 68,
      "start": 23.3333,
      "end": 23.7951,
      "duration": 0.4618,
      "velocity": 78,
      "instrument": 0,
      "instrument_name": "Acoustic Grand Piano",
      "is_drum": false
    },
    {
      "pitch": 50,
      "start": 23.3333,
      "end": 24.1927,
      "duration": 0.8594,
      "velocity": 61,
      "instrument": 0,
      "instrument_name": "Acoustic Grand Piano",
      "is_drum": false
    },
    {
      "pitch": 38,
      "start": 23.3333,
      "end": 24.6458,
      "duration": 1.3125,
      "velocity": 53,
      "instrument": 0,
      "instrument_name": "Acoustic Grand Piano",
      "is_drum": false
    },
    {
      "pitch": 65,
      "start": 23.75,
      "end": 24.2344,
      "duration": 0.4844,
      "velocity": 63,
      "instrument": 0,
      "instrument_name": "Acoustic Grand Piano",
      "is_drum": false
    },
    {
      "pitch": 68,
      "start": 24.1667,
      "end": 24.5555,
      "duration": 0.3889,
      "velocity": 75,
      "instrument": 0,
      "instrument_name": "Acoustic Grand Piano",
      "is_drum": false
    },
    {
      "pitch": 65,
      "start": 24.1667,
      "end": 24.6319,
      "duration": 0.4653,
      "velocity": 67,
      "instrument": 0,
      "instrument_name": "Acoustic Grand Piano",
      "is_drum": false
    },
    {
      "pitch": 68,
      "start": 24.1667,
      "end": 24.6597,
      "duration": 0.4931,
      "velocity": 75,
      "instrument": 0,
      "instrument_name": "Acoustic Grand Piano",
      "is_drum": false
    },
    {
      "pitch": 58,
      "start": 24.1667,
      "end": 24.6719,
      "duration": 0.5052,
      "velocity": 64,
      "instrument": 0,
      "instrument_name": "Acoustic Grand Piano",
      "is_drum": false
    },
    {
      "pitch": 67,
      "start": 24.5833,
      "end": 25.7691,
      "duration": 1.1858,
      "velocity": 66,
      "instrument": 0,
      "instrument_name": "Acoustic Grand Piano",
      "is_drum": false
    },
    {
      "pitch": 50,
      "start": 24.5833,
      "end": 24.691,
      "duration": 0.1076,
      "velocity": 56,
      "instrument": 0,
      "instrument_name": "Acoustic Grand Piano",
      "is_drum": false
    },
    {
      "pitch": 58,
      "start": 25.0,
      "end": 25.4358,
      "duration": 0.4358,
      "velocity": 62,
      "instrument": 0,
      "instrument_name": "Acoustic Grand Piano",
      "is_drum": false
    },
    {
      "pitch": 67,
      "start": 25.0,
      "end": 25.4358,
      "duration": 0.4358,
      "velocity": 68,
      "instrument": 0,
      "instrument_name": "Acoustic Grand Piano",
      "is_drum": false
    },
    {
      "pitch": 63,
      "start": 25.0,
      "end": 25.4375,
      "duration": 0.4375,
      "velocity": 56,
      "instrument": 0,
      "instrument_name": "Acoustic Grand Piano",
      "is_drum": false
    },
    {
      "pitch": 65,
      "start": 25.0,
      "end": 25.4566,
      "duration": 0.4566,
      "velocity": 66,
      "instrument": 0,
      "instrument_name": "Acoustic Grand Piano",
      "is_drum": false
    },
    {
      "pitch": 39,
      "start": 25.0,
      "end": 25.8333,
      "duration": 0.8333,
      "velocity": 52,
      "instrument": 0,
      "instrument_name": "Acoustic Grand Piano",
      "is_drum": false
    },
    {
      "pitch": 51,
      "start": 25.0,
      "end": 26.283,
      "duration": 1.283,
      "velocity": 50,
      "instrument": 0,
      "instrument_name": "Acoustic Grand Piano",
      "is_drum": false
    },
    {
      "pitch": 58,
      "start": 25.8333,
      "end": 26.2691,
      "duration": 0.4358,
      "velocity": 65,
      "instrument": 0,
      "instrument_name": "Acoustic Grand Piano",
      "is_drum": false
    },
    {
      "pitch": 63,
      "start": 25.8333,
      "end": 26.2847,
      "duration": 0.4514,
      "velocity": 65,
      "instrument": 0,
      "instrument_name": "Acoustic Grand Piano",
      "is_drum": false
    },
    {
      "pitch": 65,
      "start": 25.8333,
      "end": 26.3038,
      "duration": 0.4705,
      "velocity": 73,
      "instrument": 0,
      "instrument_name": "Acoustic Grand Piano",
      "is_drum": false
    },
    {
      "pitch": 39,
      "start": 26.25,
      "end": 26.283,
      "duration": 0.033,
      "velocity": 61,
      "instrument": 0,
      "instrument_name": "Acoustic Grand Piano",
      "is_drum": false
    },
    {
      "pitch": 65,
      "start": 26.4583,
      "end": 26.6667,
      "duration": 0.2083,
      "velocity": 70,
      "instrument": 0,
      "instrument_name": "Acoustic Grand Piano",
      "is_drum": false
    },
    {
      "pitch": 67,
      "start": 26.6667,
      "end": 27.0451,
      "duration": 0.3785,
      "velocity": 68,
      "instrument": 0,
      "instrument_name": "Acoustic Grand Piano",
      "is_drum": false
    },
    {
      "pitch": 39,
      "start": 26.6667,
      "end": 27.0156,
      "duration": 0.349,
      "velocity": 54,
      "instrument": 0,
      "instrument_name": "Acoustic Grand Piano",
      "is_drum": false
    },
    {
      "pitch": 58,
      "start": 26.6667,
      "end": 27.0729,
      "duration": 0.4062,
      "velocity": 66,
      "instrument": 0,
      "instrument_name": "Acoustic Grand Piano",
      "is_drum": false
    },
    {
      "pitch": 61,
      "start": 26.6667,
      "end": 27.0781,
      "duration": 0.4115,
      "velocity": 63,
      "instrument": 0,
      "instrument_name": "Acoustic Grand Piano",
      "is_drum": false
    },
    {
      "pitch": 67,
      "start": 26.6667,
      "end": 27.0851,
      "duration": 0.4184,
      "velocity": 72,
      "instrument": 0,
      "instrument_name": "Acoustic Grand Piano",
      "is_drum": false
    },
    {
      "pitch": 51,
      "start": 26.6667,
      "end": 27.1024,
      "duration": 0.4358,
      "velocity": 56,
      "instrument": 0,
      "instrument_name": "Acoustic Grand Piano",
      "is_drum": false
    },
    {
      "pitch": 68,
      "start": 27.0833,
      "end": 27.3246,
      "duration": 0.2413,
      "velocity": 65,
      "instrument": 0,
      "instrument_name": "Acoustic Grand Piano",
      "is_drum": false
    },
    {
      "pitch": 65,
      "start": 27.2917,
      "end": 27.6719,
      "duration": 0.3802,
      "velocity": 62,
      "instrument": 0,
      "instrument_name": "Acoustic Grand Piano",
      "is_drum": false
    },
    {
      "pitch": 58,
      "start": 27.5,
      "end": 28.1944,
      "duration": 0.6944,
      "velocity": 66,
      "instrument": 0,
      "instrument_name": "Acoustic Grand Piano",
      "is_drum": false
    },
    {
      "pitch": 61,
      "start": 27.5,
      "end": 28.1962,
      "duration": 0.6962,
      "velocity": 62,
      "instrument": 0,
      "instrument_name": "Acoustic Grand Piano",
      "is_drum": false
    },
    {
      "pitch": 65,
      "start": 27.5,
      "end": 28.217,
      "duration": 0.717,
      "velocity": 73,
      "instrument": 0,
      "instrument_name": "Acoustic Grand Piano",
      "is_drum": false
    },
    {
      "pitch": 43,
      "start": 27.5,
      "end": 28.2205,
      "duration": 0.7205,
      "velocity": 62,
      "instrument": 0,
      "instrument_name": "Acoustic Grand Piano",
      "is_drum": false
    },
    {
      "pitch": 67,
      "start": 27.7083,
      "end": 28.1476,
      "duration": 0.4392,
      "velocity": 65,
      "instrument": 0,
      "instrument_name": "Acoustic Grand Piano",
      "is_drum": false
    },
    {
      "pitch": 63,
      "start": 28.125,
      "end": 28.8142,
      "duration": 0.6892,
      "velocity": 76,
      "instrument": 0,
      "instrument_name": "Acoustic Grand Piano",
      "is_drum": false
    },
    {
      "pitch": 63,
      "start": 28.3333,
      "end": 28.7222,
      "duration": 0.3889,
      "velocity": 59,
      "instrument": 0,
      "instrument_name": "Acoustic Grand Piano",
      "is_drum": false
    },
    {
      "pitch": 67,
      "start": 28.3333,
      "end": 28.7292,
      "duration": 0.3958,
      "velocity": 63,
      "instrument": 0,
      "instrument_name": "Acoustic Grand Piano",
      "is_drum": false
    },
    {
      "pitch": 60,
      "start": 28.3333,
      "end": 28.7326,
      "duration": 0.3993,
      "velocity": 60,
      "instrument": 0,
      "instrument_name": "Acoustic Grand Piano",
      "is_drum": false
    },
    {
      "pitch": 44,
      "start": 28.3333,
      "end": 29.0798,
      "duration": 0.7465,
      "velocity": 43,
      "instrument": 0,
      "instrument_name": "Acoustic Grand Piano",
      "is_drum": false
    },
    {
      "pitch": 67,
      "start": 29.1667,
      "end": 29.4167,
      "duration": 0.25,
      "velocity": 65,
      "instrument": 0,
      "instrument_name": "Acoustic Grand Piano",
      "is_drum": false
    },
    {
      "pitch": 63,
      "start": 29.1667,
      "end": 29.5677,
      "duration": 0.401,
      "velocity": 62,
      "instrument": 0,
      "instrument_name": "Acoustic Grand Piano",
      "is_drum": false
    },
    {
      "pitch": 60,
      "start": 29.1667,
      "end": 29.5729,
      "duration": 0.4062,
      "velocity": 68,
      "instrument": 0,
      "instrument_name": "Acoustic Grand Piano",
      "is_drum": false
    },
    {
      "pitch": 67,
      "start": 29.1667,
      "end": 29.5833,
      "duration": 0.4167,
      "velocity": 71,
      "instrument": 0,
      "instrument_name": "Acoustic Grand Piano",
      "is_drum": false
    },
    {
      "pitch": 63,
      "start": 29.375,
      "end": 29.6007,
      "duration": 0.2257,
      "velocity": 73,
      "instrument": 0,
      "instrument_name": "Acoustic Grand Piano",
      "is_drum": false
    },
    {
      "pitch": 65,
      "start": 29.5833,
      "end": 30.3733,
      "duration": 0.7899,
      "velocity": 69,
      "instrument": 0,
      "instrument_name": "Acoustic Grand Piano",
      "is_drum": false
    },
    {
      "pitch": 51,
      "start": 29.5833,
      "end": 29.9809,
      "duration": 0.3976,
      "velocity": 55,
      "instrument": 0,
      "instrument_name": "Acoustic Grand Piano",
      "is_drum": false
    },
    {
      "pitch": 63,
      "start": 30.0,
      "end": 30.434,
      "duration": 0.434,
      "velocity": 52,
      "instrument": 0,
      "instrument_name": "Acoustic Grand Piano",
      "is_drum": false
    },
    {
      "pitch": 65,
      "start": 30.0,
      "end": 30.441,
      "duration": 0.441,
      "velocity": 67,
      "instrument": 0,
      "instrument_name": "Acoustic Grand Piano",
      "is_drum": false
    },
    {
      "pitch": 59,
      "start": 30.0,
      "end": 30.4427,
      "duration": 0.4427,
      "velocity": 49,
      "instrument": 0,
      "instrument_name": "Acoustic Grand Piano",
      "is_drum": false
    },
    {
      "pitch": 44,
      "start": 30.0,
      "end": 30.7986,
      "duration": 0.7986,
      "velocity": 51,
      "instrument": 0,
      "instrument_name": "Acoustic Grand Piano",
      "is_drum": false
    },
    {
      "pitch": 68,
      "start": 30.8333,
      "end": 31.2378,
      "duration": 0.4045,
      "velocity": 72,
      "instrument": 0,
      "instrument_name": "Acoustic Grand Piano",
      "is_drum": false
    },
    {
      "pitch": 63,
      "start": 30.8333,
      "end": 31.3194,
      "duration": 0.4861,
      "velocity": 51,
      "instrument": 0,
      "instrument_name": "Acoustic Grand Piano",
      "is_drum": false
    },
    {
      "pitch": 65,
      "start": 30.8333,
      "end": 31.3333,
      "duration": 0.5,
      "velocity": 70,
      "instrument": 0,
      "instrument_name": "Acoustic Grand Piano",
      "is_drum": false
    },
    {
      "pitch": 59,
      "start": 30.8333,
      "end": 31.3351,
      "duration": 0.5017,
      "velocity": 68,
      "instrument": 0,
      "instrument_name": "Acoustic Grand Piano",
      "is_drum": false
    },
    {
      "pitch": 67,
      "start": 31.25,
      "end": 31.8941,
      "duration": 0.6441,
      "velocity": 62,
      "instrument": 0,
      "instrument_name": "Acoustic Grand Piano",
      "is_drum": false
    },
    {
      "pitch": 44,
      "start": 31.25,
      "end": 31.6146,
      "duration": 0.3646,
      "velocity": 59,
      "instrument": 0,
      "instrument_name": "Acoustic Grand Piano",
      "is_drum": false
    },
    {
      "pitch": 70,
      "start": 31.6667,
      "end": 31.9444,
      "duration": 0.2778,
      "velocity": 76,
      "instrument": 0,
      "instrument_name": "Acoustic Grand Piano",
      "is_drum": false
    },
    {
      "pitch": 65,
      "start": 31.6667,
      "end": 31.9653,
      "duration": 0.2986,
      "velocity": 65,
      "instrument": 0,
      "instrument_name": "Acoustic Grand Piano",
      "is_drum": false
    },
    {
      "pitch": 63,
      "start": 31.6667,
      "end": 31.9965,
      "duration": 0.3299,
      "velocity": 62,
      "instrument": 0,
      "instrument_name": "Acoustic Grand Piano",
      "is_drum": false
    },
    {
      "pitch": 43,
      "start": 31.6667,
      "end": 32.6215,
      "duration": 0.9549,
      "velocity": 61,
      "instrument": 0,
      "instrument_name": "Acoustic Grand Piano",
      "is_drum": false
    },
    {
      "pitch": 62,
      "start": 32.0833,
      "end": 32.5069,
      "duration": 0.4236,
      "velocity": 74,
      "instrument": 0,
      "instrument_name": "Acoustic Grand Piano",
      "is_drum": false
    },
    {
      "pitch": 63,
      "start": 32.5,
      "end": 32.7621,
      "duration": 0.2622,
      "velocity": 70,
      "instrument": 0,
      "instrument_name": "Acoustic Grand Piano",
      "is_drum": false
    },
    {
      "pitch": 58,
      "start": 32.5,
      "end": 32.8923,
      "duration": 0.3924,
      "velocity": 54,
      "instrument": 0,
      "instrument_name": "Acoustic Grand Piano",
      "is_drum": false
    },
    {
      "pitch": 63,
      "start": 32.5,
      "end": 32.9114,
      "duration": 0.4115,
      "velocity": 62,
      "instrument": 0,
      "instrument_name": "Acoustic Grand Piano",
      "is_drum": false
    },
    {
      "pitch": 65,
      "start": 32.5,
      "end": 32.9253,
      "duration": 0.4253,
      "velocity": 61,
      "instrument": 0,
      "instrument_name": "Acoustic Grand Piano",
      "is_drum": false
    },
    {
      "pitch": 67,
      "start": 32.5,
      "end": 32.9358,
      "duration": 0.4358,
      "velocity": 63,
      "instrument": 0,
      "instrument_name": "Acoustic Grand Piano",
      "is_drum": false
    },
    {
      "pitch": 72,
      "start": 32.9167,
      "end": 33.5417,
      "duration": 0.625,
      "velocity": 61,
      "instrument": 0,
      "instrument_name": "Acoustic Grand Piano",
      "is_drum": false
    },
    {
      "pitch": 55,
      "start": 32.9167,
      "end": 33.3368,
      "duration": 0.4201,
      "velocity": 52,
      "instrument": 0,
      "instrument_name": "Acoustic Grand Piano",
      "is_drum": false
    },
    {
      "pitch": 60,
      "start": 33.3333,
      "end": 33.7795,
      "duration": 0.4462,
      "velocity": 71,
      "instrument": 0,
      "instrument_name": "Acoustic Grand Piano",
      "is_drum": false
    },
    {
      "pitch": 64,
      "start": 33.3333,
      "end": 33.7882,
      "duration": 0.4549,
      "velocity": 75,
      "instrument": 0,
      "instrument_name": "Acoustic Grand Piano",
      "is_drum": false
    },
    {
      "pitch": 67,
      "start": 33.3333,
      "end": 33.7934,
      "duration": 0.4601,
      "velocity": 69,
      "instrument": 0,
      "instrument_name": "Acoustic Grand Piano",
      "is_drum": false
    },
    {
      "pitch": 48,
      "start": 33.3333,
      "end": 34.5191,
      "duration": 1.1858,
      "velocity": 71,
      "instrument": 0,
      "instrument_name": "Acoustic Grand Piano",
      "is_drum": false
    },
    {
      "pitch": 70,
      "start": 33.5417,
      "end": 33.75,
      "duration": 0.2083,
      "velocity": 61,
      "instrument": 0,
      "instrument_name": "Acoustic Grand Piano",
      "is_drum": false
    },
    {
      "pitch": 70,
      "start": 33.75,
      "end": 33.993,
      "duration": 0.2431,
      "velocity": 68,
      "instrument": 0,
      "instrument_name": "Acoustic Grand Piano",
      "is_drum": false
    },
    {
      "pitch": 68,
      "start": 33.9583,
      "end": 34.3628,
      "duration": 0.4045,
      "velocity": 67,
      "instrument": 0,
      "instrument_name": "Acoustic Grand Piano",
      "is_drum": false
    },
    {
      "pitch": 64,
      "start": 34.1667,
      "end": 34.5139,
      "duration": 0.3472,
      "velocity": 72,
      "instrument": 0,
      "instrument_name": "Acoustic Grand Piano",
      "is_drum": false
    },
    {
      "pitch": 67,
      "start": 34.1667,
      "end": 34.5451,
      "duration": 0.3785,
      "velocity": 87,
      "instrument": 0,
      "instrument_name": "Acoustic Grand Piano",
      "is_drum": false
    },
    {
      "pitch": 60,
      "start": 34.1667,
      "end": 34.6094,
      "duration": 0.4427,
      "velocity": 87,
      "instrument": 0,
      "instrument_name": "Acoustic Grand Piano",
      "is_drum": false
    },
    {
      "pitch": 67,
      "start": 34.375,
      "end": 34.5833,
      "duration": 0.2083,
      "velocity": 68,
      "instrument": 0,
      "instrument_name": "Acoustic Grand Piano",
      "is_drum": false
    },
    {
      "pitch": 68,
      "start": 34.5833,
      "end": 34.7639,
      "duration": 0.1806,
      "velocity": 68,
      "instrument": 0,
      "instrument_name": "Acoustic Grand Piano",
      "is_drum": false
    },
    {
      "pitch": 68,
      "start": 34.7917,
      "end": 35.7587,
      "duration": 0.967,
      "velocity": 81,
      "instrument": 0,
      "instrument_name": "Acoustic Grand Piano",
      "is_drum": false
    },
    {
      "pitch": 63,
      "start": 35.0,
      "end": 35.4149,
      "duration": 0.4149,
      "velocity": 68,
      "instrument": 0,
      "instrument_name": "Acoustic Grand Piano",
      "is_drum": false
    },
    {
      "pitch": 68,
      "start": 35.0,
      "end": 35.4288,
      "duration": 0.4288,
      "velocity": 70,
      "instrument": 0,
      "instrument_name": "Acoustic Grand Piano",
      "is_drum": false
    },
    {
      "pitch": 60,
      "start": 35.0,
      "end": 35.4392,
      "duration": 0.4392,
      "velocity": 74,
      "instrument": 0,
      "instrument_name": "Acoustic Grand Piano",
      "is_drum": false
    },
    {
      "pitch": 41,
      "start": 35.0,
      "end": 35.9028,
      "duration": 0.9028,
      "velocity": 54,
      "instrument": 0,
      "instrument_name": "Acoustic Grand Piano",
      "is_drum": false
    },
    {
      "pitch": 53,
      "start": 35.0,
      "end": 35.9392,
      "duration": 0.9392,
      "velocity": 57,
      "instrument": 0,
      "instrument_name": "Acoustic Grand Piano",
      "is_drum": false
    },
    {
      "pitch": 63,
      "start": 35.8333,
      "end": 36.2864,
      "duration": 0.4531,
      "velocity": 71,
      "instrument": 0,
      "instrument_name": "Acoustic Grand Piano",
      "is_drum": false
    },
    {
      "pitch": 68,
      "start": 35.8333,
      "end": 36.2951,
      "duration": 0.4618,
      "velocity": 73,
      "instrument": 0,
      "instrument_name": "Acoustic Grand Piano",
      "is_drum": false
    },
    {
      "pitch": 60,
      "start": 35.8333,
      "end": 36.3003,
      "duration": 0.467,
      "velocity": 80,
      "instrument": 0,
      "instrument_name": "Acoustic Grand Piano",
      "is_drum": false
    },
    {
      "pitch": 53,
      "start": 36.25,
      "end": 36.3125,
      "duration": 0.0625,
      "velocity": 57,
      "instrument": 0,
      "instrument_name": "Acoustic Grand Piano",
      "is_drum": false
    },
    {
      "pitch": 67,
      "start": 36.4583,
      "end": 36.6788,
      "duration": 0.2205,
      "velocity": 85,
      "instrument": 0,
      "instrument_name": "Acoustic Grand Piano",
      "is_drum": false
    },
    {
      "pitch": 68,
      "start": 36.6667,
      "end": 37.0052,
      "duration": 0.3385,
      "velocity": 68,
      "instrument": 0,
      "instrument_name": "Acoustic Grand Piano",
      "is_drum": false
    },
    {
      "pitch": 63,
      "start": 36.6667,
      "end": 37.1024,
      "duration": 0.4358,
      "velocity": 67,
      "instrument": 0,
      "instrument_name": "Acoustic Grand Piano",
      "is_drum": false
    },
    {
      "pitch": 68,
      "start": 36.6667,
      "end": 37.1024,
      "duration": 0.4358,
      "velocity": 72,
      "instrument": 0,
      "instrument_name": "Acoustic Grand Piano",
      "is_drum": false
    },
    {
      "pitch": 60,
      "start": 36.6667,
      "end": 37.1128,
      "duration": 0.4462,
      "velocity": 76,
      "instrument": 0,
      "instrument_name": "Acoustic Grand Piano",
      "is_drum": false
    },
    {
      "pitch": 39,
      "start": 36.6667,
      "end": 37.934,
      "duration": 1.2674,
      "velocity": 60,
      "instrument": 0,
      "instrument_name": "Acoustic Grand Piano",
      "is_drum": false
    },
    {
      "pitch": 51,
      "start": 36.6667,
      "end": 37.941,
      "duration": 1.2743,
      "velocity": 65,
      "instrument": 0,
      "instrument_name": "Acoustic Grand Piano",
      "is_drum": false
    },
    {
      "pitch": 67,
      "start": 37.0833,
      "end": 37.3073,
      "duration": 0.224,
      "velocity": 55,
      "instrument": 0,
      "instrument_name": "Acoustic Grand Piano",
      "is_drum": false
    },
    {
      "pitch": 65,
      "start": 37.2917,
      "end": 37.6719,
      "duration": 0.3802,
      "velocity": 68,
      "instrument": 0,
      "instrument_name": "Acoustic Grand Piano",
      "is_drum": false
    },
    {
      "pitch": 63,
      "start": 37.5,
      "end": 37.9219,
      "duration": 0.4219,
      "velocity": 73,
      "instrument": 0,
      "instrument_name": "Acoustic Grand Piano",
      "is_drum": false
    },
    {
      "pitch": 68,
      "start": 37.5,
      "end": 37.9271,
      "duration": 0.4271,
      "velocity": 81,
      "instrument": 0,
      "instrument_name": "Acoustic Grand Piano",
      "is_drum": false
    },
    {
      "pitch": 60,
      "start": 37.5,
      "end": 37.9271,
      "duration": 0.4271,
      "velocity": 82,
      "instrument": 0,
      "instrument_name": "Acoustic Grand Piano",
      "is_drum": false
    },
    {
      "pitch": 63,
      "start": 37.7083,
      "end": 37.9167,
      "duration": 0.2083,
      "velocity": 67,
      "instrument": 0,
      "instrument_name": "Acoustic Grand Piano",
      "is_drum": false
    },
    {
      "pitch": 65,
      "start": 37.9167,
      "end": 38.1163,
      "duration": 0.1997,
      "velocity": 67,
      "instrument": 0,
      "instrument_name": "Acoustic Grand Piano",
      "is_drum": false
    },
    {
      "pitch": 65,
      "start": 38.125,
      "end": 39.9062,
      "duration": 1.7812,
      "velocity": 71,
      "instrument": 0,
      "instrument_name": "Acoustic Grand Piano",
      "is_drum": false
    },
    {
      "pitch": 63,
      "start": 38.3333,
      "end": 38.8351,
      "duration": 0.5017,
      "velocity": 67,
      "instrument": 0,
      "instrument_name": "Acoustic Grand Piano",
      "is_drum": false
    },
    {
      "pitch": 68,
      "start": 38.3333,
      "end": 38.8576,
      "duration": 0.5243,
      "velocity": 69,
      "instrument": 0,
      "instrument_name": "Acoustic Grand Piano",
      "is_drum": false
    },
    {
      "pitch": 60,
      "start": 38.3333,
      "end": 38.8802,
      "duration": 0.5469,
      "velocity": 79,
      "instrument": 0,
      "instrument_name": "Acoustic Grand Piano",
      "is_drum": false
    },
    {
      "pitch": 46,
      "start": 38.3333,
      "end": 39.5607,
      "duration": 1.2274,
      "velocity": 50,
      "instrument": 0,
      "instrument_name": "Acoustic Grand Piano",
      "is_drum": false
    },
    {
      "pitch": 56,
      "start": 38.3333,
      "end": 39.5746,
      "duration": 1.2413,
      "velocity": 57,
      "instrument": 0,
      "instrument_name": "Acoustic Grand Piano",
      "is_drum": false
    },
    {
      "pitch": 63,
      "start": 39.1667,
      "end": 39.5798,
      "duration": 0.4132,
      "velocity": 60,
      "instrument": 0,
      "instrument_name": "Acoustic Grand Piano",
      "is_drum": false
    },
    {
      "pitch": 58,
      "start": 39.5833,
      "end": 39.7448,
      "duration": 0.1615,
      "velocity": 64,
      "instrument": 0,
      "instrument_name": "Acoustic Grand Piano",
      "is_drum": false
    },
    {
      "pitch": 46,
      "start": 40.0,
      "end": 40.743,
      "duration": 0.7431,
      "velocity": 56,
      "instrument": 0,
      "instrument_name": "Acoustic Grand Piano",
      "is_drum": false
    },
    {
      "pitch": 62,
      "start": 40.0,
      "end": 41.0173,
      "duration": 1.0174,
      "velocity": 79,
      "instrument": 0,
      "instrument_name": "Acoustic Grand Piano",
      "is_drum": false
    },
    {
      "pitch": 53,
      "start": 40.8333,
      "end": 41.1007,
      "duration": 0.2674,
      "velocity": 68,
      "instrument": 0,
      "instrument_name": "Acoustic Grand Piano",
      "is_drum": false
    }
  ],
  "embedding": [
    0.07109004739336493,
    0.009478672985781991,
    0.052132701421800945,
    0.2559241706161137,
    0.009478672985781991,
    0.17061611374407584,
    0.0,
    0.14691943127962084,
    0.13744075829383887,
    0.0,
    0.13744075829383887,
    0.009478672985781991,
    0.15714285714285714,
    0.0,
    0.009523809523809525,
    0.004761904761904762,
    0.023809523809523808,
    0.047619047619047616,
    0.009523809523809525,
    0.047619047619047616,
    0.05238095238095238,
    0.02857142857142857,
    0.03333333333333333,
    0.004761904761904762,
    0.0380952380952381,
    0.02857142857142857,
    0.06190476190476191,
    0.047619047619047616,
    0.03333333333333333,
    0.08095238095238096,
    0.004761904761904762,
    0.06190476190476191,
    0.023809523809523808,
    0.03333333333333333,
    0.014285714285714285,
    0.0,
    0.1523809523809524,
    0.0,
    0.0,
    0.009478672985781991,
    0.36018957345971564,
    0.5687203791469194,
    0.061611374407582936,
    0.0,
    0.0,
    0.023696682464454975,
    0.08530805687203792,
    0.5829383886255924,
    0.1895734597156398,
    0.10426540284360189,
    0.014218009478672985,
    0.0,
    0.0,
    0.0,
    0.0,
    0.46771653543307085,
    0.215,
    0.521259842519685,
    0.215,
    0.05621,
    0.03654,
    0.36,
    0.06938333333333334,
    0.1848341232227488,
    0.10426540284360189,
    0.10426540284360189,
    0.09004739336492891,
    0.08056872037914692,
    0.061611374407582936,
    0.037914691943127965,
    0.037914691943127965,
    0.037914691943127965,
    0.03317535545023697,
    0.03317535545023697,
    0.02843601895734597,
    0.023696682464454975,
    0.023696682464454975,
    0.023696682464454975,
    0.023696682464454975,
    0.018957345971563982,
    0.009478672985781991,
    0.009478672985781991,
    0.009478672985781991,
    0.009478672985781991,
    0.004739336492890996,
    0.004739336492890996,
    0.004739336492890996,
    0.0,
    0.0,
    0.0,
    0.0,
    0.0,
    0.0,
    0.0,
    0.0,
    0.0,
    0.0,
    0.0,
    0.0,
    0.0,
    0.0,
    0.0,
    0.0,
    0.0,
    0.0,
    0.0,
    0.0,
    0.0,
    0.0,
    0.0,
    0.0,
    0.0,
    0.0,
    0.0,
    0.0,
    0.0,
    0.0,
    0.0,
    0.0,
    0.0,
    0.0,
    0.0,
    0.0,
    0.0,
    0.0,
    0.0,
    0.0,
    0.0
  ],
  "pitch_histogram": [
    0.0,
    0.0,
    0.0,
    0.0,
    0.0,
    0.0,
    0.0,
    0.0,
    0.0,
    0.0,
    0.0,
    0.0,
    0.0,
    0.0,
    0.0,
    0.0,
    0.0,
    0.0,
    0.0,
    0.0,
    0.0,
    0.0,
    0.0,
    0.0,
    0.0,
    0.0,
    0.0,
    0.0,
    0.0,
    0.0,
    0.0,
    0.0,
    0.0,
    0.0,
    0.0,
    0.0,
    0.0,
    0.0,
    0.004739336492890996,
    0.037914691943127965,
    0.0,
    0.02843601895734597,
    0.0,
    0.023696682464454975,
    0.023696682464454975,
    0.0,
    0.023696682464454975,
    0.0,
    0.004739336492890996,
    0.0,
    0.009478672985781991,
    0.03317535545023697,
    0.0,
    0.037914691943127965,
    0.0,
    0.018957345971563982,
    0.023696682464454975,
    0.0,
    0.08056872037914692,
    0.009478672985781991,
    0.061611374407582936,
    0.009478672985781991,
    0.037914691943127965,
    0.1848341232227488,
    0.009478672985781991,
    0.10426540284360189,
    0.0,
    0.10426540284360189,
    0.09004739336492891,
    0.0,
    0.03317535545023697,
    0.0,
    0.004739336492890996,
    0.0,
    0.0,
    0.0,
    0.0,
    0.0,
    0.0,
    0.0,
    0.0,
    0.0,
    0.0,
    0.0,
    0.0,
    0.0,
    0.0,
    0.0,
    0.0,
    0.0,
    0.0,
    0.0,
    0.0,
    0.0,
    0.0,
    0.0,
    0.0,
    0.0,
    0.0,
    0.0,
    0.0,
    0.0,
    0.0,
    0.0,
    0.0,
    0.0,
    0.0,
    0.0,
    0.0,
    0.0,
    0.0,
    0.0,
    0.0,
    0.0,
    0.0,
    0.0,
    0.0,
    0.0,
    0.0,
    0.0,
    0.0,
    0.0,
    0.0,
    0.0,
    0.0,
    0.0,
    0.0,
    0.0
  ],
  "pitch_class_histogram": [
    0.07109004739336493,
    0.009478672985781991,
    0.052132701421800945,
    0.2559241706161137,
    0.009478672985781991,
    0.17061611374407584,
    0.0,
    0.14691943127962084,
    0.13744075829383887,
    0.0,
    0.13744075829383887,
    0.009478672985781991
  ],
  "interval_histogram": [
    0.15714285714285714,
    0.0,
    0.009523809523809525,
    0.004761904761904762,
    0.023809523809523808,
    0.047619047619047616,
    0.009523809523809525,
    0.047619047619047616,
    0.05238095238095238,
    0.02857142857142857,
    0.03333333333333333,
    0.004761904761904762,
    0.0380952380952381,
    0.02857142857142857,
    0.06190476190476191,
    0.047619047619047616,
    0.03333333333333333,
    0.08095238095238096,
    0.004761904761904762,
    0.06190476190476191,
    0.023809523809523808,
    0.03333333333333333,
    0.014285714285714285,
    0.0,
    0.1523809523809524
  ],
  "velocity_histogram": [
    0.0,
    0.0,
    0.009478672985781991,
    0.36018957345971564,
    0.5687203791469194,
    0.061611374407582936,
    0.0,
    0.0
  ],
  "duration_histogram": [
    0.023696682464454975,
    0.08530805687203792,
    0.5829383886255924,
    0.1895734597156398,
    0.10426540284360189,
    0.014218009478672985,
    0.0,
    0.0,
    0.0,
    0.0
  ]
}