{
  "stats": {
    "filename": "REASON_BPM82_4-4.mid",
    "total_notes": 174,
    "total_duration_sec": 35.12,
    "avg_tempo": 82.0,
    "pitch_range": [
      45,
      88
    ],
    "pitch_mean": 61.3,
    "pitch_std": 7.1,
    "velocity_range": [
      34,
      86
    ],
    "velocity_mean": 60.6,
    "velocity_std": 11.5,
    "duration_mean": 0.4132,
    "duration_std": 0.3246,
    "estimated_key": "E",
    "num_instruments": 2,
    "time_signatures": [
      "4/4"
    ]
  },
  "composer_tags": {
    "rhythm_type": "dense",
    "rhythm_regularity": 0.341,
    "note_density_per_sec": 4.95,
    "avg_ioi": 0.397,
    "harmony_type": "triadic",
    "harmonic_brightness": 0.731,
    "harmony_ratio": 0.736,
    "avg_polyphony": 3.05,
    "max_polyphony": 5,
    "accompaniment_pattern": "block_chord",
    "arpeggio_ratio": 0.018,
    "voicing_type": "semi_open",
    "avg_voicing_spread": 11.4,
    "pitch_range": 43,
    "register": "alto",
    "dynamic_profile": "moderate",
    "dynamic_level": "mezzo-forte",
    "velocity_range": 52,
    "tempo_bpm": 82.0,
    "tempo_category": "andante"
  },
  "notes": [
    {
      "pitch": 57,
      "start": 0.0,
      "end": 0.3445,
      "duration": 0.3445,
      "velocity": 58,
      "instrument": 0,
      "instrument_name": "Acoustic Grand Piano",
      "is_drum": false
    },
    {
      "pitch": 60,
      "start": 0.3659,
      "end": 0.3963,
      "duration": 0.0305,
      "velocity": 71,
      "instrument": 0,
      "instrument_name": "Acoustic Grand Piano",
      "is_drum": false
    },
    {
      "pitch": 69,
      "start": 0.7317,
      "end": 0.7698,
      "duration": 0.0381,
      "velocity": 62,
      "instrument": 0,
      "instrument_name": "Acoustic Grand Piano",
      "is_drum": false
    },
    {
      "pitch": 64,
      "start": 1.0976,
      "end": 1.1402,
      "duration": 0.0427,
      "velocity": 60,
      "instrument": 0,
      "instrument_name": "Acoustic Grand Piano",
      "is_drum": false
    },
    {
      "pitch": 65,
      "start": 1.4634,
      "end": 2.1677,
      "duration": 0.7043,
      "velocity": 82,
      "instrument": 0,
      "instrument_name": "Acoustic Grand Piano",
      "is_drum": false
    },
    {
      "pitch": 57,
      "start": 1.4634,
      "end": 2.1814,
      "duration": 0.718,
      "velocity": 66,
      "instrument": 0,
      "instrument_name": "Acoustic Grand Piano",
      "is_drum": false
    },
    {
      "pitch": 53,
      "start": 1.4634,
      "end": 2.2043,
      "duration": 0.7409,
      "velocity": 47,
      "instrument": 0,
      "instrument_name": "Acoustic Grand Piano",
      "is_drum": false
    },
    {
      "pitch": 65,
      "start": 2.561,
      "end": 2.7409,
      "duration": 0.1799,
      "velocity": 47,
      "instrument": 0,
      "instrument_name": "Acoustic Grand Piano",
      "is_drum": false
    },
    {
      "pitch": 64,
      "start": 2.7439,
      "end": 2.9344,
      "duration": 0.1905,
      "velocity": 62,
      "instrument": 0,
      "instrument_name": "Acoustic Grand Piano",
      "is_drum": false
    },
    {
      "pitch": 57,
      "start": 2.9268,
      "end": 3.7088,
      "duration": 0.782,
      "velocity": 48,
      "instrument": 0,
      "instrument_name": "Acoustic Grand Piano",
      "is_drum": false
    },
    {
      "pitch": 50,
      "start": 2.9268,
      "end": 3.7195,
      "duration": 0.7927,
      "velocity": 36,
      "instrument": 0,
      "instrument_name": "Acoustic Grand Piano",
      "is_drum": false
    },
    {
      "pitch": 53,
      "start": 2.9268,
      "end": 3.7332,
      "duration": 0.8064,
      "velocity": 34,
      "instrument": 0,
      "instrument_name": "Acoustic Grand Piano",
      "is_drum": false
    },
    {
      "pitch": 62,
      "start": 2.9268,
      "end": 3.8323,
      "duration": 0.9055,
      "velocity": 64,
      "instrument": 0,
      "instrument_name": "Acoustic Grand Piano",
      "is_drum": false
    },
    {
      "pitch": 60,
      "start": 4.0244,
      "end": 4.1479,
      "duration": 0.1235,
      "velocity": 57,
      "instrument": 0,
      "instrument_name": "Acoustic Grand Piano",
      "is_drum": false
    },
    {
      "pitch": 62,
      "start": 4.2073,
      "end": 4.3628,
      "duration": 0.1555,
      "velocity": 51,
      "instrument": 0,
      "instrument_name": "Acoustic Grand Piano",
      "is_drum": false
    },
    {
      "pitch": 64,
      "start": 4.3902,
      "end": 4.7759,
      "duration": 0.3857,
      "velocity": 65,
      "instrument": 0,
      "instrument_name": "Acoustic Grand Piano",
      "is_drum": false
    },
    {
      "pitch": 52,
      "start": 4.3902,
      "end": 4.7866,
      "duration": 0.3963,
      "velocity": 49,
      "instrument": 0,
      "instrument_name": "Acoustic Grand Piano",
      "is_drum": false
    },
    {
      "pitch": 56,
      "start": 4.3902,
      "end": 4.8049,
      "duration": 0.4146,
      "velocity": 50,
      "instrument": 0,
      "instrument_name": "Acoustic Grand Piano",
      "is_drum": false
    },
    {
      "pitch": 62,
      "start": 4.7561,
      "end": 4.7866,
      "duration": 0.0305,
      "velocity": 69,
      "instrument": 0,
      "instrument_name": "Acoustic Grand Piano",
      "is_drum": false
    },
    {
      "pitch": 60,
      "start": 5.1219,
      "end": 5.186,
      "duration": 0.064,
      "velocity": 66,
      "instrument": 0,
      "instrument_name": "Acoustic Grand Piano",
      "is_drum": false
    },
    {
      "pitch": 59,
      "start": 5.4878,
      "end": 5.5244,
      "duration": 0.0366,
      "velocity": 64,
      "instrument": 0,
      "instrument_name": "Acoustic Grand Piano",
      "is_drum": false
    },
    {
      "pitch": 57,
      "start": 5.8537,
      "end": 6.1982,
      "duration": 0.3445,
      "velocity": 58,
      "instrument": 0,
      "instrument_name": "Acoustic Grand Piano",
      "is_drum": false
    },
    {
      "pitch": 60,
      "start": 6.2195,
      "end": 6.25,
      "duration": 0.0305,
      "velocity": 71,
      "instrument": 0,
      "instrument_name": "Acoustic Grand Piano",
      "is_drum": false
    },
    {
      "pitch": 69,
      "start": 6.5854,
      "end": 6.6235,
      "duration": 0.0381,
      "velocity": 62,
      "instrument": 0,
      "instrument_name": "Acoustic Grand Piano",
      "is_drum": false
    },
    {
      "pitch": 64,
      "start": 6.9512,
      "end": 6.9939,
      "duration": 0.0427,
      "velocity": 60,
      "instrument": 0,
      "instrument_name": "Acoustic Grand Piano",
      "is_drum": false
    },
    {
      "pitch": 65,
      "start": 7.3171,
      "end": 8.0213,
      "duration": 0.7043,
      "velocity": 82,
      "instrument": 0,
      "instrument_name": "Acoustic Grand Piano",
      "is_drum": false
    },
    {
      "pitch": 57,
      "start": 7.3171,
      "end": 8.0351,
      "duration": 0.718,
      "velocity": 66,
      "instrument": 0,
      "instrument_name": "Acoustic Grand Piano",
      "is_drum": false
    },
    {
      "pitch": 53,
      "start": 7.3171,
      "end": 8.0579,
      "duration": 0.7409,
      "velocity": 47,
      "instrument": 0,
      "instrument_name": "Acoustic Grand Piano",
      "is_drum": false
    },
    {
      "pitch": 65,
      "start": 8.4146,
      "end": 8.5945,
      "duration": 0.1799,
      "velocity": 47,
      "instrument": 0,
      "instrument_name": "Acoustic Grand Piano",
      "is_drum": false
    },
    {
      "pitch": 64,
      "start": 8.5976,
      "end": 8.7881,
      "duration": 0.1905,
      "velocity": 62,
      "instrument": 0,
      "instrument_name": "Acoustic Grand Piano",
      "is_drum": false
    },
    {
      "pitch": 57,
      "start": 8.7805,
      "end": 9.5625,
      "duration": 0.782,
      "velocity": 48,
      "instrument": 0,
      "instrument_name": "Acoustic Grand Piano",
      "is_drum": false
    },
    {
      "pitch": 50,
      "start": 8.7805,
      "end": 9.5732,
      "duration": 0.7927,
      "velocity": 36,
      "instrument": 0,
      "instrument_name": "Acoustic Grand Piano",
      "is_drum": false
    },
    {
      "pitch": 53,
      "start": 8.7805,
      "end": 9.5869,
      "duration": 0.8064,
      "velocity": 34,
      "instrument": 0,
      "instrument_name": "Acoustic Grand Piano",
      "is_drum": false
    },
    {
      "pitch": 62,
      "start": 8.7805,
      "end": 9.686,
      "duration": 0.9055,
      "velocity": 64,
      "instrument": 0,
      "instrument_name": "Acoustic Grand Piano",
      "is_drum": false
    },
    {
      "pitch": 60,
      "start": 9.878,
      "end": 10.0015,
      "duration": 0.1235,
      "velocity": 57,
      "instrument": 0,
      "instrument_name": "Acoustic Grand Piano",
      "is_drum": false
    },
    {
      "pitch": 62,
      "start": 10.061,
      "end": 10.2165,
      "duration": 0.1555,
      "velocity": 51,
      "instrument": 0,
      "instrument_name": "Acoustic Grand Piano",
      "is_drum": false
    },
    {
      "pitch": 64,
      "start": 10.2439,
      "end": 10.6296,
      "duration": 0.3857,
      "velocity": 65,
      "instrument": 0,
      "instrument_name": "Acoustic Grand Piano",
      "is_drum": false
    },
    {
      "pitch": 52,
      "start": 10.2439,
      "end": 10.6402,
      "duration": 0.3963,
      "velocity": 49,
      "instrument": 0,
      "instrument_name": "Acoustic Grand Piano",
      "is_drum": false
    },
    {
      "pitch": 56,
      "start": 10.2439,
      "end": 10.6585,
      "duration": 0.4146,
      "velocity": 50,
      "instrument": 0,
      "instrument_name": "Acoustic Grand Piano",
      "is_drum": false
    },
    {
      "pitch": 76,
      "start": 10.9756,
      "end": 11.0396,
      "duration": 0.064,
      "velocity": 66,
      "instrument": 0,
      "instrument_name": "Acoustic Grand Piano",
      "is_drum": false
    },
    {
      "pitch": 88,
      "start": 10.9756,
      "end": 11.0396,
      "duration": 0.064,
      "velocity": 66,
      "instrument": 0,
      "instrument_name": "Acoustic Grand Piano",
      "is_drum": false
    },
    {
      "pitch": 57,
      "start": 11.3415,
      "end": 11.6844,
      "duration": 0.343,
      "velocity": 59,
      "instrument": 0,
      "instrument_name": "Acoustic Grand Piano",
      "is_drum": false
    },
    {
      "pitch": 64,
      "start": 11.7073,
      "end": 12.1494,
      "duration": 0.4421,
      "velocity": 66,
      "instrument": 0,
      "instrument_name": "Acoustic Grand Piano",
      "is_drum": false
    },
    {
      "pitch": 57,
      "start": 11.7073,
      "end": 12.0518,
      "duration": 0.3445,
      "velocity": 58,
      "instrument": 0,
      "instrument_name": "Acoustic Grand Piano",
      "is_drum": false
    },
    {
      "pitch": 60,
      "start": 12.0732,
      "end": 12.1037,
      "duration": 0.0305,
      "velocity": 71,
      "instrument": 0,
      "instrument_name": "Acoustic Grand Piano",
      "is_drum": false
    },
    {
      "pitch": 64,
      "start": 12.439,
      "end": 12.7408,
      "duration": 0.3018,
      "velocity": 65,
      "instrument": 0,
      "instrument_name": "Acoustic Grand Piano",
      "is_drum": false
    },
    {
      "pitch": 69,
      "start": 12.439,
      "end": 12.4771,
      "duration": 0.0381,
      "velocity": 62,
      "instrument": 0,
      "instrument_name": "Acoustic Grand Piano",
      "is_drum": false
    },
    {
      "pitch": 64,
      "start": 12.8049,
      "end": 12.8476,
      "duration": 0.0427,
      "velocity": 60,
      "instrument": 0,
      "instrument_name": "Acoustic Grand Piano",
      "is_drum": false
    },
    {
      "pitch": 64,
      "start": 13.1707,
      "end": 13.532,
      "duration": 0.3613,
      "velocity": 63,
      "instrument": 0,
      "instrument_name": "Acoustic Grand Piano",
      "is_drum": false
    },
    {
      "pitch": 65,
      "start": 13.1707,
      "end": 13.875,
      "duration": 0.7043,
      "velocity": 82,
      "instrument": 0,
      "instrument_name": "Acoustic Grand Piano",
      "is_drum": false
    },
    {
      "pitch": 57,
      "start": 13.1707,
      "end": 13.8887,
      "duration": 0.718,
      "velocity": 66,
      "instrument": 0,
      "instrument_name": "Acoustic Grand Piano",
      "is_drum": false
    },
    {
      "pitch": 53,
      "start": 13.1707,
      "end": 13.9116,
      "duration": 0.7409,
      "velocity": 47,
      "instrument": 0,
      "instrument_name": "Acoustic Grand Piano",
      "is_drum": false
    },
    {
      "pitch": 62,
      "start": 13.5366,
      "end": 13.6158,
      "duration": 0.0793,
      "velocity": 64,
      "instrument": 0,
      "instrument_name": "Acoustic Grand Piano",
      "is_drum": false
    },
    {
      "pitch": 62,
      "start": 13.7195,
      "end": 13.9741,
      "duration": 0.2546,
      "velocity": 76,
      "instrument": 0,
      "instrument_name": "Acoustic Grand Piano",
      "is_drum": false
    },
    {
      "pitch": 60,
      "start": 14.2683,
      "end": 14.4604,
      "duration": 0.1921,
      "velocity": 79,
      "instrument": 0,
      "instrument_name": "Acoustic Grand Piano",
      "is_drum": false
    },
    {
      "pitch": 65,
      "start": 14.2683,
      "end": 14.4482,
      "duration": 0.1799,
      "velocity": 47,
      "instrument": 0,
      "instrument_name": "Acoustic Grand Piano",
      "is_drum": false
    },
    {
      "pitch": 57,
      "start": 14.4512,
      "end": 14.9207,
      "duration": 0.4695,
      "velocity": 63,
      "instrument": 0,
      "instrument_name": "Acoustic Grand Piano",
      "is_drum": false
    },
    {
      "pitch": 64,
      "start": 14.4512,
      "end": 14.6418,
      "duration": 0.1905,
      "velocity": 62,
      "instrument": 0,
      "instrument_name": "Acoustic Grand Piano",
      "is_drum": false
    },
    {
      "pitch": 57,
      "start": 14.6341,
      "end": 15.4162,
      "duration": 0.782,
      "velocity": 48,
      "instrument": 0,
      "instrument_name": "Acoustic Grand Piano",
      "is_drum": false
    },
    {
      "pitch": 50,
      "start": 14.6341,
      "end": 15.4268,
      "duration": 0.7927,
      "velocity": 36,
      "instrument": 0,
      "instrument_name": "Acoustic Grand Piano",
      "is_drum": false
    },
    {
      "pitch": 53,
      "start": 14.6341,
      "end": 15.4405,
      "duration": 0.8064,
      "velocity": 34,
      "instrument": 0,
      "instrument_name": "Acoustic Grand Piano",
      "is_drum": false
    },
    {
      "pitch": 62,
      "start": 14.6341,
      "end": 15.5396,
      "duration": 0.9055,
      "velocity": 64,
      "instrument": 0,
      "instrument_name": "Acoustic Grand Piano",
      "is_drum": false
    },
    {
      "pitch": 60,
      "start": 15.7317,
      "end": 15.8552,
      "duration": 0.1235,
      "velocity": 57,
      "instrument": 0,
      "instrument_name": "Acoustic Grand Piano",
      "is_drum": false
    },
    {
      "pitch": 62,
      "start": 15.9146,
      "end": 16.0701,
      "duration": 0.1555,
      "velocity": 51,
      "instrument": 0,
      "instrument_name": "Acoustic Grand Piano",
      "is_drum": false
    },
    {
      "pitch": 64,
      "start": 16.0976,
      "end": 16.4832,
      "duration": 0.3857,
      "velocity": 65,
      "instrument": 0,
      "instrument_name": "Acoustic Grand Piano",
      "is_drum": false
    },
    {
      "pitch": 52,
      "start": 16.0976,
      "end": 16.4939,
      "duration": 0.3963,
      "velocity": 49,
      "instrument": 0,
      "instrument_name": "Acoustic Grand Piano",
      "is_drum": false
    },
    {
      "pitch": 56,
      "start": 16.0976,
      "end": 16.5122,
      "duration": 0.4146,
      "velocity": 50,
      "instrument": 0,
      "instrument_name": "Acoustic Grand Piano",
      "is_drum": false
    },
    {
      "pitch": 62,
      "start": 16.4634,
      "end": 16.4939,
      "duration": 0.0305,
      "velocity": 69,
      "instrument": 0,
      "instrument_name": "Acoustic Grand Piano",
      "is_drum": false
    },
    {
      "pitch": 57,
      "start": 16.6463,
      "end": 16.8049,
      "duration": 0.1585,
      "velocity": 73,
      "instrument": 0,
      "instrument_name": "Acoustic Grand Piano",
      "is_drum": false
    },
    {
      "pitch": 60,
      "start": 16.8293,
      "end": 17.1814,
      "duration": 0.3521,
      "velocity": 68,
      "instrument": 0,
      "instrument_name": "Acoustic Grand Piano",
      "is_drum": false
    },
    {
      "pitch": 60,
      "start": 16.8293,
      "end": 16.8933,
      "duration": 0.064,
      "velocity": 66,
      "instrument": 0,
      "instrument_name": "Acoustic Grand Piano",
      "is_drum": false
    },
    {
      "pitch": 62,
      "start": 17.1951,
      "end": 17.5701,
      "duration": 0.375,
      "velocity": 66,
      "instrument": 0,
      "instrument_name": "Acoustic Grand Piano",
      "is_drum": false
    },
    {
      "pitch": 59,
      "start": 17.1951,
      "end": 17.2317,
      "duration": 0.0366,
      "velocity": 64,
      "instrument": 0,
      "instrument_name": "Acoustic Grand Piano",
      "is_drum": false
    },
    {
      "pitch": 64,
      "start": 17.561,
      "end": 17.9588,
      "duration": 0.3979,
      "velocity": 74,
      "instrument": 0,
      "instrument_name": "Acoustic Grand Piano",
      "is_drum": false
    },
    {
      "pitch": 57,
      "start": 17.561,
      "end": 17.9055,
      "duration": 0.3445,
      "velocity": 58,
      "instrument": 0,
      "instrument_name": "Acoustic Grand Piano",
      "is_drum": false
    },
    {
      "pitch": 60,
      "start": 17.9268,
      "end": 17.9573,
      "duration": 0.0305,
      "velocity": 71,
      "instrument": 0,
      "instrument_name": "Acoustic Grand Piano",
      "is_drum": false
    },
    {
      "pitch": 64,
      "start": 18.2927,
      "end": 18.6311,
      "duration": 0.3384,
      "velocity": 74,
      "instrument": 0,
      "instrument_name": "Acoustic Grand Piano",
      "is_drum": false
    },
    {
      "pitch": 69,
      "start": 18.2927,
      "end": 18.3308,
      "duration": 0.0381,
      "velocity": 62,
      "instrument": 0,
      "instrument_name": "Acoustic Grand Piano",
      "is_drum": false
    },
    {
      "pitch": 64,
      "start": 18.6585,
      "end": 18.7012,
      "duration": 0.0427,
      "velocity": 60,
      "instrument": 0,
      "instrument_name": "Acoustic Grand Piano",
      "is_drum": false
    },
    {
      "pitch": 64,
      "start": 19.0244,
      "end": 19.3811,
      "duration": 0.3567,
      "velocity": 73,
      "instrument": 0,
      "instrument_name": "Acoustic Grand Piano",
      "is_drum": false
    },
    {
      "pitch": 65,
      "start": 19.0244,
      "end": 19.7286,
      "duration": 0.7043,
      "velocity": 82,
      "instrument": 0,
      "instrument_name": "Acoustic Grand Piano",
      "is_drum": false
    },
    {
      "pitch": 57,
      "start": 19.0244,
      "end": 19.7424,
      "duration": 0.718,
      "velocity": 66,
      "instrument": 0,
      "instrument_name": "Acoustic Grand Piano",
      "is_drum": false
    },
    {
      "pitch": 53,
      "start": 19.0244,
      "end": 19.7652,
      "duration": 0.7409,
      "velocity": 47,
      "instrument": 0,
      "instrument_name": "Acoustic Grand Piano",
      "is_drum": false
    },
    {
      "pitch": 62,
      "start": 19.3902,
      "end": 19.4512,
      "duration": 0.061,
      "velocity": 65,
      "instrument": 0,
      "instrument_name": "Acoustic Grand Piano",
      "is_drum": false
    },
    {
      "pitch": 62,
      "start": 19.5732,
      "end": 19.939,
      "duration": 0.3659,
      "velocity": 73,
      "instrument": 0,
      "instrument_name": "Acoustic Grand Piano",
      "is_drum": false
    },
    {
      "pitch": 60,
      "start": 20.1219,
      "end": 20.2851,
      "duration": 0.1631,
      "velocity": 71,
      "instrument": 0,
      "instrument_name": "Acoustic Grand Piano",
      "is_drum": false
    },
    {
      "pitch": 65,
      "start": 20.1219,
      "end": 20.3018,
      "duration": 0.1799,
      "velocity": 47,
      "instrument": 0,
      "instrument_name": "Acoustic Grand Piano",
      "is_drum": false
    },
    {
      "pitch": 57,
      "start": 20.3049,
      "end": 20.8308,
      "duration": 0.5259,
      "velocity": 58,
      "instrument": 0,
      "instrument_name": "Acoustic Grand Piano",
      "is_drum": false
    },
    {
      "pitch": 64,
      "start": 20.3049,
      "end": 20.4954,
      "duration": 0.1905,
      "velocity": 62,
      "instrument": 0,
      "instrument_name": "Acoustic Grand Piano",
      "is_drum": false
    },
    {
      "pitch": 57,
      "start": 20.4878,
      "end": 21.2698,
      "duration": 0.782,
      "velocity": 48,
      "instrument": 0,
      "instrument_name": "Acoustic Grand Piano",
      "is_drum": false
    },
    {
      "pitch": 50,
      "start": 20.4878,
      "end": 21.2805,
      "duration": 0.7927,
      "velocity": 36,
      "instrument": 0,
      "instrument_name": "Acoustic Grand Piano",
      "is_drum": false
    },
    {
      "pitch": 53,
      "start": 20.4878,
      "end": 21.2942,
      "duration": 0.8064,
      "velocity": 34,
      "instrument": 0,
      "instrument_name": "Acoustic Grand Piano",
      "is_drum": false
    },
    {
      "pitch": 62,
      "start": 20.4878,
      "end": 21.3933,
      "duration": 0.9055,
      "velocity": 64,
      "instrument": 0,
      "instrument_name": "Acoustic Grand Piano",
      "is_drum": false
    },
    {
      "pitch": 60,
      "start": 21.5854,
      "end": 21.7088,
      "duration": 0.1235,
      "velocity": 57,
      "instrument": 0,
      "instrument_name": "Acoustic Grand Piano",
      "is_drum": false
    },
    {
      "pitch": 62,
      "start": 21.7683,
      "end": 21.9238,
      "duration": 0.1555,
      "velocity": 51,
      "instrument": 0,
      "instrument_name": "Acoustic Grand Piano",
      "is_drum": false
    },
    {
      "pitch": 64,
      "start": 21.9512,
      "end": 22.3369,
      "duration": 0.3857,
      "velocity": 65,
      "instrument": 0,
      "instrument_name": "Acoustic Grand Piano",
      "is_drum": false
    },
    {
      "pitch": 52,
      "start": 21.9512,
      "end": 22.3476,
      "duration": 0.3963,
      "velocity": 49,
      "instrument": 0,
      "instrument_name": "Acoustic Grand Piano",
      "is_drum": false
    },
    {
      "pitch": 56,
      "start": 21.9512,
      "end": 22.3658,
      "duration": 0.4146,
      "velocity": 50,
      "instrument": 0,
      "instrument_name": "Acoustic Grand Piano",
      "is_drum": false
    },
    {
      "pitch": 60,
      "start": 22.6829,
      "end": 23.0549,
      "duration": 0.372,
      "velocity": 86,
      "instrument": 0,
      "instrument_name": "Acoustic Grand Piano",
      "is_drum": false
    },
    {
      "pitch": 76,
      "start": 22.6829,
      "end": 22.7469,
      "duration": 0.064,
      "velocity": 66,
      "instrument": 0,
      "instrument_name": "Acoustic Grand Piano",
      "is_drum": false
    },
    {
      "pitch": 88,
      "start": 22.7165,
      "end": 22.7805,
      "duration": 0.064,
      "velocity": 66,
      "instrument": 0,
      "instrument_name": "Acoustic Grand Piano",
      "is_drum": false
    },
    {
      "pitch": 62,
      "start": 23.0488,
      "end": 23.4299,
      "duration": 0.3811,
      "velocity": 72,
      "instrument": 0,
      "instrument_name": "Acoustic Grand Piano",
      "is_drum": false
    },
    {
      "pitch": 64,
      "start": 23.4146,
      "end": 23.7805,
      "duration": 0.3659,
      "velocity": 70,
      "instrument": 0,
      "instrument_name": "Acoustic Grand Piano",
      "is_drum": false
    },
    {
      "pitch": 60,
      "start": 23.4146,
      "end": 23.7835,
      "duration": 0.3689,
      "velocity": 57,
      "instrument": 0,
      "instrument_name": "Acoustic Grand Piano",
      "is_drum": false
    },
    {
      "pitch": 64,
      "start": 23.4146,
      "end": 23.7896,
      "duration": 0.375,
      "velocity": 54,
      "instrument": 0,
      "instrument_name": "Acoustic Grand Piano",
      "is_drum": false
    },
    {
      "pitch": 45,
      "start": 23.4146,
      "end": 23.7927,
      "duration": 0.378,
      "velocity": 62,
      "instrument": 0,
      "instrument_name": "Acoustic Grand Piano",
      "is_drum": false
    },
    {
      "pitch": 69,
      "start": 23.7805,
      "end": 24.1463,
      "duration": 0.3659,
      "velocity": 82,
      "instrument": 0,
      "instrument_name": "Acoustic Grand Piano",
      "is_drum": false
    },
    {
      "pitch": 52,
      "start": 23.7805,
      "end": 23.811,
      "duration": 0.0305,
      "velocity": 74,
      "instrument": 0,
      "instrument_name": "Acoustic Grand Piano",
      "is_drum": false
    },
    {
      "pitch": 69,
      "start": 23.7805,
      "end": 23.8216,
      "duration": 0.0412,
      "velocity": 77,
      "instrument": 0,
      "instrument_name": "Acoustic Grand Piano",
      "is_drum": false
    },
    {
      "pitch": 71,
      "start": 24.1463,
      "end": 24.5122,
      "duration": 0.3659,
      "velocity": 49,
      "instrument": 0,
      "instrument_name": "Acoustic Grand Piano",
      "is_drum": false
    },
    {
      "pitch": 62,
      "start": 24.1463,
      "end": 24.1921,
      "duration": 0.0457,
      "velocity": 60,
      "instrument": 0,
      "instrument_name": "Acoustic Grand Piano",
      "is_drum": false
    },
    {
      "pitch": 71,
      "start": 24.1463,
      "end": 24.1966,
      "duration": 0.0503,
      "velocity": 62,
      "instrument": 0,
      "instrument_name": "Acoustic Grand Piano",
      "is_drum": false
    },
    {
      "pitch": 57,
      "start": 24.1463,
      "end": 24.1982,
      "duration": 0.0518,
      "velocity": 67,
      "instrument": 0,
      "instrument_name": "Acoustic Grand Piano",
      "is_drum": false
    },
    {
      "pitch": 72,
      "start": 24.5122,
      "end": 24.878,
      "duration": 0.3659,
      "velocity": 65,
      "instrument": 0,
      "instrument_name": "Acoustic Grand Piano",
      "is_drum": false
    },
    {
      "pitch": 64,
      "start": 24.5122,
      "end": 24.564,
      "duration": 0.0518,
      "velocity": 54,
      "instrument": 0,
      "instrument_name": "Acoustic Grand Piano",
      "is_drum": false
    },
    {
      "pitch": 72,
      "start": 24.5122,
      "end": 24.5732,
      "duration": 0.061,
      "velocity": 72,
      "instrument": 0,
      "instrument_name": "Acoustic Grand Piano",
      "is_drum": false
    },
    {
      "pitch": 59,
      "start": 24.5122,
      "end": 24.5884,
      "duration": 0.0762,
      "velocity": 64,
      "instrument": 0,
      "instrument_name": "Acoustic Grand Piano",
      "is_drum": false
    },
    {
      "pitch": 71,
      "start": 24.878,
      "end": 25.4421,
      "duration": 0.564,
      "velocity": 71,
      "instrument": 0,
      "instrument_name": "Acoustic Grand Piano",
      "is_drum": false
    },
    {
      "pitch": 65,
      "start": 24.878,
      "end": 25.6235,
      "duration": 0.7454,
      "velocity": 65,
      "instrument": 0,
      "instrument_name": "Acoustic Grand Piano",
      "is_drum": false
    },
    {
      "pitch": 71,
      "start": 24.878,
      "end": 25.625,
      "duration": 0.747,
      "velocity": 68,
      "instrument": 0,
      "instrument_name": "Acoustic Grand Piano",
      "is_drum": false
    },
    {
      "pitch": 53,
      "start": 24.878,
      "end": 26.0594,
      "duration": 1.1814,
      "velocity": 58,
      "instrument": 0,
      "instrument_name": "Acoustic Grand Piano",
      "is_drum": false
    },
    {
      "pitch": 57,
      "start": 24.878,
      "end": 26.0655,
      "duration": 1.1875,
      "velocity": 45,
      "instrument": 0,
      "instrument_name": "Acoustic Grand Piano",
      "is_drum": false
    },
    {
      "pitch": 69,
      "start": 25.6097,
      "end": 26.1021,
      "duration": 0.4924,
      "velocity": 73,
      "instrument": 0,
      "instrument_name": "Acoustic Grand Piano",
      "is_drum": false
    },
    {
      "pitch": 69,
      "start": 25.6097,
      "end": 26.2698,
      "duration": 0.6601,
      "velocity": 72,
      "instrument": 0,
      "instrument_name": "Acoustic Grand Piano",
      "is_drum": false
    },
    {
      "pitch": 62,
      "start": 26.1585,
      "end": 27.0732,
      "duration": 0.9146,
      "velocity": 77,
      "instrument": 0,
      "instrument_name": "Acoustic Grand Piano",
      "is_drum": false
    },
    {
      "pitch": 62,
      "start": 26.3415,
      "end": 27.1799,
      "duration": 0.8384,
      "velocity": 65,
      "instrument": 0,
      "instrument_name": "Acoustic Grand Piano",
      "is_drum": false
    },
    {
      "pitch": 57,
      "start": 26.3415,
      "end": 27.4512,
      "duration": 1.1098,
      "velocity": 53,
      "instrument": 0,
      "instrument_name": "Acoustic Grand Piano",
      "is_drum": false
    },
    {
      "pitch": 50,
      "start": 26.3415,
      "end": 27.4558,
      "duration": 1.1143,
      "velocity": 53,
      "instrument": 0,
      "instrument_name": "Acoustic Grand Piano",
      "is_drum": false
    },
    {
      "pitch": 60,
      "start": 27.439,
      "end": 27.6082,
      "duration": 0.1692,
      "velocity": 66,
      "instrument": 0,
      "instrument_name": "Acoustic Grand Piano",
      "is_drum": false
    },
    {
      "pitch": 62,
      "start": 27.6219,
      "end": 27.7744,
      "duration": 0.1524,
      "velocity": 50,
      "instrument": 0,
      "instrument_name": "Acoustic Grand Piano",
      "is_drum": false
    },
    {
      "pitch": 48,
      "start": 27.8049,
      "end": 28.41,
      "duration": 0.6052,
      "velocity": 49,
      "instrument": 0,
      "instrument_name": "Acoustic Grand Piano",
      "is_drum": false
    },
    {
      "pitch": 52,
      "start": 27.8049,
      "end": 28.4253,
      "duration": 0.6204,
      "velocity": 45,
      "instrument": 0,
      "instrument_name": "Acoustic Grand Piano",
      "is_drum": false
    },
    {
      "pitch": 64,
      "start": 27.8049,
      "end": 28.5686,
      "duration": 0.7637,
      "velocity": 66,
      "instrument": 0,
      "instrument_name": "Acoustic Grand Piano",
      "is_drum": false
    },
    {
      "pitch": 55,
      "start": 27.8049,
      "end": 29.3354,
      "duration": 1.5305,
      "velocity": 47,
      "instrument": 0,
      "instrument_name": "Acoustic Grand Piano",
      "is_drum": false
    },
    {
      "pitch": 60,
      "start": 28.5366,
      "end": 28.9192,
      "duration": 0.3826,
      "velocity": 70,
      "instrument": 0,
      "instrument_name": "Acoustic Grand Piano",
      "is_drum": false
    },
    {
      "pitch": 47,
      "start": 28.5366,
      "end": 28.8811,
      "duration": 0.3445,
      "velocity": 54,
      "instrument": 0,
      "instrument_name": "Acoustic Grand Piano",
      "is_drum": false
    },
    {
      "pitch": 62,
      "start": 28.5366,
      "end": 29.218,
      "duration": 0.6814,
      "velocity": 64,
      "instrument": 0,
      "instrument_name": "Acoustic Grand Piano",
      "is_drum": false
    },
    {
      "pitch": 62,
      "start": 28.9024,
      "end": 29.2424,
      "duration": 0.3399,
      "velocity": 68,
      "instrument": 0,
      "instrument_name": "Acoustic Grand Piano",
      "is_drum": false
    },
    {
      "pitch": 64,
      "start": 29.2683,
      "end": 29.6128,
      "duration": 0.3445,
      "velocity": 61,
      "instrument": 0,
      "instrument_name": "Acoustic Grand Piano",
      "is_drum": false
    },
    {
      "pitch": 45,
      "start": 29.2683,
      "end": 29.6189,
      "duration": 0.3506,
      "velocity": 58,
      "instrument": 0,
      "instrument_name": "Acoustic Grand Piano",
      "is_drum": false
    },
    {
      "pitch": 64,
      "start": 29.2683,
      "end": 29.6235,
      "duration": 0.3552,
      "velocity": 49,
      "instrument": 0,
      "instrument_name": "Acoustic Grand Piano",
      "is_drum": false
    },
    {
      "pitch": 60,
      "start": 29.2683,
      "end": 29.6265,
      "duration": 0.3582,
      "velocity": 63,
      "instrument": 0,
      "instrument_name": "Acoustic Grand Piano",
      "is_drum": false
    },
    {
      "pitch": 69,
      "start": 29.6341,
      "end": 29.971,
      "duration": 0.3369,
      "velocity": 68,
      "instrument": 0,
      "instrument_name": "Acoustic Grand Piano",
      "is_drum": false
    },
    {
      "pitch": 52,
      "start": 29.6341,
      "end": 29.6722,
      "duration": 0.0381,
      "velocity": 77,
      "instrument": 0,
      "instrument_name": "Acoustic Grand Piano",
      "is_drum": false
    },
    {
      "pitch": 69,
      "start": 29.6341,
      "end": 29.6921,
      "duration": 0.0579,
      "velocity": 76,
      "instrument": 0,
      "instrument_name": "Acoustic Grand Piano",
      "is_drum": false
    },
    {
      "pitch": 71,
      "start": 30.0,
      "end": 30.3811,
      "duration": 0.3811,
      "velocity": 62,
      "instrument": 0,
      "instrument_name": "Acoustic Grand Piano",
      "is_drum": false
    },
    {
      "pitch": 71,
      "start": 30.0,
      "end": 30.0503,
      "duration": 0.0503,
      "velocity": 67,
      "instrument": 0,
      "instrument_name": "Acoustic Grand Piano",
      "is_drum": false
    },
    {
      "pitch": 57,
      "start": 30.0,
      "end": 30.1219,
      "duration": 0.122,
      "velocity": 62,
      "instrument": 0,
      "instrument_name": "Acoustic Grand Piano",
      "is_drum": false
    },
    {
      "pitch": 72,
      "start": 30.3658,
      "end": 30.7317,
      "duration": 0.3659,
      "velocity": 74,
      "instrument": 0,
      "instrument_name": "Acoustic Grand Piano",
      "is_drum": false
    },
    {
      "pitch": 72,
      "start": 30.3658,
      "end": 30.4116,
      "duration": 0.0457,
      "velocity": 73,
      "instrument": 0,
      "instrument_name": "Acoustic Grand Piano",
      "is_drum": false
    },
    {
      "pitch": 71,
      "start": 30.7317,
      "end": 31.3918,
      "duration": 0.6601,
      "velocity": 63,
      "instrument": 0,
      "instrument_name": "Acoustic Grand Piano",
      "is_drum": false
    },
    {
      "pitch": 53,
      "start": 30.7317,
      "end": 31.6143,
      "duration": 0.8826,
      "velocity": 52,
      "instrument": 0,
      "instrument_name": "Acoustic Grand Piano",
      "is_drum": false
    },
    {
      "pitch": 57,
      "start": 30.7317,
      "end": 31.6479,
      "duration": 0.9162,
      "velocity": 52,
      "instrument": 0,
      "instrument_name": "Acoustic Grand Piano",
      "is_drum": false
    },
    {
      "pitch": 65,
      "start": 30.7317,
      "end": 31.689,
      "duration": 0.9573,
      "velocity": 65,
      "instrument": 0,
      "instrument_name": "Acoustic Grand Piano",
      "is_drum": false
    },
    {
      "pitch": 69,
      "start": 31.4634,
      "end": 31.968,
      "duration": 0.5046,
      "velocity": 75,
      "instrument": 0,
      "instrument_name": "Acoustic Grand Piano",
      "is_drum": false
    },
    {
      "pitch": 65,
      "start": 31.8293,
      "end": 31.9222,
      "duration": 0.093,
      "velocity": 67,
      "instrument": 0,
      "instrument_name": "Acoustic Grand Piano",
      "is_drum": false
    },
    {
      "pitch": 62,
      "start": 32.0122,
      "end": 32.7469,
      "duration": 0.7348,
      "velocity": 82,
      "instrument": 0,
      "instrument_name": "Acoustic Grand Piano",
      "is_drum": false
    },
    {
      "pitch": 64,
      "start": 32.0122,
      "end": 32.1783,
      "duration": 0.1662,
      "velocity": 37,
      "instrument": 0,
      "instrument_name": "Acoustic Grand Piano",
      "is_drum": false
    },
    {
      "pitch": 62,
      "start": 32.1951,
      "end": 32.9405,
      "duration": 0.7454,
      "velocity": 66,
      "instrument": 0,
      "instrument_name": "Acoustic Grand Piano",
      "is_drum": false
    },
    {
      "pitch": 53,
      "start": 32.1951,
      "end": 33.2027,
      "duration": 1.0076,
      "velocity": 44,
      "instrument": 0,
      "instrument_name": "Acoustic Grand Piano",
      "is_drum": false
    },
    {
      "pitch": 50,
      "start": 32.1951,
      "end": 33.2073,
      "duration": 1.0122,
      "velocity": 35,
      "instrument": 0,
      "instrument_name": "Acoustic Grand Piano",
      "is_drum": false
    },
    {
      "pitch": 57,
      "start": 32.1951,
      "end": 33.218,
      "duration": 1.0229,
      "velocity": 34,
      "instrument": 0,
      "instrument_name": "Acoustic Grand Piano",
      "is_drum": false
    },
    {
      "pitch": 60,
      "start": 33.2927,
      "end": 33.5107,
      "duration": 0.218,
      "velocity": 72,
      "instrument": 0,
      "instrument_name": "Acoustic Grand Piano",
      "is_drum": false
    },
    {
      "pitch": 62,
      "start": 33.4756,
      "end": 33.6799,
      "duration": 0.2043,
      "velocity": 56,
      "instrument": 0,
      "instrument_name": "Acoustic Grand Piano",
      "is_drum": false
    },
    {
      "pitch": 64,
      "start": 33.6585,
      "end": 34.0305,
      "duration": 0.372,
      "velocity": 83,
      "instrument": 0,
      "instrument_name": "Acoustic Grand Piano",
      "is_drum": false
    },
    {
      "pitch": 64,
      "start": 33.6585,
      "end": 33.8887,
      "duration": 0.2302,
      "velocity": 60,
      "instrument": 0,
      "instrument_name": "Acoustic Grand Piano",
      "is_drum": false
    },
    {
      "pitch": 52,
      "start": 33.6585,
      "end": 34.7363,
      "duration": 1.0777,
      "velocity": 59,
      "instrument": 0,
      "instrument_name": "Acoustic Grand Piano",
      "is_drum": false
    },
    {
      "pitch": 56,
      "start": 33.6585,
      "end": 34.7576,
      "duration": 1.0991,
      "velocity": 61,
      "instrument": 0,
      "instrument_name": "Acoustic Grand Piano",
      "is_drum": false
    },
    {
      "pitch": 63,
      "start": 34.0244,
      "end": 34.3841,
      "duration": 0.3598,
      "velocity": 70,
      "instrument": 0,
      "instrument_name": "Acoustic Grand Piano",
      "is_drum": false
    },
    {
      "pitch": 64,
      "start": 34.3902,
      "end": 34.7561,
      "duration": 0.3659,
      "velocity": 65,
      "instrument": 0,
      "instrument_name": "Acoustic Grand Piano",
      "is_drum": false
    },
    {
      "pitch": 88,
      "start": 34.3902,
      "end": 34.4558,
      "duration": 0.0655,
      "velocity": 48,
      "instrument": 0,
      "instrument_name": "Acoustic Grand Piano",
      "is_drum": false
    },
    {
      "pitch": 76,
      "start": 34.3902,
      "end": 34.4771,
      "duration": 0.0869,
      "velocity": 47,
      "instrument": 0,
      "instrument_name": "Acoustic Grand Piano",
      "is_drum": false
    },
    {
      "pitch": 60,
      "start": 34.7561,
      "end": 34.9268,
      "duration": 0.1707,
      "velocity": 65,
      "instrument": 0,
      "instrument_name": "Acoustic Grand Piano",
      "is_drum": false
    },
    {
      "pitch": 57,
      "start": 34.939,
      "end": 35.1219,
      "duration": 0.1829,
      "velocity": 68,
      "instrument": 0,
      "instrument_name": "Acoustic Grand Piano",
      "is_drum": false
    }
  ],
  "embedding": [
    0.14367816091954022,
    0.0,
    0.1781609195402299,
    0.005747126436781609,
    0.2413793103448276,
    0.12643678160919541,
    0.0,
    0.005747126436781609,
    0.028735632183908046,
    0.20689655172413793,
    0.0,
    0.06321839080459771,
    0.11560693641618497,
    0.0,
    0.0,
    0.017341040462427744,
    0.04046242774566474,
    0.06936416184971098,
    0.005780346820809248,
    0.03468208092485549,
    0.04046242774566474,
    0.023121387283236993,
    0.05202312138728324,
    0.023121387283236993,
    0.06358381502890173,
    0.028901734104046242,
    0.09826589595375723,
    0.057803468208092484,
    0.07514450867052024,
    0.03468208092485549,
    0.017341040462427744,
    0.028901734104046242,
    0.011560693641618497,
    0.057803468208092484,
    0.005780346820809248,
    0.0,
    0.09826589595375723,
    0.0,
    0.0,
    0.13793103448275862,
    0.3850574712643678,
    0.43103448275862066,
    0.04597701149425287,
    0.0,
    0.0,
    0.22413793103448276,
    0.16091954022988506,
    0.29310344827586204,
    0.26436781609195403,
    0.05747126436781609,
    0.0,
    0.0,
    0.0,
    0.0,
    0.0,
    0.4826771653543307,
    0.1775,
    0.47716535433070867,
    0.2875,
    0.04132,
    0.03246,
    0.41,
    0.058533333333333326,
    0.16091954022988506,
    0.14367816091954022,
    0.13218390804597702,
    0.11494252873563218,
    0.06321839080459771,
    0.06321839080459771,
    0.06321839080459771,
    0.04597701149425287,
    0.040229885057471264,
    0.034482758620689655,
    0.028735632183908046,
    0.022988505747126436,
    0.017241379310344827,
    0.017241379310344827,
    0.017241379310344827,
    0.011494252873563218,
    0.005747126436781609,
    0.005747126436781609,
    0.005747126436781609,
    0.005747126436781609,
    0.0,
    0.0,
    0.0,
    0.0,
    0.0,
    0.0,
    0.0,
    0.0,
    0.0,
    0.0,
    0.0,
    0.0,
    0.0,
    0.0,
    0.0,
    0.0,
    0.0,
    0.0,
    0.0,
    0.0,
    0.0,
    0.0,
    0.0,
    0.0,
    0.0,
    0.0,
    0.0,
    0.0,
    0.0,
    0.0,
    0.0,
    0.0,
    0.0,
    0.0,
    0.0,
    0.0,
    0.0,
    0.0,
    0.0,
    0.0,
    0.0,
    0.0,
    0.0,
    0.0,
    0.0
  ],
  "pitch_histogram": [
    0.0,
    0.0,
    0.0,
    0.0,
    0.0,
    0.0,
    0.0,
    0.0,
    0.0,
    0.0,
    0.0,
    0.0,
    0.0,
    0.0,
    0.0,
    0.0,
    0.0,
    0.0,
    0.0,
    0.0,
    0.0,
    0.0,
    0.0,
    0.0,
    0.0,
    0.0,
    0.0,
    0.0,
    0.0,
    0.0,
    0.0,
    0.0,
    0.0,
    0.0,
    0.0,
    0.0,
    0.0,
    0.0,
    0.0,
    0.0,
    0.0,
    0.0,
    0.0,
    0.0,
    0.0,
    0.011494252873563218,
    0.0,
    0.005747126436781609,
    0.005747126436781609,
    0.0,
    0.034482758620689655,
    0.0,
    0.04597701149425287,
    0.06321839080459771,
    0.0,
    0.005747126436781609,
    0.028735632183908046,
    0.13218390804597702,
    0.0,
    0.017241379310344827,
    0.11494252873563218,
    0.0,
    0.14367816091954022,
    0.005747126436781609,
    0.16091954022988506,
    0.06321839080459771,
    0.0,
    0.0,
    0.0,
    0.06321839080459771,
    0.0,
    0.040229885057471264,
    0.022988505747126436,
    0.0,
    0.0,
    0.0,
    0.017241379310344827,
    0.0,
    0.0,
    0.0,
    0.0,
    0.0,
    0.0,
    0.0,
    0.0,
    0.0,
    0.0,
    0.0,
    0.017241379310344827,
    0.0,
    0.0,
    0.0,
    0.0,
    0.0,
    0.0,
    0.0,
    0.0,
    0.0,
    0.0,
    0.0,
    0.0,
    0.0,
    0.0,
    0.0,
    0.0,
    0.0,
    0.0,
    0.0,
    0.0,
    0.0,
    0.0,
    0.0,
    0.0,
    0.0,
    0.0,
    0.0,
    0.0,
    0.0,
    0.0,
    0.0,
    0.0,
    0.0,
    0.0,
    0.0,
    0.0,
    0.0,
    0.0,
    0.0
  ],
  "pitch_class_histogram": [
    0.14367816091954022,
    0.0,
    0.1781609195402299,
    0.005747126436781609,
    0.2413793103448276,
    0.12643678160919541,
    0.0,
    0.005747126436781609,
    0.028735632183908046,
    0.20689655172413793,
    0.0,
    0.06321839080459771
  ],
  "interval_histogram": [
    0.11560693641618497,
    0.0,
    0.0,
    0.017341040462427744,
    0.04046242774566474,
    0.06936416184971098,
    0.005780346820809248,
    0.03468208092485549,
    0.04046242774566474,
    0.023121387283236993,
    0.05202312138728324,
    0.023121387283236993,
    0.06358381502890173,
    0.028901734104046242,
    0.09826589595375723,
    0.057803468208092484,
    0.07514450867052024,
    0.03468208092485549,
    0.017341040462427744,
    0.028901734104046242,
    0.011560693641618497,
    0.057803468208092484,
    0.005780346820809248,
    0.0,
    0.09826589595375723
  ],
  "velocity_histogram": [
    0.0,
    0.0,
    0.13793103448275862,
    0.3850574712643678,
    0.43103448275862066,
    0.04597701149425287,
    0.0,
    0.0
  ],
  "duration_histogram": [
    0.22413793103448276,
    0.16091954022988506,
    0.29310344827586204,
    0.26436781609195403,
    0.05747126436781609,
    0.0,
    0.0,
    0.0,
    0.0,
    0.0
  ]
}