{
  "stats": {
    "filename": "단풍_BPM66_4-4.mid",
    "total_notes": 134,
    "total_duration_sec": 47.27,
    "avg_tempo": 66.0,
    "pitch_range": [
      37,
      73
    ],
    "pitch_mean": 58.1,
    "pitch_std": 8.1,
    "velocity_range": [
      34,
      84
    ],
    "velocity_mean": 57.8,
    "velocity_std": 9.1,
    "duration_mean": 1.0131,
    "duration_std": 0.7608,
    "estimated_key": "E",
    "num_instruments": 2,
    "time_signatures": [
      "4/4"
    ]
  },
  "composer_tags": {
    "rhythm_type": "moderate",
    "rhythm_regularity": 0.239,
    "note_density_per_sec": 2.83,
    "avg_ioi": 0.6543,
    "harmony_type": "triadic",
    "harmonic_brightness": 0.667,
    "harmony_ratio": 0.724,
    "avg_polyphony": 3.23,
    "max_polyphony": 6,
    "accompaniment_pattern": "block_chord",
    "arpeggio_ratio": 0.008,
    "voicing_type": "semi_open",
    "avg_voicing_spread": 13.8,
    "pitch_range": 36,
    "register": "tenor",
    "dynamic_profile": "moderate",
    "dynamic_level": "mezzo-forte",
    "velocity_range": 50,
    "tempo_bpm": 66.0,
    "tempo_category": "adagio"
  },
  "notes": [
    {
      "pitch": 40,
      "start": 3.6364,
      "end": 6.4223,
      "duration": 2.786,
      "velocity": 38,
      "instrument": 0,
      "instrument_name": "Acoustic Grand Piano",
      "is_drum": false
    },
    {
      "pitch": 47,
      "start": 3.6364,
      "end": 6.428,
      "duration": 2.7917,
      "velocity": 38,
      "instrument": 0,
      "instrument_name": "Acoustic Grand Piano",
      "is_drum": false
    },
    {
      "pitch": 56,
      "start": 3.6364,
      "end": 6.4716,
      "duration": 2.8352,
      "velocity": 56,
      "instrument": 0,
      "instrument_name": "Acoustic Grand Piano",
      "is_drum": false
    },
    {
      "pitch": 64,
      "start": 3.6364,
      "end": 6.4792,
      "duration": 2.8428,
      "velocity": 53,
      "instrument": 0,
      "instrument_name": "Acoustic Grand Piano",
      "is_drum": false
    },
    {
      "pitch": 68,
      "start": 5.9091,
      "end": 6.5795,
      "duration": 0.6705,
      "velocity": 68,
      "instrument": 0,
      "instrument_name": "Acoustic Grand Piano",
      "is_drum": false
    },
    {
      "pitch": 66,
      "start": 6.5909,
      "end": 6.9432,
      "duration": 0.3523,
      "velocity": 60,
      "instrument": 0,
      "instrument_name": "Acoustic Grand Piano",
      "is_drum": false
    },
    {
      "pitch": 64,
      "start": 7.0454,
      "end": 7.2348,
      "duration": 0.1894,
      "velocity": 52,
      "instrument": 0,
      "instrument_name": "Acoustic Grand Piano",
      "is_drum": false
    },
    {
      "pitch": 64,
      "start": 7.2727,
      "end": 8.2917,
      "duration": 1.0189,
      "velocity": 52,
      "instrument": 0,
      "instrument_name": "Acoustic Grand Piano",
      "is_drum": false
    },
    {
      "pitch": 40,
      "start": 7.2727,
      "end": 9.2973,
      "duration": 2.0246,
      "velocity": 41,
      "instrument": 0,
      "instrument_name": "Acoustic Grand Piano",
      "is_drum": false
    },
    {
      "pitch": 49,
      "start": 7.2727,
      "end": 9.3542,
      "duration": 2.0814,
      "velocity": 49,
      "instrument": 0,
      "instrument_name": "Acoustic Grand Piano",
      "is_drum": false
    },
    {
      "pitch": 57,
      "start": 7.2727,
      "end": 9.4716,
      "duration": 2.1989,
      "velocity": 61,
      "instrument": 0,
      "instrument_name": "Acoustic Grand Piano",
      "is_drum": false
    },
    {
      "pitch": 64,
      "start": 7.2727,
      "end": 9.5227,
      "duration": 2.25,
      "velocity": 63,
      "instrument": 0,
      "instrument_name": "Acoustic Grand Piano",
      "is_drum": false
    },
    {
      "pitch": 59,
      "start": 10.4545,
      "end": 10.9754,
      "duration": 0.5208,
      "velocity": 66,
      "instrument": 0,
      "instrument_name": "Acoustic Grand Piano",
      "is_drum": false
    },
    {
      "pitch": 61,
      "start": 10.9091,
      "end": 11.3239,
      "duration": 0.4148,
      "velocity": 65,
      "instrument": 0,
      "instrument_name": "Acoustic Grand Piano",
      "is_drum": false
    },
    {
      "pitch": 42,
      "start": 10.9091,
      "end": 12.1894,
      "duration": 1.2803,
      "velocity": 50,
      "instrument": 0,
      "instrument_name": "Acoustic Grand Piano",
      "is_drum": false
    },
    {
      "pitch": 61,
      "start": 10.9091,
      "end": 12.2083,
      "duration": 1.2992,
      "velocity": 62,
      "instrument": 0,
      "instrument_name": "Acoustic Grand Piano",
      "is_drum": false
    },
    {
      "pitch": 57,
      "start": 10.9091,
      "end": 12.2121,
      "duration": 1.303,
      "velocity": 57,
      "instrument": 0,
      "instrument_name": "Acoustic Grand Piano",
      "is_drum": false
    },
    {
      "pitch": 52,
      "start": 10.9091,
      "end": 12.2178,
      "duration": 1.3087,
      "velocity": 39,
      "instrument": 0,
      "instrument_name": "Acoustic Grand Piano",
      "is_drum": false
    },
    {
      "pitch": 64,
      "start": 11.3636,
      "end": 11.5454,
      "duration": 0.1818,
      "velocity": 54,
      "instrument": 0,
      "instrument_name": "Acoustic Grand Piano",
      "is_drum": false
    },
    {
      "pitch": 64,
      "start": 11.8182,
      "end": 12.2651,
      "duration": 0.447,
      "velocity": 48,
      "instrument": 0,
      "instrument_name": "Acoustic Grand Piano",
      "is_drum": false
    },
    {
      "pitch": 68,
      "start": 12.2727,
      "end": 12.7386,
      "duration": 0.4659,
      "velocity": 57,
      "instrument": 0,
      "instrument_name": "Acoustic Grand Piano",
      "is_drum": false
    },
    {
      "pitch": 66,
      "start": 12.7273,
      "end": 13.1496,
      "duration": 0.4223,
      "velocity": 54,
      "instrument": 0,
      "instrument_name": "Acoustic Grand Piano",
      "is_drum": false
    },
    {
      "pitch": 47,
      "start": 12.7273,
      "end": 13.9015,
      "duration": 1.1742,
      "velocity": 58,
      "instrument": 0,
      "instrument_name": "Acoustic Grand Piano",
      "is_drum": false
    },
    {
      "pitch": 61,
      "start": 12.7273,
      "end": 14.0038,
      "duration": 1.2765,
      "velocity": 51,
      "instrument": 0,
      "instrument_name": "Acoustic Grand Piano",
      "is_drum": false
    },
    {
      "pitch": 64,
      "start": 12.7273,
      "end": 14.1345,
      "duration": 1.4072,
      "velocity": 66,
      "instrument": 0,
      "instrument_name": "Acoustic Grand Piano",
      "is_drum": false
    },
    {
      "pitch": 57,
      "start": 12.7273,
      "end": 14.1875,
      "duration": 1.4602,
      "velocity": 56,
      "instrument": 0,
      "instrument_name": "Acoustic Grand Piano",
      "is_drum": false
    },
    {
      "pitch": 64,
      "start": 13.1818,
      "end": 13.678,
      "duration": 0.4962,
      "velocity": 49,
      "instrument": 0,
      "instrument_name": "Acoustic Grand Piano",
      "is_drum": false
    },
    {
      "pitch": 61,
      "start": 13.6364,
      "end": 14.072,
      "duration": 0.4356,
      "velocity": 61,
      "instrument": 0,
      "instrument_name": "Acoustic Grand Piano",
      "is_drum": false
    },
    {
      "pitch": 59,
      "start": 14.0909,
      "end": 15.0,
      "duration": 0.9091,
      "velocity": 69,
      "instrument": 0,
      "instrument_name": "Acoustic Grand Piano",
      "is_drum": false
    },
    {
      "pitch": 59,
      "start": 14.5454,
      "end": 15.4829,
      "duration": 0.9375,
      "velocity": 68,
      "instrument": 0,
      "instrument_name": "Acoustic Grand Piano",
      "is_drum": false
    },
    {
      "pitch": 40,
      "start": 14.5454,
      "end": 15.6401,
      "duration": 1.0947,
      "velocity": 56,
      "instrument": 0,
      "instrument_name": "Acoustic Grand Piano",
      "is_drum": false
    },
    {
      "pitch": 49,
      "start": 15.0,
      "end": 15.7216,
      "duration": 0.7216,
      "velocity": 60,
      "instrument": 0,
      "instrument_name": "Acoustic Grand Piano",
      "is_drum": false
    },
    {
      "pitch": 57,
      "start": 15.4545,
      "end": 16.3788,
      "duration": 0.9242,
      "velocity": 66,
      "instrument": 0,
      "instrument_name": "Acoustic Grand Piano",
      "is_drum": false
    },
    {
      "pitch": 47,
      "start": 16.3636,
      "end": 17.5,
      "duration": 1.1364,
      "velocity": 62,
      "instrument": 0,
      "instrument_name": "Acoustic Grand Piano",
      "is_drum": false
    },
    {
      "pitch": 56,
      "start": 16.3636,
      "end": 17.5379,
      "duration": 1.1742,
      "velocity": 84,
      "instrument": 0,
      "instrument_name": "Acoustic Grand Piano",
      "is_drum": false
    },
    {
      "pitch": 68,
      "start": 16.8182,
      "end": 17.231,
      "duration": 0.4129,
      "velocity": 65,
      "instrument": 0,
      "instrument_name": "Acoustic Grand Piano",
      "is_drum": false
    },
    {
      "pitch": 63,
      "start": 17.2727,
      "end": 17.6951,
      "duration": 0.4223,
      "velocity": 61,
      "instrument": 0,
      "instrument_name": "Acoustic Grand Piano",
      "is_drum": false
    },
    {
      "pitch": 64,
      "start": 17.7273,
      "end": 18.572,
      "duration": 0.8447,
      "velocity": 58,
      "instrument": 0,
      "instrument_name": "Acoustic Grand Piano",
      "is_drum": false
    },
    {
      "pitch": 37,
      "start": 18.1818,
      "end": 20.9072,
      "duration": 2.7254,
      "velocity": 52,
      "instrument": 0,
      "instrument_name": "Acoustic Grand Piano",
      "is_drum": false
    },
    {
      "pitch": 64,
      "start": 18.1818,
      "end": 20.9261,
      "duration": 2.7443,
      "velocity": 62,
      "instrument": 0,
      "instrument_name": "Acoustic Grand Piano",
      "is_drum": false
    },
    {
      "pitch": 59,
      "start": 18.1818,
      "end": 20.9564,
      "duration": 2.7746,
      "velocity": 66,
      "instrument": 0,
      "instrument_name": "Acoustic Grand Piano",
      "is_drum": false
    },
    {
      "pitch": 49,
      "start": 18.1818,
      "end": 20.9905,
      "duration": 2.8087,
      "velocity": 50,
      "instrument": 0,
      "instrument_name": "Acoustic Grand Piano",
      "is_drum": false
    },
    {
      "pitch": 64,
      "start": 20.0,
      "end": 20.4583,
      "duration": 0.4583,
      "velocity": 67,
      "instrument": 0,
      "instrument_name": "Acoustic Grand Piano",
      "is_drum": false
    },
    {
      "pitch": 66,
      "start": 20.4545,
      "end": 20.928,
      "duration": 0.4735,
      "velocity": 61,
      "instrument": 0,
      "instrument_name": "Acoustic Grand Piano",
      "is_drum": false
    },
    {
      "pitch": 68,
      "start": 20.9091,
      "end": 21.3276,
      "duration": 0.4186,
      "velocity": 62,
      "instrument": 0,
      "instrument_name": "Acoustic Grand Piano",
      "is_drum": false
    },
    {
      "pitch": 68,
      "start": 20.9091,
      "end": 21.8712,
      "duration": 0.9621,
      "velocity": 73,
      "instrument": 0,
      "instrument_name": "Acoustic Grand Piano",
      "is_drum": false
    },
    {
      "pitch": 73,
      "start": 21.3636,
      "end": 22.3049,
      "duration": 0.9413,
      "velocity": 81,
      "instrument": 0,
      "instrument_name": "Acoustic Grand Piano",
      "is_drum": false
    },
    {
      "pitch": 42,
      "start": 21.8182,
      "end": 24.6875,
      "duration": 2.8693,
      "velocity": 48,
      "instrument": 0,
      "instrument_name": "Acoustic Grand Piano",
      "is_drum": false
    },
    {
      "pitch": 61,
      "start": 21.8182,
      "end": 24.7424,
      "duration": 2.9242,
      "velocity": 62,
      "instrument": 0,
      "instrument_name": "Acoustic Grand Piano",
      "is_drum": false
    },
    {
      "pitch": 58,
      "start": 21.8182,
      "end": 24.7746,
      "duration": 2.9564,
      "velocity": 62,
      "instrument": 0,
      "instrument_name": "Acoustic Grand Piano",
      "is_drum": false
    },
    {
      "pitch": 52,
      "start": 21.8182,
      "end": 24.7879,
      "duration": 2.9697,
      "velocity": 46,
      "instrument": 0,
      "instrument_name": "Acoustic Grand Piano",
      "is_drum": false
    },
    {
      "pitch": 68,
      "start": 22.2727,
      "end": 23.1079,
      "duration": 0.8352,
      "velocity": 72,
      "instrument": 0,
      "instrument_name": "Acoustic Grand Piano",
      "is_drum": false
    },
    {
      "pitch": 66,
      "start": 23.1818,
      "end": 24.4129,
      "duration": 1.2311,
      "velocity": 59,
      "instrument": 0,
      "instrument_name": "Acoustic Grand Piano",
      "is_drum": false
    },
    {
      "pitch": 59,
      "start": 25.0,
      "end": 25.4791,
      "duration": 0.4792,
      "velocity": 47,
      "instrument": 0,
      "instrument_name": "Acoustic Grand Piano",
      "is_drum": false
    },
    {
      "pitch": 61,
      "start": 25.4545,
      "end": 25.8769,
      "duration": 0.4223,
      "velocity": 62,
      "instrument": 0,
      "instrument_name": "Acoustic Grand Piano",
      "is_drum": false
    },
    {
      "pitch": 61,
      "start": 25.4545,
      "end": 26.428,
      "duration": 0.9735,
      "velocity": 61,
      "instrument": 0,
      "instrument_name": "Acoustic Grand Piano",
      "is_drum": false
    },
    {
      "pitch": 42,
      "start": 25.4545,
      "end": 26.6136,
      "duration": 1.1591,
      "velocity": 45,
      "instrument": 0,
      "instrument_name": "Acoustic Grand Piano",
      "is_drum": false
    },
    {
      "pitch": 57,
      "start": 25.4545,
      "end": 26.6723,
      "duration": 1.2178,
      "velocity": 66,
      "instrument": 0,
      "instrument_name": "Acoustic Grand Piano",
      "is_drum": false
    },
    {
      "pitch": 52,
      "start": 25.4545,
      "end": 26.6818,
      "duration": 1.2273,
      "velocity": 44,
      "instrument": 0,
      "instrument_name": "Acoustic Grand Piano",
      "is_drum": false
    },
    {
      "pitch": 64,
      "start": 25.9091,
      "end": 26.0738,
      "duration": 0.1648,
      "velocity": 53,
      "instrument": 0,
      "instrument_name": "Acoustic Grand Piano",
      "is_drum": false
    },
    {
      "pitch": 64,
      "start": 26.3636,
      "end": 26.8522,
      "duration": 0.4886,
      "velocity": 40,
      "instrument": 0,
      "instrument_name": "Acoustic Grand Piano",
      "is_drum": false
    },
    {
      "pitch": 64,
      "start": 26.3636,
      "end": 26.6155,
      "duration": 0.2519,
      "velocity": 68,
      "instrument": 0,
      "instrument_name": "Acoustic Grand Piano",
      "is_drum": false
    },
    {
      "pitch": 66,
      "start": 26.8182,
      "end": 27.0075,
      "duration": 0.1894,
      "velocity": 62,
      "instrument": 0,
      "instrument_name": "Acoustic Grand Piano",
      "is_drum": false
    },
    {
      "pitch": 66,
      "start": 27.2727,
      "end": 28.1174,
      "duration": 0.8447,
      "velocity": 62,
      "instrument": 0,
      "instrument_name": "Acoustic Grand Piano",
      "is_drum": false
    },
    {
      "pitch": 66,
      "start": 27.2727,
      "end": 28.3807,
      "duration": 1.108,
      "velocity": 57,
      "instrument": 0,
      "instrument_name": "Acoustic Grand Piano",
      "is_drum": false
    },
    {
      "pitch": 47,
      "start": 27.2727,
      "end": 28.3844,
      "duration": 1.1117,
      "velocity": 49,
      "instrument": 0,
      "instrument_name": "Acoustic Grand Piano",
      "is_drum": false
    },
    {
      "pitch": 61,
      "start": 27.2727,
      "end": 28.3901,
      "duration": 1.1174,
      "velocity": 57,
      "instrument": 0,
      "instrument_name": "Acoustic Grand Piano",
      "is_drum": false
    },
    {
      "pitch": 57,
      "start": 27.2727,
      "end": 28.4015,
      "duration": 1.1288,
      "velocity": 54,
      "instrument": 0,
      "instrument_name": "Acoustic Grand Piano",
      "is_drum": false
    },
    {
      "pitch": 64,
      "start": 28.1818,
      "end": 28.4223,
      "duration": 0.2405,
      "velocity": 51,
      "instrument": 0,
      "instrument_name": "Acoustic Grand Piano",
      "is_drum": false
    },
    {
      "pitch": 64,
      "start": 28.6363,
      "end": 29.5322,
      "duration": 0.8958,
      "velocity": 55,
      "instrument": 0,
      "instrument_name": "Acoustic Grand Piano",
      "is_drum": false
    },
    {
      "pitch": 57,
      "start": 29.0909,
      "end": 29.5265,
      "duration": 0.4356,
      "velocity": 63,
      "instrument": 0,
      "instrument_name": "Acoustic Grand Piano",
      "is_drum": false
    },
    {
      "pitch": 64,
      "start": 29.0909,
      "end": 29.5378,
      "duration": 0.447,
      "velocity": 67,
      "instrument": 0,
      "instrument_name": "Acoustic Grand Piano",
      "is_drum": false
    },
    {
      "pitch": 40,
      "start": 29.0909,
      "end": 30.4091,
      "duration": 1.3182,
      "velocity": 47,
      "instrument": 0,
      "instrument_name": "Acoustic Grand Piano",
      "is_drum": false
    },
    {
      "pitch": 49,
      "start": 29.0909,
      "end": 30.4469,
      "duration": 1.3561,
      "velocity": 45,
      "instrument": 0,
      "instrument_name": "Acoustic Grand Piano",
      "is_drum": false
    },
    {
      "pitch": 57,
      "start": 30.0,
      "end": 30.4469,
      "duration": 0.447,
      "velocity": 70,
      "instrument": 0,
      "instrument_name": "Acoustic Grand Piano",
      "is_drum": false
    },
    {
      "pitch": 64,
      "start": 30.0,
      "end": 30.4621,
      "duration": 0.4621,
      "velocity": 70,
      "instrument": 0,
      "instrument_name": "Acoustic Grand Piano",
      "is_drum": false
    },
    {
      "pitch": 47,
      "start": 30.9091,
      "end": 32.2348,
      "duration": 1.3258,
      "velocity": 72,
      "instrument": 0,
      "instrument_name": "Acoustic Grand Piano",
      "is_drum": false
    },
    {
      "pitch": 56,
      "start": 30.9091,
      "end": 32.2348,
      "duration": 1.3258,
      "velocity": 72,
      "instrument": 0,
      "instrument_name": "Acoustic Grand Piano",
      "is_drum": false
    },
    {
      "pitch": 56,
      "start": 32.7272,
      "end": 33.0947,
      "duration": 0.3674,
      "velocity": 61,
      "instrument": 0,
      "instrument_name": "Acoustic Grand Piano",
      "is_drum": false
    },
    {
      "pitch": 64,
      "start": 32.7272,
      "end": 33.1079,
      "duration": 0.3807,
      "velocity": 62,
      "instrument": 0,
      "instrument_name": "Acoustic Grand Piano",
      "is_drum": false
    },
    {
      "pitch": 47,
      "start": 32.7272,
      "end": 33.6742,
      "duration": 0.947,
      "velocity": 41,
      "instrument": 0,
      "instrument_name": "Acoustic Grand Piano",
      "is_drum": false
    },
    {
      "pitch": 40,
      "start": 32.7272,
      "end": 35.5549,
      "duration": 2.8276,
      "velocity": 34,
      "instrument": 0,
      "instrument_name": "Acoustic Grand Piano",
      "is_drum": false
    },
    {
      "pitch": 56,
      "start": 33.6363,
      "end": 34.0606,
      "duration": 0.4242,
      "velocity": 63,
      "instrument": 0,
      "instrument_name": "Acoustic Grand Piano",
      "is_drum": false
    },
    {
      "pitch": 64,
      "start": 33.6363,
      "end": 34.0644,
      "duration": 0.428,
      "velocity": 60,
      "instrument": 0,
      "instrument_name": "Acoustic Grand Piano",
      "is_drum": false
    },
    {
      "pitch": 47,
      "start": 34.0909,
      "end": 35.6647,
      "duration": 1.5739,
      "velocity": 39,
      "instrument": 0,
      "instrument_name": "Acoustic Grand Piano",
      "is_drum": false
    },
    {
      "pitch": 64,
      "start": 34.5454,
      "end": 35.6704,
      "duration": 1.125,
      "velocity": 60,
      "instrument": 0,
      "instrument_name": "Acoustic Grand Piano",
      "is_drum": false
    },
    {
      "pitch": 56,
      "start": 34.5454,
      "end": 35.6856,
      "duration": 1.1402,
      "velocity": 58,
      "instrument": 0,
      "instrument_name": "Acoustic Grand Piano",
      "is_drum": false
    },
    {
      "pitch": 68,
      "start": 35.0,
      "end": 35.6818,
      "duration": 0.6818,
      "velocity": 68,
      "instrument": 0,
      "instrument_name": "Acoustic Grand Piano",
      "is_drum": false
    },
    {
      "pitch": 66,
      "start": 35.6818,
      "end": 36.0189,
      "duration": 0.3371,
      "velocity": 60,
      "instrument": 0,
      "instrument_name": "Acoustic Grand Piano",
      "is_drum": false
    },
    {
      "pitch": 64,
      "start": 36.1363,
      "end": 36.32,
      "duration": 0.1837,
      "velocity": 55,
      "instrument": 0,
      "instrument_name": "Acoustic Grand Piano",
      "is_drum": false
    },
    {
      "pitch": 64,
      "start": 36.3636,
      "end": 37.3428,
      "duration": 0.9792,
      "velocity": 67,
      "instrument": 0,
      "instrument_name": "Acoustic Grand Piano",
      "is_drum": false
    },
    {
      "pitch": 57,
      "start": 36.3636,
      "end": 36.82,
      "duration": 0.4564,
      "velocity": 56,
      "instrument": 0,
      "instrument_name": "Acoustic Grand Piano",
      "is_drum": false
    },
    {
      "pitch": 64,
      "start": 36.3636,
      "end": 36.8238,
      "duration": 0.4602,
      "velocity": 60,
      "instrument": 0,
      "instrument_name": "Acoustic Grand Piano",
      "is_drum": false
    },
    {
      "pitch": 49,
      "start": 36.3636,
      "end": 37.3106,
      "duration": 0.947,
      "velocity": 47,
      "instrument": 0,
      "instrument_name": "Acoustic Grand Piano",
      "is_drum": false
    },
    {
      "pitch": 40,
      "start": 36.3636,
      "end": 39.1534,
      "duration": 2.7898,
      "velocity": 39,
      "instrument": 0,
      "instrument_name": "Acoustic Grand Piano",
      "is_drum": false
    },
    {
      "pitch": 57,
      "start": 37.2727,
      "end": 37.7386,
      "duration": 0.4659,
      "velocity": 50,
      "instrument": 0,
      "instrument_name": "Acoustic Grand Piano",
      "is_drum": false
    },
    {
      "pitch": 64,
      "start": 37.2727,
      "end": 37.7519,
      "duration": 0.4792,
      "velocity": 56,
      "instrument": 0,
      "instrument_name": "Acoustic Grand Piano",
      "is_drum": false
    },
    {
      "pitch": 49,
      "start": 37.7272,
      "end": 39.2632,
      "duration": 1.536,
      "velocity": 53,
      "instrument": 0,
      "instrument_name": "Acoustic Grand Piano",
      "is_drum": false
    },
    {
      "pitch": 64,
      "start": 38.1818,
      "end": 39.3428,
      "duration": 1.161,
      "velocity": 62,
      "instrument": 0,
      "instrument_name": "Acoustic Grand Piano",
      "is_drum": false
    },
    {
      "pitch": 57,
      "start": 38.1818,
      "end": 39.3674,
      "duration": 1.1856,
      "velocity": 60,
      "instrument": 0,
      "instrument_name": "Acoustic Grand Piano",
      "is_drum": false
    },
    {
      "pitch": 59,
      "start": 39.5454,
      "end": 40.0132,
      "duration": 0.4678,
      "velocity": 68,
      "instrument": 0,
      "instrument_name": "Acoustic Grand Piano",
      "is_drum": false
    },
    {
      "pitch": 61,
      "start": 40.0,
      "end": 40.4204,
      "duration": 0.4205,
      "velocity": 64,
      "instrument": 0,
      "instrument_name": "Acoustic Grand Piano",
      "is_drum": false
    },
    {
      "pitch": 61,
      "start": 40.0,
      "end": 40.4621,
      "duration": 0.4621,
      "velocity": 66,
      "instrument": 0,
      "instrument_name": "Acoustic Grand Piano",
      "is_drum": false
    },
    {
      "pitch": 57,
      "start": 40.0,
      "end": 40.4716,
      "duration": 0.4716,
      "velocity": 64,
      "instrument": 0,
      "instrument_name": "Acoustic Grand Piano",
      "is_drum": false
    },
    {
      "pitch": 42,
      "start": 40.0,
      "end": 41.2708,
      "duration": 1.2708,
      "velocity": 54,
      "instrument": 0,
      "instrument_name": "Acoustic Grand Piano",
      "is_drum": false
    },
    {
      "pitch": 64,
      "start": 40.4545,
      "end": 40.6325,
      "duration": 0.178,
      "velocity": 52,
      "instrument": 0,
      "instrument_name": "Acoustic Grand Piano",
      "is_drum": false
    },
    {
      "pitch": 52,
      "start": 40.4545,
      "end": 41.3371,
      "duration": 0.8826,
      "velocity": 39,
      "instrument": 0,
      "instrument_name": "Acoustic Grand Piano",
      "is_drum": false
    },
    {
      "pitch": 64,
      "start": 40.909,
      "end": 41.356,
      "duration": 0.447,
      "velocity": 58,
      "instrument": 0,
      "instrument_name": "Acoustic Grand Piano",
      "is_drum": false
    },
    {
      "pitch": 59,
      "start": 40.909,
      "end": 41.2689,
      "duration": 0.3598,
      "velocity": 60,
      "instrument": 0,
      "instrument_name": "Acoustic Grand Piano",
      "is_drum": false
    },
    {
      "pitch": 64,
      "start": 40.909,
      "end": 41.2992,
      "duration": 0.3902,
      "velocity": 57,
      "instrument": 0,
      "instrument_name": "Acoustic Grand Piano",
      "is_drum": false
    },
    {
      "pitch": 57,
      "start": 40.909,
      "end": 41.3049,
      "duration": 0.3958,
      "velocity": 45,
      "instrument": 0,
      "instrument_name": "Acoustic Grand Piano",
      "is_drum": false
    },
    {
      "pitch": 68,
      "start": 41.3636,
      "end": 41.784,
      "duration": 0.4205,
      "velocity": 57,
      "instrument": 0,
      "instrument_name": "Acoustic Grand Piano",
      "is_drum": false
    },
    {
      "pitch": 66,
      "start": 41.8181,
      "end": 42.2481,
      "duration": 0.4299,
      "velocity": 54,
      "instrument": 0,
      "instrument_name": "Acoustic Grand Piano",
      "is_drum": false
    },
    {
      "pitch": 61,
      "start": 41.8181,
      "end": 43.0644,
      "duration": 1.2462,
      "velocity": 62,
      "instrument": 0,
      "instrument_name": "Acoustic Grand Piano",
      "is_drum": false
    },
    {
      "pitch": 47,
      "start": 41.8181,
      "end": 43.0662,
      "duration": 1.2481,
      "velocity": 53,
      "instrument": 0,
      "instrument_name": "Acoustic Grand Piano",
      "is_drum": false
    },
    {
      "pitch": 54,
      "start": 41.8181,
      "end": 43.0662,
      "duration": 1.2481,
      "velocity": 53,
      "instrument": 0,
      "instrument_name": "Acoustic Grand Piano",
      "is_drum": false
    },
    {
      "pitch": 66,
      "start": 41.8181,
      "end": 43.0928,
      "duration": 1.2746,
      "velocity": 61,
      "instrument": 0,
      "instrument_name": "Acoustic Grand Piano",
      "is_drum": false
    },
    {
      "pitch": 57,
      "start": 41.8181,
      "end": 43.1174,
      "duration": 1.2992,
      "velocity": 64,
      "instrument": 0,
      "instrument_name": "Acoustic Grand Piano",
      "is_drum": false
    },
    {
      "pitch": 64,
      "start": 42.2727,
      "end": 42.7575,
      "duration": 0.4848,
      "velocity": 55,
      "instrument": 0,
      "instrument_name": "Acoustic Grand Piano",
      "is_drum": false
    },
    {
      "pitch": 61,
      "start": 42.7272,
      "end": 43.1553,
      "duration": 0.428,
      "velocity": 63,
      "instrument": 0,
      "instrument_name": "Acoustic Grand Piano",
      "is_drum": false
    },
    {
      "pitch": 59,
      "start": 43.1818,
      "end": 44.0246,
      "duration": 0.8428,
      "velocity": 54,
      "instrument": 0,
      "instrument_name": "Acoustic Grand Piano",
      "is_drum": false
    },
    {
      "pitch": 57,
      "start": 43.6363,
      "end": 44.1136,
      "duration": 0.4773,
      "velocity": 57,
      "instrument": 0,
      "instrument_name": "Acoustic Grand Piano",
      "is_drum": false
    },
    {
      "pitch": 64,
      "start": 43.6363,
      "end": 44.1287,
      "duration": 0.4924,
      "velocity": 62,
      "instrument": 0,
      "instrument_name": "Acoustic Grand Piano",
      "is_drum": false
    },
    {
      "pitch": 40,
      "start": 43.6363,
      "end": 45.0587,
      "duration": 1.4223,
      "velocity": 48,
      "instrument": 0,
      "instrument_name": "Acoustic Grand Piano",
      "is_drum": false
    },
    {
      "pitch": 49,
      "start": 44.0909,
      "end": 44.3181,
      "duration": 0.2273,
      "velocity": 52,
      "instrument": 0,
      "instrument_name": "Acoustic Grand Piano",
      "is_drum": false
    },
    {
      "pitch": 57,
      "start": 44.5454,
      "end": 44.8257,
      "duration": 0.2803,
      "velocity": 67,
      "instrument": 0,
      "instrument_name": "Acoustic Grand Piano",
      "is_drum": false
    },
    {
      "pitch": 64,
      "start": 44.5454,
      "end": 45.07,
      "duration": 0.5246,
      "velocity": 69,
      "instrument": 0,
      "instrument_name": "Acoustic Grand Piano",
      "is_drum": false
    },
    {
      "pitch": 56,
      "start": 45.4545,
      "end": 46.0473,
      "duration": 0.5928,
      "velocity": 75,
      "instrument": 0,
      "instrument_name": "Acoustic Grand Piano",
      "is_drum": false
    },
    {
      "pitch": 47,
      "start": 45.4545,
      "end": 46.7386,
      "duration": 1.2841,
      "velocity": 73,
      "instrument": 0,
      "instrument_name": "Acoustic Grand Piano",
      "is_drum": false
    },
    {
      "pitch": 68,
      "start": 45.909,
      "end": 46.2632,
      "duration": 0.3542,
      "velocity": 61,
      "instrument": 0,
      "instrument_name": "Acoustic Grand Piano",
      "is_drum": false
    },
    {
      "pitch": 63,
      "start": 46.3636,
      "end": 46.8049,
      "duration": 0.4413,
      "velocity": 57,
      "instrument": 0,
      "instrument_name": "Acoustic Grand Piano",
      "is_drum": false
    },
    {
      "pitch": 63,
      "start": 46.3636,
      "end": 46.8181,
      "duration": 0.4545,
      "velocity": 62,
      "instrument": 0,
      "instrument_name": "Acoustic Grand Piano",
      "is_drum": false
    },
    {
      "pitch": 64,
      "start": 46.8181,
      "end": 47.2727,
      "duration": 0.4545,
      "velocity": 53,
      "instrument": 0,
      "instrument_name": "Acoustic Grand Piano",
      "is_drum": false
    },
    {
      "pitch": 64,
      "start": 46.8181,
      "end": 47.2727,
      "duration": 0.4545,
      "velocity": 62,
      "instrument": 0,
      "instrument_name": "Acoustic Grand Piano",
      "is_drum": false
    }
  ],
  "embedding": [
    0.0,
    0.15671641791044777,
    0.0,
    0.022388059701492536,
    0.3358208955223881,
    0.0,
    0.11194029850746269,
    0.0,
    0.11940298507462686,
    0.11940298507462686,
    0.007462686567164179,
    0.12686567164179105,
    0.13533834586466165,
    0.0,
    0.015037593984962405,
    0.022556390977443608,
    0.015037593984962405,
    0.05263157894736842,
    0.007518796992481203,
    0.06015037593984962,
    0.022556390977443608,
    0.022556390977443608,
    0.07518796992481203,
    0.0,
    0.11278195488721804,
    0.015037593984962405,
    0.05263157894736842,
    0.007518796992481203,
    0.015037593984962405,
    0.015037593984962405,
    0.0,
    0.09022556390977443,
    0.05263157894736842,
    0.05263157894736842,
    0.0,
    0.007518796992481203,
    0.15037593984962405,
    0.0,
    0.0,
    0.13432835820895522,
    0.6268656716417911,
    0.22388059701492538,
    0.014925373134328358,
    0.0,
    0.0,
    0.0,
    0.05970149253731343,
    0.3656716417910448,
    0.15671641791044777,
    0.2835820895522388,
    0.13432835820895522,
    0.0,
    0.0,
    0.0,
    0.0,
    0.4574803149606299,
    0.20249999999999999,
    0.45511811023622045,
    0.22749999999999998,
    0.10130999999999998,
    0.07608000000000001,
    0.33,
    0.07878333333333334,
    0.2537313432835821,
    0.11940298507462686,
    0.08955223880597014,
    0.07462686567164178,
    0.06716417910447761,
    0.06716417910447761,
    0.05970149253731343,
    0.05223880597014925,
    0.05223880597014925,
    0.05223880597014925,
    0.029850746268656716,
    0.029850746268656716,
    0.022388059701492536,
    0.007462686567164179,
    0.007462686567164179,
    0.007462686567164179,
    0.007462686567164179,
    0.0,
    0.0,
    0.0,
    0.0,
    0.0,
    0.0,
    0.0,
    0.0,
    0.0,
    0.0,
    0.0,
    0.0,
    0.0,
    0.0,
    0.0,
    0.0,
    0.0,
    0.0,
    0.0,
    0.0,
    0.0,
    0.0,
    0.0,
    0.0,
    0.0,
    0.0,
    0.0,
    0.0,
    0.0,
    0.0,
    0.0,
    0.0,
    0.0,
    0.0,
    0.0,
    0.0,
    0.0,
    0.0,
    0.0,
    0.0,
    0.0,
    0.0,
    0.0,
    0.0,
    0.0,
    0.0,
    0.0,
    0.0
  ],
  "pitch_histogram": [
    0.0,
    0.0,
    0.0,
    0.0,
    0.0,
    0.0,
    0.0,
    0.0,
    0.0,
    0.0,
    0.0,
    0.0,
    0.0,
    0.0,
    0.0,
    0.0,
    0.0,
    0.0,
    0.0,
    0.0,
    0.0,
    0.0,
    0.0,
    0.0,
    0.0,
    0.0,
    0.0,
    0.0,
    0.0,
    0.0,
    0.0,
    0.0,
    0.0,
    0.0,
    0.0,
    0.0,
    0.0,
    0.007462686567164179,
    0.0,
    0.0,
    0.05223880597014925,
    0.0,
    0.029850746268656716,
    0.0,
    0.0,
    0.0,
    0.0,
    0.06716417910447761,
    0.0,
    0.05223880597014925,
    0.0,
    0.0,
    0.029850746268656716,
    0.0,
    0.007462686567164179,
    0.0,
    0.05223880597014925,
    0.11940298507462686,
    0.007462686567164179,
    0.05970149253731343,
    0.0,
    0.08955223880597014,
    0.0,
    0.022388059701492536,
    0.2537313432835821,
    0.0,
    0.07462686567164178,
    0.0,
    0.06716417910447761,
    0.0,
    0.0,
    0.0,
    0.0,
    0.007462686567164179,
    0.0,
    0.0,
    0.0,
    0.0,
    0.0,
    0.0,
    0.0,
    0.0,
    0.0,
    0.0,
    0.0,
    0.0,
    0.0,
    0.0,
    0.0,
    0.0,
    0.0,
    0.0,
    0.0,
    0.0,
    0.0,
    0.0,
    0.0,
    0.0,
    0.0,
    0.0,
    0.0,
    0.0,
    0.0,
    0.0,
    0.0,
    0.0,
    0.0,
    0.0,
    0.0,
    0.0,
    0.0,
    0.0,
    0.0,
    0.0,
    0.0,
    0.0,
    0.0,
    0.0,
    0.0,
    0.0,
    0.0,
    0.0,
    0.0,
    0.0,
    0.0,
    0.0,
    0.0,
    0.0
  ],
  "pitch_class_histogram": [
    0.0,
    0.15671641791044777,
    0.0,
    0.022388059701492536,
    0.3358208955223881,
    0.0,
    0.11194029850746269,
    0.0,
    0.11940298507462686,
    0.11940298507462686,
    0.007462686567164179,
    0.12686567164179105
  ],
  "interval_histogram": [
    0.13533834586466165,
    0.0,
    0.015037593984962405,
    0.022556390977443608,
    0.015037593984962405,
    0.05263157894736842,
    0.007518796992481203,
    0.06015037593984962,
    0.022556390977443608,
    0.022556390977443608,
    0.07518796992481203,
    0.0,
    0.11278195488721804,
    0.015037593984962405,
    0.05263157894736842,
    0.007518796992481203,
    0.015037593984962405,
    0.015037593984962405,
    0.0,
    0.09022556390977443,
    0.05263157894736842,
    0.05263157894736842,
    0.0,
    0.007518796992481203,
    0.15037593984962405
  ],
  "velocity_histogram": [
    0.0,
    0.0,
    0.13432835820895522,
    0.6268656716417911,
    0.22388059701492538,
    0.014925373134328358,
    0.0,
    0.0
  ],
  "duration_histogram": [
    0.0,
    0.05970149253731343,
    0.3656716417910448,
    0.15671641791044777,
    0.2835820895522388,
    0.13432835820895522,
    0.0,
    0.0,
    0.0,
    0.0
  ]
}