{
  "stats": {
    "filename": "더 아름다워져_BPM62_4-4.mid",
    "total_notes": 204,
    "total_duration_sec": 48.28,
    "avg_tempo": 62.0,
    "pitch_range": [
      40,
      83
    ],
    "pitch_mean": 63.1,
    "pitch_std": 8.3,
    "velocity_range": [
      37,
      93
    ],
    "velocity_mean": 66.4,
    "velocity_std": 9.7,
    "duration_mean": 0.5557,
    "duration_std": 0.5012,
    "estimated_key": "E",
    "num_instruments": 2,
    "time_signatures": [
      "4/4",
      "2/4",
      "4/4"
    ]
  },
  "composer_tags": {
    "rhythm_type": "dense",
    "rhythm_regularity": 0.147,
    "note_density_per_sec": 4.23,
    "avg_ioi": 0.4187,
    "harmony_type": "triadic",
    "harmonic_brightness": 0.182,
    "harmony_ratio": 0.686,
    "avg_polyphony": 2.75,
    "max_polyphony": 6,
    "accompaniment_pattern": "block_chord",
    "arpeggio_ratio": 0.04,
    "voicing_type": "semi_open",
    "avg_voicing_spread": 10.7,
    "pitch_range": 43,
    "register": "alto",
    "dynamic_profile": "moderate",
    "dynamic_level": "mezzo-forte",
    "velocity_range": 56,
    "tempo_bpm": 62.0,
    "tempo_category": "adagio"
  },
  "notes": [
    {
      "pitch": 52,
      "start": 0.0,
      "end": 0.246,
      "duration": 0.246,
      "velocity": 61,
      "instrument": 0,
      "instrument_name": "Acoustic Grand Piano",
      "is_drum": false
    },
    {
      "pitch": 59,
      "start": 0.2419,
      "end": 0.4113,
      "duration": 0.1694,
      "velocity": 49,
      "instrument": 0,
      "instrument_name": "Acoustic Grand Piano",
      "is_drum": false
    },
    {
      "pitch": 64,
      "start": 0.4839,
      "end": 0.7298,
      "duration": 0.246,
      "velocity": 64,
      "instrument": 0,
      "instrument_name": "Acoustic Grand Piano",
      "is_drum": false
    },
    {
      "pitch": 76,
      "start": 0.4839,
      "end": 0.748,
      "duration": 0.2641,
      "velocity": 73,
      "instrument": 0,
      "instrument_name": "Acoustic Grand Piano",
      "is_drum": false
    },
    {
      "pitch": 75,
      "start": 0.7258,
      "end": 0.9556,
      "duration": 0.2298,
      "velocity": 64,
      "instrument": 0,
      "instrument_name": "Acoustic Grand Piano",
      "is_drum": false
    },
    {
      "pitch": 66,
      "start": 0.7258,
      "end": 0.9798,
      "duration": 0.254,
      "velocity": 55,
      "instrument": 0,
      "instrument_name": "Acoustic Grand Piano",
      "is_drum": false
    },
    {
      "pitch": 68,
      "start": 0.9677,
      "end": 1.2218,
      "duration": 0.254,
      "velocity": 62,
      "instrument": 0,
      "instrument_name": "Acoustic Grand Piano",
      "is_drum": false
    },
    {
      "pitch": 76,
      "start": 0.9677,
      "end": 1.2359,
      "duration": 0.2681,
      "velocity": 60,
      "instrument": 0,
      "instrument_name": "Acoustic Grand Piano",
      "is_drum": false
    },
    {
      "pitch": 78,
      "start": 1.2097,
      "end": 1.4657,
      "duration": 0.256,
      "velocity": 66,
      "instrument": 0,
      "instrument_name": "Acoustic Grand Piano",
      "is_drum": false
    },
    {
      "pitch": 71,
      "start": 1.2097,
      "end": 3.1452,
      "duration": 1.9355,
      "velocity": 64,
      "instrument": 0,
      "instrument_name": "Acoustic Grand Piano",
      "is_drum": false
    },
    {
      "pitch": 80,
      "start": 1.4516,
      "end": 3.3044,
      "duration": 1.8528,
      "velocity": 81,
      "instrument": 0,
      "instrument_name": "Acoustic Grand Piano",
      "is_drum": false
    },
    {
      "pitch": 71,
      "start": 3.3871,
      "end": 3.6653,
      "duration": 0.2782,
      "velocity": 65,
      "instrument": 0,
      "instrument_name": "Acoustic Grand Piano",
      "is_drum": false
    },
    {
      "pitch": 45,
      "start": 3.871,
      "end": 4.1069,
      "duration": 0.2359,
      "velocity": 76,
      "instrument": 0,
      "instrument_name": "Acoustic Grand Piano",
      "is_drum": false
    },
    {
      "pitch": 71,
      "start": 3.871,
      "end": 4.127,
      "duration": 0.256,
      "velocity": 58,
      "instrument": 0,
      "instrument_name": "Acoustic Grand Piano",
      "is_drum": false
    },
    {
      "pitch": 52,
      "start": 4.1129,
      "end": 4.3105,
      "duration": 0.1976,
      "velocity": 64,
      "instrument": 0,
      "instrument_name": "Acoustic Grand Piano",
      "is_drum": false
    },
    {
      "pitch": 73,
      "start": 4.1129,
      "end": 5.3246,
      "duration": 1.2117,
      "velocity": 65,
      "instrument": 0,
      "instrument_name": "Acoustic Grand Piano",
      "is_drum": false
    },
    {
      "pitch": 57,
      "start": 4.3548,
      "end": 4.6089,
      "duration": 0.254,
      "velocity": 68,
      "instrument": 0,
      "instrument_name": "Acoustic Grand Piano",
      "is_drum": false
    },
    {
      "pitch": 59,
      "start": 4.5968,
      "end": 4.8548,
      "duration": 0.2581,
      "velocity": 65,
      "instrument": 0,
      "instrument_name": "Acoustic Grand Piano",
      "is_drum": false
    },
    {
      "pitch": 61,
      "start": 4.8387,
      "end": 5.0827,
      "duration": 0.244,
      "velocity": 62,
      "instrument": 0,
      "instrument_name": "Acoustic Grand Piano",
      "is_drum": false
    },
    {
      "pitch": 64,
      "start": 5.0806,
      "end": 7.1371,
      "duration": 2.0564,
      "velocity": 67,
      "instrument": 0,
      "instrument_name": "Acoustic Grand Piano",
      "is_drum": false
    },
    {
      "pitch": 71,
      "start": 5.3226,
      "end": 5.5504,
      "duration": 0.2278,
      "velocity": 60,
      "instrument": 0,
      "instrument_name": "Acoustic Grand Piano",
      "is_drum": false
    },
    {
      "pitch": 71,
      "start": 5.8064,
      "end": 6.6774,
      "duration": 0.871,
      "velocity": 63,
      "instrument": 0,
      "instrument_name": "Acoustic Grand Piano",
      "is_drum": false
    },
    {
      "pitch": 69,
      "start": 6.7742,
      "end": 7.2681,
      "duration": 0.494,
      "velocity": 51,
      "instrument": 0,
      "instrument_name": "Acoustic Grand Piano",
      "is_drum": false
    },
    {
      "pitch": 68,
      "start": 7.2581,
      "end": 7.6472,
      "duration": 0.3891,
      "velocity": 60,
      "instrument": 0,
      "instrument_name": "Acoustic Grand Piano",
      "is_drum": false
    },
    {
      "pitch": 49,
      "start": 7.7419,
      "end": 7.9597,
      "duration": 0.2177,
      "velocity": 68,
      "instrument": 0,
      "instrument_name": "Acoustic Grand Piano",
      "is_drum": false
    },
    {
      "pitch": 56,
      "start": 7.9839,
      "end": 8.1915,
      "duration": 0.2077,
      "velocity": 72,
      "instrument": 0,
      "instrument_name": "Acoustic Grand Piano",
      "is_drum": false
    },
    {
      "pitch": 64,
      "start": 8.2258,
      "end": 8.4476,
      "duration": 0.2218,
      "velocity": 53,
      "instrument": 0,
      "instrument_name": "Acoustic Grand Piano",
      "is_drum": false
    },
    {
      "pitch": 76,
      "start": 8.2258,
      "end": 8.4758,
      "duration": 0.25,
      "velocity": 62,
      "instrument": 0,
      "instrument_name": "Acoustic Grand Piano",
      "is_drum": false
    },
    {
      "pitch": 68,
      "start": 8.4677,
      "end": 8.7177,
      "duration": 0.25,
      "velocity": 55,
      "instrument": 0,
      "instrument_name": "Acoustic Grand Piano",
      "is_drum": false
    },
    {
      "pitch": 75,
      "start": 8.4677,
      "end": 8.7197,
      "duration": 0.252,
      "velocity": 58,
      "instrument": 0,
      "instrument_name": "Acoustic Grand Piano",
      "is_drum": false
    },
    {
      "pitch": 76,
      "start": 8.7097,
      "end": 8.9677,
      "duration": 0.2581,
      "velocity": 52,
      "instrument": 0,
      "instrument_name": "Acoustic Grand Piano",
      "is_drum": false
    },
    {
      "pitch": 71,
      "start": 8.7097,
      "end": 10.6714,
      "duration": 1.9617,
      "velocity": 63,
      "instrument": 0,
      "instrument_name": "Acoustic Grand Piano",
      "is_drum": false
    },
    {
      "pitch": 78,
      "start": 8.9516,
      "end": 9.2439,
      "duration": 0.2923,
      "velocity": 56,
      "instrument": 0,
      "instrument_name": "Acoustic Grand Piano",
      "is_drum": false
    },
    {
      "pitch": 80,
      "start": 9.1935,
      "end": 10.3266,
      "duration": 1.1331,
      "velocity": 71,
      "instrument": 0,
      "instrument_name": "Acoustic Grand Piano",
      "is_drum": false
    },
    {
      "pitch": 76,
      "start": 10.6452,
      "end": 11.0947,
      "duration": 0.4496,
      "velocity": 57,
      "instrument": 0,
      "instrument_name": "Acoustic Grand Piano",
      "is_drum": false
    },
    {
      "pitch": 83,
      "start": 11.129,
      "end": 11.4032,
      "duration": 0.2742,
      "velocity": 74,
      "instrument": 0,
      "instrument_name": "Acoustic Grand Piano",
      "is_drum": false
    },
    {
      "pitch": 54,
      "start": 11.6129,
      "end": 11.871,
      "duration": 0.2581,
      "velocity": 64,
      "instrument": 0,
      "instrument_name": "Acoustic Grand Piano",
      "is_drum": false
    },
    {
      "pitch": 83,
      "start": 11.6129,
      "end": 13.2137,
      "duration": 1.6008,
      "velocity": 66,
      "instrument": 0,
      "instrument_name": "Acoustic Grand Piano",
      "is_drum": false
    },
    {
      "pitch": 76,
      "start": 11.6129,
      "end": 13.2379,
      "duration": 1.625,
      "velocity": 59,
      "instrument": 0,
      "instrument_name": "Acoustic Grand Piano",
      "is_drum": false
    },
    {
      "pitch": 61,
      "start": 11.8548,
      "end": 12.0947,
      "duration": 0.2399,
      "velocity": 61,
      "instrument": 0,
      "instrument_name": "Acoustic Grand Piano",
      "is_drum": false
    },
    {
      "pitch": 68,
      "start": 12.0968,
      "end": 12.3085,
      "duration": 0.2117,
      "velocity": 56,
      "instrument": 0,
      "instrument_name": "Acoustic Grand Piano",
      "is_drum": false
    },
    {
      "pitch": 69,
      "start": 12.3387,
      "end": 13.6109,
      "duration": 1.2722,
      "velocity": 71,
      "instrument": 0,
      "instrument_name": "Acoustic Grand Piano",
      "is_drum": false
    },
    {
      "pitch": 73,
      "start": 13.3064,
      "end": 13.5383,
      "duration": 0.2319,
      "velocity": 50,
      "instrument": 0,
      "instrument_name": "Acoustic Grand Piano",
      "is_drum": false
    },
    {
      "pitch": 76,
      "start": 13.5484,
      "end": 14.5363,
      "duration": 0.9879,
      "velocity": 62,
      "instrument": 0,
      "instrument_name": "Acoustic Grand Piano",
      "is_drum": false
    },
    {
      "pitch": 81,
      "start": 13.5484,
      "end": 14.5363,
      "duration": 0.9879,
      "velocity": 76,
      "instrument": 0,
      "instrument_name": "Acoustic Grand Piano",
      "is_drum": false
    },
    {
      "pitch": 80,
      "start": 14.5161,
      "end": 15.006,
      "duration": 0.4899,
      "velocity": 70,
      "instrument": 0,
      "instrument_name": "Acoustic Grand Piano",
      "is_drum": false
    },
    {
      "pitch": 73,
      "start": 15.4839,
      "end": 16.5242,
      "duration": 1.0403,
      "velocity": 71,
      "instrument": 0,
      "instrument_name": "Acoustic Grand Piano",
      "is_drum": false
    },
    {
      "pitch": 78,
      "start": 15.4839,
      "end": 16.6089,
      "duration": 1.125,
      "velocity": 66,
      "instrument": 0,
      "instrument_name": "Acoustic Grand Piano",
      "is_drum": false
    },
    {
      "pitch": 59,
      "start": 15.4839,
      "end": 17.381,
      "duration": 1.8972,
      "velocity": 62,
      "instrument": 0,
      "instrument_name": "Acoustic Grand Piano",
      "is_drum": false
    },
    {
      "pitch": 68,
      "start": 16.6935,
      "end": 16.8931,
      "duration": 0.1996,
      "velocity": 57,
      "instrument": 0,
      "instrument_name": "Acoustic Grand Piano",
      "is_drum": false
    },
    {
      "pitch": 69,
      "start": 16.9355,
      "end": 17.3145,
      "duration": 0.379,
      "velocity": 49,
      "instrument": 0,
      "instrument_name": "Acoustic Grand Piano",
      "is_drum": false
    },
    {
      "pitch": 76,
      "start": 17.1774,
      "end": 17.4173,
      "duration": 0.2399,
      "velocity": 37,
      "instrument": 0,
      "instrument_name": "Acoustic Grand Piano",
      "is_drum": false
    },
    {
      "pitch": 73,
      "start": 17.4193,
      "end": 17.6593,
      "duration": 0.2399,
      "velocity": 37,
      "instrument": 0,
      "instrument_name": "Acoustic Grand Piano",
      "is_drum": false
    },
    {
      "pitch": 66,
      "start": 17.4193,
      "end": 18.7157,
      "duration": 1.2964,
      "velocity": 57,
      "instrument": 0,
      "instrument_name": "Acoustic Grand Piano",
      "is_drum": false
    },
    {
      "pitch": 47,
      "start": 17.4193,
      "end": 19.2177,
      "duration": 1.7984,
      "velocity": 68,
      "instrument": 0,
      "instrument_name": "Acoustic Grand Piano",
      "is_drum": false
    },
    {
      "pitch": 75,
      "start": 17.5262,
      "end": 18.6814,
      "duration": 1.1552,
      "velocity": 62,
      "instrument": 0,
      "instrument_name": "Acoustic Grand Piano",
      "is_drum": false
    },
    {
      "pitch": 40,
      "start": 19.3548,
      "end": 19.5645,
      "duration": 0.2097,
      "velocity": 56,
      "instrument": 0,
      "instrument_name": "Acoustic Grand Piano",
      "is_drum": false
    },
    {
      "pitch": 47,
      "start": 19.5968,
      "end": 19.7863,
      "duration": 0.1895,
      "velocity": 37,
      "instrument": 0,
      "instrument_name": "Acoustic Grand Piano",
      "is_drum": false
    },
    {
      "pitch": 64,
      "start": 19.8387,
      "end": 20.1068,
      "duration": 0.2681,
      "velocity": 73,
      "instrument": 0,
      "instrument_name": "Acoustic Grand Piano",
      "is_drum": false
    },
    {
      "pitch": 64,
      "start": 19.8387,
      "end": 20.0786,
      "duration": 0.2399,
      "velocity": 80,
      "instrument": 0,
      "instrument_name": "Acoustic Grand Piano",
      "is_drum": false
    },
    {
      "pitch": 52,
      "start": 19.8387,
      "end": 20.0887,
      "duration": 0.25,
      "velocity": 50,
      "instrument": 0,
      "instrument_name": "Acoustic Grand Piano",
      "is_drum": false
    },
    {
      "pitch": 63,
      "start": 20.0806,
      "end": 20.3347,
      "duration": 0.254,
      "velocity": 57,
      "instrument": 0,
      "instrument_name": "Acoustic Grand Piano",
      "is_drum": false
    },
    {
      "pitch": 63,
      "start": 20.0806,
      "end": 20.3407,
      "duration": 0.2601,
      "velocity": 66,
      "instrument": 0,
      "instrument_name": "Acoustic Grand Piano",
      "is_drum": false
    },
    {
      "pitch": 54,
      "start": 20.0806,
      "end": 20.3709,
      "duration": 0.2903,
      "velocity": 68,
      "instrument": 0,
      "instrument_name": "Acoustic Grand Piano",
      "is_drum": false
    },
    {
      "pitch": 64,
      "start": 20.3226,
      "end": 20.5947,
      "duration": 0.2722,
      "velocity": 51,
      "instrument": 0,
      "instrument_name": "Acoustic Grand Piano",
      "is_drum": false
    },
    {
      "pitch": 64,
      "start": 20.3226,
      "end": 20.5766,
      "duration": 0.254,
      "velocity": 50,
      "instrument": 0,
      "instrument_name": "Acoustic Grand Piano",
      "is_drum": false
    },
    {
      "pitch": 56,
      "start": 20.3226,
      "end": 22.0443,
      "duration": 1.7218,
      "velocity": 59,
      "instrument": 0,
      "instrument_name": "Acoustic Grand Piano",
      "is_drum": false
    },
    {
      "pitch": 66,
      "start": 20.5645,
      "end": 20.8226,
      "duration": 0.2581,
      "velocity": 62,
      "instrument": 0,
      "instrument_name": "Acoustic Grand Piano",
      "is_drum": false
    },
    {
      "pitch": 66,
      "start": 20.5645,
      "end": 20.8105,
      "duration": 0.246,
      "velocity": 67,
      "instrument": 0,
      "instrument_name": "Acoustic Grand Piano",
      "is_drum": false
    },
    {
      "pitch": 68,
      "start": 20.8064,
      "end": 22.0927,
      "duration": 1.2863,
      "velocity": 71,
      "instrument": 0,
      "instrument_name": "Acoustic Grand Piano",
      "is_drum": false
    },
    {
      "pitch": 68,
      "start": 20.8064,
      "end": 22.2157,
      "duration": 1.4093,
      "velocity": 73,
      "instrument": 0,
      "instrument_name": "Acoustic Grand Piano",
      "is_drum": false
    },
    {
      "pitch": 59,
      "start": 22.7419,
      "end": 22.9677,
      "duration": 0.2258,
      "velocity": 71,
      "instrument": 0,
      "instrument_name": "Acoustic Grand Piano",
      "is_drum": false
    },
    {
      "pitch": 59,
      "start": 22.7419,
      "end": 22.9113,
      "duration": 0.1694,
      "velocity": 73,
      "instrument": 0,
      "instrument_name": "Acoustic Grand Piano",
      "is_drum": false
    },
    {
      "pitch": 63,
      "start": 22.9838,
      "end": 23.2601,
      "duration": 0.2762,
      "velocity": 61,
      "instrument": 0,
      "instrument_name": "Acoustic Grand Piano",
      "is_drum": false
    },
    {
      "pitch": 61,
      "start": 23.2258,
      "end": 25.1592,
      "duration": 1.9335,
      "velocity": 68,
      "instrument": 0,
      "instrument_name": "Acoustic Grand Piano",
      "is_drum": false
    },
    {
      "pitch": 45,
      "start": 23.2258,
      "end": 23.4778,
      "duration": 0.252,
      "velocity": 63,
      "instrument": 0,
      "instrument_name": "Acoustic Grand Piano",
      "is_drum": false
    },
    {
      "pitch": 59,
      "start": 23.2258,
      "end": 23.4838,
      "duration": 0.2581,
      "velocity": 82,
      "instrument": 0,
      "instrument_name": "Acoustic Grand Piano",
      "is_drum": false
    },
    {
      "pitch": 64,
      "start": 23.2258,
      "end": 23.4919,
      "duration": 0.2661,
      "velocity": 79,
      "instrument": 0,
      "instrument_name": "Acoustic Grand Piano",
      "is_drum": false
    },
    {
      "pitch": 52,
      "start": 23.4677,
      "end": 23.6955,
      "duration": 0.2278,
      "velocity": 64,
      "instrument": 0,
      "instrument_name": "Acoustic Grand Piano",
      "is_drum": false
    },
    {
      "pitch": 61,
      "start": 23.4677,
      "end": 23.9516,
      "duration": 0.4839,
      "velocity": 68,
      "instrument": 0,
      "instrument_name": "Acoustic Grand Piano",
      "is_drum": false
    },
    {
      "pitch": 57,
      "start": 23.7097,
      "end": 25.754,
      "duration": 2.0444,
      "velocity": 68,
      "instrument": 0,
      "instrument_name": "Acoustic Grand Piano",
      "is_drum": false
    },
    {
      "pitch": 59,
      "start": 23.9516,
      "end": 24.2238,
      "duration": 0.2722,
      "velocity": 70,
      "instrument": 0,
      "instrument_name": "Acoustic Grand Piano",
      "is_drum": false
    },
    {
      "pitch": 61,
      "start": 24.1935,
      "end": 24.3851,
      "duration": 0.1915,
      "velocity": 63,
      "instrument": 0,
      "instrument_name": "Acoustic Grand Piano",
      "is_drum": false
    },
    {
      "pitch": 64,
      "start": 24.4355,
      "end": 24.6895,
      "duration": 0.254,
      "velocity": 65,
      "instrument": 0,
      "instrument_name": "Acoustic Grand Piano",
      "is_drum": false
    },
    {
      "pitch": 71,
      "start": 24.6774,
      "end": 26.129,
      "duration": 1.4516,
      "velocity": 62,
      "instrument": 0,
      "instrument_name": "Acoustic Grand Piano",
      "is_drum": false
    },
    {
      "pitch": 69,
      "start": 26.129,
      "end": 26.6774,
      "duration": 0.5484,
      "velocity": 67,
      "instrument": 0,
      "instrument_name": "Acoustic Grand Piano",
      "is_drum": false
    },
    {
      "pitch": 68,
      "start": 26.6129,
      "end": 27.0403,
      "duration": 0.4274,
      "velocity": 73,
      "instrument": 0,
      "instrument_name": "Acoustic Grand Piano",
      "is_drum": false
    },
    {
      "pitch": 40,
      "start": 27.0967,
      "end": 27.3024,
      "duration": 0.2056,
      "velocity": 63,
      "instrument": 0,
      "instrument_name": "Acoustic Grand Piano",
      "is_drum": false
    },
    {
      "pitch": 59,
      "start": 27.0967,
      "end": 27.3326,
      "duration": 0.2359,
      "velocity": 76,
      "instrument": 0,
      "instrument_name": "Acoustic Grand Piano",
      "is_drum": false
    },
    {
      "pitch": 64,
      "start": 27.0967,
      "end": 27.3488,
      "duration": 0.252,
      "velocity": 76,
      "instrument": 0,
      "instrument_name": "Acoustic Grand Piano",
      "is_drum": false
    },
    {
      "pitch": 47,
      "start": 27.3387,
      "end": 27.5524,
      "duration": 0.2137,
      "velocity": 62,
      "instrument": 0,
      "instrument_name": "Acoustic Grand Piano",
      "is_drum": false
    },
    {
      "pitch": 64,
      "start": 27.5806,
      "end": 27.8306,
      "duration": 0.25,
      "velocity": 68,
      "instrument": 0,
      "instrument_name": "Acoustic Grand Piano",
      "is_drum": false
    },
    {
      "pitch": 59,
      "start": 27.5806,
      "end": 27.8084,
      "duration": 0.2278,
      "velocity": 54,
      "instrument": 0,
      "instrument_name": "Acoustic Grand Piano",
      "is_drum": false
    },
    {
      "pitch": 52,
      "start": 27.5806,
      "end": 27.8306,
      "duration": 0.25,
      "velocity": 70,
      "instrument": 0,
      "instrument_name": "Acoustic Grand Piano",
      "is_drum": false
    },
    {
      "pitch": 64,
      "start": 27.5806,
      "end": 27.9213,
      "duration": 0.3407,
      "velocity": 87,
      "instrument": 0,
      "instrument_name": "Acoustic Grand Piano",
      "is_drum": false
    },
    {
      "pitch": 63,
      "start": 27.8226,
      "end": 28.0161,
      "duration": 0.1935,
      "velocity": 62,
      "instrument": 0,
      "instrument_name": "Acoustic Grand Piano",
      "is_drum": false
    },
    {
      "pitch": 63,
      "start": 27.8226,
      "end": 28.0403,
      "duration": 0.2177,
      "velocity": 65,
      "instrument": 0,
      "instrument_name": "Acoustic Grand Piano",
      "is_drum": false
    },
    {
      "pitch": 56,
      "start": 27.8226,
      "end": 28.8709,
      "duration": 1.0484,
      "velocity": 70,
      "instrument": 0,
      "instrument_name": "Acoustic Grand Piano",
      "is_drum": false
    },
    {
      "pitch": 64,
      "start": 28.0645,
      "end": 28.3105,
      "duration": 0.246,
      "velocity": 51,
      "instrument": 0,
      "instrument_name": "Acoustic Grand Piano",
      "is_drum": false
    },
    {
      "pitch": 64,
      "start": 28.0645,
      "end": 28.3387,
      "duration": 0.2742,
      "velocity": 66,
      "instrument": 0,
      "instrument_name": "Acoustic Grand Piano",
      "is_drum": false
    },
    {
      "pitch": 66,
      "start": 28.3064,
      "end": 28.5685,
      "duration": 0.2621,
      "velocity": 62,
      "instrument": 0,
      "instrument_name": "Acoustic Grand Piano",
      "is_drum": false
    },
    {
      "pitch": 66,
      "start": 28.3064,
      "end": 28.5685,
      "duration": 0.2621,
      "velocity": 63,
      "instrument": 0,
      "instrument_name": "Acoustic Grand Piano",
      "is_drum": false
    },
    {
      "pitch": 68,
      "start": 28.5484,
      "end": 29.383,
      "duration": 0.8347,
      "velocity": 68,
      "instrument": 0,
      "instrument_name": "Acoustic Grand Piano",
      "is_drum": false
    },
    {
      "pitch": 68,
      "start": 28.5484,
      "end": 29.4113,
      "duration": 0.8629,
      "velocity": 76,
      "instrument": 0,
      "instrument_name": "Acoustic Grand Piano",
      "is_drum": false
    },
    {
      "pitch": 59,
      "start": 30.0,
      "end": 30.4939,
      "duration": 0.494,
      "velocity": 71,
      "instrument": 0,
      "instrument_name": "Acoustic Grand Piano",
      "is_drum": false
    },
    {
      "pitch": 64,
      "start": 30.0,
      "end": 30.5705,
      "duration": 0.5706,
      "velocity": 74,
      "instrument": 0,
      "instrument_name": "Acoustic Grand Piano",
      "is_drum": false
    },
    {
      "pitch": 64,
      "start": 30.2419,
      "end": 30.4435,
      "duration": 0.2016,
      "velocity": 58,
      "instrument": 0,
      "instrument_name": "Acoustic Grand Piano",
      "is_drum": false
    },
    {
      "pitch": 71,
      "start": 30.4838,
      "end": 30.8387,
      "duration": 0.3548,
      "velocity": 58,
      "instrument": 0,
      "instrument_name": "Acoustic Grand Piano",
      "is_drum": false
    },
    {
      "pitch": 71,
      "start": 30.4838,
      "end": 30.7197,
      "duration": 0.2359,
      "velocity": 76,
      "instrument": 0,
      "instrument_name": "Acoustic Grand Piano",
      "is_drum": false
    },
    {
      "pitch": 71,
      "start": 30.9677,
      "end": 32.008,
      "duration": 1.0403,
      "velocity": 71,
      "instrument": 0,
      "instrument_name": "Acoustic Grand Piano",
      "is_drum": false
    },
    {
      "pitch": 44,
      "start": 30.9677,
      "end": 31.131,
      "duration": 0.1633,
      "velocity": 90,
      "instrument": 0,
      "instrument_name": "Acoustic Grand Piano",
      "is_drum": false
    },
    {
      "pitch": 71,
      "start": 30.9677,
      "end": 31.6834,
      "duration": 0.7157,
      "velocity": 80,
      "instrument": 0,
      "instrument_name": "Acoustic Grand Piano",
      "is_drum": false
    },
    {
      "pitch": 63,
      "start": 30.9677,
      "end": 31.6935,
      "duration": 0.7258,
      "velocity": 71,
      "instrument": 0,
      "instrument_name": "Acoustic Grand Piano",
      "is_drum": false
    },
    {
      "pitch": 51,
      "start": 31.2096,
      "end": 31.4939,
      "duration": 0.2843,
      "velocity": 56,
      "instrument": 0,
      "instrument_name": "Acoustic Grand Piano",
      "is_drum": false
    },
    {
      "pitch": 56,
      "start": 31.4516,
      "end": 33.2238,
      "duration": 1.7722,
      "velocity": 80,
      "instrument": 0,
      "instrument_name": "Acoustic Grand Piano",
      "is_drum": false
    },
    {
      "pitch": 70,
      "start": 31.6935,
      "end": 32.1754,
      "duration": 0.4819,
      "velocity": 61,
      "instrument": 0,
      "instrument_name": "Acoustic Grand Piano",
      "is_drum": false
    },
    {
      "pitch": 71,
      "start": 32.1774,
      "end": 32.5988,
      "duration": 0.4214,
      "velocity": 71,
      "instrument": 0,
      "instrument_name": "Acoustic Grand Piano",
      "is_drum": false
    },
    {
      "pitch": 66,
      "start": 32.6613,
      "end": 32.7439,
      "duration": 0.0827,
      "velocity": 56,
      "instrument": 0,
      "instrument_name": "Acoustic Grand Piano",
      "is_drum": false
    },
    {
      "pitch": 59,
      "start": 32.6613,
      "end": 32.752,
      "duration": 0.0907,
      "velocity": 58,
      "instrument": 0,
      "instrument_name": "Acoustic Grand Piano",
      "is_drum": false
    },
    {
      "pitch": 59,
      "start": 32.9032,
      "end": 33.752,
      "duration": 0.8488,
      "velocity": 87,
      "instrument": 0,
      "instrument_name": "Acoustic Grand Piano",
      "is_drum": false
    },
    {
      "pitch": 66,
      "start": 32.9032,
      "end": 33.758,
      "duration": 0.8548,
      "velocity": 88,
      "instrument": 0,
      "instrument_name": "Acoustic Grand Piano",
      "is_drum": false
    },
    {
      "pitch": 54,
      "start": 33.629,
      "end": 33.8709,
      "duration": 0.2419,
      "velocity": 70,
      "instrument": 0,
      "instrument_name": "Acoustic Grand Piano",
      "is_drum": false
    },
    {
      "pitch": 59,
      "start": 33.8709,
      "end": 34.1572,
      "duration": 0.2863,
      "velocity": 69,
      "instrument": 0,
      "instrument_name": "Acoustic Grand Piano",
      "is_drum": false
    },
    {
      "pitch": 54,
      "start": 33.8709,
      "end": 34.1129,
      "duration": 0.2419,
      "velocity": 70,
      "instrument": 0,
      "instrument_name": "Acoustic Grand Piano",
      "is_drum": false
    },
    {
      "pitch": 59,
      "start": 33.8709,
      "end": 34.5967,
      "duration": 0.7258,
      "velocity": 92,
      "instrument": 0,
      "instrument_name": "Acoustic Grand Piano",
      "is_drum": false
    },
    {
      "pitch": 66,
      "start": 33.8709,
      "end": 34.623,
      "duration": 0.752,
      "velocity": 93,
      "instrument": 0,
      "instrument_name": "Acoustic Grand Piano",
      "is_drum": false
    },
    {
      "pitch": 59,
      "start": 34.3548,
      "end": 34.4415,
      "duration": 0.0867,
      "velocity": 67,
      "instrument": 0,
      "instrument_name": "Acoustic Grand Piano",
      "is_drum": false
    },
    {
      "pitch": 54,
      "start": 34.3548,
      "end": 34.6068,
      "duration": 0.252,
      "velocity": 71,
      "instrument": 0,
      "instrument_name": "Acoustic Grand Piano",
      "is_drum": false
    },
    {
      "pitch": 59,
      "start": 34.5967,
      "end": 34.7742,
      "duration": 0.1774,
      "velocity": 71,
      "instrument": 0,
      "instrument_name": "Acoustic Grand Piano",
      "is_drum": false
    },
    {
      "pitch": 52,
      "start": 34.5967,
      "end": 34.8387,
      "duration": 0.2419,
      "velocity": 52,
      "instrument": 0,
      "instrument_name": "Acoustic Grand Piano",
      "is_drum": false
    },
    {
      "pitch": 71,
      "start": 34.8387,
      "end": 35.2641,
      "duration": 0.4254,
      "velocity": 80,
      "instrument": 0,
      "instrument_name": "Acoustic Grand Piano",
      "is_drum": false
    },
    {
      "pitch": 45,
      "start": 34.8387,
      "end": 35.2379,
      "duration": 0.3992,
      "velocity": 59,
      "instrument": 0,
      "instrument_name": "Acoustic Grand Piano",
      "is_drum": false
    },
    {
      "pitch": 61,
      "start": 34.8387,
      "end": 35.2782,
      "duration": 0.4395,
      "velocity": 62,
      "instrument": 0,
      "instrument_name": "Acoustic Grand Piano",
      "is_drum": false
    },
    {
      "pitch": 57,
      "start": 34.8387,
      "end": 35.2923,
      "duration": 0.4536,
      "velocity": 66,
      "instrument": 0,
      "instrument_name": "Acoustic Grand Piano",
      "is_drum": false
    },
    {
      "pitch": 59,
      "start": 34.8387,
      "end": 35.3004,
      "duration": 0.4617,
      "velocity": 63,
      "instrument": 0,
      "instrument_name": "Acoustic Grand Piano",
      "is_drum": false
    },
    {
      "pitch": 64,
      "start": 34.8387,
      "end": 35.3125,
      "duration": 0.4738,
      "velocity": 73,
      "instrument": 0,
      "instrument_name": "Acoustic Grand Piano",
      "is_drum": false
    },
    {
      "pitch": 69,
      "start": 35.3225,
      "end": 35.6653,
      "duration": 0.3427,
      "velocity": 62,
      "instrument": 0,
      "instrument_name": "Acoustic Grand Piano",
      "is_drum": false
    },
    {
      "pitch": 52,
      "start": 35.3225,
      "end": 36.5826,
      "duration": 1.2601,
      "velocity": 54,
      "instrument": 0,
      "instrument_name": "Acoustic Grand Piano",
      "is_drum": false
    },
    {
      "pitch": 69,
      "start": 35.8064,
      "end": 36.0746,
      "duration": 0.2681,
      "velocity": 90,
      "instrument": 0,
      "instrument_name": "Acoustic Grand Piano",
      "is_drum": false
    },
    {
      "pitch": 59,
      "start": 35.8064,
      "end": 36.1229,
      "duration": 0.3165,
      "velocity": 63,
      "instrument": 0,
      "instrument_name": "Acoustic Grand Piano",
      "is_drum": false
    },
    {
      "pitch": 57,
      "start": 35.8064,
      "end": 36.1552,
      "duration": 0.3488,
      "velocity": 69,
      "instrument": 0,
      "instrument_name": "Acoustic Grand Piano",
      "is_drum": false
    },
    {
      "pitch": 64,
      "start": 35.8064,
      "end": 36.1653,
      "duration": 0.3589,
      "velocity": 70,
      "instrument": 0,
      "instrument_name": "Acoustic Grand Piano",
      "is_drum": false
    },
    {
      "pitch": 61,
      "start": 35.8064,
      "end": 36.1935,
      "duration": 0.3871,
      "velocity": 61,
      "instrument": 0,
      "instrument_name": "Acoustic Grand Piano",
      "is_drum": false
    },
    {
      "pitch": 68,
      "start": 36.0484,
      "end": 36.1633,
      "duration": 0.1149,
      "velocity": 69,
      "instrument": 0,
      "instrument_name": "Acoustic Grand Piano",
      "is_drum": false
    },
    {
      "pitch": 68,
      "start": 36.2903,
      "end": 36.5423,
      "duration": 0.252,
      "velocity": 84,
      "instrument": 0,
      "instrument_name": "Acoustic Grand Piano",
      "is_drum": false
    },
    {
      "pitch": 66,
      "start": 36.5322,
      "end": 36.6411,
      "duration": 0.1089,
      "velocity": 68,
      "instrument": 0,
      "instrument_name": "Acoustic Grand Piano",
      "is_drum": false
    },
    {
      "pitch": 66,
      "start": 36.7742,
      "end": 37.9314,
      "duration": 1.1573,
      "velocity": 84,
      "instrument": 0,
      "instrument_name": "Acoustic Grand Piano",
      "is_drum": false
    },
    {
      "pitch": 46,
      "start": 36.7742,
      "end": 37.1834,
      "duration": 0.4093,
      "velocity": 55,
      "instrument": 0,
      "instrument_name": "Acoustic Grand Piano",
      "is_drum": false
    },
    {
      "pitch": 66,
      "start": 36.7742,
      "end": 37.2762,
      "duration": 0.502,
      "velocity": 72,
      "instrument": 0,
      "instrument_name": "Acoustic Grand Piano",
      "is_drum": false
    },
    {
      "pitch": 58,
      "start": 36.7742,
      "end": 37.2822,
      "duration": 0.5081,
      "velocity": 67,
      "instrument": 0,
      "instrument_name": "Acoustic Grand Piano",
      "is_drum": false
    },
    {
      "pitch": 61,
      "start": 36.7742,
      "end": 37.2963,
      "duration": 0.5222,
      "velocity": 68,
      "instrument": 0,
      "instrument_name": "Acoustic Grand Piano",
      "is_drum": false
    },
    {
      "pitch": 54,
      "start": 37.258,
      "end": 38.2459,
      "duration": 0.9879,
      "velocity": 65,
      "instrument": 0,
      "instrument_name": "Acoustic Grand Piano",
      "is_drum": false
    },
    {
      "pitch": 61,
      "start": 37.7419,
      "end": 38.1149,
      "duration": 0.373,
      "velocity": 66,
      "instrument": 0,
      "instrument_name": "Acoustic Grand Piano",
      "is_drum": false
    },
    {
      "pitch": 58,
      "start": 37.7419,
      "end": 38.1169,
      "duration": 0.375,
      "velocity": 73,
      "instrument": 0,
      "instrument_name": "Acoustic Grand Piano",
      "is_drum": false
    },
    {
      "pitch": 66,
      "start": 37.7419,
      "end": 38.1734,
      "duration": 0.4315,
      "velocity": 72,
      "instrument": 0,
      "instrument_name": "Acoustic Grand Piano",
      "is_drum": false
    },
    {
      "pitch": 64,
      "start": 38.2258,
      "end": 38.4536,
      "duration": 0.2278,
      "velocity": 70,
      "instrument": 0,
      "instrument_name": "Acoustic Grand Piano",
      "is_drum": false
    },
    {
      "pitch": 66,
      "start": 38.4677,
      "end": 38.6935,
      "duration": 0.2258,
      "velocity": 61,
      "instrument": 0,
      "instrument_name": "Acoustic Grand Piano",
      "is_drum": false
    },
    {
      "pitch": 68,
      "start": 38.7096,
      "end": 39.2076,
      "duration": 0.498,
      "velocity": 68,
      "instrument": 0,
      "instrument_name": "Acoustic Grand Piano",
      "is_drum": false
    },
    {
      "pitch": 63,
      "start": 38.7096,
      "end": 39.2016,
      "duration": 0.4919,
      "velocity": 75,
      "instrument": 0,
      "instrument_name": "Acoustic Grand Piano",
      "is_drum": false
    },
    {
      "pitch": 68,
      "start": 38.7096,
      "end": 39.2076,
      "duration": 0.498,
      "velocity": 76,
      "instrument": 0,
      "instrument_name": "Acoustic Grand Piano",
      "is_drum": false
    },
    {
      "pitch": 60,
      "start": 38.7096,
      "end": 39.2399,
      "duration": 0.5302,
      "velocity": 85,
      "instrument": 0,
      "instrument_name": "Acoustic Grand Piano",
      "is_drum": false
    },
    {
      "pitch": 48,
      "start": 38.7096,
      "end": 40.1492,
      "duration": 1.4395,
      "velocity": 74,
      "instrument": 0,
      "instrument_name": "Acoustic Grand Piano",
      "is_drum": false
    },
    {
      "pitch": 66,
      "start": 39.1935,
      "end": 39.4233,
      "duration": 0.2298,
      "velocity": 71,
      "instrument": 0,
      "instrument_name": "Acoustic Grand Piano",
      "is_drum": false
    },
    {
      "pitch": 64,
      "start": 39.4354,
      "end": 39.8911,
      "duration": 0.4556,
      "velocity": 65,
      "instrument": 0,
      "instrument_name": "Acoustic Grand Piano",
      "is_drum": false
    },
    {
      "pitch": 63,
      "start": 39.6774,
      "end": 40.0967,
      "duration": 0.4194,
      "velocity": 75,
      "instrument": 0,
      "instrument_name": "Acoustic Grand Piano",
      "is_drum": false
    },
    {
      "pitch": 60,
      "start": 39.6774,
      "end": 40.129,
      "duration": 0.4516,
      "velocity": 88,
      "instrument": 0,
      "instrument_name": "Acoustic Grand Piano",
      "is_drum": false
    },
    {
      "pitch": 68,
      "start": 39.6774,
      "end": 40.1431,
      "duration": 0.4657,
      "velocity": 85,
      "instrument": 0,
      "instrument_name": "Acoustic Grand Piano",
      "is_drum": false
    },
    {
      "pitch": 63,
      "start": 39.9193,
      "end": 40.3669,
      "duration": 0.4476,
      "velocity": 55,
      "instrument": 0,
      "instrument_name": "Acoustic Grand Piano",
      "is_drum": false
    },
    {
      "pitch": 64,
      "start": 40.4032,
      "end": 41.9919,
      "duration": 1.5887,
      "velocity": 68,
      "instrument": 0,
      "instrument_name": "Acoustic Grand Piano",
      "is_drum": false
    },
    {
      "pitch": 56,
      "start": 40.6451,
      "end": 41.2661,
      "duration": 0.621,
      "velocity": 71,
      "instrument": 0,
      "instrument_name": "Acoustic Grand Piano",
      "is_drum": false
    },
    {
      "pitch": 64,
      "start": 40.6451,
      "end": 41.5383,
      "duration": 0.8931,
      "velocity": 77,
      "instrument": 0,
      "instrument_name": "Acoustic Grand Piano",
      "is_drum": false
    },
    {
      "pitch": 63,
      "start": 40.6451,
      "end": 41.5383,
      "duration": 0.8931,
      "velocity": 69,
      "instrument": 0,
      "instrument_name": "Acoustic Grand Piano",
      "is_drum": false
    },
    {
      "pitch": 49,
      "start": 40.6451,
      "end": 43.3971,
      "duration": 2.752,
      "velocity": 68,
      "instrument": 0,
      "instrument_name": "Acoustic Grand Piano",
      "is_drum": false
    },
    {
      "pitch": 56,
      "start": 41.3709,
      "end": 43.75,
      "duration": 2.379,
      "velocity": 65,
      "instrument": 0,
      "instrument_name": "Acoustic Grand Piano",
      "is_drum": false
    },
    {
      "pitch": 59,
      "start": 41.6129,
      "end": 41.8528,
      "duration": 0.2399,
      "velocity": 66,
      "instrument": 0,
      "instrument_name": "Acoustic Grand Piano",
      "is_drum": false
    },
    {
      "pitch": 63,
      "start": 41.8548,
      "end": 42.1028,
      "duration": 0.248,
      "velocity": 52,
      "instrument": 0,
      "instrument_name": "Acoustic Grand Piano",
      "is_drum": false
    },
    {
      "pitch": 64,
      "start": 42.0967,
      "end": 42.2439,
      "duration": 0.1472,
      "velocity": 54,
      "instrument": 0,
      "instrument_name": "Acoustic Grand Piano",
      "is_drum": false
    },
    {
      "pitch": 71,
      "start": 42.3387,
      "end": 42.6996,
      "duration": 0.3609,
      "velocity": 61,
      "instrument": 0,
      "instrument_name": "Acoustic Grand Piano",
      "is_drum": false
    },
    {
      "pitch": 66,
      "start": 42.5806,
      "end": 42.6854,
      "duration": 0.1048,
      "velocity": 54,
      "instrument": 0,
      "instrument_name": "Acoustic Grand Piano",
      "is_drum": false
    },
    {
      "pitch": 68,
      "start": 42.6209,
      "end": 43.4496,
      "duration": 0.8286,
      "velocity": 73,
      "instrument": 0,
      "instrument_name": "Acoustic Grand Piano",
      "is_drum": false
    },
    {
      "pitch": 64,
      "start": 43.5483,
      "end": 44.2338,
      "duration": 0.6855,
      "velocity": 55,
      "instrument": 0,
      "instrument_name": "Acoustic Grand Piano",
      "is_drum": false
    },
    {
      "pitch": 59,
      "start": 43.5483,
      "end": 44.2399,
      "duration": 0.6915,
      "velocity": 63,
      "instrument": 0,
      "instrument_name": "Acoustic Grand Piano",
      "is_drum": false
    },
    {
      "pitch": 64,
      "start": 44.0322,
      "end": 44.258,
      "duration": 0.2258,
      "velocity": 80,
      "instrument": 0,
      "instrument_name": "Acoustic Grand Piano",
      "is_drum": false
    },
    {
      "pitch": 63,
      "start": 44.2742,
      "end": 44.5322,
      "duration": 0.2581,
      "velocity": 57,
      "instrument": 0,
      "instrument_name": "Acoustic Grand Piano",
      "is_drum": false
    },
    {
      "pitch": 64,
      "start": 44.5161,
      "end": 46.0564,
      "duration": 1.5403,
      "velocity": 58,
      "instrument": 0,
      "instrument_name": "Acoustic Grand Piano",
      "is_drum": false
    },
    {
      "pitch": 42,
      "start": 44.5161,
      "end": 44.9637,
      "duration": 0.4476,
      "velocity": 80,
      "instrument": 0,
      "instrument_name": "Acoustic Grand Piano",
      "is_drum": false
    },
    {
      "pitch": 64,
      "start": 44.5161,
      "end": 45.2862,
      "duration": 0.7702,
      "velocity": 74,
      "instrument": 0,
      "instrument_name": "Acoustic Grand Piano",
      "is_drum": false
    },
    {
      "pitch": 61,
      "start": 44.5161,
      "end": 45.3205,
      "duration": 0.8044,
      "velocity": 64,
      "instrument": 0,
      "instrument_name": "Acoustic Grand Piano",
      "is_drum": false
    },
    {
      "pitch": 57,
      "start": 44.5161,
      "end": 45.3225,
      "duration": 0.8065,
      "velocity": 72,
      "instrument": 0,
      "instrument_name": "Acoustic Grand Piano",
      "is_drum": false
    },
    {
      "pitch": 49,
      "start": 45.0,
      "end": 45.6754,
      "duration": 0.6754,
      "velocity": 69,
      "instrument": 0,
      "instrument_name": "Acoustic Grand Piano",
      "is_drum": false
    },
    {
      "pitch": 57,
      "start": 45.4838,
      "end": 45.9758,
      "duration": 0.4919,
      "velocity": 68,
      "instrument": 0,
      "instrument_name": "Acoustic Grand Piano",
      "is_drum": false
    },
    {
      "pitch": 61,
      "start": 45.4838,
      "end": 46.006,
      "duration": 0.5222,
      "velocity": 62,
      "instrument": 0,
      "instrument_name": "Acoustic Grand Piano",
      "is_drum": false
    },
    {
      "pitch": 64,
      "start": 45.4838,
      "end": 46.0121,
      "duration": 0.5282,
      "velocity": 71,
      "instrument": 0,
      "instrument_name": "Acoustic Grand Piano",
      "is_drum": false
    },
    {
      "pitch": 49,
      "start": 45.9677,
      "end": 46.4737,
      "duration": 0.506,
      "velocity": 76,
      "instrument": 0,
      "instrument_name": "Acoustic Grand Piano",
      "is_drum": false
    },
    {
      "pitch": 69,
      "start": 46.4516,
      "end": 46.6996,
      "duration": 0.248,
      "velocity": 72,
      "instrument": 0,
      "instrument_name": "Acoustic Grand Piano",
      "is_drum": false
    },
    {
      "pitch": 61,
      "start": 46.4516,
      "end": 46.7096,
      "duration": 0.2581,
      "velocity": 65,
      "instrument": 0,
      "instrument_name": "Acoustic Grand Piano",
      "is_drum": false
    },
    {
      "pitch": 56,
      "start": 46.4516,
      "end": 47.7782,
      "duration": 1.3266,
      "velocity": 80,
      "instrument": 0,
      "instrument_name": "Acoustic Grand Piano",
      "is_drum": false
    },
    {
      "pitch": 68,
      "start": 46.9354,
      "end": 47.1693,
      "duration": 0.2339,
      "velocity": 63,
      "instrument": 0,
      "instrument_name": "Acoustic Grand Piano",
      "is_drum": false
    },
    {
      "pitch": 59,
      "start": 46.9354,
      "end": 47.2338,
      "duration": 0.2984,
      "velocity": 54,
      "instrument": 0,
      "instrument_name": "Acoustic Grand Piano",
      "is_drum": false
    },
    {
      "pitch": 57,
      "start": 47.4193,
      "end": 47.9112,
      "duration": 0.4919,
      "velocity": 60,
      "instrument": 0,
      "instrument_name": "Acoustic Grand Piano",
      "is_drum": false
    },
    {
      "pitch": 64,
      "start": 47.4193,
      "end": 47.9254,
      "duration": 0.506,
      "velocity": 62,
      "instrument": 0,
      "instrument_name": "Acoustic Grand Piano",
      "is_drum": false
    },
    {
      "pitch": 61,
      "start": 47.9032,
      "end": 48.133,
      "duration": 0.2298,
      "velocity": 80,
      "instrument": 0,
      "instrument_name": "Acoustic Grand Piano",
      "is_drum": false
    },
    {
      "pitch": 61,
      "start": 47.9032,
      "end": 48.2842,
      "duration": 0.381,
      "velocity": 66,
      "instrument": 0,
      "instrument_name": "Acoustic Grand Piano",
      "is_drum": false
    },
    {
      "pitch": 63,
      "start": 48.1451,
      "end": 48.2621,
      "duration": 0.1169,
      "velocity": 68,
      "instrument": 0,
      "instrument_name": "Acoustic Grand Piano",
      "is_drum": false
    }
  ],
  "embedding": [
    0.014705882352941176,
    0.10784313725490197,
    0.0,
    0.08333333333333333,
    0.22549019607843138,
    0.0,
    0.12745098039215685,
    0.0,
    0.13725490196078433,
    0.08823529411764706,
    0.0196078431372549,
    0.19607843137254902,
    0.11822660098522167,
    0.0,
    0.0049261083743842365,
    0.029556650246305417,
    0.03940886699507389,
    0.04926108374384237,
    0.0,
    0.04926108374384237,
    0.024630541871921183,
    0.029556650246305417,
    0.03940886699507389,
    0.03940886699507389,
    0.08866995073891626,
    0.034482758620689655,
    0.07389162561576355,
    0.029556650246305417,
    0.019704433497536946,
    0.06896551724137931,
    0.0,
    0.09359605911330049,
    0.034482758620689655,
    0.014778325123152709,
    0.009852216748768473,
    0.0049261083743842365,
    0.10344827586206896,
    0.0,
    0.0,
    0.014705882352941176,
    0.37745098039215685,
    0.5,
    0.10784313725490197,
    0.0,
    0.0,
    0.014705882352941176,
    0.25980392156862747,
    0.4117647058823529,
    0.1568627450980392,
    0.13725490196078433,
    0.0196078431372549,
    0.0,
    0.0,
    0.0,
    0.0,
    0.49685039370078743,
    0.20750000000000002,
    0.5228346456692914,
    0.2425,
    0.055569999999999994,
    0.05012,
    0.31,
    0.08046666666666667,
    0.14215686274509803,
    0.10294117647058823,
    0.08333333333333333,
    0.0784313725490196,
    0.06862745098039216,
    0.06862745098039216,
    0.06372549019607843,
    0.0392156862745098,
    0.03431372549019608,
    0.03431372549019608,
    0.03431372549019608,
    0.03431372549019608,
    0.029411764705882353,
    0.0196078431372549,
    0.0196078431372549,
    0.014705882352941176,
    0.014705882352941176,
    0.014705882352941176,
    0.014705882352941176,
    0.014705882352941176,
    0.00980392156862745,
    0.00980392156862745,
    0.00980392156862745,
    0.00980392156862745,
    0.004901960784313725,
    0.004901960784313725,
    0.004901960784313725,
    0.004901960784313725,
    0.004901960784313725,
    0.004901960784313725,
    0.004901960784313725,
    0.0,
    0.0,
    0.0,
    0.0,
    0.0,
    0.0,
    0.0,
    0.0,
    0.0,
    0.0,
    0.0,
    0.0,
    0.0,
    0.0,
    0.0,
    0.0,
    0.0,
    0.0,
    0.0,
    0.0,
    0.0,
    0.0,
    0.0,
    0.0,
    0.0,
    0.0,
    0.0,
    0.0,
    0.0,
    0.0,
    0.0,
    0.0,
    0.0,
    0.0
  ],
  "pitch_histogram": [
    0.0,
    0.0,
    0.0,
    0.0,
    0.0,
    0.0,
    0.0,
    0.0,
    0.0,
    0.0,
    0.0,
    0.0,
    0.0,
    0.0,
    0.0,
    0.0,
    0.0,
    0.0,
    0.0,
    0.0,
    0.0,
    0.0,
    0.0,
    0.0,
    0.0,
    0.0,
    0.0,
    0.0,
    0.0,
    0.0,
    0.0,
    0.0,
    0.0,
    0.0,
    0.0,
    0.0,
    0.0,
    0.0,
    0.0,
    0.0,
    0.00980392156862745,
    0.0,
    0.004901960784313725,
    0.0,
    0.004901960784313725,
    0.014705882352941176,
    0.004901960784313725,
    0.014705882352941176,
    0.004901960784313725,
    0.0196078431372549,
    0.0,
    0.004901960784313725,
    0.03431372549019608,
    0.0,
    0.029411764705882353,
    0.0,
    0.03431372549019608,
    0.03431372549019608,
    0.00980392156862745,
    0.10294117647058823,
    0.00980392156862745,
    0.06862745098039216,
    0.0,
    0.06372549019607843,
    0.14215686274509803,
    0.0,
    0.0784313725490196,
    0.0,
    0.08333333333333333,
    0.03431372549019608,
    0.004901960784313725,
    0.06862745098039216,
    0.0,
    0.0196078431372549,
    0.0,
    0.014705882352941176,
    0.0392156862745098,
    0.0,
    0.014705882352941176,
    0.0,
    0.014705882352941176,
    0.004901960784313725,
    0.0,
    0.00980392156862745,
    0.0,
    0.0,
    0.0,
    0.0,
    0.0,
    0.0,
    0.0,
    0.0,
    0.0,
    0.0,
    0.0,
    0.0,
    0.0,
    0.0,
    0.0,
    0.0,
    0.0,
    0.0,
    0.0,
    0.0,
    0.0,
    0.0,
    0.0,
    0.0,
    0.0,
    0.0,
    0.0,
    0.0,
    0.0,
    0.0,
    0.0,
    0.0,
    0.0,
    0.0,
    0.0,
    0.0,
    0.0,
    0.0,
    0.0,
    0.0,
    0.0,
    0.0,
    0.0,
    0.0
  ],
  "pitch_class_histogram": [
    0.014705882352941176,
    0.10784313725490197,
    0.0,
    0.08333333333333333,
    0.22549019607843138,
    0.0,
    0.12745098039215685,
    0.0,
    0.13725490196078433,
    0.08823529411764706,
    0.0196078431372549,
    0.19607843137254902
  ],
  "interval_histogram": [
    0.11822660098522167,
    0.0,
    0.0049261083743842365,
    0.029556650246305417,
    0.03940886699507389,
    0.04926108374384237,
    0.0,
    0.04926108374384237,
    0.024630541871921183,
    0.029556650246305417,
    0.03940886699507389,
    0.03940886699507389,
    0.08866995073891626,
    0.034482758620689655,
    0.07389162561576355,
    0.029556650246305417,
    0.019704433497536946,
    0.06896551724137931,
    0.0,
    0.09359605911330049,
    0.034482758620689655,
    0.014778325123152709,
    0.009852216748768473,
    0.0049261083743842365,
    0.10344827586206896
  ],
  "velocity_histogram": [
    0.0,
    0.0,
    0.014705882352941176,
    0.37745098039215685,
    0.5,
    0.10784313725490197,
    0.0,
    0.0
  ],
  "duration_histogram": [
    0.014705882352941176,
    0.25980392156862747,
    0.4117647058823529,
    0.1568627450980392,
    0.13725490196078433,
    0.0196078431372549,
    0.0,
    0.0,
    0.0,
    0.0
  ]
}