{
  "stats": {
    "filename": "사랑길_BPM50_12-8.mid",
    "total_notes": 124,
    "total_duration_sec": 93.54,
    "avg_tempo": 50.0,
    "pitch_range": [
      40,
      83
    ],
    "pitch_mean": 61.6,
    "pitch_std": 8.9,
    "velocity_range": [
      33,
      88
    ],
    "velocity_mean": 56.6,
    "velocity_std": 11.7,
    "duration_mean": 2.3818,
    "duration_std": 2.228,
    "estimated_key": "E",
    "num_instruments": 2,
    "time_signatures": [
      "12/8"
    ]
  },
  "composer_tags": {
    "rhythm_type": "sparse",
    "rhythm_regularity": 0.132,
    "note_density_per_sec": 1.33,
    "avg_ioi": 1.4793,
    "harmony_type": "triadic",
    "harmonic_brightness": 0.538,
    "harmony_ratio": 0.758,
    "avg_polyphony": 3.24,
    "max_polyphony": 6,
    "accompaniment_pattern": "block_chord",
    "arpeggio_ratio": 0.0,
    "voicing_type": "semi_open",
    "avg_voicing_spread": 12.1,
    "pitch_range": 43,
    "register": "alto",
    "dynamic_profile": "moderate",
    "dynamic_level": "mezzo-forte",
    "velocity_range": 55,
    "tempo_bpm": 50.0,
    "tempo_category": "largo"
  },
  "notes": [
    {
      "pitch": 68,
      "start": 7.2,
      "end": 10.1775,
      "duration": 2.9775,
      "velocity": 52,
      "instrument": 0,
      "instrument_name": "Acoustic Grand Piano",
      "is_drum": false
    },
    {
      "pitch": 73,
      "start": 7.2,
      "end": 10.1925,
      "duration": 2.9925,
      "velocity": 52,
      "instrument": 0,
      "instrument_name": "Acoustic Grand Piano",
      "is_drum": false
    },
    {
      "pitch": 80,
      "start": 7.2,
      "end": 11.375,
      "duration": 4.175,
      "velocity": 62,
      "instrument": 0,
      "instrument_name": "Acoustic Grand Piano",
      "is_drum": false
    },
    {
      "pitch": 57,
      "start": 7.2,
      "end": 13.88,
      "duration": 6.68,
      "velocity": 37,
      "instrument": 0,
      "instrument_name": "Acoustic Grand Piano",
      "is_drum": false
    },
    {
      "pitch": 64,
      "start": 7.2,
      "end": 13.9075,
      "duration": 6.7075,
      "velocity": 34,
      "instrument": 0,
      "instrument_name": "Acoustic Grand Piano",
      "is_drum": false
    },
    {
      "pitch": 68,
      "start": 10.8,
      "end": 11.3825,
      "duration": 0.5825,
      "velocity": 43,
      "instrument": 0,
      "instrument_name": "Acoustic Grand Piano",
      "is_drum": false
    },
    {
      "pitch": 73,
      "start": 10.8,
      "end": 11.425,
      "duration": 0.625,
      "velocity": 47,
      "instrument": 0,
      "instrument_name": "Acoustic Grand Piano",
      "is_drum": false
    },
    {
      "pitch": 71,
      "start": 12.6,
      "end": 12.8,
      "duration": 0.2,
      "velocity": 59,
      "instrument": 0,
      "instrument_name": "Acoustic Grand Piano",
      "is_drum": false
    },
    {
      "pitch": 76,
      "start": 12.6,
      "end": 12.8175,
      "duration": 0.2175,
      "velocity": 57,
      "instrument": 0,
      "instrument_name": "Acoustic Grand Piano",
      "is_drum": false
    },
    {
      "pitch": 73,
      "start": 13.2,
      "end": 13.295,
      "duration": 0.095,
      "velocity": 61,
      "instrument": 0,
      "instrument_name": "Acoustic Grand Piano",
      "is_drum": false
    },
    {
      "pitch": 78,
      "start": 13.2,
      "end": 13.3025,
      "duration": 0.1025,
      "velocity": 60,
      "instrument": 0,
      "instrument_name": "Acoustic Grand Piano",
      "is_drum": false
    },
    {
      "pitch": 83,
      "start": 13.8,
      "end": 13.93,
      "duration": 0.13,
      "velocity": 82,
      "instrument": 0,
      "instrument_name": "Acoustic Grand Piano",
      "is_drum": false
    },
    {
      "pitch": 78,
      "start": 14.4,
      "end": 15.1575,
      "duration": 0.7575,
      "velocity": 65,
      "instrument": 0,
      "instrument_name": "Acoustic Grand Piano",
      "is_drum": false
    },
    {
      "pitch": 71,
      "start": 14.4,
      "end": 15.2775,
      "duration": 0.8775,
      "velocity": 49,
      "instrument": 0,
      "instrument_name": "Acoustic Grand Piano",
      "is_drum": false
    },
    {
      "pitch": 66,
      "start": 14.4,
      "end": 17.075,
      "duration": 2.675,
      "velocity": 42,
      "instrument": 0,
      "instrument_name": "Acoustic Grand Piano",
      "is_drum": false
    },
    {
      "pitch": 56,
      "start": 14.4,
      "end": 17.27,
      "duration": 2.87,
      "velocity": 42,
      "instrument": 0,
      "instrument_name": "Acoustic Grand Piano",
      "is_drum": false
    },
    {
      "pitch": 64,
      "start": 14.4,
      "end": 17.2925,
      "duration": 2.8925,
      "velocity": 33,
      "instrument": 0,
      "instrument_name": "Acoustic Grand Piano",
      "is_drum": false
    },
    {
      "pitch": 76,
      "start": 16.2,
      "end": 17.08,
      "duration": 0.88,
      "velocity": 56,
      "instrument": 0,
      "instrument_name": "Acoustic Grand Piano",
      "is_drum": false
    },
    {
      "pitch": 68,
      "start": 16.2,
      "end": 17.28,
      "duration": 1.08,
      "velocity": 48,
      "instrument": 0,
      "instrument_name": "Acoustic Grand Piano",
      "is_drum": false
    },
    {
      "pitch": 71,
      "start": 18.0,
      "end": 18.545,
      "duration": 0.545,
      "velocity": 56,
      "instrument": 0,
      "instrument_name": "Acoustic Grand Piano",
      "is_drum": false
    },
    {
      "pitch": 64,
      "start": 18.0,
      "end": 18.785,
      "duration": 0.785,
      "velocity": 34,
      "instrument": 0,
      "instrument_name": "Acoustic Grand Piano",
      "is_drum": false
    },
    {
      "pitch": 68,
      "start": 19.8,
      "end": 20.01,
      "duration": 0.21,
      "velocity": 48,
      "instrument": 0,
      "instrument_name": "Acoustic Grand Piano",
      "is_drum": false
    },
    {
      "pitch": 71,
      "start": 19.8,
      "end": 20.0725,
      "duration": 0.2725,
      "velocity": 62,
      "instrument": 0,
      "instrument_name": "Acoustic Grand Piano",
      "is_drum": false
    },
    {
      "pitch": 66,
      "start": 20.4,
      "end": 20.5475,
      "duration": 0.1475,
      "velocity": 61,
      "instrument": 0,
      "instrument_name": "Acoustic Grand Piano",
      "is_drum": false
    },
    {
      "pitch": 69,
      "start": 20.4,
      "end": 20.5625,
      "duration": 0.1625,
      "velocity": 52,
      "instrument": 0,
      "instrument_name": "Acoustic Grand Piano",
      "is_drum": false
    },
    {
      "pitch": 68,
      "start": 21.0,
      "end": 21.0575,
      "duration": 0.0575,
      "velocity": 59,
      "instrument": 0,
      "instrument_name": "Acoustic Grand Piano",
      "is_drum": false
    },
    {
      "pitch": 64,
      "start": 21.0,
      "end": 21.0925,
      "duration": 0.0925,
      "velocity": 47,
      "instrument": 0,
      "instrument_name": "Acoustic Grand Piano",
      "is_drum": false
    },
    {
      "pitch": 64,
      "start": 21.6,
      "end": 24.6025,
      "duration": 3.0025,
      "velocity": 50,
      "instrument": 0,
      "instrument_name": "Acoustic Grand Piano",
      "is_drum": false
    },
    {
      "pitch": 61,
      "start": 21.6,
      "end": 24.655,
      "duration": 3.055,
      "velocity": 46,
      "instrument": 0,
      "instrument_name": "Acoustic Grand Piano",
      "is_drum": false
    },
    {
      "pitch": 57,
      "start": 21.6,
      "end": 24.7075,
      "duration": 3.1075,
      "velocity": 33,
      "instrument": 0,
      "instrument_name": "Acoustic Grand Piano",
      "is_drum": false
    },
    {
      "pitch": 69,
      "start": 21.6,
      "end": 25.9025,
      "duration": 4.3025,
      "velocity": 68,
      "instrument": 0,
      "instrument_name": "Acoustic Grand Piano",
      "is_drum": false
    },
    {
      "pitch": 42,
      "start": 21.6,
      "end": 28.4375,
      "duration": 6.8375,
      "velocity": 60,
      "instrument": 0,
      "instrument_name": "Acoustic Grand Piano",
      "is_drum": false
    },
    {
      "pitch": 52,
      "start": 21.6,
      "end": 28.8,
      "duration": 7.2,
      "velocity": 35,
      "instrument": 0,
      "instrument_name": "Acoustic Grand Piano",
      "is_drum": false
    },
    {
      "pitch": 57,
      "start": 25.2,
      "end": 26.18,
      "duration": 0.98,
      "velocity": 37,
      "instrument": 0,
      "instrument_name": "Acoustic Grand Piano",
      "is_drum": false
    },
    {
      "pitch": 64,
      "start": 25.2,
      "end": 26.2175,
      "duration": 1.0175,
      "velocity": 47,
      "instrument": 0,
      "instrument_name": "Acoustic Grand Piano",
      "is_drum": false
    },
    {
      "pitch": 66,
      "start": 27.6,
      "end": 27.785,
      "duration": 0.185,
      "velocity": 57,
      "instrument": 0,
      "instrument_name": "Acoustic Grand Piano",
      "is_drum": false
    },
    {
      "pitch": 61,
      "start": 27.6,
      "end": 27.81,
      "duration": 0.21,
      "velocity": 62,
      "instrument": 0,
      "instrument_name": "Acoustic Grand Piano",
      "is_drum": false
    },
    {
      "pitch": 68,
      "start": 28.2,
      "end": 28.3775,
      "duration": 0.1775,
      "velocity": 48,
      "instrument": 0,
      "instrument_name": "Acoustic Grand Piano",
      "is_drum": false
    },
    {
      "pitch": 64,
      "start": 28.2,
      "end": 28.41,
      "duration": 0.21,
      "velocity": 62,
      "instrument": 0,
      "instrument_name": "Acoustic Grand Piano",
      "is_drum": false
    },
    {
      "pitch": 66,
      "start": 28.8,
      "end": 29.8425,
      "duration": 1.0425,
      "velocity": 61,
      "instrument": 0,
      "instrument_name": "Acoustic Grand Piano",
      "is_drum": false
    },
    {
      "pitch": 56,
      "start": 28.8,
      "end": 30.5475,
      "duration": 1.7475,
      "velocity": 51,
      "instrument": 0,
      "instrument_name": "Acoustic Grand Piano",
      "is_drum": false
    },
    {
      "pitch": 59,
      "start": 28.8,
      "end": 30.5775,
      "duration": 1.7775,
      "velocity": 47,
      "instrument": 0,
      "instrument_name": "Acoustic Grand Piano",
      "is_drum": false
    },
    {
      "pitch": 40,
      "start": 28.8,
      "end": 33.945,
      "duration": 5.145,
      "velocity": 36,
      "instrument": 0,
      "instrument_name": "Acoustic Grand Piano",
      "is_drum": false
    },
    {
      "pitch": 47,
      "start": 28.8,
      "end": 34.07,
      "duration": 5.27,
      "velocity": 39,
      "instrument": 0,
      "instrument_name": "Acoustic Grand Piano",
      "is_drum": false
    },
    {
      "pitch": 63,
      "start": 30.6,
      "end": 33.54,
      "duration": 2.94,
      "velocity": 66,
      "instrument": 0,
      "instrument_name": "Acoustic Grand Piano",
      "is_drum": false
    },
    {
      "pitch": 56,
      "start": 32.4,
      "end": 34.145,
      "duration": 1.745,
      "velocity": 61,
      "instrument": 0,
      "instrument_name": "Acoustic Grand Piano",
      "is_drum": false
    },
    {
      "pitch": 59,
      "start": 35.4,
      "end": 36.0125,
      "duration": 0.6125,
      "velocity": 71,
      "instrument": 0,
      "instrument_name": "Acoustic Grand Piano",
      "is_drum": false
    },
    {
      "pitch": 61,
      "start": 36.0,
      "end": 39.5225,
      "duration": 3.5225,
      "velocity": 65,
      "instrument": 0,
      "instrument_name": "Acoustic Grand Piano",
      "is_drum": false
    },
    {
      "pitch": 45,
      "start": 36.0,
      "end": 40.4825,
      "duration": 4.4825,
      "velocity": 37,
      "instrument": 0,
      "instrument_name": "Acoustic Grand Piano",
      "is_drum": false
    },
    {
      "pitch": 52,
      "start": 36.0,
      "end": 40.675,
      "duration": 4.675,
      "velocity": 44,
      "instrument": 0,
      "instrument_name": "Acoustic Grand Piano",
      "is_drum": false
    },
    {
      "pitch": 59,
      "start": 36.0,
      "end": 40.705,
      "duration": 4.705,
      "velocity": 60,
      "instrument": 0,
      "instrument_name": "Acoustic Grand Piano",
      "is_drum": false
    },
    {
      "pitch": 61,
      "start": 36.0,
      "end": 40.7175,
      "duration": 4.7175,
      "velocity": 61,
      "instrument": 0,
      "instrument_name": "Acoustic Grand Piano",
      "is_drum": false
    },
    {
      "pitch": 64,
      "start": 41.4,
      "end": 42.0075,
      "duration": 0.6075,
      "velocity": 52,
      "instrument": 0,
      "instrument_name": "Acoustic Grand Piano",
      "is_drum": false
    },
    {
      "pitch": 66,
      "start": 42.0,
      "end": 42.585,
      "duration": 0.585,
      "velocity": 62,
      "instrument": 0,
      "instrument_name": "Acoustic Grand Piano",
      "is_drum": false
    },
    {
      "pitch": 71,
      "start": 42.6,
      "end": 43.2125,
      "duration": 0.6125,
      "velocity": 69,
      "instrument": 0,
      "instrument_name": "Acoustic Grand Piano",
      "is_drum": false
    },
    {
      "pitch": 66,
      "start": 43.2,
      "end": 45.0075,
      "duration": 1.8075,
      "velocity": 62,
      "instrument": 0,
      "instrument_name": "Acoustic Grand Piano",
      "is_drum": false
    },
    {
      "pitch": 66,
      "start": 43.2,
      "end": 48.6675,
      "duration": 5.4675,
      "velocity": 65,
      "instrument": 0,
      "instrument_name": "Acoustic Grand Piano",
      "is_drum": false
    },
    {
      "pitch": 44,
      "start": 43.2,
      "end": 48.725,
      "duration": 5.525,
      "velocity": 42,
      "instrument": 0,
      "instrument_name": "Acoustic Grand Piano",
      "is_drum": false
    },
    {
      "pitch": 54,
      "start": 43.2,
      "end": 48.7625,
      "duration": 5.5625,
      "velocity": 51,
      "instrument": 0,
      "instrument_name": "Acoustic Grand Piano",
      "is_drum": false
    },
    {
      "pitch": 59,
      "start": 43.2,
      "end": 48.845,
      "duration": 5.645,
      "velocity": 61,
      "instrument": 0,
      "instrument_name": "Acoustic Grand Piano",
      "is_drum": false
    },
    {
      "pitch": 64,
      "start": 45.0,
      "end": 46.795,
      "duration": 1.795,
      "velocity": 61,
      "instrument": 0,
      "instrument_name": "Acoustic Grand Piano",
      "is_drum": false
    },
    {
      "pitch": 59,
      "start": 48.6,
      "end": 49.195,
      "duration": 0.595,
      "velocity": 71,
      "instrument": 0,
      "instrument_name": "Acoustic Grand Piano",
      "is_drum": false
    },
    {
      "pitch": 57,
      "start": 49.2,
      "end": 49.82,
      "duration": 0.62,
      "velocity": 64,
      "instrument": 0,
      "instrument_name": "Acoustic Grand Piano",
      "is_drum": false
    },
    {
      "pitch": 56,
      "start": 49.8,
      "end": 50.4125,
      "duration": 0.6125,
      "velocity": 65,
      "instrument": 0,
      "instrument_name": "Acoustic Grand Piano",
      "is_drum": false
    },
    {
      "pitch": 57,
      "start": 50.4,
      "end": 50.9925,
      "duration": 0.5925,
      "velocity": 58,
      "instrument": 0,
      "instrument_name": "Acoustic Grand Piano",
      "is_drum": false
    },
    {
      "pitch": 64,
      "start": 50.4,
      "end": 56.4675,
      "duration": 6.0675,
      "velocity": 65,
      "instrument": 0,
      "instrument_name": "Acoustic Grand Piano",
      "is_drum": false
    },
    {
      "pitch": 42,
      "start": 50.4,
      "end": 56.5575,
      "duration": 6.1575,
      "velocity": 45,
      "instrument": 0,
      "instrument_name": "Acoustic Grand Piano",
      "is_drum": false
    },
    {
      "pitch": 57,
      "start": 50.4,
      "end": 56.5925,
      "duration": 6.1925,
      "velocity": 65,
      "instrument": 0,
      "instrument_name": "Acoustic Grand Piano",
      "is_drum": false
    },
    {
      "pitch": 52,
      "start": 50.4,
      "end": 56.7025,
      "duration": 6.3025,
      "velocity": 38,
      "instrument": 0,
      "instrument_name": "Acoustic Grand Piano",
      "is_drum": false
    },
    {
      "pitch": 64,
      "start": 51.0,
      "end": 52.875,
      "duration": 1.875,
      "velocity": 63,
      "instrument": 0,
      "instrument_name": "Acoustic Grand Piano",
      "is_drum": false
    },
    {
      "pitch": 64,
      "start": 54.0,
      "end": 55.2075,
      "duration": 1.2075,
      "velocity": 67,
      "instrument": 0,
      "instrument_name": "Acoustic Grand Piano",
      "is_drum": false
    },
    {
      "pitch": 63,
      "start": 55.2,
      "end": 55.7725,
      "duration": 0.5725,
      "velocity": 65,
      "instrument": 0,
      "instrument_name": "Acoustic Grand Piano",
      "is_drum": false
    },
    {
      "pitch": 61,
      "start": 55.8,
      "end": 56.9775,
      "duration": 1.1775,
      "velocity": 65,
      "instrument": 0,
      "instrument_name": "Acoustic Grand Piano",
      "is_drum": false
    },
    {
      "pitch": 59,
      "start": 57.0,
      "end": 57.45,
      "duration": 0.45,
      "velocity": 60,
      "instrument": 0,
      "instrument_name": "Acoustic Grand Piano",
      "is_drum": false
    },
    {
      "pitch": 59,
      "start": 57.6,
      "end": 61.1825,
      "duration": 3.5825,
      "velocity": 63,
      "instrument": 0,
      "instrument_name": "Acoustic Grand Piano",
      "is_drum": false
    },
    {
      "pitch": 54,
      "start": 57.6,
      "end": 63.87,
      "duration": 6.27,
      "velocity": 45,
      "instrument": 0,
      "instrument_name": "Acoustic Grand Piano",
      "is_drum": false
    },
    {
      "pitch": 56,
      "start": 57.6,
      "end": 63.8825,
      "duration": 6.2825,
      "velocity": 48,
      "instrument": 0,
      "instrument_name": "Acoustic Grand Piano",
      "is_drum": false
    },
    {
      "pitch": 63,
      "start": 57.6,
      "end": 63.9,
      "duration": 6.3,
      "velocity": 54,
      "instrument": 0,
      "instrument_name": "Acoustic Grand Piano",
      "is_drum": false
    },
    {
      "pitch": 40,
      "start": 57.6,
      "end": 63.955,
      "duration": 6.355,
      "velocity": 33,
      "instrument": 0,
      "instrument_name": "Acoustic Grand Piano",
      "is_drum": false
    },
    {
      "pitch": 59,
      "start": 64.2,
      "end": 64.7875,
      "duration": 0.5875,
      "velocity": 72,
      "instrument": 0,
      "instrument_name": "Acoustic Grand Piano",
      "is_drum": false
    },
    {
      "pitch": 61,
      "start": 64.8,
      "end": 68.4025,
      "duration": 3.6025,
      "velocity": 70,
      "instrument": 0,
      "instrument_name": "Acoustic Grand Piano",
      "is_drum": false
    },
    {
      "pitch": 59,
      "start": 64.8,
      "end": 67.25,
      "duration": 2.45,
      "velocity": 69,
      "instrument": 0,
      "instrument_name": "Acoustic Grand Piano",
      "is_drum": false
    },
    {
      "pitch": 61,
      "start": 64.8,
      "end": 67.3125,
      "duration": 2.5125,
      "velocity": 61,
      "instrument": 0,
      "instrument_name": "Acoustic Grand Piano",
      "is_drum": false
    },
    {
      "pitch": 45,
      "start": 64.8,
      "end": 69.155,
      "duration": 4.355,
      "velocity": 47,
      "instrument": 0,
      "instrument_name": "Acoustic Grand Piano",
      "is_drum": false
    },
    {
      "pitch": 52,
      "start": 64.8,
      "end": 69.285,
      "duration": 4.485,
      "velocity": 47,
      "instrument": 0,
      "instrument_name": "Acoustic Grand Piano",
      "is_drum": false
    },
    {
      "pitch": 64,
      "start": 68.4,
      "end": 68.8625,
      "duration": 0.4625,
      "velocity": 74,
      "instrument": 0,
      "instrument_name": "Acoustic Grand Piano",
      "is_drum": false
    },
    {
      "pitch": 59,
      "start": 68.4,
      "end": 68.8825,
      "duration": 0.4825,
      "velocity": 71,
      "instrument": 0,
      "instrument_name": "Acoustic Grand Piano",
      "is_drum": false
    },
    {
      "pitch": 64,
      "start": 70.2,
      "end": 70.8225,
      "duration": 0.6225,
      "velocity": 65,
      "instrument": 0,
      "instrument_name": "Acoustic Grand Piano",
      "is_drum": false
    },
    {
      "pitch": 66,
      "start": 70.8,
      "end": 71.3675,
      "duration": 0.5675,
      "velocity": 57,
      "instrument": 0,
      "instrument_name": "Acoustic Grand Piano",
      "is_drum": false
    },
    {
      "pitch": 71,
      "start": 71.4,
      "end": 72.005,
      "duration": 0.605,
      "velocity": 70,
      "instrument": 0,
      "instrument_name": "Acoustic Grand Piano",
      "is_drum": false
    },
    {
      "pitch": 66,
      "start": 72.0,
      "end": 73.83,
      "duration": 1.83,
      "velocity": 66,
      "instrument": 0,
      "instrument_name": "Acoustic Grand Piano",
      "is_drum": false
    },
    {
      "pitch": 59,
      "start": 72.0,
      "end": 75.0725,
      "duration": 3.0725,
      "velocity": 66,
      "instrument": 0,
      "instrument_name": "Acoustic Grand Piano",
      "is_drum": false
    },
    {
      "pitch": 66,
      "start": 72.0,
      "end": 75.0775,
      "duration": 3.0775,
      "velocity": 68,
      "instrument": 0,
      "instrument_name": "Acoustic Grand Piano",
      "is_drum": false
    },
    {
      "pitch": 54,
      "start": 72.0,
      "end": 77.5075,
      "duration": 5.5075,
      "velocity": 50,
      "instrument": 0,
      "instrument_name": "Acoustic Grand Piano",
      "is_drum": false
    },
    {
      "pitch": 44,
      "start": 72.0,
      "end": 77.5775,
      "duration": 5.5775,
      "velocity": 49,
      "instrument": 0,
      "instrument_name": "Acoustic Grand Piano",
      "is_drum": false
    },
    {
      "pitch": 64,
      "start": 73.8,
      "end": 75.57,
      "duration": 1.77,
      "velocity": 59,
      "instrument": 0,
      "instrument_name": "Acoustic Grand Piano",
      "is_drum": false
    },
    {
      "pitch": 64,
      "start": 75.6,
      "end": 76.325,
      "duration": 0.725,
      "velocity": 71,
      "instrument": 0,
      "instrument_name": "Acoustic Grand Piano",
      "is_drum": false
    },
    {
      "pitch": 59,
      "start": 77.4,
      "end": 77.99,
      "duration": 0.59,
      "velocity": 66,
      "instrument": 0,
      "instrument_name": "Acoustic Grand Piano",
      "is_drum": false
    },
    {
      "pitch": 57,
      "start": 78.0,
      "end": 78.5925,
      "duration": 0.5925,
      "velocity": 58,
      "instrument": 0,
      "instrument_name": "Acoustic Grand Piano",
      "is_drum": false
    },
    {
      "pitch": 56,
      "start": 78.6,
      "end": 79.2075,
      "duration": 0.6075,
      "velocity": 63,
      "instrument": 0,
      "instrument_name": "Acoustic Grand Piano",
      "is_drum": false
    },
    {
      "pitch": 57,
      "start": 79.2,
      "end": 79.785,
      "duration": 0.585,
      "velocity": 61,
      "instrument": 0,
      "instrument_name": "Acoustic Grand Piano",
      "is_drum": false
    },
    {
      "pitch": 57,
      "start": 79.2,
      "end": 82.675,
      "duration": 3.475,
      "velocity": 72,
      "instrument": 0,
      "instrument_name": "Acoustic Grand Piano",
      "is_drum": false
    },
    {
      "pitch": 42,
      "start": 79.2,
      "end": 85.455,
      "duration": 6.255,
      "velocity": 50,
      "instrument": 0,
      "instrument_name": "Acoustic Grand Piano",
      "is_drum": false
    },
    {
      "pitch": 52,
      "start": 79.2,
      "end": 85.53,
      "duration": 6.33,
      "velocity": 54,
      "instrument": 0,
      "instrument_name": "Acoustic Grand Piano",
      "is_drum": false
    },
    {
      "pitch": 64,
      "start": 79.8,
      "end": 82.1075,
      "duration": 2.3075,
      "velocity": 67,
      "instrument": 0,
      "instrument_name": "Acoustic Grand Piano",
      "is_drum": false
    },
    {
      "pitch": 63,
      "start": 82.2,
      "end": 82.6425,
      "duration": 0.4425,
      "velocity": 69,
      "instrument": 0,
      "instrument_name": "Acoustic Grand Piano",
      "is_drum": false
    },
    {
      "pitch": 64,
      "start": 82.8,
      "end": 83.7,
      "duration": 0.9,
      "velocity": 56,
      "instrument": 0,
      "instrument_name": "Acoustic Grand Piano",
      "is_drum": false
    },
    {
      "pitch": 64,
      "start": 82.8,
      "end": 84.595,
      "duration": 1.795,
      "velocity": 76,
      "instrument": 0,
      "instrument_name": "Acoustic Grand Piano",
      "is_drum": false
    },
    {
      "pitch": 63,
      "start": 83.7,
      "end": 84.615,
      "duration": 0.915,
      "velocity": 69,
      "instrument": 0,
      "instrument_name": "Acoustic Grand Piano",
      "is_drum": false
    },
    {
      "pitch": 61,
      "start": 84.6,
      "end": 85.7475,
      "duration": 1.1475,
      "velocity": 68,
      "instrument": 0,
      "instrument_name": "Acoustic Grand Piano",
      "is_drum": false
    },
    {
      "pitch": 59,
      "start": 85.8,
      "end": 86.2125,
      "duration": 0.4125,
      "velocity": 66,
      "instrument": 0,
      "instrument_name": "Acoustic Grand Piano",
      "is_drum": false
    },
    {
      "pitch": 59,
      "start": 86.4,
      "end": 90.09,
      "duration": 3.69,
      "velocity": 69,
      "instrument": 0,
      "instrument_name": "Acoustic Grand Piano",
      "is_drum": false
    },
    {
      "pitch": 63,
      "start": 86.4,
      "end": 89.28,
      "duration": 2.88,
      "velocity": 59,
      "instrument": 0,
      "instrument_name": "Acoustic Grand Piano",
      "is_drum": false
    },
    {
      "pitch": 56,
      "start": 86.4,
      "end": 89.2825,
      "duration": 2.8825,
      "velocity": 65,
      "instrument": 0,
      "instrument_name": "Acoustic Grand Piano",
      "is_drum": false
    },
    {
      "pitch": 40,
      "start": 86.4,
      "end": 93.09,
      "duration": 6.69,
      "velocity": 35,
      "instrument": 0,
      "instrument_name": "Acoustic Grand Piano",
      "is_drum": false
    },
    {
      "pitch": 52,
      "start": 86.4,
      "end": 93.3,
      "duration": 6.9,
      "velocity": 54,
      "instrument": 0,
      "instrument_name": "Acoustic Grand Piano",
      "is_drum": false
    },
    {
      "pitch": 54,
      "start": 90.0,
      "end": 90.6075,
      "duration": 0.6075,
      "velocity": 45,
      "instrument": 0,
      "instrument_name": "Acoustic Grand Piano",
      "is_drum": false
    },
    {
      "pitch": 59,
      "start": 90.0,
      "end": 90.6225,
      "duration": 0.6225,
      "velocity": 39,
      "instrument": 0,
      "instrument_name": "Acoustic Grand Piano",
      "is_drum": false
    },
    {
      "pitch": 76,
      "start": 91.8,
      "end": 91.9825,
      "duration": 0.1825,
      "velocity": 39,
      "instrument": 0,
      "instrument_name": "Acoustic Grand Piano",
      "is_drum": false
    },
    {
      "pitch": 71,
      "start": 91.8,
      "end": 92.0,
      "duration": 0.2,
      "velocity": 38,
      "instrument": 0,
      "instrument_name": "Acoustic Grand Piano",
      "is_drum": false
    },
    {
      "pitch": 73,
      "start": 92.4,
      "end": 92.45,
      "duration": 0.05,
      "velocity": 57,
      "instrument": 0,
      "instrument_name": "Acoustic Grand Piano",
      "is_drum": false
    },
    {
      "pitch": 78,
      "start": 92.4,
      "end": 92.5275,
      "duration": 0.1275,
      "velocity": 61,
      "instrument": 0,
      "instrument_name": "Acoustic Grand Piano",
      "is_drum": false
    },
    {
      "pitch": 66,
      "start": 93.0,
      "end": 93.5275,
      "duration": 0.5275,
      "velocity": 88,
      "instrument": 0,
      "instrument_name": "Acoustic Grand Piano",
      "is_drum": false
    },
    {
      "pitch": 83,
      "start": 93.0,
      "end": 93.06,
      "duration": 0.06,
      "velocity": 77,
      "instrument": 0,
      "instrument_name": "Acoustic Grand Piano",
      "is_drum": false
    }
  ],
  "embedding": [
    0.0,
    0.0967741935483871,
    0.0,
    0.04838709677419355,
    0.25,
    0.0,
    0.1693548387096774,
    0.0,
    0.12903225806451613,
    0.10483870967741936,
    0.0,
    0.20161290322580644,
    0.0975609756097561,
    0.0,
    0.024390243902439025,
    0.0,
    0.008130081300813009,
    0.04065040650406504,
    0.0,
    0.0975609756097561,
    0.024390243902439025,
    0.016260162601626018,
    0.06504065040650407,
    0.04878048780487805,
    0.06504065040650407,
    0.024390243902439025,
    0.08943089430894309,
    0.04878048780487805,
    0.024390243902439025,
    0.10569105691056911,
    0.0,
    0.08943089430894309,
    0.008130081300813009,
    0.0,
    0.024390243902439025,
    0.0,
    0.0975609756097561,
    0.0,
    0.0,
    0.25,
    0.43548387096774194,
    0.29838709677419356,
    0.016129032258064516,
    0.0,
    0.0,
    0.04032258064516129,
    0.11290322580645161,
    0.04838709677419355,
    0.25,
    0.12096774193548387,
    0.1693548387096774,
    0.25806451612903225,
    0.0,
    0.0,
    0.0,
    0.48503937007874015,
    0.2225,
    0.4456692913385827,
    0.2925,
    0.23818,
    0.22280000000000003,
    0.25,
    0.1559,
    0.1532258064516129,
    0.12096774193548387,
    0.08870967741935484,
    0.07258064516129033,
    0.06451612903225806,
    0.056451612903225805,
    0.056451612903225805,
    0.04838709677419355,
    0.04838709677419355,
    0.04838709677419355,
    0.03225806451612903,
    0.03225806451612903,
    0.024193548387096774,
    0.024193548387096774,
    0.024193548387096774,
    0.024193548387096774,
    0.016129032258064516,
    0.016129032258064516,
    0.016129032258064516,
    0.016129032258064516,
    0.008064516129032258,
    0.008064516129032258,
    0.0,
    0.0,
    0.0,
    0.0,
    0.0,
    0.0,
    0.0,
    0.0,
    0.0,
    0.0,
    0.0,
    0.0,
    0.0,
    0.0,
    0.0,
    0.0,
    0.0,
    0.0,
    0.0,
    0.0,
    0.0,
    0.0,
    0.0,
    0.0,
    0.0,
    0.0,
    0.0,
    0.0,
    0.0,
    0.0,
    0.0,
    0.0,
    0.0,
    0.0,
    0.0,
    0.0,
    0.0,
    0.0,
    0.0,
    0.0,
    0.0,
    0.0,
    0.0
  ],
  "pitch_histogram": [
    0.0,
    0.0,
    0.0,
    0.0,
    0.0,
    0.0,
    0.0,
    0.0,
    0.0,
    0.0,
    0.0,
    0.0,
    0.0,
    0.0,
    0.0,
    0.0,
    0.0,
    0.0,
    0.0,
    0.0,
    0.0,
    0.0,
    0.0,
    0.0,
    0.0,
    0.0,
    0.0,
    0.0,
    0.0,
    0.0,
    0.0,
    0.0,
    0.0,
    0.0,
    0.0,
    0.0,
    0.0,
    0.0,
    0.0,
    0.0,
    0.024193548387096774,
    0.0,
    0.024193548387096774,
    0.0,
    0.016129032258064516,
    0.016129032258064516,
    0.0,
    0.008064516129032258,
    0.0,
    0.0,
    0.0,
    0.0,
    0.04838709677419355,
    0.0,
    0.03225806451612903,
    0.0,
    0.056451612903225805,
    0.07258064516129033,
    0.0,
    0.12096774193548387,
    0.0,
    0.06451612903225806,
    0.0,
    0.04838709677419355,
    0.1532258064516129,
    0.0,
    0.08870967741935484,
    0.0,
    0.04838709677419355,
    0.016129032258064516,
    0.0,
    0.056451612903225805,
    0.0,
    0.03225806451612903,
    0.0,
    0.0,
    0.024193548387096774,
    0.0,
    0.024193548387096774,
    0.0,
    0.008064516129032258,
    0.0,
    0.0,
    0.016129032258064516,
    0.0,
    0.0,
    0.0,
    0.0,
    0.0,
    0.0,
    0.0,
    0.0,
    0.0,
    0.0,
    0.0,
    0.0,
    0.0,
    0.0,
    0.0,
    0.0,
    0.0,
    0.0,
    0.0,
    0.0,
    0.0,
    0.0,
    0.0,
    0.0,
    0.0,
    0.0,
    0.0,
    0.0,
    0.0,
    0.0,
    0.0,
    0.0,
    0.0,
    0.0,
    0.0,
    0.0,
    0.0,
    0.0,
    0.0,
    0.0,
    0.0,
    0.0,
    0.0,
    0.0
  ],
  "pitch_class_histogram": [
    0.0,
    0.0967741935483871,
    0.0,
    0.04838709677419355,
    0.25,
    0.0,
    0.1693548387096774,
    0.0,
    0.12903225806451613,
    0.10483870967741936,
    0.0,
    0.20161290322580644
  ],
  "interval_histogram": [
    0.0975609756097561,
    0.0,
    0.024390243902439025,
    0.0,
    0.008130081300813009,
    0.04065040650406504,
    0.0,
    0.0975609756097561,
    0.024390243902439025,
    0.016260162601626018,
    0.06504065040650407,
    0.04878048780487805,
    0.06504065040650407,
    0.024390243902439025,
    0.08943089430894309,
    0.04878048780487805,
    0.024390243902439025,
    0.10569105691056911,
    0.0,
    0.08943089430894309,
    0.008130081300813009,
    0.0,
    0.024390243902439025,
    0.0,
    0.0975609756097561
  ],
  "velocity_histogram": [
    0.0,
    0.0,
    0.25,
    0.43548387096774194,
    0.29838709677419356,
    0.016129032258064516,
    0.0,
    0.0
  ],
  "duration_histogram": [
    0.04032258064516129,
    0.11290322580645161,
    0.04838709677419355,
    0.25,
    0.12096774193548387,
    0.1693548387096774,
    0.25806451612903225,
    0.0,
    0.0,
    0.0
  ]
}