{
  "stats": {
    "filename": "초봄_BPM65_4-4.mid",
    "total_notes": 182,
    "total_duration_sec": 47.88,
    "avg_tempo": 65.0,
    "pitch_range": [
      40,
      76
    ],
    "pitch_mean": 58.2,
    "pitch_std": 7.0,
    "velocity_range": [
      34,
      99
    ],
    "velocity_mean": 61.0,
    "velocity_std": 12.2,
    "duration_mean": 0.8138,
    "duration_std": 0.5179,
    "estimated_key": "E",
    "num_instruments": 2,
    "time_signatures": [
      "4/4"
    ]
  },
  "composer_tags": {
    "rhythm_type": "moderate",
    "rhythm_regularity": 0.356,
    "note_density_per_sec": 3.8,
    "avg_ioi": 0.4978,
    "harmony_type": "triadic",
    "harmonic_brightness": 0.346,
    "harmony_ratio": 0.687,
    "avg_polyphony": 3.79,
    "max_polyphony": 6,
    "accompaniment_pattern": "block_chord",
    "arpeggio_ratio": 0.017,
    "voicing_type": "open",
    "avg_voicing_spread": 14.1,
    "pitch_range": 36,
    "register": "tenor",
    "dynamic_profile": "expressive",
    "dynamic_level": "mezzo-forte",
    "velocity_range": 65,
    "tempo_bpm": 65.0,
    "tempo_category": "adagio"
  },
  "notes": [
    {
      "pitch": 57,
      "start": 3.2308,
      "end": 3.6769,
      "duration": 0.4462,
      "velocity": 68,
      "instrument": 0,
      "instrument_name": "Acoustic Grand Piano",
      "is_drum": false
    },
    {
      "pitch": 61,
      "start": 3.6923,
      "end": 4.125,
      "duration": 0.4327,
      "velocity": 61,
      "instrument": 0,
      "instrument_name": "Acoustic Grand Piano",
      "is_drum": false
    },
    {
      "pitch": 45,
      "start": 3.6923,
      "end": 4.8038,
      "duration": 1.1115,
      "velocity": 39,
      "instrument": 0,
      "instrument_name": "Acoustic Grand Piano",
      "is_drum": false
    },
    {
      "pitch": 61,
      "start": 3.6923,
      "end": 4.8442,
      "duration": 1.1519,
      "velocity": 61,
      "instrument": 0,
      "instrument_name": "Acoustic Grand Piano",
      "is_drum": false
    },
    {
      "pitch": 52,
      "start": 3.6923,
      "end": 4.8904,
      "duration": 1.1981,
      "velocity": 34,
      "instrument": 0,
      "instrument_name": "Acoustic Grand Piano",
      "is_drum": false
    },
    {
      "pitch": 57,
      "start": 3.6923,
      "end": 4.9115,
      "duration": 1.2192,
      "velocity": 64,
      "instrument": 0,
      "instrument_name": "Acoustic Grand Piano",
      "is_drum": false
    },
    {
      "pitch": 64,
      "start": 4.1538,
      "end": 4.6096,
      "duration": 0.4558,
      "velocity": 70,
      "instrument": 0,
      "instrument_name": "Acoustic Grand Piano",
      "is_drum": false
    },
    {
      "pitch": 57,
      "start": 5.0769,
      "end": 5.5288,
      "duration": 0.4519,
      "velocity": 61,
      "instrument": 0,
      "instrument_name": "Acoustic Grand Piano",
      "is_drum": false
    },
    {
      "pitch": 56,
      "start": 5.5385,
      "end": 6.0365,
      "duration": 0.4981,
      "velocity": 70,
      "instrument": 0,
      "instrument_name": "Acoustic Grand Piano",
      "is_drum": false
    },
    {
      "pitch": 56,
      "start": 5.5385,
      "end": 6.6461,
      "duration": 1.1077,
      "velocity": 53,
      "instrument": 0,
      "instrument_name": "Acoustic Grand Piano",
      "is_drum": false
    },
    {
      "pitch": 59,
      "start": 5.5385,
      "end": 6.6692,
      "duration": 1.1308,
      "velocity": 56,
      "instrument": 0,
      "instrument_name": "Acoustic Grand Piano",
      "is_drum": false
    },
    {
      "pitch": 52,
      "start": 5.5385,
      "end": 6.7038,
      "duration": 1.1654,
      "velocity": 37,
      "instrument": 0,
      "instrument_name": "Acoustic Grand Piano",
      "is_drum": false
    },
    {
      "pitch": 44,
      "start": 5.5385,
      "end": 6.7096,
      "duration": 1.1712,
      "velocity": 47,
      "instrument": 0,
      "instrument_name": "Acoustic Grand Piano",
      "is_drum": false
    },
    {
      "pitch": 64,
      "start": 6.0,
      "end": 6.4808,
      "duration": 0.4808,
      "velocity": 72,
      "instrument": 0,
      "instrument_name": "Acoustic Grand Piano",
      "is_drum": false
    },
    {
      "pitch": 61,
      "start": 6.9231,
      "end": 7.1192,
      "duration": 0.1962,
      "velocity": 60,
      "instrument": 0,
      "instrument_name": "Acoustic Grand Piano",
      "is_drum": false
    },
    {
      "pitch": 64,
      "start": 7.1538,
      "end": 7.3865,
      "duration": 0.2327,
      "velocity": 54,
      "instrument": 0,
      "instrument_name": "Acoustic Grand Piano",
      "is_drum": false
    },
    {
      "pitch": 67,
      "start": 7.3846,
      "end": 7.7654,
      "duration": 0.3808,
      "velocity": 68,
      "instrument": 0,
      "instrument_name": "Acoustic Grand Piano",
      "is_drum": false
    },
    {
      "pitch": 59,
      "start": 7.3846,
      "end": 8.4404,
      "duration": 1.0558,
      "velocity": 39,
      "instrument": 0,
      "instrument_name": "Acoustic Grand Piano",
      "is_drum": false
    },
    {
      "pitch": 43,
      "start": 7.3846,
      "end": 8.4788,
      "duration": 1.0942,
      "velocity": 38,
      "instrument": 0,
      "instrument_name": "Acoustic Grand Piano",
      "is_drum": false
    },
    {
      "pitch": 64,
      "start": 7.3846,
      "end": 8.4808,
      "duration": 1.0962,
      "velocity": 54,
      "instrument": 0,
      "instrument_name": "Acoustic Grand Piano",
      "is_drum": false
    },
    {
      "pitch": 55,
      "start": 7.3846,
      "end": 8.55,
      "duration": 1.1654,
      "velocity": 46,
      "instrument": 0,
      "instrument_name": "Acoustic Grand Piano",
      "is_drum": false
    },
    {
      "pitch": 52,
      "start": 7.3846,
      "end": 8.5788,
      "duration": 1.1942,
      "velocity": 36,
      "instrument": 0,
      "instrument_name": "Acoustic Grand Piano",
      "is_drum": false
    },
    {
      "pitch": 66,
      "start": 7.8461,
      "end": 8.1269,
      "duration": 0.2808,
      "velocity": 57,
      "instrument": 0,
      "instrument_name": "Acoustic Grand Piano",
      "is_drum": false
    },
    {
      "pitch": 66,
      "start": 8.3077,
      "end": 8.7423,
      "duration": 0.4346,
      "velocity": 66,
      "instrument": 0,
      "instrument_name": "Acoustic Grand Piano",
      "is_drum": false
    },
    {
      "pitch": 64,
      "start": 8.7692,
      "end": 9.0058,
      "duration": 0.2365,
      "velocity": 56,
      "instrument": 0,
      "instrument_name": "Acoustic Grand Piano",
      "is_drum": false
    },
    {
      "pitch": 62,
      "start": 9.0,
      "end": 9.4365,
      "duration": 0.4365,
      "velocity": 69,
      "instrument": 0,
      "instrument_name": "Acoustic Grand Piano",
      "is_drum": false
    },
    {
      "pitch": 54,
      "start": 9.2308,
      "end": 10.4288,
      "duration": 1.1981,
      "velocity": 49,
      "instrument": 0,
      "instrument_name": "Acoustic Grand Piano",
      "is_drum": false
    },
    {
      "pitch": 61,
      "start": 9.2308,
      "end": 10.4961,
      "duration": 1.2654,
      "velocity": 59,
      "instrument": 0,
      "instrument_name": "Acoustic Grand Piano",
      "is_drum": false
    },
    {
      "pitch": 42,
      "start": 9.2308,
      "end": 10.5308,
      "duration": 1.3,
      "velocity": 48,
      "instrument": 0,
      "instrument_name": "Acoustic Grand Piano",
      "is_drum": false
    },
    {
      "pitch": 49,
      "start": 9.2308,
      "end": 10.5577,
      "duration": 1.3269,
      "velocity": 49,
      "instrument": 0,
      "instrument_name": "Acoustic Grand Piano",
      "is_drum": false
    },
    {
      "pitch": 58,
      "start": 9.2308,
      "end": 10.5596,
      "duration": 1.3288,
      "velocity": 52,
      "instrument": 0,
      "instrument_name": "Acoustic Grand Piano",
      "is_drum": false
    },
    {
      "pitch": 61,
      "start": 9.4615,
      "end": 10.0808,
      "duration": 0.6192,
      "velocity": 61,
      "instrument": 0,
      "instrument_name": "Acoustic Grand Piano",
      "is_drum": false
    },
    {
      "pitch": 58,
      "start": 10.1538,
      "end": 10.4635,
      "duration": 0.3096,
      "velocity": 72,
      "instrument": 0,
      "instrument_name": "Acoustic Grand Piano",
      "is_drum": false
    },
    {
      "pitch": 59,
      "start": 10.4615,
      "end": 10.7692,
      "duration": 0.3077,
      "velocity": 65,
      "instrument": 0,
      "instrument_name": "Acoustic Grand Piano",
      "is_drum": false
    },
    {
      "pitch": 61,
      "start": 10.7692,
      "end": 11.0385,
      "duration": 0.2692,
      "velocity": 62,
      "instrument": 0,
      "instrument_name": "Acoustic Grand Piano",
      "is_drum": false
    },
    {
      "pitch": 62,
      "start": 11.0769,
      "end": 11.6731,
      "duration": 0.5962,
      "velocity": 68,
      "instrument": 0,
      "instrument_name": "Acoustic Grand Piano",
      "is_drum": false
    },
    {
      "pitch": 57,
      "start": 11.0769,
      "end": 12.0192,
      "duration": 0.9423,
      "velocity": 53,
      "instrument": 0,
      "instrument_name": "Acoustic Grand Piano",
      "is_drum": false
    },
    {
      "pitch": 54,
      "start": 11.0769,
      "end": 12.0346,
      "duration": 0.9577,
      "velocity": 55,
      "instrument": 0,
      "instrument_name": "Acoustic Grand Piano",
      "is_drum": false
    },
    {
      "pitch": 62,
      "start": 11.0769,
      "end": 12.0577,
      "duration": 0.9808,
      "velocity": 58,
      "instrument": 0,
      "instrument_name": "Acoustic Grand Piano",
      "is_drum": false
    },
    {
      "pitch": 47,
      "start": 11.0769,
      "end": 12.0673,
      "duration": 0.9904,
      "velocity": 59,
      "instrument": 0,
      "instrument_name": "Acoustic Grand Piano",
      "is_drum": false
    },
    {
      "pitch": 54,
      "start": 12.0,
      "end": 12.8134,
      "duration": 0.8135,
      "velocity": 88,
      "instrument": 0,
      "instrument_name": "Acoustic Grand Piano",
      "is_drum": false
    },
    {
      "pitch": 52,
      "start": 12.9231,
      "end": 13.3942,
      "duration": 0.4712,
      "velocity": 70,
      "instrument": 0,
      "instrument_name": "Acoustic Grand Piano",
      "is_drum": false
    },
    {
      "pitch": 40,
      "start": 12.9231,
      "end": 14.0634,
      "duration": 1.1404,
      "velocity": 52,
      "instrument": 0,
      "instrument_name": "Acoustic Grand Piano",
      "is_drum": false
    },
    {
      "pitch": 52,
      "start": 12.9231,
      "end": 14.1211,
      "duration": 1.1981,
      "velocity": 49,
      "instrument": 0,
      "instrument_name": "Acoustic Grand Piano",
      "is_drum": false
    },
    {
      "pitch": 62,
      "start": 12.9231,
      "end": 14.2654,
      "duration": 1.3423,
      "velocity": 59,
      "instrument": 0,
      "instrument_name": "Acoustic Grand Piano",
      "is_drum": false
    },
    {
      "pitch": 64,
      "start": 12.9231,
      "end": 14.2692,
      "duration": 1.3462,
      "velocity": 62,
      "instrument": 0,
      "instrument_name": "Acoustic Grand Piano",
      "is_drum": false
    },
    {
      "pitch": 57,
      "start": 12.9231,
      "end": 14.3231,
      "duration": 1.4,
      "velocity": 64,
      "instrument": 0,
      "instrument_name": "Acoustic Grand Piano",
      "is_drum": false
    },
    {
      "pitch": 56,
      "start": 13.3846,
      "end": 13.7327,
      "duration": 0.3481,
      "velocity": 57,
      "instrument": 0,
      "instrument_name": "Acoustic Grand Piano",
      "is_drum": false
    },
    {
      "pitch": 62,
      "start": 13.8461,
      "end": 14.1115,
      "duration": 0.2654,
      "velocity": 70,
      "instrument": 0,
      "instrument_name": "Acoustic Grand Piano",
      "is_drum": false
    },
    {
      "pitch": 64,
      "start": 14.3077,
      "end": 14.5538,
      "duration": 0.2462,
      "velocity": 75,
      "instrument": 0,
      "instrument_name": "Acoustic Grand Piano",
      "is_drum": false
    },
    {
      "pitch": 62,
      "start": 14.7692,
      "end": 15.4192,
      "duration": 0.65,
      "velocity": 82,
      "instrument": 0,
      "instrument_name": "Acoustic Grand Piano",
      "is_drum": false
    },
    {
      "pitch": 45,
      "start": 14.7692,
      "end": 15.2769,
      "duration": 0.5077,
      "velocity": 54,
      "instrument": 0,
      "instrument_name": "Acoustic Grand Piano",
      "is_drum": false
    },
    {
      "pitch": 54,
      "start": 14.7692,
      "end": 15.2788,
      "duration": 0.5096,
      "velocity": 58,
      "instrument": 0,
      "instrument_name": "Acoustic Grand Piano",
      "is_drum": false
    },
    {
      "pitch": 62,
      "start": 14.7692,
      "end": 15.2942,
      "duration": 0.525,
      "velocity": 64,
      "instrument": 0,
      "instrument_name": "Acoustic Grand Piano",
      "is_drum": false
    },
    {
      "pitch": 57,
      "start": 14.7692,
      "end": 15.3077,
      "duration": 0.5385,
      "velocity": 58,
      "instrument": 0,
      "instrument_name": "Acoustic Grand Piano",
      "is_drum": false
    },
    {
      "pitch": 61,
      "start": 15.4615,
      "end": 15.5711,
      "duration": 0.1096,
      "velocity": 65,
      "instrument": 0,
      "instrument_name": "Acoustic Grand Piano",
      "is_drum": false
    },
    {
      "pitch": 61,
      "start": 15.6923,
      "end": 16.8384,
      "duration": 1.1462,
      "velocity": 85,
      "instrument": 0,
      "instrument_name": "Acoustic Grand Piano",
      "is_drum": false
    },
    {
      "pitch": 52,
      "start": 15.6923,
      "end": 16.8942,
      "duration": 1.2019,
      "velocity": 73,
      "instrument": 0,
      "instrument_name": "Acoustic Grand Piano",
      "is_drum": false
    },
    {
      "pitch": 61,
      "start": 15.6923,
      "end": 16.8981,
      "duration": 1.2058,
      "velocity": 62,
      "instrument": 0,
      "instrument_name": "Acoustic Grand Piano",
      "is_drum": false
    },
    {
      "pitch": 40,
      "start": 17.5384,
      "end": 17.9442,
      "duration": 0.4058,
      "velocity": 48,
      "instrument": 0,
      "instrument_name": "Acoustic Grand Piano",
      "is_drum": false
    },
    {
      "pitch": 54,
      "start": 17.5384,
      "end": 17.9538,
      "duration": 0.4154,
      "velocity": 58,
      "instrument": 0,
      "instrument_name": "Acoustic Grand Piano",
      "is_drum": false
    },
    {
      "pitch": 57,
      "start": 17.5384,
      "end": 17.9788,
      "duration": 0.4404,
      "velocity": 61,
      "instrument": 0,
      "instrument_name": "Acoustic Grand Piano",
      "is_drum": false
    },
    {
      "pitch": 62,
      "start": 17.5384,
      "end": 18.0077,
      "duration": 0.4692,
      "velocity": 66,
      "instrument": 0,
      "instrument_name": "Acoustic Grand Piano",
      "is_drum": false
    },
    {
      "pitch": 57,
      "start": 18.0,
      "end": 18.4442,
      "duration": 0.4442,
      "velocity": 68,
      "instrument": 0,
      "instrument_name": "Acoustic Grand Piano",
      "is_drum": false
    },
    {
      "pitch": 61,
      "start": 18.4615,
      "end": 18.8865,
      "duration": 0.425,
      "velocity": 67,
      "instrument": 0,
      "instrument_name": "Acoustic Grand Piano",
      "is_drum": false
    },
    {
      "pitch": 61,
      "start": 18.4615,
      "end": 19.5173,
      "duration": 1.0558,
      "velocity": 65,
      "instrument": 0,
      "instrument_name": "Acoustic Grand Piano",
      "is_drum": false
    },
    {
      "pitch": 45,
      "start": 18.4615,
      "end": 19.5269,
      "duration": 1.0654,
      "velocity": 49,
      "instrument": 0,
      "instrument_name": "Acoustic Grand Piano",
      "is_drum": false
    },
    {
      "pitch": 57,
      "start": 18.4615,
      "end": 19.5884,
      "duration": 1.1269,
      "velocity": 71,
      "instrument": 0,
      "instrument_name": "Acoustic Grand Piano",
      "is_drum": false
    },
    {
      "pitch": 52,
      "start": 18.4615,
      "end": 19.6019,
      "duration": 1.1404,
      "velocity": 43,
      "instrument": 0,
      "instrument_name": "Acoustic Grand Piano",
      "is_drum": false
    },
    {
      "pitch": 64,
      "start": 18.9231,
      "end": 19.4038,
      "duration": 0.4808,
      "velocity": 76,
      "instrument": 0,
      "instrument_name": "Acoustic Grand Piano",
      "is_drum": false
    },
    {
      "pitch": 57,
      "start": 19.8461,
      "end": 20.1923,
      "duration": 0.3462,
      "velocity": 82,
      "instrument": 0,
      "instrument_name": "Acoustic Grand Piano",
      "is_drum": false
    },
    {
      "pitch": 56,
      "start": 20.3077,
      "end": 20.7327,
      "duration": 0.425,
      "velocity": 65,
      "instrument": 0,
      "instrument_name": "Acoustic Grand Piano",
      "is_drum": false
    },
    {
      "pitch": 54,
      "start": 20.3077,
      "end": 21.3346,
      "duration": 1.0269,
      "velocity": 57,
      "instrument": 0,
      "instrument_name": "Acoustic Grand Piano",
      "is_drum": false
    },
    {
      "pitch": 59,
      "start": 20.3077,
      "end": 21.4057,
      "duration": 1.0981,
      "velocity": 54,
      "instrument": 0,
      "instrument_name": "Acoustic Grand Piano",
      "is_drum": false
    },
    {
      "pitch": 44,
      "start": 20.3077,
      "end": 21.4807,
      "duration": 1.1731,
      "velocity": 50,
      "instrument": 0,
      "instrument_name": "Acoustic Grand Piano",
      "is_drum": false
    },
    {
      "pitch": 52,
      "start": 20.3077,
      "end": 21.4884,
      "duration": 1.1808,
      "velocity": 42,
      "instrument": 0,
      "instrument_name": "Acoustic Grand Piano",
      "is_drum": false
    },
    {
      "pitch": 64,
      "start": 20.7692,
      "end": 21.25,
      "duration": 0.4808,
      "velocity": 73,
      "instrument": 0,
      "instrument_name": "Acoustic Grand Piano",
      "is_drum": false
    },
    {
      "pitch": 61,
      "start": 21.6923,
      "end": 21.9442,
      "duration": 0.2519,
      "velocity": 57,
      "instrument": 0,
      "instrument_name": "Acoustic Grand Piano",
      "is_drum": false
    },
    {
      "pitch": 64,
      "start": 21.9231,
      "end": 22.1461,
      "duration": 0.2231,
      "velocity": 51,
      "instrument": 0,
      "instrument_name": "Acoustic Grand Piano",
      "is_drum": false
    },
    {
      "pitch": 67,
      "start": 22.1538,
      "end": 22.5846,
      "duration": 0.4308,
      "velocity": 68,
      "instrument": 0,
      "instrument_name": "Acoustic Grand Piano",
      "is_drum": false
    },
    {
      "pitch": 59,
      "start": 22.1538,
      "end": 23.3327,
      "duration": 1.1788,
      "velocity": 60,
      "instrument": 0,
      "instrument_name": "Acoustic Grand Piano",
      "is_drum": false
    },
    {
      "pitch": 64,
      "start": 22.1538,
      "end": 23.3711,
      "duration": 1.2173,
      "velocity": 56,
      "instrument": 0,
      "instrument_name": "Acoustic Grand Piano",
      "is_drum": false
    },
    {
      "pitch": 43,
      "start": 22.1538,
      "end": 23.4057,
      "duration": 1.2519,
      "velocity": 45,
      "instrument": 0,
      "instrument_name": "Acoustic Grand Piano",
      "is_drum": false
    },
    {
      "pitch": 55,
      "start": 22.1538,
      "end": 23.4154,
      "duration": 1.2615,
      "velocity": 38,
      "instrument": 0,
      "instrument_name": "Acoustic Grand Piano",
      "is_drum": false
    },
    {
      "pitch": 52,
      "start": 22.1538,
      "end": 23.5404,
      "duration": 1.3865,
      "velocity": 37,
      "instrument": 0,
      "instrument_name": "Acoustic Grand Piano",
      "is_drum": false
    },
    {
      "pitch": 66,
      "start": 22.6154,
      "end": 22.8942,
      "duration": 0.2788,
      "velocity": 68,
      "instrument": 0,
      "instrument_name": "Acoustic Grand Piano",
      "is_drum": false
    },
    {
      "pitch": 66,
      "start": 23.0769,
      "end": 23.5307,
      "duration": 0.4538,
      "velocity": 69,
      "instrument": 0,
      "instrument_name": "Acoustic Grand Piano",
      "is_drum": false
    },
    {
      "pitch": 64,
      "start": 23.5384,
      "end": 23.7634,
      "duration": 0.225,
      "velocity": 67,
      "instrument": 0,
      "instrument_name": "Acoustic Grand Piano",
      "is_drum": false
    },
    {
      "pitch": 62,
      "start": 23.7692,
      "end": 24.1961,
      "duration": 0.4269,
      "velocity": 57,
      "instrument": 0,
      "instrument_name": "Acoustic Grand Piano",
      "is_drum": false
    },
    {
      "pitch": 54,
      "start": 24.0,
      "end": 25.2884,
      "duration": 1.2885,
      "velocity": 68,
      "instrument": 0,
      "instrument_name": "Acoustic Grand Piano",
      "is_drum": false
    },
    {
      "pitch": 42,
      "start": 24.0,
      "end": 25.3365,
      "duration": 1.3365,
      "velocity": 52,
      "instrument": 0,
      "instrument_name": "Acoustic Grand Piano",
      "is_drum": false
    },
    {
      "pitch": 52,
      "start": 24.0,
      "end": 25.3615,
      "duration": 1.3615,
      "velocity": 40,
      "instrument": 0,
      "instrument_name": "Acoustic Grand Piano",
      "is_drum": false
    },
    {
      "pitch": 58,
      "start": 24.0,
      "end": 25.375,
      "duration": 1.375,
      "velocity": 67,
      "instrument": 0,
      "instrument_name": "Acoustic Grand Piano",
      "is_drum": false
    },
    {
      "pitch": 61,
      "start": 24.2307,
      "end": 24.6788,
      "duration": 0.4481,
      "velocity": 62,
      "instrument": 0,
      "instrument_name": "Acoustic Grand Piano",
      "is_drum": false
    },
    {
      "pitch": 58,
      "start": 24.9231,
      "end": 25.1981,
      "duration": 0.275,
      "velocity": 68,
      "instrument": 0,
      "instrument_name": "Acoustic Grand Piano",
      "is_drum": false
    },
    {
      "pitch": 59,
      "start": 25.2307,
      "end": 25.4865,
      "duration": 0.2558,
      "velocity": 59,
      "instrument": 0,
      "instrument_name": "Acoustic Grand Piano",
      "is_drum": false
    },
    {
      "pitch": 61,
      "start": 25.5384,
      "end": 25.8077,
      "duration": 0.2692,
      "velocity": 59,
      "instrument": 0,
      "instrument_name": "Acoustic Grand Piano",
      "is_drum": false
    },
    {
      "pitch": 62,
      "start": 25.8461,
      "end": 26.6961,
      "duration": 0.85,
      "velocity": 62,
      "instrument": 0,
      "instrument_name": "Acoustic Grand Piano",
      "is_drum": false
    },
    {
      "pitch": 57,
      "start": 25.8461,
      "end": 26.8404,
      "duration": 0.9942,
      "velocity": 54,
      "instrument": 0,
      "instrument_name": "Acoustic Grand Piano",
      "is_drum": false
    },
    {
      "pitch": 54,
      "start": 25.8461,
      "end": 26.8596,
      "duration": 1.0135,
      "velocity": 61,
      "instrument": 0,
      "instrument_name": "Acoustic Grand Piano",
      "is_drum": false
    },
    {
      "pitch": 62,
      "start": 25.8461,
      "end": 26.8942,
      "duration": 1.0481,
      "velocity": 66,
      "instrument": 0,
      "instrument_name": "Acoustic Grand Piano",
      "is_drum": false
    },
    {
      "pitch": 47,
      "start": 25.8461,
      "end": 26.9673,
      "duration": 1.1212,
      "velocity": 45,
      "instrument": 0,
      "instrument_name": "Acoustic Grand Piano",
      "is_drum": false
    },
    {
      "pitch": 54,
      "start": 26.7692,
      "end": 27.6596,
      "duration": 0.8904,
      "velocity": 78,
      "instrument": 0,
      "instrument_name": "Acoustic Grand Piano",
      "is_drum": false
    },
    {
      "pitch": 52,
      "start": 27.6923,
      "end": 28.1154,
      "duration": 0.4231,
      "velocity": 72,
      "instrument": 0,
      "instrument_name": "Acoustic Grand Piano",
      "is_drum": false
    },
    {
      "pitch": 40,
      "start": 27.6923,
      "end": 28.7057,
      "duration": 1.0135,
      "velocity": 49,
      "instrument": 0,
      "instrument_name": "Acoustic Grand Piano",
      "is_drum": false
    },
    {
      "pitch": 62,
      "start": 27.6923,
      "end": 28.775,
      "duration": 1.0827,
      "velocity": 61,
      "instrument": 0,
      "instrument_name": "Acoustic Grand Piano",
      "is_drum": false
    },
    {
      "pitch": 57,
      "start": 27.6923,
      "end": 28.7961,
      "duration": 1.1038,
      "velocity": 66,
      "instrument": 0,
      "instrument_name": "Acoustic Grand Piano",
      "is_drum": false
    },
    {
      "pitch": 52,
      "start": 27.6923,
      "end": 28.8057,
      "duration": 1.1135,
      "velocity": 36,
      "instrument": 0,
      "instrument_name": "Acoustic Grand Piano",
      "is_drum": false
    },
    {
      "pitch": 64,
      "start": 27.6923,
      "end": 28.8173,
      "duration": 1.125,
      "velocity": 59,
      "instrument": 0,
      "instrument_name": "Acoustic Grand Piano",
      "is_drum": false
    },
    {
      "pitch": 57,
      "start": 28.1538,
      "end": 28.3673,
      "duration": 0.2135,
      "velocity": 60,
      "instrument": 0,
      "instrument_name": "Acoustic Grand Piano",
      "is_drum": false
    },
    {
      "pitch": 57,
      "start": 28.6154,
      "end": 29.1557,
      "duration": 0.5404,
      "velocity": 77,
      "instrument": 0,
      "instrument_name": "Acoustic Grand Piano",
      "is_drum": false
    },
    {
      "pitch": 57,
      "start": 29.3077,
      "end": 29.398,
      "duration": 0.0904,
      "velocity": 68,
      "instrument": 0,
      "instrument_name": "Acoustic Grand Piano",
      "is_drum": false
    },
    {
      "pitch": 57,
      "start": 29.5384,
      "end": 30.5019,
      "duration": 0.9635,
      "velocity": 87,
      "instrument": 0,
      "instrument_name": "Acoustic Grand Piano",
      "is_drum": false
    },
    {
      "pitch": 69,
      "start": 29.5384,
      "end": 30.8673,
      "duration": 1.3288,
      "velocity": 79,
      "instrument": 0,
      "instrument_name": "Acoustic Grand Piano",
      "is_drum": false
    },
    {
      "pitch": 45,
      "start": 29.5384,
      "end": 32.6211,
      "duration": 3.0827,
      "velocity": 59,
      "instrument": 0,
      "instrument_name": "Acoustic Grand Piano",
      "is_drum": false
    },
    {
      "pitch": 52,
      "start": 30.0,
      "end": 32.6557,
      "duration": 2.6558,
      "velocity": 49,
      "instrument": 0,
      "instrument_name": "Acoustic Grand Piano",
      "is_drum": false
    },
    {
      "pitch": 59,
      "start": 30.4615,
      "end": 30.9019,
      "duration": 0.4404,
      "velocity": 58,
      "instrument": 0,
      "instrument_name": "Acoustic Grand Piano",
      "is_drum": false
    },
    {
      "pitch": 57,
      "start": 30.4615,
      "end": 32.4923,
      "duration": 2.0308,
      "velocity": 49,
      "instrument": 0,
      "instrument_name": "Acoustic Grand Piano",
      "is_drum": false
    },
    {
      "pitch": 64,
      "start": 30.923,
      "end": 31.3904,
      "duration": 0.4673,
      "velocity": 56,
      "instrument": 0,
      "instrument_name": "Acoustic Grand Piano",
      "is_drum": false
    },
    {
      "pitch": 61,
      "start": 31.3846,
      "end": 32.4673,
      "duration": 1.0827,
      "velocity": 65,
      "instrument": 0,
      "instrument_name": "Acoustic Grand Piano",
      "is_drum": false
    },
    {
      "pitch": 57,
      "start": 32.7692,
      "end": 33.225,
      "duration": 0.4558,
      "velocity": 80,
      "instrument": 0,
      "instrument_name": "Acoustic Grand Piano",
      "is_drum": false
    },
    {
      "pitch": 59,
      "start": 33.2307,
      "end": 33.6692,
      "duration": 0.4385,
      "velocity": 74,
      "instrument": 0,
      "instrument_name": "Acoustic Grand Piano",
      "is_drum": false
    },
    {
      "pitch": 44,
      "start": 33.2307,
      "end": 33.6442,
      "duration": 0.4135,
      "velocity": 62,
      "instrument": 0,
      "instrument_name": "Acoustic Grand Piano",
      "is_drum": false
    },
    {
      "pitch": 62,
      "start": 33.2307,
      "end": 35.0788,
      "duration": 1.8481,
      "velocity": 63,
      "instrument": 0,
      "instrument_name": "Acoustic Grand Piano",
      "is_drum": false
    },
    {
      "pitch": 66,
      "start": 33.2307,
      "end": 35.0788,
      "duration": 1.8481,
      "velocity": 61,
      "instrument": 0,
      "instrument_name": "Acoustic Grand Piano",
      "is_drum": false
    },
    {
      "pitch": 71,
      "start": 33.2307,
      "end": 35.1038,
      "duration": 1.8731,
      "velocity": 79,
      "instrument": 0,
      "instrument_name": "Acoustic Grand Piano",
      "is_drum": false
    },
    {
      "pitch": 57,
      "start": 33.6923,
      "end": 34.1557,
      "duration": 0.4635,
      "velocity": 62,
      "instrument": 0,
      "instrument_name": "Acoustic Grand Piano",
      "is_drum": false
    },
    {
      "pitch": 54,
      "start": 33.6923,
      "end": 34.448,
      "duration": 0.7558,
      "velocity": 59,
      "instrument": 0,
      "instrument_name": "Acoustic Grand Piano",
      "is_drum": false
    },
    {
      "pitch": 61,
      "start": 34.1538,
      "end": 34.5942,
      "duration": 0.4404,
      "velocity": 64,
      "instrument": 0,
      "instrument_name": "Acoustic Grand Piano",
      "is_drum": false
    },
    {
      "pitch": 59,
      "start": 34.1538,
      "end": 34.4923,
      "duration": 0.3385,
      "velocity": 59,
      "instrument": 0,
      "instrument_name": "Acoustic Grand Piano",
      "is_drum": false
    },
    {
      "pitch": 59,
      "start": 34.6154,
      "end": 34.875,
      "duration": 0.2596,
      "velocity": 66,
      "instrument": 0,
      "instrument_name": "Acoustic Grand Piano",
      "is_drum": false
    },
    {
      "pitch": 62,
      "start": 34.8461,
      "end": 35.3019,
      "duration": 0.4558,
      "velocity": 75,
      "instrument": 0,
      "instrument_name": "Acoustic Grand Piano",
      "is_drum": false
    },
    {
      "pitch": 53,
      "start": 35.0769,
      "end": 36.4634,
      "duration": 1.3865,
      "velocity": 52,
      "instrument": 0,
      "instrument_name": "Acoustic Grand Piano",
      "is_drum": false
    },
    {
      "pitch": 56,
      "start": 35.0769,
      "end": 36.4711,
      "duration": 1.3942,
      "velocity": 49,
      "instrument": 0,
      "instrument_name": "Acoustic Grand Piano",
      "is_drum": false
    },
    {
      "pitch": 49,
      "start": 35.0769,
      "end": 36.475,
      "duration": 1.3981,
      "velocity": 56,
      "instrument": 0,
      "instrument_name": "Acoustic Grand Piano",
      "is_drum": false
    },
    {
      "pitch": 59,
      "start": 35.0769,
      "end": 36.4827,
      "duration": 1.4058,
      "velocity": 51,
      "instrument": 0,
      "instrument_name": "Acoustic Grand Piano",
      "is_drum": false
    },
    {
      "pitch": 61,
      "start": 35.3077,
      "end": 35.698,
      "duration": 0.3904,
      "velocity": 62,
      "instrument": 0,
      "instrument_name": "Acoustic Grand Piano",
      "is_drum": false
    },
    {
      "pitch": 61,
      "start": 36.0,
      "end": 36.3307,
      "duration": 0.3308,
      "velocity": 67,
      "instrument": 0,
      "instrument_name": "Acoustic Grand Piano",
      "is_drum": false
    },
    {
      "pitch": 61,
      "start": 36.0,
      "end": 36.3923,
      "duration": 0.3923,
      "velocity": 65,
      "instrument": 0,
      "instrument_name": "Acoustic Grand Piano",
      "is_drum": false
    },
    {
      "pitch": 65,
      "start": 36.3077,
      "end": 36.5923,
      "duration": 0.2846,
      "velocity": 58,
      "instrument": 0,
      "instrument_name": "Acoustic Grand Piano",
      "is_drum": false
    },
    {
      "pitch": 65,
      "start": 36.3077,
      "end": 36.6827,
      "duration": 0.375,
      "velocity": 54,
      "instrument": 0,
      "instrument_name": "Acoustic Grand Piano",
      "is_drum": false
    },
    {
      "pitch": 68,
      "start": 36.6153,
      "end": 36.923,
      "duration": 0.3077,
      "velocity": 63,
      "instrument": 0,
      "instrument_name": "Acoustic Grand Piano",
      "is_drum": false
    },
    {
      "pitch": 68,
      "start": 36.6153,
      "end": 36.7942,
      "duration": 0.1788,
      "velocity": 64,
      "instrument": 0,
      "instrument_name": "Acoustic Grand Piano",
      "is_drum": false
    },
    {
      "pitch": 71,
      "start": 36.923,
      "end": 37.5846,
      "duration": 0.6615,
      "velocity": 85,
      "instrument": 0,
      "instrument_name": "Acoustic Grand Piano",
      "is_drum": false
    },
    {
      "pitch": 42,
      "start": 36.923,
      "end": 37.2846,
      "duration": 0.3615,
      "velocity": 55,
      "instrument": 0,
      "instrument_name": "Acoustic Grand Piano",
      "is_drum": false
    },
    {
      "pitch": 61,
      "start": 36.923,
      "end": 37.8577,
      "duration": 0.9346,
      "velocity": 44,
      "instrument": 0,
      "instrument_name": "Acoustic Grand Piano",
      "is_drum": false
    },
    {
      "pitch": 71,
      "start": 36.923,
      "end": 38.0903,
      "duration": 1.1673,
      "velocity": 80,
      "instrument": 0,
      "instrument_name": "Acoustic Grand Piano",
      "is_drum": false
    },
    {
      "pitch": 64,
      "start": 36.923,
      "end": 38.2673,
      "duration": 1.3442,
      "velocity": 49,
      "instrument": 0,
      "instrument_name": "Acoustic Grand Piano",
      "is_drum": false
    },
    {
      "pitch": 52,
      "start": 37.3846,
      "end": 39.7423,
      "duration": 2.3577,
      "velocity": 57,
      "instrument": 0,
      "instrument_name": "Acoustic Grand Piano",
      "is_drum": false
    },
    {
      "pitch": 69,
      "start": 37.6153,
      "end": 37.7288,
      "duration": 0.1135,
      "velocity": 65,
      "instrument": 0,
      "instrument_name": "Acoustic Grand Piano",
      "is_drum": false
    },
    {
      "pitch": 69,
      "start": 37.8461,
      "end": 39.1077,
      "duration": 1.2615,
      "velocity": 88,
      "instrument": 0,
      "instrument_name": "Acoustic Grand Piano",
      "is_drum": false
    },
    {
      "pitch": 57,
      "start": 37.8461,
      "end": 39.8384,
      "duration": 1.9923,
      "velocity": 71,
      "instrument": 0,
      "instrument_name": "Acoustic Grand Piano",
      "is_drum": false
    },
    {
      "pitch": 61,
      "start": 38.3077,
      "end": 39.7057,
      "duration": 1.3981,
      "velocity": 55,
      "instrument": 0,
      "instrument_name": "Acoustic Grand Piano",
      "is_drum": false
    },
    {
      "pitch": 69,
      "start": 38.7692,
      "end": 39.6461,
      "duration": 0.8769,
      "velocity": 65,
      "instrument": 0,
      "instrument_name": "Acoustic Grand Piano",
      "is_drum": false
    },
    {
      "pitch": 69,
      "start": 40.3846,
      "end": 40.4846,
      "duration": 0.1,
      "velocity": 70,
      "instrument": 0,
      "instrument_name": "Acoustic Grand Piano",
      "is_drum": false
    },
    {
      "pitch": 69,
      "start": 40.6153,
      "end": 40.9961,
      "duration": 0.3808,
      "velocity": 99,
      "instrument": 0,
      "instrument_name": "Acoustic Grand Piano",
      "is_drum": false
    },
    {
      "pitch": 50,
      "start": 40.6153,
      "end": 41.0192,
      "duration": 0.4038,
      "velocity": 45,
      "instrument": 0,
      "instrument_name": "Acoustic Grand Piano",
      "is_drum": false
    },
    {
      "pitch": 69,
      "start": 40.6153,
      "end": 41.9673,
      "duration": 1.3519,
      "velocity": 67,
      "instrument": 0,
      "instrument_name": "Acoustic Grand Piano",
      "is_drum": false
    },
    {
      "pitch": 60,
      "start": 40.6153,
      "end": 41.998,
      "duration": 1.3827,
      "velocity": 62,
      "instrument": 0,
      "instrument_name": "Acoustic Grand Piano",
      "is_drum": false
    },
    {
      "pitch": 65,
      "start": 41.0769,
      "end": 41.2038,
      "duration": 0.1269,
      "velocity": 73,
      "instrument": 0,
      "instrument_name": "Acoustic Grand Piano",
      "is_drum": false
    },
    {
      "pitch": 53,
      "start": 41.0769,
      "end": 41.9192,
      "duration": 0.8423,
      "velocity": 52,
      "instrument": 0,
      "instrument_name": "Acoustic Grand Piano",
      "is_drum": false
    },
    {
      "pitch": 65,
      "start": 41.3077,
      "end": 41.9115,
      "duration": 0.6038,
      "velocity": 90,
      "instrument": 0,
      "instrument_name": "Acoustic Grand Piano",
      "is_drum": false
    },
    {
      "pitch": 57,
      "start": 41.5384,
      "end": 41.9557,
      "duration": 0.4173,
      "velocity": 49,
      "instrument": 0,
      "instrument_name": "Acoustic Grand Piano",
      "is_drum": false
    },
    {
      "pitch": 64,
      "start": 42.0,
      "end": 42.0961,
      "duration": 0.0962,
      "velocity": 67,
      "instrument": 0,
      "instrument_name": "Acoustic Grand Piano",
      "is_drum": false
    },
    {
      "pitch": 65,
      "start": 42.0,
      "end": 42.2307,
      "duration": 0.2308,
      "velocity": 44,
      "instrument": 0,
      "instrument_name": "Acoustic Grand Piano",
      "is_drum": false
    },
    {
      "pitch": 64,
      "start": 42.2307,
      "end": 42.7019,
      "duration": 0.4712,
      "velocity": 76,
      "instrument": 0,
      "instrument_name": "Acoustic Grand Piano",
      "is_drum": false
    },
    {
      "pitch": 43,
      "start": 42.4615,
      "end": 43.6615,
      "duration": 1.2,
      "velocity": 37,
      "instrument": 0,
      "instrument_name": "Acoustic Grand Piano",
      "is_drum": false
    },
    {
      "pitch": 62,
      "start": 42.4615,
      "end": 43.7365,
      "duration": 1.275,
      "velocity": 61,
      "instrument": 0,
      "instrument_name": "Acoustic Grand Piano",
      "is_drum": false
    },
    {
      "pitch": 53,
      "start": 42.4615,
      "end": 43.8403,
      "duration": 1.3788,
      "velocity": 41,
      "instrument": 0,
      "instrument_name": "Acoustic Grand Piano",
      "is_drum": false
    },
    {
      "pitch": 59,
      "start": 42.4615,
      "end": 43.8423,
      "duration": 1.3808,
      "velocity": 52,
      "instrument": 0,
      "instrument_name": "Acoustic Grand Piano",
      "is_drum": false
    },
    {
      "pitch": 62,
      "start": 42.6923,
      "end": 43.4692,
      "duration": 0.7769,
      "velocity": 74,
      "instrument": 0,
      "instrument_name": "Acoustic Grand Piano",
      "is_drum": false
    },
    {
      "pitch": 57,
      "start": 44.0769,
      "end": 44.3153,
      "duration": 0.2385,
      "velocity": 92,
      "instrument": 0,
      "instrument_name": "Acoustic Grand Piano",
      "is_drum": false
    },
    {
      "pitch": 61,
      "start": 44.3076,
      "end": 44.7153,
      "duration": 0.4077,
      "velocity": 76,
      "instrument": 0,
      "instrument_name": "Acoustic Grand Piano",
      "is_drum": false
    },
    {
      "pitch": 45,
      "start": 44.3076,
      "end": 44.7096,
      "duration": 0.4019,
      "velocity": 45,
      "instrument": 0,
      "instrument_name": "Acoustic Grand Piano",
      "is_drum": false
    },
    {
      "pitch": 61,
      "start": 44.3076,
      "end": 45.3788,
      "duration": 1.0712,
      "velocity": 75,
      "instrument": 0,
      "instrument_name": "Acoustic Grand Piano",
      "is_drum": false
    },
    {
      "pitch": 64,
      "start": 44.7692,
      "end": 46.1442,
      "duration": 1.375,
      "velocity": 83,
      "instrument": 0,
      "instrument_name": "Acoustic Grand Piano",
      "is_drum": false
    },
    {
      "pitch": 52,
      "start": 44.7692,
      "end": 45.3057,
      "duration": 0.5365,
      "velocity": 64,
      "instrument": 0,
      "instrument_name": "Acoustic Grand Piano",
      "is_drum": false
    },
    {
      "pitch": 59,
      "start": 45.2307,
      "end": 45.6903,
      "duration": 0.4596,
      "velocity": 45,
      "instrument": 0,
      "instrument_name": "Acoustic Grand Piano",
      "is_drum": false
    },
    {
      "pitch": 61,
      "start": 45.6923,
      "end": 46.2057,
      "duration": 0.5135,
      "velocity": 65,
      "instrument": 0,
      "instrument_name": "Acoustic Grand Piano",
      "is_drum": false
    },
    {
      "pitch": 69,
      "start": 46.1538,
      "end": 46.2442,
      "duration": 0.0904,
      "velocity": 62,
      "instrument": 0,
      "instrument_name": "Acoustic Grand Piano",
      "is_drum": false
    },
    {
      "pitch": 76,
      "start": 46.1538,
      "end": 46.25,
      "duration": 0.0962,
      "velocity": 51,
      "instrument": 0,
      "instrument_name": "Acoustic Grand Piano",
      "is_drum": false
    },
    {
      "pitch": 57,
      "start": 47.5384,
      "end": 47.8788,
      "duration": 0.3404,
      "velocity": 65,
      "instrument": 0,
      "instrument_name": "Acoustic Grand Piano",
      "is_drum": false
    }
  ],
  "embedding": [
    0.005494505494505495,
    0.14285714285714285,
    0.09340659340659341,
    0.0,
    0.2032967032967033,
    0.04395604395604396,
    0.0989010989010989,
    0.038461538461538464,
    0.054945054945054944,
    0.1978021978021978,
    0.02197802197802198,
    0.0989010989010989,
    0.13812154696132597,
    0.0,
    0.0,
    0.03314917127071823,
    0.03314917127071823,
    0.03867403314917127,
    0.0,
    0.04419889502762431,
    0.0055248618784530384,
    0.055248618784530384,
    0.055248618784530384,
    0.022099447513812154,
    0.08839779005524862,
    0.027624309392265192,
    0.03867403314917127,
    0.07734806629834254,
    0.03867403314917127,
    0.03314917127071823,
    0.016574585635359115,
    0.06629834254143646,
    0.03314917127071823,
    0.016574585635359115,
    0.022099447513812154,
    0.0,
    0.11602209944751381,
    0.0,
    0.0,
    0.12637362637362637,
    0.45604395604395603,
    0.34615384615384615,
    0.06593406593406594,
    0.005494505494505495,
    0.0,
    0.02197802197802198,
    0.07692307692307693,
    0.33516483516483514,
    0.14285714285714285,
    0.4010989010989011,
    0.02197802197802198,
    0.0,
    0.0,
    0.0,
    0.0,
    0.4582677165354331,
    0.175,
    0.48031496062992124,
    0.305,
    0.08138,
    0.05179,
    0.325,
    0.07980000000000001,
    0.13186813186813187,
    0.12637362637362637,
    0.0989010989010989,
    0.08791208791208792,
    0.08241758241758242,
    0.07142857142857142,
    0.054945054945054944,
    0.04395604395604396,
    0.027472527472527472,
    0.027472527472527472,
    0.027472527472527472,
    0.027472527472527472,
    0.02197802197802198,
    0.016483516483516484,
    0.016483516483516484,
    0.016483516483516484,
    0.016483516483516484,
    0.016483516483516484,
    0.016483516483516484,
    0.01098901098901099,
    0.01098901098901099,
    0.01098901098901099,
    0.01098901098901099,
    0.01098901098901099,
    0.005494505494505495,
    0.005494505494505495,
    0.005494505494505495,
    0.0,
    0.0,
    0.0,
    0.0,
    0.0,
    0.0,
    0.0,
    0.0,
    0.0,
    0.0,
    0.0,
    0.0,
    0.0,
    0.0,
    0.0,
    0.0,
    0.0,
    0.0,
    0.0,
    0.0,
    0.0,
    0.0,
    0.0,
    0.0,
    0.0,
    0.0,
    0.0,
    0.0,
    0.0,
    0.0,
    0.0,
    0.0,
    0.0,
    0.0,
    0.0,
    0.0,
    0.0,
    0.0
  ],
  "pitch_histogram": [
    0.0,
    0.0,
    0.0,
    0.0,
    0.0,
    0.0,
    0.0,
    0.0,
    0.0,
    0.0,
    0.0,
    0.0,
    0.0,
    0.0,
    0.0,
    0.0,
    0.0,
    0.0,
    0.0,
    0.0,
    0.0,
    0.0,
    0.0,
    0.0,
    0.0,
    0.0,
    0.0,
    0.0,
    0.0,
    0.0,
    0.0,
    0.0,
    0.0,
    0.0,
    0.0,
    0.0,
    0.0,
    0.0,
    0.0,
    0.0,
    0.016483516483516484,
    0.0,
    0.016483516483516484,
    0.016483516483516484,
    0.016483516483516484,
    0.027472527472527472,
    0.0,
    0.01098901098901099,
    0.0,
    0.01098901098901099,
    0.005494505494505495,
    0.0,
    0.08241758241758242,
    0.016483516483516484,
    0.054945054945054944,
    0.01098901098901099,
    0.027472527472527472,
    0.12637362637362637,
    0.02197802197802198,
    0.07142857142857142,
    0.005494505494505495,
    0.13186813186813187,
    0.08791208791208792,
    0.0,
    0.0989010989010989,
    0.027472527472527472,
    0.027472527472527472,
    0.01098901098901099,
    0.01098901098901099,
    0.04395604395604396,
    0.0,
    0.016483516483516484,
    0.0,
    0.0,
    0.0,
    0.0,
    0.005494505494505495,
    0.0,
    0.0,
    0.0,
    0.0,
    0.0,
    0.0,
    0.0,
    0.0,
    0.0,
    0.0,
    0.0,
    0.0,
    0.0,
    0.0,
    0.0,
    0.0,
    0.0,
    0.0,
    0.0,
    0.0,
    0.0,
    0.0,
    0.0,
    0.0,
    0.0,
    0.0,
    0.0,
    0.0,
    0.0,
    0.0,
    0.0,
    0.0,
    0.0,
    0.0,
    0.0,
    0.0,
    0.0,
    0.0,
    0.0,
    0.0,
    0.0,
    0.0,
    0.0,
    0.0,
    0.0,
    0.0,
    0.0,
    0.0,
    0.0,
    0.0,
    0.0
  ],
  "pitch_class_histogram": [
    0.005494505494505495,
    0.14285714285714285,
    0.09340659340659341,
    0.0,
    0.2032967032967033,
    0.04395604395604396,
    0.0989010989010989,
    0.038461538461538464,
    0.054945054945054944,
    0.1978021978021978,
    0.02197802197802198,
    0.0989010989010989
  ],
  "interval_histogram": [
    0.13812154696132597,
    0.0,
    0.0,
    0.03314917127071823,
    0.03314917127071823,
    0.03867403314917127,
    0.0,
    0.04419889502762431,
    0.0055248618784530384,
    0.055248618784530384,
    0.055248618784530384,
    0.022099447513812154,
    0.08839779005524862,
    0.027624309392265192,
    0.03867403314917127,
    0.07734806629834254,
    0.03867403314917127,
    0.03314917127071823,
    0.016574585635359115,
    0.06629834254143646,
    0.03314917127071823,
    0.016574585635359115,
    0.022099447513812154,
    0.0,
    0.11602209944751381
  ],
  "velocity_histogram": [
    0.0,
    0.0,
    0.12637362637362637,
    0.45604395604395603,
    0.34615384615384615,
    0.06593406593406594,
    0.005494505494505495,
    0.0
  ],
  "duration_histogram": [
    0.02197802197802198,
    0.07692307692307693,
    0.33516483516483514,
    0.14285714285714285,
    0.4010989010989011,
    0.02197802197802198,
    0.0,
    0.0,
    0.0,
    0.0
  ]
}