{
  "file": "두 사람_BPM70_4-4.mid",
  "midi_id": "두 사람_BPM70_4-4_aedaf9df",
  "schema_version": "2.11",
  "extracted_at": "2026-04-01T02:38:09",
  "bpm": 70.0,
  "ticks_per_beat": 480,
  "num_tracks": 4,
  "total_notes": 184,
  "total_cc_events": 49,
  "sustain_pedal_applied": true,
  "analysis_scope": {
    "melody_tracks": [
      "MELODY"
    ],
    "accompaniment_tracks": [
      "PIANO"
    ],
    "melody_excluded_from_harmony": true
  },
  "tracks": [
    {
      "index": 0,
      "name": "ÃÊº½ 65",
      "channel": 0,
      "instrument": 0,
      "note_count": 0,
      "cc_event_count": 0,
      "cc_summary": {}
    },
    {
      "index": 1,
      "name": "´ÜÇ³_BPM66_4-4",
      "channel": 0,
      "instrument": 0,
      "note_count": 0,
      "cc_event_count": 0,
      "cc_summary": {}
    },
    {
      "index": 2,
      "name": "MELODY",
      "channel": 0,
      "instrument": 0,
      "note_count": 40,
      "cc_event_count": 0,
      "cc_summary": {}
    },
    {
      "index": 3,
      "name": "PIANO",
      "channel": 0,
      "instrument": 0,
      "note_count": 144,
      "cc_event_count": 49,
      "cc_summary": {
        "64": {
          "count": 49,
          "name": "Sustain Pedal"
        }
      },
      "cc_events": [
        {
          "tick": 1905,
          "control": 64,
          "value": 0,
          "channel": 0
        },
        {
          "tick": 1994,
          "control": 64,
          "value": 127,
          "channel": 0
        },
        {
          "tick": 2875,
          "control": 64,
          "value": 0,
          "channel": 0
        },
        {
          "tick": 2971,
          "control": 64,
          "value": 127,
          "channel": 0
        },
        {
          "tick": 3833,
          "control": 64,
          "value": 0,
          "channel": 0
        },
        {
          "tick": 3922,
          "control": 64,
          "value": 127,
          "channel": 0
        },
        {
          "tick": 4817,
          "control": 64,
          "value": 0,
          "channel": 0
        },
        {
          "tick": 4908,
          "control": 64,
          "value": 127,
          "channel": 0
        },
        {
          "tick": 5286,
          "control": 64,
          "value": 0,
          "channel": 0
        },
        {
          "tick": 5366,
          "control": 64,
          "value": 127,
          "channel": 0
        },
        {
          "tick": 5760,
          "control": 64,
          "value": 127,
          "channel": 0
        },
        {
          "tick": 5777,
          "control": 64,
          "value": 0,
          "channel": 0
        },
        {
          "tick": 5868,
          "control": 64,
          "value": 127,
          "channel": 0
        },
        {
          "tick": 6120,
          "control": 64,
          "value": 127,
          "channel": 0
        },
        {
          "tick": 6698,
          "control": 64,
          "value": 0,
          "channel": 0
        },
        {
          "tick": 6788,
          "control": 64,
          "value": 127,
          "channel": 0
        },
        {
          "tick": 7675,
          "control": 64,
          "value": 0,
          "channel": 0
        },
        {
          "tick": 7768,
          "control": 64,
          "value": 127,
          "channel": 0
        },
        {
          "tick": 8611,
          "control": 64,
          "value": 0,
          "channel": 0
        },
        {
          "tick": 8709,
          "control": 64,
          "value": 127,
          "channel": 0
        },
        {
          "tick": 9086,
          "control": 64,
          "value": 0,
          "channel": 0
        },
        {
          "tick": 9184,
          "control": 64,
          "value": 127,
          "channel": 0
        },
        {
          "tick": 9614,
          "control": 64,
          "value": 0,
          "channel": 0
        },
        {
          "tick": 9658,
          "control": 64,
          "value": 127,
          "channel": 0
        },
        {
          "tick": 10537,
          "control": 64,
          "value": 0,
          "channel": 0
        },
        {
          "tick": 10626,
          "control": 64,
          "value": 127,
          "channel": 0
        },
        {
          "tick": 11423,
          "control": 64,
          "value": 0,
          "channel": 0
        },
        {
          "tick": 11565,
          "control": 64,
          "value": 127,
          "channel": 0
        },
        {
          "tick": 12461,
          "control": 64,
          "value": 0,
          "channel": 0
        },
        {
          "tick": 12534,
          "control": 64,
          "value": 127,
          "channel": 0
        },
        {
          "tick": 13440,
          "control": 64,
          "value": 127,
          "channel": 0
        },
        {
          "tick": 13440,
          "control": 64,
          "value": 0,
          "channel": 0
        },
        {
          "tick": 13485,
          "control": 64,
          "value": 127,
          "channel": 0
        },
        {
          "tick": 13920,
          "control": 64,
          "value": 127,
          "channel": 0
        },
        {
          "tick": 13920,
          "control": 64,
          "value": 0,
          "channel": 0
        },
        {
          "tick": 13965,
          "control": 64,
          "value": 127,
          "channel": 0
        },
        {
          "tick": 14400,
          "control": 64,
          "value": 127,
          "channel": 0
        },
        {
          "tick": 14400,
          "control": 64,
          "value": 0,
          "channel": 0
        },
        {
          "tick": 14445,
          "control": 64,
          "value": 127,
          "channel": 0
        },
        {
          "tick": 14880,
          "control": 64,
          "value": 127,
          "channel": 0
        },
        {
          "tick": 14880,
          "control": 64,
          "value": 0,
          "channel": 0
        },
        {
          "tick": 14925,
          "control": 64,
          "value": 127,
          "channel": 0
        },
        {
          "tick": 15360,
          "control": 64,
          "value": 127,
          "channel": 0
        },
        {
          "tick": 15360,
          "control": 64,
          "value": 0,
          "channel": 0
        },
        {
          "tick": 15405,
          "control": 64,
          "value": 127,
          "channel": 0
        },
        {
          "tick": 15840,
          "control": 64,
          "value": 127,
          "channel": 0
        },
        {
          "tick": 16275,
          "control": 64,
          "value": 127,
          "channel": 0
        },
        {
          "tick": 16275,
          "control": 64,
          "value": 0,
          "channel": 0
        },
        {
          "tick": 16373,
          "control": 64,
          "value": 127,
          "channel": 0
        }
      ]
    }
  ],
  "melody": {
    "track_names": [
      "MELODY"
    ],
    "note_count": 40,
    "pitch_range": [
      61,
      71
    ],
    "notes": [
      {
        "pitch": 64,
        "start_tick": 2400,
        "duration_ticks": 182,
        "velocity": 72
      },
      {
        "pitch": 64,
        "start_tick": 2640,
        "duration_ticks": 69,
        "velocity": 64
      },
      {
        "pitch": 64,
        "start_tick": 2760,
        "duration_ticks": 273,
        "velocity": 83
      },
      {
        "pitch": 64,
        "start_tick": 3120,
        "duration_ticks": 61,
        "velocity": 68
      },
      {
        "pitch": 64,
        "start_tick": 3240,
        "duration_ticks": 372,
        "velocity": 68
      },
      {
        "pitch": 62,
        "start_tick": 3600,
        "duration_ticks": 118,
        "velocity": 82
      },
      {
        "pitch": 64,
        "start_tick": 3720,
        "duration_ticks": 647,
        "velocity": 73
      },
      {
        "pitch": 61,
        "start_tick": 4800,
        "duration_ticks": 147,
        "velocity": 73
      },
      {
        "pitch": 61,
        "start_tick": 5040,
        "duration_ticks": 170,
        "velocity": 71
      },
      {
        "pitch": 66,
        "start_tick": 5160,
        "duration_ticks": 331,
        "velocity": 75
      },
      {
        "pitch": 64,
        "start_tick": 5520,
        "duration_ticks": 80,
        "velocity": 62
      },
      {
        "pitch": 64,
        "start_tick": 5640,
        "duration_ticks": 212,
        "velocity": 66
      },
      {
        "pitch": 62,
        "start_tick": 5880,
        "duration_ticks": 65,
        "velocity": 72
      },
      {
        "pitch": 62,
        "start_tick": 6000,
        "duration_ticks": 413,
        "velocity": 85
      },
      {
        "pitch": 62,
        "start_tick": 7080,
        "duration_ticks": 133,
        "velocity": 88
      },
      {
        "pitch": 64,
        "start_tick": 7200,
        "duration_ticks": 253,
        "velocity": 74
      },
      {
        "pitch": 62,
        "start_tick": 7440,
        "duration_ticks": 76,
        "velocity": 77
      },
      {
        "pitch": 62,
        "start_tick": 7560,
        "duration_ticks": 216,
        "velocity": 81
      },
      {
        "pitch": 61,
        "start_tick": 7800,
        "duration_ticks": 174,
        "velocity": 84
      },
      {
        "pitch": 61,
        "start_tick": 8040,
        "duration_ticks": 370,
        "velocity": 75
      },
      {
        "pitch": 61,
        "start_tick": 9000,
        "duration_ticks": 125,
        "velocity": 61
      },
      {
        "pitch": 69,
        "start_tick": 9120,
        "duration_ticks": 256,
        "velocity": 79
      },
      {
        "pitch": 68,
        "start_tick": 9360,
        "duration_ticks": 94,
        "velocity": 69
      },
      {
        "pitch": 69,
        "start_tick": 9480,
        "duration_ticks": 808,
        "velocity": 60
      },
      {
        "pitch": 68,
        "start_tick": 10560,
        "duration_ticks": 151,
        "velocity": 80
      },
      {
        "pitch": 68,
        "start_tick": 10800,
        "duration_ticks": 119,
        "velocity": 76
      },
      {
        "pitch": 69,
        "start_tick": 10920,
        "duration_ticks": 347,
        "velocity": 75
      },
      {
        "pitch": 71,
        "start_tick": 11400,
        "duration_ticks": 68,
        "velocity": 75
      },
      {
        "pitch": 71,
        "start_tick": 11520,
        "duration_ticks": 215,
        "velocity": 75
      },
      {
        "pitch": 69,
        "start_tick": 11760,
        "duration_ticks": 71,
        "velocity": 77
      },
      {
        "pitch": 69,
        "start_tick": 11880,
        "duration_ticks": 226,
        "velocity": 80
      },
      {
        "pitch": 64,
        "start_tick": 12120,
        "duration_ticks": 123,
        "velocity": 56
      },
      {
        "pitch": 68,
        "start_tick": 12240,
        "duration_ticks": 721,
        "velocity": 101
      },
      {
        "pitch": 66,
        "start_tick": 13200,
        "duration_ticks": 253,
        "velocity": 93
      },
      {
        "pitch": 64,
        "start_tick": 13440,
        "duration_ticks": 701,
        "velocity": 74
      },
      {
        "pitch": 68,
        "start_tick": 14400,
        "duration_ticks": 231,
        "velocity": 88
      },
      {
        "pitch": 66,
        "start_tick": 14640,
        "duration_ticks": 63,
        "velocity": 71
      },
      {
        "pitch": 66,
        "start_tick": 14760,
        "duration_ticks": 211,
        "velocity": 78
      },
      {
        "pitch": 64,
        "start_tick": 15000,
        "duration_ticks": 120,
        "velocity": 65
      },
      {
        "pitch": 64,
        "start_tick": 15120,
        "duration_ticks": 1200,
        "velocity": 82
      }
    ]
  },
  "harmony": {
    "overall_score": 91,
    "chord_count": 17,
    "key_estimate": "A",
    "key_confidence": 0.885,
    "ambiguity_count": 0,
    "num_segments": 30,
    "segments": [
      {
        "start_tick": 0,
        "end_tick": 480,
        "bar": 1,
        "beat_in_bar": 1,
        "beat_position": "1",
        "duration_beats": 1.0,
        "raw_notes": [
          {
            "pitch": 57,
            "name": "A3",
            "start_tick": 0,
            "duration_ticks": 420,
            "effective_duration": 420,
            "velocity": 37
          },
          {
            "pitch": 64,
            "name": "E4",
            "start_tick": 120,
            "duration_ticks": 145,
            "effective_duration": 145,
            "velocity": 42
          },
          {
            "pitch": 71,
            "name": "B4",
            "start_tick": 240,
            "duration_ticks": 122,
            "effective_duration": 122,
            "velocity": 47
          },
          {
            "pitch": 73,
            "name": "C#5",
            "start_tick": 360,
            "duration_ticks": 241,
            "effective_duration": 120,
            "velocity": 71
          }
        ],
        "bass": {
          "pitch": 57,
          "name": "A3",
          "pc": "A"
        },
        "pitch_classes": [
          "C#",
          "E",
          "A",
          "B"
        ],
        "notes_count": 4,
        "chord": "Aadd9",
        "root": "A",
        "root_pc": 9,
        "quality": "add9",
        "confidence": 1.0,
        "alternatives": [
          {
            "label": "A9",
            "confidence": 0.864
          },
          {
            "label": "Amaj9",
            "confidence": 0.864
          },
          {
            "label": "A11",
            "confidence": 0.727
          }
        ],
        "is_slash": false,
        "was_ambiguous": false,
        "is_continuation": false
      },
      {
        "start_tick": 480,
        "end_tick": 960,
        "bar": 1,
        "beat_in_bar": 2,
        "beat_position": "2",
        "duration_beats": 1.0,
        "raw_notes": [
          {
            "pitch": 73,
            "name": "C#5",
            "start_tick": 360,
            "duration_ticks": 241,
            "effective_duration": 121,
            "velocity": 71
          },
          {
            "pitch": 57,
            "name": "A3",
            "start_tick": 480,
            "duration_ticks": 398,
            "effective_duration": 398,
            "velocity": 63
          },
          {
            "pitch": 64,
            "name": "E4",
            "start_tick": 600,
            "duration_ticks": 126,
            "effective_duration": 126,
            "velocity": 55
          },
          {
            "pitch": 71,
            "name": "B4",
            "start_tick": 720,
            "duration_ticks": 127,
            "effective_duration": 127,
            "velocity": 49
          },
          {
            "pitch": 73,
            "name": "C#5",
            "start_tick": 840,
            "duration_ticks": 256,
            "effective_duration": 120,
            "velocity": 76
          }
        ],
        "bass": {
          "pitch": 57,
          "name": "A3",
          "pc": "A"
        },
        "pitch_classes": [
          "C#",
          "E",
          "A",
          "B"
        ],
        "notes_count": 5,
        "chord": "Aadd9",
        "root": "A",
        "root_pc": 9,
        "quality": "add9",
        "confidence": 1.0,
        "alternatives": [
          {
            "label": "A9",
            "confidence": 0.864
          },
          {
            "label": "Amaj9",
            "confidence": 0.864
          },
          {
            "label": "A11",
            "confidence": 0.727
          }
        ],
        "is_slash": false,
        "was_ambiguous": false,
        "is_continuation": false
      },
      {
        "start_tick": 960,
        "end_tick": 1440,
        "bar": 1,
        "beat_in_bar": 3,
        "beat_position": "3",
        "duration_beats": 1.0,
        "raw_notes": [
          {
            "pitch": 73,
            "name": "C#5",
            "start_tick": 840,
            "duration_ticks": 256,
            "effective_duration": 136,
            "velocity": 76
          },
          {
            "pitch": 57,
            "name": "A3",
            "start_tick": 960,
            "duration_ticks": 410,
            "effective_duration": 410,
            "velocity": 67
          },
          {
            "pitch": 64,
            "name": "E4",
            "start_tick": 1080,
            "duration_ticks": 136,
            "effective_duration": 136,
            "velocity": 62
          },
          {
            "pitch": 71,
            "name": "B4",
            "start_tick": 1200,
            "duration_ticks": 138,
            "effective_duration": 138,
            "velocity": 52
          },
          {
            "pitch": 73,
            "name": "C#5",
            "start_tick": 1320,
            "duration_ticks": 242,
            "effective_duration": 120,
            "velocity": 73
          }
        ],
        "bass": {
          "pitch": 57,
          "name": "A3",
          "pc": "A"
        },
        "pitch_classes": [
          "C#",
          "E",
          "A",
          "B"
        ],
        "notes_count": 5,
        "chord": "Aadd9",
        "root": "A",
        "root_pc": 9,
        "quality": "add9",
        "confidence": 1.0,
        "alternatives": [
          {
            "label": "A9",
            "confidence": 0.864
          },
          {
            "label": "Amaj9",
            "confidence": 0.864
          },
          {
            "label": "A11",
            "confidence": 0.727
          }
        ],
        "is_slash": false,
        "was_ambiguous": false,
        "is_continuation": false
      },
      {
        "start_tick": 1440,
        "end_tick": 1920,
        "bar": 1,
        "beat_in_bar": 4,
        "beat_position": "4",
        "duration_beats": 1.0,
        "raw_notes": [
          {
            "pitch": 73,
            "name": "C#5",
            "start_tick": 1320,
            "duration_ticks": 242,
            "effective_duration": 122,
            "velocity": 73
          },
          {
            "pitch": 57,
            "name": "A3",
            "start_tick": 1440,
            "duration_ticks": 337,
            "effective_duration": 337,
            "velocity": 70
          },
          {
            "pitch": 64,
            "name": "E4",
            "start_tick": 1560,
            "duration_ticks": 121,
            "effective_duration": 121,
            "velocity": 63
          },
          {
            "pitch": 71,
            "name": "B4",
            "start_tick": 1680,
            "duration_ticks": 121,
            "effective_duration": 121,
            "velocity": 53
          },
          {
            "pitch": 73,
            "name": "C#5",
            "start_tick": 1800,
            "duration_ticks": 1075,
            "effective_duration": 120,
            "velocity": 76
          }
        ],
        "bass": {
          "pitch": 57,
          "name": "A3",
          "pc": "A"
        },
        "pitch_classes": [
          "C#",
          "E",
          "A",
          "B"
        ],
        "notes_count": 5,
        "chord": "Aadd9",
        "root": "A",
        "root_pc": 9,
        "quality": "add9",
        "confidence": 1.0,
        "alternatives": [
          {
            "label": "A9",
            "confidence": 0.864
          },
          {
            "label": "Amaj9",
            "confidence": 0.864
          },
          {
            "label": "A11",
            "confidence": 0.727
          }
        ],
        "is_slash": false,
        "was_ambiguous": false,
        "is_continuation": false
      },
      {
        "start_tick": 1920,
        "end_tick": 2880,
        "bar": 2,
        "beat_in_bar": 1,
        "beat_position": "1",
        "duration_beats": 2.0,
        "raw_notes": [
          {
            "pitch": 73,
            "name": "C#5",
            "start_tick": 1800,
            "duration_ticks": 1075,
            "effective_duration": 955,
            "velocity": 76
          },
          {
            "pitch": 57,
            "name": "A3",
            "start_tick": 1920,
            "duration_ticks": 955,
            "effective_duration": 955,
            "velocity": 76
          },
          {
            "pitch": 64,
            "name": "E4",
            "start_tick": 2040,
            "duration_ticks": 835,
            "effective_duration": 835,
            "velocity": 64
          },
          {
            "pitch": 71,
            "name": "B4",
            "start_tick": 2160,
            "duration_ticks": 715,
            "effective_duration": 715,
            "velocity": 46
          },
          {
            "pitch": 73,
            "name": "C#5",
            "start_tick": 2280,
            "duration_ticks": 595,
            "effective_duration": 595,
            "velocity": 68
          },
          {
            "pitch": 57,
            "name": "A3",
            "start_tick": 2400,
            "duration_ticks": 475,
            "effective_duration": 475,
            "velocity": 86
          },
          {
            "pitch": 64,
            "name": "E4",
            "start_tick": 2520,
            "duration_ticks": 355,
            "effective_duration": 355,
            "velocity": 64
          },
          {
            "pitch": 71,
            "name": "B4",
            "start_tick": 2640,
            "duration_ticks": 235,
            "effective_duration": 235,
            "velocity": 54
          },
          {
            "pitch": 73,
            "name": "C#5",
            "start_tick": 2760,
            "duration_ticks": 125,
            "effective_duration": 120,
            "velocity": 62
          }
        ],
        "bass": {
          "pitch": 57,
          "name": "A3",
          "pc": "A"
        },
        "pitch_classes": [
          "C#",
          "E",
          "A",
          "B"
        ],
        "notes_count": 9,
        "chord": "Aadd9",
        "root": "A",
        "root_pc": 9,
        "quality": "add9",
        "confidence": 1.0,
        "alternatives": [
          {
            "label": "A9",
            "confidence": 0.864
          },
          {
            "label": "Amaj9",
            "confidence": 0.864
          },
          {
            "label": "A11",
            "confidence": 0.727
          }
        ],
        "is_slash": false,
        "was_ambiguous": false,
        "is_continuation": false
      },
      {
        "start_tick": 2880,
        "end_tick": 3840,
        "bar": 2,
        "beat_in_bar": 3,
        "beat_position": "3",
        "duration_beats": 2.0,
        "raw_notes": [
          {
            "pitch": 73,
            "name": "C#5",
            "start_tick": 2760,
            "duration_ticks": 125,
            "effective_duration": 5,
            "velocity": 62
          },
          {
            "pitch": 56,
            "name": "G#3",
            "start_tick": 2880,
            "duration_ticks": 953,
            "effective_duration": 953,
            "velocity": 75
          },
          {
            "pitch": 64,
            "name": "E4",
            "start_tick": 3000,
            "duration_ticks": 833,
            "effective_duration": 833,
            "velocity": 66
          },
          {
            "pitch": 71,
            "name": "B4",
            "start_tick": 3120,
            "duration_ticks": 713,
            "effective_duration": 713,
            "velocity": 57
          },
          {
            "pitch": 76,
            "name": "E5",
            "start_tick": 3240,
            "duration_ticks": 593,
            "effective_duration": 593,
            "velocity": 80
          },
          {
            "pitch": 56,
            "name": "G#3",
            "start_tick": 3360,
            "duration_ticks": 473,
            "effective_duration": 473,
            "velocity": 81
          },
          {
            "pitch": 64,
            "name": "E4",
            "start_tick": 3480,
            "duration_ticks": 353,
            "effective_duration": 353,
            "velocity": 55
          },
          {
            "pitch": 71,
            "name": "B4",
            "start_tick": 3600,
            "duration_ticks": 233,
            "effective_duration": 233,
            "velocity": 61
          },
          {
            "pitch": 76,
            "name": "E5",
            "start_tick": 3720,
            "duration_ticks": 1097,
            "effective_duration": 120,
            "velocity": 72
          }
        ],
        "bass": {
          "pitch": 56,
          "name": "G#3",
          "pc": "G#"
        },
        "pitch_classes": [
          "C#",
          "E",
          "G#",
          "B"
        ],
        "notes_count": 9,
        "chord": "E/G#",
        "root": "E",
        "root_pc": 4,
        "quality": "maj",
        "confidence": 0.941,
        "alternatives": [
          {
            "label": "C#m7/G#",
            "confidence": 0.765
          },
          {
            "label": "E7/G#",
            "confidence": 0.765
          },
          {
            "label": "Emaj7/G#",
            "confidence": 0.765
          }
        ],
        "is_slash": true,
        "was_ambiguous": false,
        "is_continuation": false
      },
      {
        "start_tick": 3840,
        "end_tick": 4800,
        "bar": 3,
        "beat_in_bar": 1,
        "beat_position": "1",
        "duration_beats": 2.0,
        "raw_notes": [
          {
            "pitch": 76,
            "name": "E5",
            "start_tick": 3720,
            "duration_ticks": 1097,
            "effective_duration": 960,
            "velocity": 72
          },
          {
            "pitch": 55,
            "name": "G3",
            "start_tick": 3840,
            "duration_ticks": 977,
            "effective_duration": 960,
            "velocity": 68
          },
          {
            "pitch": 64,
            "name": "E4",
            "start_tick": 3960,
            "duration_ticks": 857,
            "effective_duration": 840,
            "velocity": 48
          },
          {
            "pitch": 71,
            "name": "B4",
            "start_tick": 4080,
            "duration_ticks": 737,
            "effective_duration": 720,
            "velocity": 60
          },
          {
            "pitch": 76,
            "name": "E5",
            "start_tick": 4200,
            "duration_ticks": 617,
            "effective_duration": 600,
            "velocity": 74
          },
          {
            "pitch": 55,
            "name": "G3",
            "start_tick": 4320,
            "duration_ticks": 498,
            "effective_duration": 480,
            "velocity": 75
          },
          {
            "pitch": 64,
            "name": "E4",
            "start_tick": 4440,
            "duration_ticks": 377,
            "effective_duration": 360,
            "velocity": 58
          },
          {
            "pitch": 71,
            "name": "B4",
            "start_tick": 4560,
            "duration_ticks": 257,
            "effective_duration": 240,
            "velocity": 62
          },
          {
            "pitch": 76,
            "name": "E5",
            "start_tick": 4680,
            "duration_ticks": 163,
            "effective_duration": 120,
            "velocity": 62
          }
        ],
        "bass": {
          "pitch": 55,
          "name": "G3",
          "pc": "G"
        },
        "pitch_classes": [
          "E",
          "G",
          "B"
        ],
        "notes_count": 9,
        "chord": "Emin/G",
        "root": "E",
        "root_pc": 4,
        "quality": "min",
        "confidence": 0.941,
        "alternatives": [
          {
            "label": "G6",
            "confidence": 0.824
          },
          {
            "label": "Cmaj7/G",
            "confidence": 0.765
          },
          {
            "label": "C#m7b5/G",
            "confidence": 0.765
          }
        ],
        "is_slash": true,
        "was_ambiguous": false,
        "is_continuation": false
      },
      {
        "start_tick": 4800,
        "end_tick": 5280,
        "bar": 3,
        "beat_in_bar": 3,
        "beat_position": "3",
        "duration_beats": 1.0,
        "raw_notes": [
          {
            "pitch": 76,
            "name": "E5",
            "start_tick": 3720,
            "duration_ticks": 1097,
            "effective_duration": 17,
            "velocity": 72
          },
          {
            "pitch": 55,
            "name": "G3",
            "start_tick": 3840,
            "duration_ticks": 977,
            "effective_duration": 17,
            "velocity": 68
          },
          {
            "pitch": 64,
            "name": "E4",
            "start_tick": 3960,
            "duration_ticks": 857,
            "effective_duration": 17,
            "velocity": 48
          },
          {
            "pitch": 71,
            "name": "B4",
            "start_tick": 4080,
            "duration_ticks": 737,
            "effective_duration": 17,
            "velocity": 60
          },
          {
            "pitch": 76,
            "name": "E5",
            "start_tick": 4200,
            "duration_ticks": 617,
            "effective_duration": 17,
            "velocity": 74
          },
          {
            "pitch": 55,
            "name": "G3",
            "start_tick": 4320,
            "duration_ticks": 498,
            "effective_duration": 18,
            "velocity": 75
          },
          {
            "pitch": 64,
            "name": "E4",
            "start_tick": 4440,
            "duration_ticks": 377,
            "effective_duration": 17,
            "velocity": 58
          },
          {
            "pitch": 71,
            "name": "B4",
            "start_tick": 4560,
            "duration_ticks": 257,
            "effective_duration": 17,
            "velocity": 62
          },
          {
            "pitch": 76,
            "name": "E5",
            "start_tick": 4680,
            "duration_ticks": 163,
            "effective_duration": 43,
            "velocity": 62
          },
          {
            "pitch": 54,
            "name": "F#3",
            "start_tick": 4800,
            "duration_ticks": 486,
            "effective_duration": 480,
            "velocity": 80
          },
          {
            "pitch": 66,
            "name": "F#4",
            "start_tick": 4920,
            "duration_ticks": 366,
            "effective_duration": 360,
            "velocity": 49
          },
          {
            "pitch": 70,
            "name": "A#4",
            "start_tick": 5040,
            "duration_ticks": 246,
            "effective_duration": 240,
            "velocity": 68
          },
          {
            "pitch": 76,
            "name": "E5",
            "start_tick": 5160,
            "duration_ticks": 617,
            "effective_duration": 120,
            "velocity": 79
          }
        ],
        "bass": {
          "pitch": 54,
          "name": "F#3",
          "pc": "F#"
        },
        "pitch_classes": [
          "E",
          "F#",
          "G",
          "A#",
          "B"
        ],
        "notes_count": 13,
        "chord": "F#7",
        "root": "F#",
        "root_pc": 6,
        "quality": "7",
        "confidence": 0.824,
        "alternatives": [
          {
            "label": "F#9",
            "confidence": 0.647
          },
          {
            "label": "F#7b9",
            "confidence": 0.647
          },
          {
            "label": "F#7#9",
            "confidence": 0.647
          }
        ],
        "is_slash": false,
        "was_ambiguous": false,
        "is_continuation": false
      },
      {
        "start_tick": 5280,
        "end_tick": 5760,
        "bar": 3,
        "beat_in_bar": 4,
        "beat_position": "4",
        "duration_beats": 1.0,
        "raw_notes": [
          {
            "pitch": 54,
            "name": "F#3",
            "start_tick": 4800,
            "duration_ticks": 486,
            "effective_duration": 6,
            "velocity": 80
          },
          {
            "pitch": 66,
            "name": "F#4",
            "start_tick": 4920,
            "duration_ticks": 366,
            "effective_duration": 6,
            "velocity": 49
          },
          {
            "pitch": 70,
            "name": "A#4",
            "start_tick": 5040,
            "duration_ticks": 246,
            "effective_duration": 6,
            "velocity": 68
          },
          {
            "pitch": 76,
            "name": "E5",
            "start_tick": 5160,
            "duration_ticks": 617,
            "effective_duration": 480,
            "velocity": 79
          },
          {
            "pitch": 54,
            "name": "F#3",
            "start_tick": 5280,
            "duration_ticks": 497,
            "effective_duration": 480,
            "velocity": 76
          },
          {
            "pitch": 66,
            "name": "F#4",
            "start_tick": 5400,
            "duration_ticks": 377,
            "effective_duration": 360,
            "velocity": 62
          },
          {
            "pitch": 70,
            "name": "A#4",
            "start_tick": 5520,
            "duration_ticks": 257,
            "effective_duration": 240,
            "velocity": 65
          },
          {
            "pitch": 76,
            "name": "E5",
            "start_tick": 5640,
            "duration_ticks": 137,
            "effective_duration": 120,
            "velocity": 83
          }
        ],
        "bass": {
          "pitch": 54,
          "name": "F#3",
          "pc": "F#"
        },
        "pitch_classes": [
          "E",
          "F#",
          "A#"
        ],
        "notes_count": 8,
        "chord": "F#7",
        "root": "F#",
        "root_pc": 6,
        "quality": "7",
        "confidence": 0.824,
        "alternatives": [
          {
            "label": "F#9",
            "confidence": 0.647
          },
          {
            "label": "F#7b9",
            "confidence": 0.647
          },
          {
            "label": "F#7#9",
            "confidence": 0.647
          }
        ],
        "is_slash": false,
        "was_ambiguous": false,
        "is_continuation": false
      },
      {
        "start_tick": 5760,
        "end_tick": 6720,
        "bar": 4,
        "beat_in_bar": 1,
        "beat_position": "1",
        "duration_beats": 2.0,
        "raw_notes": [
          {
            "pitch": 76,
            "name": "E5",
            "start_tick": 5160,
            "duration_ticks": 617,
            "effective_duration": 17,
            "velocity": 79
          },
          {
            "pitch": 54,
            "name": "F#3",
            "start_tick": 5280,
            "duration_ticks": 497,
            "effective_duration": 17,
            "velocity": 76
          },
          {
            "pitch": 66,
            "name": "F#4",
            "start_tick": 5400,
            "duration_ticks": 377,
            "effective_duration": 17,
            "velocity": 62
          },
          {
            "pitch": 70,
            "name": "A#4",
            "start_tick": 5520,
            "duration_ticks": 257,
            "effective_duration": 17,
            "velocity": 65
          },
          {
            "pitch": 76,
            "name": "E5",
            "start_tick": 5640,
            "duration_ticks": 137,
            "effective_duration": 17,
            "velocity": 83
          },
          {
            "pitch": 50,
            "name": "D3",
            "start_tick": 5760,
            "duration_ticks": 938,
            "effective_duration": 938,
            "velocity": 58
          },
          {
            "pitch": 66,
            "name": "F#4",
            "start_tick": 5880,
            "duration_ticks": 818,
            "effective_duration": 818,
            "velocity": 62
          },
          {
            "pitch": 69,
            "name": "A4",
            "start_tick": 6000,
            "duration_ticks": 698,
            "effective_duration": 698,
            "velocity": 60
          },
          {
            "pitch": 74,
            "name": "D5",
            "start_tick": 6120,
            "duration_ticks": 578,
            "effective_duration": 578,
            "velocity": 82
          },
          {
            "pitch": 50,
            "name": "D3",
            "start_tick": 6240,
            "duration_ticks": 458,
            "effective_duration": 458,
            "velocity": 73
          },
          {
            "pitch": 66,
            "name": "F#4",
            "start_tick": 6360,
            "duration_ticks": 338,
            "effective_duration": 338,
            "velocity": 60
          },
          {
            "pitch": 69,
            "name": "A4",
            "start_tick": 6480,
            "duration_ticks": 218,
            "effective_duration": 218,
            "velocity": 50
          },
          {
            "pitch": 73,
            "name": "C#5",
            "start_tick": 6600,
            "duration_ticks": 1075,
            "effective_duration": 120,
            "velocity": 71
          }
        ],
        "bass": {
          "pitch": 50,
          "name": "D3",
          "pc": "D"
        },
        "pitch_classes": [
          "C#",
          "D",
          "E",
          "F#",
          "A",
          "A#"
        ],
        "notes_count": 13,
        "chord": "Dadd9",
        "root": "D",
        "root_pc": 2,
        "quality": "add9",
        "confidence": 1.0,
        "alternatives": [
          {
            "label": "D9",
            "confidence": 0.864
          },
          {
            "label": "Dmaj9",
            "confidence": 0.864
          },
          {
            "label": "D11",
            "confidence": 0.727
          }
        ],
        "is_slash": false,
        "was_ambiguous": false,
        "is_continuation": false
      },
      {
        "start_tick": 6720,
        "end_tick": 7680,
        "bar": 4,
        "beat_in_bar": 3,
        "beat_position": "3",
        "duration_beats": 2.0,
        "raw_notes": [
          {
            "pitch": 73,
            "name": "C#5",
            "start_tick": 6600,
            "duration_ticks": 1075,
            "effective_duration": 955,
            "velocity": 71
          },
          {
            "pitch": 50,
            "name": "D3",
            "start_tick": 6720,
            "duration_ticks": 955,
            "effective_duration": 955,
            "velocity": 72
          },
          {
            "pitch": 65,
            "name": "F4",
            "start_tick": 6840,
            "duration_ticks": 835,
            "effective_duration": 835,
            "velocity": 54
          },
          {
            "pitch": 71,
            "name": "B4",
            "start_tick": 6960,
            "duration_ticks": 715,
            "effective_duration": 715,
            "velocity": 50
          },
          {
            "pitch": 74,
            "name": "D5",
            "start_tick": 7080,
            "duration_ticks": 595,
            "effective_duration": 595,
            "velocity": 81
          },
          {
            "pitch": 50,
            "name": "D3",
            "start_tick": 7200,
            "duration_ticks": 475,
            "effective_duration": 475,
            "velocity": 79
          },
          {
            "pitch": 65,
            "name": "F4",
            "start_tick": 7320,
            "duration_ticks": 355,
            "effective_duration": 355,
            "velocity": 60
          },
          {
            "pitch": 71,
            "name": "B4",
            "start_tick": 7440,
            "duration_ticks": 235,
            "effective_duration": 235,
            "velocity": 74
          },
          {
            "pitch": 74,
            "name": "D5",
            "start_tick": 7560,
            "duration_ticks": 115,
            "effective_duration": 115,
            "velocity": 90
          }
        ],
        "bass": {
          "pitch": 50,
          "name": "D3",
          "pc": "D"
        },
        "pitch_classes": [
          "C#",
          "D",
          "F",
          "B"
        ],
        "notes_count": 9,
        "chord": "C#7b9/D",
        "root": "C#",
        "root_pc": 1,
        "quality": "7b9",
        "confidence": 0.818,
        "alternatives": [
          {
            "label": "Bdim/D",
            "confidence": 0.557
          },
          {
            "label": "Ddim7",
            "confidence": 0.466
          },
          {
            "label": "Dm6",
            "confidence": 0.466
          }
        ],
        "is_slash": true,
        "was_ambiguous": false,
        "is_continuation": false
      },
      {
        "start_tick": 7680,
        "end_tick": 8160,
        "bar": 5,
        "beat_in_bar": 1,
        "beat_position": "1",
        "duration_beats": 1.0,
        "raw_notes": [
          {
            "pitch": 45,
            "name": "A2",
            "start_tick": 7680,
            "duration_ticks": 931,
            "effective_duration": 480,
            "velocity": 62
          },
          {
            "pitch": 64,
            "name": "E4",
            "start_tick": 7800,
            "duration_ticks": 811,
            "effective_duration": 360,
            "velocity": 62
          },
          {
            "pitch": 71,
            "name": "B4",
            "start_tick": 7920,
            "duration_ticks": 691,
            "effective_duration": 240,
            "velocity": 53
          },
          {
            "pitch": 73,
            "name": "C#5",
            "start_tick": 8040,
            "duration_ticks": 571,
            "effective_duration": 120,
            "velocity": 75
          }
        ],
        "bass": {
          "pitch": 45,
          "name": "A2",
          "pc": "A"
        },
        "pitch_classes": [
          "C#",
          "E",
          "A",
          "B"
        ],
        "notes_count": 4,
        "chord": "Aadd9",
        "root": "A",
        "root_pc": 9,
        "quality": "add9",
        "confidence": 1.0,
        "alternatives": [
          {
            "label": "A9",
            "confidence": 0.864
          },
          {
            "label": "Amaj9",
            "confidence": 0.864
          },
          {
            "label": "A11",
            "confidence": 0.727
          }
        ],
        "is_slash": false,
        "was_ambiguous": false,
        "is_continuation": false
      },
      {
        "start_tick": 8160,
        "end_tick": 8640,
        "bar": 5,
        "beat_in_bar": 2,
        "beat_position": "2",
        "duration_beats": 1.0,
        "raw_notes": [
          {
            "pitch": 45,
            "name": "A2",
            "start_tick": 7680,
            "duration_ticks": 931,
            "effective_duration": 451,
            "velocity": 62
          },
          {
            "pitch": 64,
            "name": "E4",
            "start_tick": 7800,
            "duration_ticks": 811,
            "effective_duration": 451,
            "velocity": 62
          },
          {
            "pitch": 71,
            "name": "B4",
            "start_tick": 7920,
            "duration_ticks": 691,
            "effective_duration": 451,
            "velocity": 53
          },
          {
            "pitch": 73,
            "name": "C#5",
            "start_tick": 8040,
            "duration_ticks": 571,
            "effective_duration": 451,
            "velocity": 75
          },
          {
            "pitch": 45,
            "name": "A2",
            "start_tick": 8160,
            "duration_ticks": 466,
            "effective_duration": 466,
            "velocity": 72
          },
          {
            "pitch": 64,
            "name": "E4",
            "start_tick": 8280,
            "duration_ticks": 331,
            "effective_duration": 331,
            "velocity": 55
          },
          {
            "pitch": 71,
            "name": "B4",
            "start_tick": 8400,
            "duration_ticks": 211,
            "effective_duration": 211,
            "velocity": 57
          },
          {
            "pitch": 73,
            "name": "C#5",
            "start_tick": 8520,
            "duration_ticks": 566,
            "effective_duration": 120,
            "velocity": 80
          }
        ],
        "bass": {
          "pitch": 45,
          "name": "A2",
          "pc": "A"
        },
        "pitch_classes": [
          "C#",
          "E",
          "A",
          "B"
        ],
        "notes_count": 8,
        "chord": "Aadd9",
        "root": "A",
        "root_pc": 9,
        "quality": "add9",
        "confidence": 1.0,
        "alternatives": [
          {
            "label": "A9",
            "confidence": 0.864
          },
          {
            "label": "Amaj9",
            "confidence": 0.864
          },
          {
            "label": "A11",
            "confidence": 0.727
          }
        ],
        "is_slash": false,
        "was_ambiguous": false,
        "is_continuation": false
      },
      {
        "start_tick": 8640,
        "end_tick": 9120,
        "bar": 5,
        "beat_in_bar": 3,
        "beat_position": "3",
        "duration_beats": 1.0,
        "raw_notes": [
          {
            "pitch": 73,
            "name": "C#5",
            "start_tick": 8520,
            "duration_ticks": 566,
            "effective_duration": 446,
            "velocity": 80
          },
          {
            "pitch": 44,
            "name": "G#2",
            "start_tick": 8640,
            "duration_ticks": 473,
            "effective_duration": 473,
            "velocity": 68
          },
          {
            "pitch": 64,
            "name": "E4",
            "start_tick": 8760,
            "duration_ticks": 326,
            "effective_duration": 326,
            "velocity": 65
          },
          {
            "pitch": 71,
            "name": "B4",
            "start_tick": 8880,
            "duration_ticks": 206,
            "effective_duration": 206,
            "velocity": 51
          },
          {
            "pitch": 73,
            "name": "C#5",
            "start_tick": 9000,
            "duration_ticks": 614,
            "effective_duration": 120,
            "velocity": 75
          }
        ],
        "bass": {
          "pitch": 44,
          "name": "G#2",
          "pc": "G#"
        },
        "pitch_classes": [
          "C#",
          "E",
          "G#",
          "B"
        ],
        "notes_count": 5,
        "chord": "C#m7/G#",
        "root": "C#",
        "root_pc": 1,
        "quality": "m7",
        "confidence": 0.955,
        "alternatives": [
          {
            "label": "E6/G#",
            "confidence": 0.955
          },
          {
            "label": "C#m9/G#",
            "confidence": 0.818
          },
          {
            "label": "C#7#9/G#",
            "confidence": 0.818
          }
        ],
        "is_slash": true,
        "was_ambiguous": false,
        "is_continuation": false
      },
      {
        "start_tick": 9120,
        "end_tick": 9600,
        "bar": 5,
        "beat_in_bar": 4,
        "beat_position": "4",
        "duration_beats": 1.0,
        "raw_notes": [
          {
            "pitch": 73,
            "name": "C#5",
            "start_tick": 9000,
            "duration_ticks": 614,
            "effective_duration": 480,
            "velocity": 75
          },
          {
            "pitch": 49,
            "name": "C#3",
            "start_tick": 9120,
            "duration_ticks": 529,
            "effective_duration": 480,
            "velocity": 78
          },
          {
            "pitch": 65,
            "name": "F4",
            "start_tick": 9240,
            "duration_ticks": 374,
            "effective_duration": 360,
            "velocity": 69
          },
          {
            "pitch": 71,
            "name": "B4",
            "start_tick": 9360,
            "duration_ticks": 254,
            "effective_duration": 240,
            "velocity": 58
          },
          {
            "pitch": 73,
            "name": "C#5",
            "start_tick": 9480,
            "duration_ticks": 167,
            "effective_duration": 120,
            "velocity": 75
          }
        ],
        "bass": {
          "pitch": 49,
          "name": "C#3",
          "pc": "C#"
        },
        "pitch_classes": [
          "C#",
          "F",
          "B"
        ],
        "notes_count": 5,
        "chord": "C#7",
        "root": "C#",
        "root_pc": 1,
        "quality": "7",
        "confidence": 0.824,
        "alternatives": [
          {
            "label": "C#9",
            "confidence": 0.647
          },
          {
            "label": "C#7b9",
            "confidence": 0.647
          },
          {
            "label": "C#7#9",
            "confidence": 0.647
          }
        ],
        "is_slash": false,
        "was_ambiguous": false,
        "is_continuation": false
      },
      {
        "start_tick": 9600,
        "end_tick": 10560,
        "bar": 6,
        "beat_in_bar": 1,
        "beat_position": "1",
        "duration_beats": 2.0,
        "raw_notes": [
          {
            "pitch": 73,
            "name": "C#5",
            "start_tick": 9000,
            "duration_ticks": 614,
            "effective_duration": 14,
            "velocity": 75
          },
          {
            "pitch": 49,
            "name": "C#3",
            "start_tick": 9120,
            "duration_ticks": 529,
            "effective_duration": 49,
            "velocity": 78
          },
          {
            "pitch": 65,
            "name": "F4",
            "start_tick": 9240,
            "duration_ticks": 374,
            "effective_duration": 14,
            "velocity": 69
          },
          {
            "pitch": 71,
            "name": "B4",
            "start_tick": 9360,
            "duration_ticks": 254,
            "effective_duration": 14,
            "velocity": 58
          },
          {
            "pitch": 73,
            "name": "C#5",
            "start_tick": 9480,
            "duration_ticks": 167,
            "effective_duration": 47,
            "velocity": 75
          },
          {
            "pitch": 54,
            "name": "F#3",
            "start_tick": 9600,
            "duration_ticks": 937,
            "effective_duration": 937,
            "velocity": 78
          },
          {
            "pitch": 69,
            "name": "A4",
            "start_tick": 9720,
            "duration_ticks": 817,
            "effective_duration": 817,
            "velocity": 75
          },
          {
            "pitch": 76,
            "name": "E5",
            "start_tick": 9840,
            "duration_ticks": 697,
            "effective_duration": 697,
            "velocity": 50
          },
          {
            "pitch": 81,
            "name": "A5",
            "start_tick": 9960,
            "duration_ticks": 577,
            "effective_duration": 577,
            "velocity": 82
          },
          {
            "pitch": 54,
            "name": "F#3",
            "start_tick": 10080,
            "duration_ticks": 457,
            "effective_duration": 457,
            "velocity": 72
          },
          {
            "pitch": 69,
            "name": "A4",
            "start_tick": 10200,
            "duration_ticks": 337,
            "effective_duration": 337,
            "velocity": 63
          },
          {
            "pitch": 76,
            "name": "E5",
            "start_tick": 10320,
            "duration_ticks": 217,
            "effective_duration": 217,
            "velocity": 74
          },
          {
            "pitch": 81,
            "name": "A5",
            "start_tick": 10440,
            "duration_ticks": 168,
            "effective_duration": 120,
            "velocity": 90
          }
        ],
        "bass": {
          "pitch": 54,
          "name": "F#3",
          "pc": "F#"
        },
        "pitch_classes": [
          "C#",
          "E",
          "F",
          "F#",
          "A",
          "B"
        ],
        "notes_count": 13,
        "chord": "F#m7",
        "root": "F#",
        "root_pc": 6,
        "quality": "m7",
        "confidence": 0.824,
        "alternatives": [
          {
            "label": "F#m7b5",
            "confidence": 0.824
          },
          {
            "label": "Dadd9/F#",
            "confidence": 0.765
          },
          {
            "label": "A6/F#",
            "confidence": 0.765
          }
        ],
        "is_slash": false,
        "was_ambiguous": false,
        "is_continuation": false
      },
      {
        "start_tick": 10560,
        "end_tick": 11040,
        "bar": 6,
        "beat_in_bar": 3,
        "beat_position": "3",
        "duration_beats": 1.0,
        "raw_notes": [
          {
            "pitch": 81,
            "name": "A5",
            "start_tick": 10440,
            "duration_ticks": 168,
            "effective_duration": 48,
            "velocity": 90
          },
          {
            "pitch": 53,
            "name": "F3",
            "start_tick": 10560,
            "duration_ticks": 863,
            "effective_duration": 480,
            "velocity": 72
          },
          {
            "pitch": 69,
            "name": "A4",
            "start_tick": 10680,
            "duration_ticks": 743,
            "effective_duration": 360,
            "velocity": 70
          },
          {
            "pitch": 73,
            "name": "C#5",
            "start_tick": 10800,
            "duration_ticks": 623,
            "effective_duration": 240,
            "velocity": 54
          },
          {
            "pitch": 80,
            "name": "G#5",
            "start_tick": 10920,
            "duration_ticks": 503,
            "effective_duration": 120,
            "velocity": 80
          }
        ],
        "bass": {
          "pitch": 53,
          "name": "F3",
          "pc": "F"
        },
        "pitch_classes": [
          "C#",
          "F",
          "G#",
          "A"
        ],
        "notes_count": 5,
        "chord": "Faug",
        "root": "F",
        "root_pc": 5,
        "quality": "aug",
        "confidence": 0.602,
        "alternatives": [
          {
            "label": "C#/F",
            "confidence": 0.557
          },
          {
            "label": "C#aug/F",
            "confidence": 0.557
          },
          {
            "label": "Aaug/F",
            "confidence": 0.557
          }
        ],
        "is_slash": false,
        "was_ambiguous": false,
        "is_continuation": false
      },
      {
        "start_tick": 11040,
        "end_tick": 11520,
        "bar": 6,
        "beat_in_bar": 4,
        "beat_position": "4",
        "duration_beats": 1.0,
        "raw_notes": [
          {
            "pitch": 53,
            "name": "F3",
            "start_tick": 10560,
            "duration_ticks": 863,
            "effective_duration": 383,
            "velocity": 72
          },
          {
            "pitch": 69,
            "name": "A4",
            "start_tick": 10680,
            "duration_ticks": 743,
            "effective_duration": 383,
            "velocity": 70
          },
          {
            "pitch": 73,
            "name": "C#5",
            "start_tick": 10800,
            "duration_ticks": 623,
            "effective_duration": 383,
            "velocity": 54
          },
          {
            "pitch": 80,
            "name": "G#5",
            "start_tick": 10920,
            "duration_ticks": 503,
            "effective_duration": 383,
            "velocity": 80
          },
          {
            "pitch": 53,
            "name": "F3",
            "start_tick": 11040,
            "duration_ticks": 453,
            "effective_duration": 453,
            "velocity": 72
          },
          {
            "pitch": 69,
            "name": "A4",
            "start_tick": 11160,
            "duration_ticks": 263,
            "effective_duration": 263,
            "velocity": 61
          },
          {
            "pitch": 73,
            "name": "C#5",
            "start_tick": 11280,
            "duration_ticks": 158,
            "effective_duration": 158,
            "velocity": 68
          },
          {
            "pitch": 80,
            "name": "G#5",
            "start_tick": 11400,
            "duration_ticks": 115,
            "effective_duration": 115,
            "velocity": 84
          }
        ],
        "bass": {
          "pitch": 53,
          "name": "F3",
          "pc": "F"
        },
        "pitch_classes": [
          "C#",
          "F",
          "G#",
          "A"
        ],
        "notes_count": 8,
        "chord": "Faug",
        "root": "F",
        "root_pc": 5,
        "quality": "aug",
        "confidence": 0.602,
        "alternatives": [
          {
            "label": "C#/F",
            "confidence": 0.557
          },
          {
            "label": "C#aug/F",
            "confidence": 0.557
          },
          {
            "label": "Aaug/F",
            "confidence": 0.557
          }
        ],
        "is_slash": false,
        "was_ambiguous": false,
        "is_continuation": false
      },
      {
        "start_tick": 11520,
        "end_tick": 12000,
        "bar": 7,
        "beat_in_bar": 1,
        "beat_position": "1",
        "duration_beats": 1.0,
        "raw_notes": [
          {
            "pitch": 52,
            "name": "E3",
            "start_tick": 11520,
            "duration_ticks": 941,
            "effective_duration": 480,
            "velocity": 61
          },
          {
            "pitch": 69,
            "name": "A4",
            "start_tick": 11640,
            "duration_ticks": 821,
            "effective_duration": 360,
            "velocity": 58
          },
          {
            "pitch": 73,
            "name": "C#5",
            "start_tick": 11760,
            "duration_ticks": 701,
            "effective_duration": 240,
            "velocity": 61
          },
          {
            "pitch": 78,
            "name": "F#5",
            "start_tick": 11880,
            "duration_ticks": 581,
            "effective_duration": 120,
            "velocity": 72
          }
        ],
        "bass": {
          "pitch": 52,
          "name": "E3",
          "pc": "E"
        },
        "pitch_classes": [
          "C#",
          "E",
          "F#",
          "A"
        ],
        "notes_count": 4,
        "chord": "F#m7/E",
        "root": "F#",
        "root_pc": 6,
        "quality": "m7",
        "confidence": 0.955,
        "alternatives": [
          {
            "label": "A6/E",
            "confidence": 0.955
          },
          {
            "label": "Dmaj9/E",
            "confidence": 0.818
          },
          {
            "label": "F#m9/E",
            "confidence": 0.818
          }
        ],
        "is_slash": true,
        "was_ambiguous": false,
        "is_continuation": false
      },
      {
        "start_tick": 12000,
        "end_tick": 12480,
        "bar": 7,
        "beat_in_bar": 2,
        "beat_position": "2",
        "duration_beats": 1.0,
        "raw_notes": [
          {
            "pitch": 52,
            "name": "E3",
            "start_tick": 11520,
            "duration_ticks": 941,
            "effective_duration": 461,
            "velocity": 61
          },
          {
            "pitch": 69,
            "name": "A4",
            "start_tick": 11640,
            "duration_ticks": 821,
            "effective_duration": 461,
            "velocity": 58
          },
          {
            "pitch": 73,
            "name": "C#5",
            "start_tick": 11760,
            "duration_ticks": 701,
            "effective_duration": 461,
            "velocity": 61
          },
          {
            "pitch": 78,
            "name": "F#5",
            "start_tick": 11880,
            "duration_ticks": 581,
            "effective_duration": 461,
            "velocity": 72
          },
          {
            "pitch": 52,
            "name": "E3",
            "start_tick": 12000,
            "duration_ticks": 461,
            "effective_duration": 461,
            "velocity": 75
          },
          {
            "pitch": 69,
            "name": "A4",
            "start_tick": 12120,
            "duration_ticks": 341,
            "effective_duration": 341,
            "velocity": 68
          },
          {
            "pitch": 73,
            "name": "C#5",
            "start_tick": 12240,
            "duration_ticks": 221,
            "effective_duration": 221,
            "velocity": 72
          },
          {
            "pitch": 78,
            "name": "F#5",
            "start_tick": 12360,
            "duration_ticks": 141,
            "effective_duration": 120,
            "velocity": 75
          }
        ],
        "bass": {
          "pitch": 52,
          "name": "E3",
          "pc": "E"
        },
        "pitch_classes": [
          "C#",
          "E",
          "F#",
          "A"
        ],
        "notes_count": 8,
        "chord": "F#m7/E",
        "root": "F#",
        "root_pc": 6,
        "quality": "m7",
        "confidence": 0.955,
        "alternatives": [
          {
            "label": "A6/E",
            "confidence": 0.955
          },
          {
            "label": "Dmaj9/E",
            "confidence": 0.818
          },
          {
            "label": "F#m9/E",
            "confidence": 0.818
          }
        ],
        "is_slash": true,
        "was_ambiguous": false,
        "is_continuation": false
      },
      {
        "start_tick": 12480,
        "end_tick": 12960,
        "bar": 7,
        "beat_in_bar": 3,
        "beat_position": "3",
        "duration_beats": 1.0,
        "raw_notes": [
          {
            "pitch": 78,
            "name": "F#5",
            "start_tick": 12360,
            "duration_ticks": 141,
            "effective_duration": 21,
            "velocity": 75
          },
          {
            "pitch": 47,
            "name": "B2",
            "start_tick": 12480,
            "duration_ticks": 960,
            "effective_duration": 480,
            "velocity": 76
          },
          {
            "pitch": 66,
            "name": "F#4",
            "start_tick": 12600,
            "duration_ticks": 840,
            "effective_duration": 360,
            "velocity": 58
          },
          {
            "pitch": 69,
            "name": "A4",
            "start_tick": 12720,
            "duration_ticks": 720,
            "effective_duration": 240,
            "velocity": 47
          },
          {
            "pitch": 75,
            "name": "D#5",
            "start_tick": 12840,
            "duration_ticks": 600,
            "effective_duration": 120,
            "velocity": 75
          }
        ],
        "bass": {
          "pitch": 47,
          "name": "B2",
          "pc": "B"
        },
        "pitch_classes": [
          "D#",
          "F#",
          "A",
          "B"
        ],
        "notes_count": 5,
        "chord": "B7",
        "root": "B",
        "root_pc": 11,
        "quality": "7",
        "confidence": 1.0,
        "alternatives": [
          {
            "label": "B9",
            "confidence": 0.864
          },
          {
            "label": "B7b9",
            "confidence": 0.864
          },
          {
            "label": "B7#9",
            "confidence": 0.864
          }
        ],
        "is_slash": false,
        "was_ambiguous": false,
        "is_continuation": false
      },
      {
        "start_tick": 12960,
        "end_tick": 13440,
        "bar": 7,
        "beat_in_bar": 4,
        "beat_position": "4",
        "duration_beats": 1.0,
        "raw_notes": [
          {
            "pitch": 47,
            "name": "B2",
            "start_tick": 12480,
            "duration_ticks": 960,
            "effective_duration": 480,
            "velocity": 76
          },
          {
            "pitch": 66,
            "name": "F#4",
            "start_tick": 12600,
            "duration_ticks": 840,
            "effective_duration": 480,
            "velocity": 58
          },
          {
            "pitch": 69,
            "name": "A4",
            "start_tick": 12720,
            "duration_ticks": 720,
            "effective_duration": 480,
            "velocity": 47
          },
          {
            "pitch": 75,
            "name": "D#5",
            "start_tick": 12840,
            "duration_ticks": 600,
            "effective_duration": 480,
            "velocity": 75
          },
          {
            "pitch": 47,
            "name": "B2",
            "start_tick": 12960,
            "duration_ticks": 480,
            "effective_duration": 480,
            "velocity": 82
          },
          {
            "pitch": 66,
            "name": "F#4",
            "start_tick": 13080,
            "duration_ticks": 360,
            "effective_duration": 360,
            "velocity": 59
          },
          {
            "pitch": 69,
            "name": "A4",
            "start_tick": 13200,
            "duration_ticks": 240,
            "effective_duration": 240,
            "velocity": 55
          },
          {
            "pitch": 75,
            "name": "D#5",
            "start_tick": 13320,
            "duration_ticks": 120,
            "effective_duration": 120,
            "velocity": 70
          }
        ],
        "bass": {
          "pitch": 47,
          "name": "B2",
          "pc": "B"
        },
        "pitch_classes": [
          "D#",
          "F#",
          "A",
          "B"
        ],
        "notes_count": 8,
        "chord": "B7",
        "root": "B",
        "root_pc": 11,
        "quality": "7",
        "confidence": 1.0,
        "alternatives": [
          {
            "label": "B9",
            "confidence": 0.864
          },
          {
            "label": "B7b9",
            "confidence": 0.864
          },
          {
            "label": "B7#9",
            "confidence": 0.864
          }
        ],
        "is_slash": false,
        "was_ambiguous": false,
        "is_continuation": false
      },
      {
        "start_tick": 13440,
        "end_tick": 13920,
        "bar": 8,
        "beat_in_bar": 1,
        "beat_position": "1",
        "duration_beats": 1.0,
        "raw_notes": [
          {
            "pitch": 47,
            "name": "B2",
            "start_tick": 13440,
            "duration_ticks": 480,
            "effective_duration": 480,
            "velocity": 52
          },
          {
            "pitch": 66,
            "name": "F#4",
            "start_tick": 13560,
            "duration_ticks": 360,
            "effective_duration": 360,
            "velocity": 48
          },
          {
            "pitch": 69,
            "name": "A4",
            "start_tick": 13680,
            "duration_ticks": 240,
            "effective_duration": 240,
            "velocity": 47
          },
          {
            "pitch": 74,
            "name": "D5",
            "start_tick": 13800,
            "duration_ticks": 600,
            "effective_duration": 120,
            "velocity": 75
          }
        ],
        "bass": {
          "pitch": 47,
          "name": "B2",
          "pc": "B"
        },
        "pitch_classes": [
          "D",
          "F#",
          "A",
          "B"
        ],
        "notes_count": 4,
        "chord": "Bm7",
        "root": "B",
        "root_pc": 11,
        "quality": "m7",
        "confidence": 1.0,
        "alternatives": [
          {
            "label": "D6/B",
            "confidence": 0.955
          },
          {
            "label": "Bm9",
            "confidence": 0.864
          },
          {
            "label": "B7#9",
            "confidence": 0.864
          }
        ],
        "is_slash": false,
        "was_ambiguous": false,
        "is_continuation": false
      },
      {
        "start_tick": 13920,
        "end_tick": 14400,
        "bar": 8,
        "beat_in_bar": 2,
        "beat_position": "2",
        "duration_beats": 1.0,
        "raw_notes": [
          {
            "pitch": 74,
            "name": "D5",
            "start_tick": 13800,
            "duration_ticks": 600,
            "effective_duration": 480,
            "velocity": 75
          },
          {
            "pitch": 47,
            "name": "B2",
            "start_tick": 13920,
            "duration_ticks": 480,
            "effective_duration": 480,
            "velocity": 58
          },
          {
            "pitch": 66,
            "name": "F#4",
            "start_tick": 14040,
            "duration_ticks": 360,
            "effective_duration": 360,
            "velocity": 49
          },
          {
            "pitch": 69,
            "name": "A4",
            "start_tick": 14160,
            "duration_ticks": 240,
            "effective_duration": 240,
            "velocity": 45
          },
          {
            "pitch": 74,
            "name": "D5",
            "start_tick": 14280,
            "duration_ticks": 136,
            "effective_duration": 120,
            "velocity": 65
          }
        ],
        "bass": {
          "pitch": 47,
          "name": "B2",
          "pc": "B"
        },
        "pitch_classes": [
          "D",
          "F#",
          "A",
          "B"
        ],
        "notes_count": 5,
        "chord": "Bm7",
        "root": "B",
        "root_pc": 11,
        "quality": "m7",
        "confidence": 1.0,
        "alternatives": [
          {
            "label": "D6/B",
            "confidence": 0.955
          },
          {
            "label": "Bm9",
            "confidence": 0.864
          },
          {
            "label": "B7#9",
            "confidence": 0.864
          }
        ],
        "is_slash": false,
        "was_ambiguous": false,
        "is_continuation": false
      },
      {
        "start_tick": 14400,
        "end_tick": 14880,
        "bar": 8,
        "beat_in_bar": 3,
        "beat_position": "3",
        "duration_beats": 1.0,
        "raw_notes": [
          {
            "pitch": 74,
            "name": "D5",
            "start_tick": 14280,
            "duration_ticks": 136,
            "effective_duration": 16,
            "velocity": 65
          },
          {
            "pitch": 47,
            "name": "B2",
            "start_tick": 14400,
            "duration_ticks": 480,
            "effective_duration": 480,
            "velocity": 63
          },
          {
            "pitch": 66,
            "name": "F#4",
            "start_tick": 14520,
            "duration_ticks": 360,
            "effective_duration": 360,
            "velocity": 57
          },
          {
            "pitch": 69,
            "name": "A4",
            "start_tick": 14640,
            "duration_ticks": 240,
            "effective_duration": 240,
            "velocity": 52
          },
          {
            "pitch": 74,
            "name": "D5",
            "start_tick": 14760,
            "duration_ticks": 120,
            "effective_duration": 120,
            "velocity": 71
          }
        ],
        "bass": {
          "pitch": 47,
          "name": "B2",
          "pc": "B"
        },
        "pitch_classes": [
          "D",
          "F#",
          "A",
          "B"
        ],
        "notes_count": 5,
        "chord": "Bm7",
        "root": "B",
        "root_pc": 11,
        "quality": "m7",
        "confidence": 1.0,
        "alternatives": [
          {
            "label": "D6/B",
            "confidence": 0.955
          },
          {
            "label": "Bm9",
            "confidence": 0.864
          },
          {
            "label": "B7#9",
            "confidence": 0.864
          }
        ],
        "is_slash": false,
        "was_ambiguous": false,
        "is_continuation": false
      },
      {
        "start_tick": 14880,
        "end_tick": 15360,
        "bar": 8,
        "beat_in_bar": 4,
        "beat_position": "4",
        "duration_beats": 1.0,
        "raw_notes": [
          {
            "pitch": 57,
            "name": "A3",
            "start_tick": 14880,
            "duration_ticks": 480,
            "effective_duration": 480,
            "velocity": 64
          },
          {
            "pitch": 74,
            "name": "D5",
            "start_tick": 15000,
            "duration_ticks": 360,
            "effective_duration": 360,
            "velocity": 69
          },
          {
            "pitch": 69,
            "name": "A4",
            "start_tick": 15120,
            "duration_ticks": 240,
            "effective_duration": 240,
            "velocity": 58
          },
          {
            "pitch": 66,
            "name": "F#4",
            "start_tick": 15240,
            "duration_ticks": 120,
            "effective_duration": 120,
            "velocity": 67
          }
        ],
        "bass": {
          "pitch": 57,
          "name": "A3",
          "pc": "A"
        },
        "pitch_classes": [
          "D",
          "F#",
          "A"
        ],
        "notes_count": 4,
        "chord": "D/A",
        "root": "D",
        "root_pc": 2,
        "quality": "maj",
        "confidence": 0.941,
        "alternatives": [
          {
            "label": "D7/A",
            "confidence": 0.765
          },
          {
            "label": "Dmaj7/A",
            "confidence": 0.765
          },
          {
            "label": "Dadd9/A",
            "confidence": 0.765
          }
        ],
        "is_slash": true,
        "was_ambiguous": false,
        "is_continuation": false
      },
      {
        "start_tick": 15360,
        "end_tick": 15840,
        "bar": 9,
        "beat_in_bar": 1,
        "beat_position": "1",
        "duration_beats": 1.0,
        "raw_notes": [
          {
            "pitch": 52,
            "name": "E3",
            "start_tick": 15360,
            "duration_ticks": 915,
            "effective_duration": 480,
            "velocity": 62
          },
          {
            "pitch": 71,
            "name": "B4",
            "start_tick": 15480,
            "duration_ticks": 795,
            "effective_duration": 360,
            "velocity": 59
          },
          {
            "pitch": 74,
            "name": "D5",
            "start_tick": 15600,
            "duration_ticks": 675,
            "effective_duration": 240,
            "velocity": 52
          },
          {
            "pitch": 71,
            "name": "B4",
            "start_tick": 15720,
            "duration_ticks": 555,
            "effective_duration": 120,
            "velocity": 54
          }
        ],
        "bass": {
          "pitch": 52,
          "name": "E3",
          "pc": "E"
        },
        "pitch_classes": [
          "D",
          "E",
          "B"
        ],
        "notes_count": 4,
        "chord": "E7",
        "root": "E",
        "root_pc": 4,
        "quality": "7",
        "confidence": 0.824,
        "alternatives": [
          {
            "label": "Em7",
            "confidence": 0.824
          },
          {
            "label": "E7sus4",
            "confidence": 0.824
          },
          {
            "label": "G6/E",
            "confidence": 0.765
          }
        ],
        "is_slash": false,
        "was_ambiguous": false,
        "is_continuation": false
      },
      {
        "start_tick": 15840,
        "end_tick": 16320,
        "bar": 9,
        "beat_in_bar": 2,
        "beat_position": "2",
        "duration_beats": 1.0,
        "raw_notes": [
          {
            "pitch": 52,
            "name": "E3",
            "start_tick": 15360,
            "duration_ticks": 915,
            "effective_duration": 435,
            "velocity": 62
          },
          {
            "pitch": 71,
            "name": "B4",
            "start_tick": 15480,
            "duration_ticks": 795,
            "effective_duration": 435,
            "velocity": 59
          },
          {
            "pitch": 74,
            "name": "D5",
            "start_tick": 15600,
            "duration_ticks": 675,
            "effective_duration": 435,
            "velocity": 52
          },
          {
            "pitch": 71,
            "name": "B4",
            "start_tick": 15720,
            "duration_ticks": 555,
            "effective_duration": 435,
            "velocity": 54
          },
          {
            "pitch": 78,
            "name": "F#5",
            "start_tick": 15840,
            "duration_ticks": 435,
            "effective_duration": 435,
            "velocity": 62
          },
          {
            "pitch": 71,
            "name": "B4",
            "start_tick": 15960,
            "duration_ticks": 315,
            "effective_duration": 315,
            "velocity": 49
          },
          {
            "pitch": 74,
            "name": "D5",
            "start_tick": 16080,
            "duration_ticks": 195,
            "effective_duration": 195,
            "velocity": 47
          },
          {
            "pitch": 71,
            "name": "B4",
            "start_tick": 16200,
            "duration_ticks": 118,
            "effective_duration": 118,
            "velocity": 71
          }
        ],
        "bass": {
          "pitch": 71,
          "name": "B4",
          "pc": "B"
        },
        "pitch_classes": [
          "D",
          "E",
          "F#",
          "B"
        ],
        "notes_count": 8,
        "chord": "E9/B",
        "root": "E",
        "root_pc": 4,
        "quality": "9",
        "confidence": 0.818,
        "alternatives": [
          {
            "label": "Em9/B",
            "confidence": 0.818
          },
          {
            "label": "D13/B",
            "confidence": 0.682
          },
          {
            "label": "E11/B",
            "confidence": 0.682
          }
        ],
        "is_slash": true,
        "was_ambiguous": false,
        "is_continuation": false
      },
      {
        "start_tick": 16320,
        "end_tick": 16800,
        "bar": 9,
        "beat_in_bar": 3,
        "beat_position": "3",
        "duration_beats": 1.0,
        "raw_notes": [
          {
            "pitch": 52,
            "name": "E3",
            "start_tick": 16320,
            "duration_ticks": 960,
            "effective_duration": 480,
            "velocity": 62
          },
          {
            "pitch": 71,
            "name": "B4",
            "start_tick": 16440,
            "duration_ticks": 840,
            "effective_duration": 360,
            "velocity": 61
          },
          {
            "pitch": 74,
            "name": "D5",
            "start_tick": 16560,
            "duration_ticks": 720,
            "effective_duration": 240,
            "velocity": 47
          },
          {
            "pitch": 71,
            "name": "B4",
            "start_tick": 16680,
            "duration_ticks": 600,
            "effective_duration": 120,
            "velocity": 49
          }
        ],
        "bass": {
          "pitch": 52,
          "name": "E3",
          "pc": "E"
        },
        "pitch_classes": [
          "D",
          "E",
          "B"
        ],
        "notes_count": 4,
        "chord": "E7",
        "root": "E",
        "root_pc": 4,
        "quality": "7",
        "confidence": 0.824,
        "alternatives": [
          {
            "label": "Em7",
            "confidence": 0.824
          },
          {
            "label": "E7sus4",
            "confidence": 0.824
          },
          {
            "label": "G6/E",
            "confidence": 0.765
          }
        ],
        "is_slash": false,
        "was_ambiguous": false,
        "is_continuation": false
      },
      {
        "start_tick": 16800,
        "end_tick": 17280,
        "bar": 9,
        "beat_in_bar": 4,
        "beat_position": "4",
        "duration_beats": 1.0,
        "raw_notes": [
          {
            "pitch": 52,
            "name": "E3",
            "start_tick": 16320,
            "duration_ticks": 960,
            "effective_duration": 480,
            "velocity": 62
          },
          {
            "pitch": 71,
            "name": "B4",
            "start_tick": 16440,
            "duration_ticks": 840,
            "effective_duration": 480,
            "velocity": 61
          },
          {
            "pitch": 74,
            "name": "D5",
            "start_tick": 16560,
            "duration_ticks": 720,
            "effective_duration": 480,
            "velocity": 47
          },
          {
            "pitch": 71,
            "name": "B4",
            "start_tick": 16680,
            "duration_ticks": 600,
            "effective_duration": 480,
            "velocity": 49
          },
          {
            "pitch": 80,
            "name": "G#5",
            "start_tick": 16800,
            "duration_ticks": 480,
            "effective_duration": 480,
            "velocity": 69
          },
          {
            "pitch": 71,
            "name": "B4",
            "start_tick": 16920,
            "duration_ticks": 360,
            "effective_duration": 360,
            "velocity": 46
          },
          {
            "pitch": 74,
            "name": "D5",
            "start_tick": 17040,
            "duration_ticks": 240,
            "effective_duration": 240,
            "velocity": 49
          },
          {
            "pitch": 71,
            "name": "B4",
            "start_tick": 17160,
            "duration_ticks": 120,
            "effective_duration": 120,
            "velocity": 54
          }
        ],
        "bass": {
          "pitch": 71,
          "name": "B4",
          "pc": "B"
        },
        "pitch_classes": [
          "D",
          "E",
          "G#",
          "B"
        ],
        "notes_count": 8,
        "chord": "E7/B",
        "root": "E",
        "root_pc": 4,
        "quality": "7",
        "confidence": 0.955,
        "alternatives": [
          {
            "label": "E9/B",
            "confidence": 0.818
          },
          {
            "label": "E7b9/B",
            "confidence": 0.818
          },
          {
            "label": "E7#9/B",
            "confidence": 0.818
          }
        ],
        "is_slash": true,
        "was_ambiguous": false,
        "is_continuation": false
      }
    ]
  },
  "song_form": {
    "form_type": "through-composed",
    "confidence": 0.73,
    "total_bars": 9,
    "sections": [
      {
        "label": "intro",
        "start_bar": 1,
        "end_bar": 1,
        "start_tick": 0,
        "end_tick": 1920,
        "bars": 1,
        "avg_energy": 0.575,
        "confidence": 0.672
      },
      {
        "label": "chorus",
        "start_bar": 2,
        "end_bar": 4,
        "start_tick": 1920,
        "end_tick": 7680,
        "bars": 3,
        "avg_energy": 0.968,
        "confidence": 0.79
      },
      {
        "label": "chorus",
        "start_bar": 5,
        "end_bar": 8,
        "start_tick": 7680,
        "end_tick": 15360,
        "bars": 4,
        "avg_energy": 0.941,
        "confidence": 0.782
      },
      {
        "label": "outro",
        "start_bar": 9,
        "end_bar": 9,
        "start_tick": 15360,
        "end_tick": 17280,
        "bars": 1,
        "avg_energy": 0.586,
        "confidence": 0.676
      }
    ]
  },
  "playability": {
    "score": 96,
    "pass": true,
    "num_issues": 0,
    "issues_sample": []
  },
  "embedding": [
    0.0,
    0.11413043478260869,
    0.11413043478260869,
    0.010869565217391304,
    0.20652173913043478,
    0.02717391304347826,
    0.11413043478260869,
    0.010869565217391304,
    0.059782608695652176,
    0.16304347826086957,
    0.010869565217391304,
    0.16847826086956522,
    0.18032786885245902,
    0.00546448087431694,
    0.02185792349726776,
    0.0273224043715847,
    0.0,
    0.03278688524590164,
    0.01092896174863388,
    0.00546448087431694,
    0.0273224043715847,
    0.03825136612021858,
    0.02185792349726776,
    0.01092896174863388,
    0.0273224043715847,
    0.0,
    0.03278688524590164,
    0.07103825136612021,
    0.0273224043715847,
    0.06557377049180328,
    0.02185792349726776,
    0.12568306010928962,
    0.01639344262295082,
    0.04918032786885246,
    0.01092896174863388,
    0.00546448087431694,
    0.16393442622950818,
    0.0,
    0.0,
    0.05434782608695652,
    0.3641304347826087,
    0.44021739130434784,
    0.1358695652173913,
    0.005434782608695652,
    0.0,
    0.0,
    0.44565217391304346,
    0.32065217391304346,
    0.1956521739130435,
    0.03260869565217391,
    0.005434782608695652,
    0.0,
    0.0,
    0.0,
    0.0,
    0.5204724409448819,
    0.205,
    0.5251968503937008,
    0.29,
    0.0392,
    0.03012,
    0.35,
    0.05143333333333333,
    0.14130434782608695,
    0.14130434782608695,
    0.10326086956521739,
    0.08152173913043478,
    0.07608695652173914,
    0.059782608695652176,
    0.043478260869565216,
    0.03804347826086957,
    0.03260869565217391,
    0.02717391304347826,
    0.02717391304347826,
    0.02717391304347826,
    0.021739130434782608,
    0.021739130434782608,
    0.021739130434782608,
    0.016304347826086956,
    0.016304347826086956,
    0.016304347826086956,
    0.010869565217391304,
    0.010869565217391304,
    0.010869565217391304,
    0.010869565217391304,
    0.010869565217391304,
    0.010869565217391304,
    0.010869565217391304,
    0.005434782608695652,
    0.005434782608695652,
    0.0,
    0.0,
    0.0,
    0.0,
    0.0,
    0.0,
    0.0,
    0.0,
    0.0,
    0.0,
    0.0,
    0.0,
    0.0,
    0.0,
    0.0,
    0.0,
    0.0,
    0.0,
    0.0,
    0.0,
    0.0,
    0.0,
    0.0,
    0.0,
    0.0,
    0.0,
    0.0,
    0.0,
    0.0,
    0.0,
    0.0,
    0.0,
    0.0,
    0.0,
    0.0,
    0.0,
    0.0,
    0.0
  ],
  "composer_tags": {
    "rhythm_type": "dense",
    "rhythm_regularity": 1.0,
    "note_density_per_sec": 5.98,
    "avg_ioi": 0.2143,
    "harmony_type": "dyadic",
    "harmonic_brightness": 0.429,
    "harmony_ratio": 0.435,
    "avg_polyphony": 2.0,
    "max_polyphony": 2,
    "accompaniment_pattern": "comping",
    "arpeggio_ratio": 0.011,
    "voicing_type": "semi_open",
    "avg_voicing_spread": 9.2,
    "pitch_range": 37,
    "register": "alto",
    "dynamic_profile": "expressive",
    "dynamic_level": "mezzo-forte",
    "velocity_range": 64,
    "tempo_bpm": 70.0,
    "tempo_category": "adagio"
  },
  "db_storage": {
    "harmonic_events": [
      {
        "event_id": "두 사람_BPM70_4-4_aedaf9df_he_0",
        "source_midi_id": "두 사람_BPM70_4-4_aedaf9df",
        "bar_index": 1,
        "beat_position": "1",
        "tick_start": 0,
        "tick_end": 480,
        "raw_notes": [
          {
            "pitch": 57,
            "name": "A3",
            "start_tick": 0,
            "duration_ticks": 420,
            "effective_duration": 420,
            "velocity": 37
          },
          {
            "pitch": 64,
            "name": "E4",
            "start_tick": 120,
            "duration_ticks": 145,
            "effective_duration": 145,
            "velocity": 42
          },
          {
            "pitch": 71,
            "name": "B4",
            "start_tick": 240,
            "duration_ticks": 122,
            "effective_duration": 122,
            "velocity": 47
          },
          {
            "pitch": 73,
            "name": "C#5",
            "start_tick": 360,
            "duration_ticks": 241,
            "effective_duration": 120,
            "velocity": 71
          }
        ],
        "bass": {
          "pitch": 57,
          "name": "A3",
          "pc": "A"
        },
        "pitch_classes": [
          "C#",
          "E",
          "A",
          "B"
        ],
        "notes_count": 4,
        "chord_label": "Aadd9",
        "root": "A",
        "quality": "add9",
        "confidence": 1.0,
        "alternatives": [
          {
            "label": "A9",
            "confidence": 0.864
          },
          {
            "label": "Amaj9",
            "confidence": 0.864
          },
          {
            "label": "A11",
            "confidence": 0.727
          }
        ],
        "is_slash": false
      },
      {
        "event_id": "두 사람_BPM70_4-4_aedaf9df_he_1",
        "source_midi_id": "두 사람_BPM70_4-4_aedaf9df",
        "bar_index": 1,
        "beat_position": "2",
        "tick_start": 480,
        "tick_end": 960,
        "raw_notes": [
          {
            "pitch": 73,
            "name": "C#5",
            "start_tick": 360,
            "duration_ticks": 241,
            "effective_duration": 121,
            "velocity": 71
          },
          {
            "pitch": 57,
            "name": "A3",
            "start_tick": 480,
            "duration_ticks": 398,
            "effective_duration": 398,
            "velocity": 63
          },
          {
            "pitch": 64,
            "name": "E4",
            "start_tick": 600,
            "duration_ticks": 126,
            "effective_duration": 126,
            "velocity": 55
          },
          {
            "pitch": 71,
            "name": "B4",
            "start_tick": 720,
            "duration_ticks": 127,
            "effective_duration": 127,
            "velocity": 49
          },
          {
            "pitch": 73,
            "name": "C#5",
            "start_tick": 840,
            "duration_ticks": 256,
            "effective_duration": 120,
            "velocity": 76
          }
        ],
        "bass": {
          "pitch": 57,
          "name": "A3",
          "pc": "A"
        },
        "pitch_classes": [
          "C#",
          "E",
          "A",
          "B"
        ],
        "notes_count": 5,
        "chord_label": "Aadd9",
        "root": "A",
        "quality": "add9",
        "confidence": 1.0,
        "alternatives": [
          {
            "label": "A9",
            "confidence": 0.864
          },
          {
            "label": "Amaj9",
            "confidence": 0.864
          },
          {
            "label": "A11",
            "confidence": 0.727
          }
        ],
        "is_slash": false
      },
      {
        "event_id": "두 사람_BPM70_4-4_aedaf9df_he_2",
        "source_midi_id": "두 사람_BPM70_4-4_aedaf9df",
        "bar_index": 1,
        "beat_position": "3",
        "tick_start": 960,
        "tick_end": 1440,
        "raw_notes": [
          {
            "pitch": 73,
            "name": "C#5",
            "start_tick": 840,
            "duration_ticks": 256,
            "effective_duration": 136,
            "velocity": 76
          },
          {
            "pitch": 57,
            "name": "A3",
            "start_tick": 960,
            "duration_ticks": 410,
            "effective_duration": 410,
            "velocity": 67
          },
          {
            "pitch": 64,
            "name": "E4",
            "start_tick": 1080,
            "duration_ticks": 136,
            "effective_duration": 136,
            "velocity": 62
          },
          {
            "pitch": 71,
            "name": "B4",
            "start_tick": 1200,
            "duration_ticks": 138,
            "effective_duration": 138,
            "velocity": 52
          },
          {
            "pitch": 73,
            "name": "C#5",
            "start_tick": 1320,
            "duration_ticks": 242,
            "effective_duration": 120,
            "velocity": 73
          }
        ],
        "bass": {
          "pitch": 57,
          "name": "A3",
          "pc": "A"
        },
        "pitch_classes": [
          "C#",
          "E",
          "A",
          "B"
        ],
        "notes_count": 5,
        "chord_label": "Aadd9",
        "root": "A",
        "quality": "add9",
        "confidence": 1.0,
        "alternatives": [
          {
            "label": "A9",
            "confidence": 0.864
          },
          {
            "label": "Amaj9",
            "confidence": 0.864
          },
          {
            "label": "A11",
            "confidence": 0.727
          }
        ],
        "is_slash": false
      },
      {
        "event_id": "두 사람_BPM70_4-4_aedaf9df_he_3",
        "source_midi_id": "두 사람_BPM70_4-4_aedaf9df",
        "bar_index": 1,
        "beat_position": "4",
        "tick_start": 1440,
        "tick_end": 1920,
        "raw_notes": [
          {
            "pitch": 73,
            "name": "C#5",
            "start_tick": 1320,
            "duration_ticks": 242,
            "effective_duration": 122,
            "velocity": 73
          },
          {
            "pitch": 57,
            "name": "A3",
            "start_tick": 1440,
            "duration_ticks": 337,
            "effective_duration": 337,
            "velocity": 70
          },
          {
            "pitch": 64,
            "name": "E4",
            "start_tick": 1560,
            "duration_ticks": 121,
            "effective_duration": 121,
            "velocity": 63
          },
          {
            "pitch": 71,
            "name": "B4",
            "start_tick": 1680,
            "duration_ticks": 121,
            "effective_duration": 121,
            "velocity": 53
          },
          {
            "pitch": 73,
            "name": "C#5",
            "start_tick": 1800,
            "duration_ticks": 1075,
            "effective_duration": 120,
            "velocity": 76
          }
        ],
        "bass": {
          "pitch": 57,
          "name": "A3",
          "pc": "A"
        },
        "pitch_classes": [
          "C#",
          "E",
          "A",
          "B"
        ],
        "notes_count": 5,
        "chord_label": "Aadd9",
        "root": "A",
        "quality": "add9",
        "confidence": 1.0,
        "alternatives": [
          {
            "label": "A9",
            "confidence": 0.864
          },
          {
            "label": "Amaj9",
            "confidence": 0.864
          },
          {
            "label": "A11",
            "confidence": 0.727
          }
        ],
        "is_slash": false
      },
      {
        "event_id": "두 사람_BPM70_4-4_aedaf9df_he_4",
        "source_midi_id": "두 사람_BPM70_4-4_aedaf9df",
        "bar_index": 2,
        "beat_position": "1",
        "tick_start": 1920,
        "tick_end": 2880,
        "raw_notes": [
          {
            "pitch": 73,
            "name": "C#5",
            "start_tick": 1800,
            "duration_ticks": 1075,
            "effective_duration": 955,
            "velocity": 76
          },
          {
            "pitch": 57,
            "name": "A3",
            "start_tick": 1920,
            "duration_ticks": 955,
            "effective_duration": 955,
            "velocity": 76
          },
          {
            "pitch": 64,
            "name": "E4",
            "start_tick": 2040,
            "duration_ticks": 835,
            "effective_duration": 835,
            "velocity": 64
          },
          {
            "pitch": 71,
            "name": "B4",
            "start_tick": 2160,
            "duration_ticks": 715,
            "effective_duration": 715,
            "velocity": 46
          },
          {
            "pitch": 73,
            "name": "C#5",
            "start_tick": 2280,
            "duration_ticks": 595,
            "effective_duration": 595,
            "velocity": 68
          },
          {
            "pitch": 57,
            "name": "A3",
            "start_tick": 2400,
            "duration_ticks": 475,
            "effective_duration": 475,
            "velocity": 86
          },
          {
            "pitch": 64,
            "name": "E4",
            "start_tick": 2520,
            "duration_ticks": 355,
            "effective_duration": 355,
            "velocity": 64
          },
          {
            "pitch": 71,
            "name": "B4",
            "start_tick": 2640,
            "duration_ticks": 235,
            "effective_duration": 235,
            "velocity": 54
          },
          {
            "pitch": 73,
            "name": "C#5",
            "start_tick": 2760,
            "duration_ticks": 125,
            "effective_duration": 120,
            "velocity": 62
          }
        ],
        "bass": {
          "pitch": 57,
          "name": "A3",
          "pc": "A"
        },
        "pitch_classes": [
          "C#",
          "E",
          "A",
          "B"
        ],
        "notes_count": 9,
        "chord_label": "Aadd9",
        "root": "A",
        "quality": "add9",
        "confidence": 1.0,
        "alternatives": [
          {
            "label": "A9",
            "confidence": 0.864
          },
          {
            "label": "Amaj9",
            "confidence": 0.864
          },
          {
            "label": "A11",
            "confidence": 0.727
          }
        ],
        "is_slash": false
      },
      {
        "event_id": "두 사람_BPM70_4-4_aedaf9df_he_5",
        "source_midi_id": "두 사람_BPM70_4-4_aedaf9df",
        "bar_index": 2,
        "beat_position": "3",
        "tick_start": 2880,
        "tick_end": 3840,
        "raw_notes": [
          {
            "pitch": 73,
            "name": "C#5",
            "start_tick": 2760,
            "duration_ticks": 125,
            "effective_duration": 5,
            "velocity": 62
          },
          {
            "pitch": 56,
            "name": "G#3",
            "start_tick": 2880,
            "duration_ticks": 953,
            "effective_duration": 953,
            "velocity": 75
          },
          {
            "pitch": 64,
            "name": "E4",
            "start_tick": 3000,
            "duration_ticks": 833,
            "effective_duration": 833,
            "velocity": 66
          },
          {
            "pitch": 71,
            "name": "B4",
            "start_tick": 3120,
            "duration_ticks": 713,
            "effective_duration": 713,
            "velocity": 57
          },
          {
            "pitch": 76,
            "name": "E5",
            "start_tick": 3240,
            "duration_ticks": 593,
            "effective_duration": 593,
            "velocity": 80
          },
          {
            "pitch": 56,
            "name": "G#3",
            "start_tick": 3360,
            "duration_ticks": 473,
            "effective_duration": 473,
            "velocity": 81
          },
          {
            "pitch": 64,
            "name": "E4",
            "start_tick": 3480,
            "duration_ticks": 353,
            "effective_duration": 353,
            "velocity": 55
          },
          {
            "pitch": 71,
            "name": "B4",
            "start_tick": 3600,
            "duration_ticks": 233,
            "effective_duration": 233,
            "velocity": 61
          },
          {
            "pitch": 76,
            "name": "E5",
            "start_tick": 3720,
            "duration_ticks": 1097,
            "effective_duration": 120,
            "velocity": 72
          }
        ],
        "bass": {
          "pitch": 56,
          "name": "G#3",
          "pc": "G#"
        },
        "pitch_classes": [
          "C#",
          "E",
          "G#",
          "B"
        ],
        "notes_count": 9,
        "chord_label": "E/G#",
        "root": "E",
        "quality": "maj",
        "confidence": 0.941,
        "alternatives": [
          {
            "label": "C#m7/G#",
            "confidence": 0.765
          },
          {
            "label": "E7/G#",
            "confidence": 0.765
          },
          {
            "label": "Emaj7/G#",
            "confidence": 0.765
          }
        ],
        "is_slash": true
      },
      {
        "event_id": "두 사람_BPM70_4-4_aedaf9df_he_6",
        "source_midi_id": "두 사람_BPM70_4-4_aedaf9df",
        "bar_index": 3,
        "beat_position": "1",
        "tick_start": 3840,
        "tick_end": 4800,
        "raw_notes": [
          {
            "pitch": 76,
            "name": "E5",
            "start_tick": 3720,
            "duration_ticks": 1097,
            "effective_duration": 960,
            "velocity": 72
          },
          {
            "pitch": 55,
            "name": "G3",
            "start_tick": 3840,
            "duration_ticks": 977,
            "effective_duration": 960,
            "velocity": 68
          },
          {
            "pitch": 64,
            "name": "E4",
            "start_tick": 3960,
            "duration_ticks": 857,
            "effective_duration": 840,
            "velocity": 48
          },
          {
            "pitch": 71,
            "name": "B4",
            "start_tick": 4080,
            "duration_ticks": 737,
            "effective_duration": 720,
            "velocity": 60
          },
          {
            "pitch": 76,
            "name": "E5",
            "start_tick": 4200,
            "duration_ticks": 617,
            "effective_duration": 600,
            "velocity": 74
          },
          {
            "pitch": 55,
            "name": "G3",
            "start_tick": 4320,
            "duration_ticks": 498,
            "effective_duration": 480,
            "velocity": 75
          },
          {
            "pitch": 64,
            "name": "E4",
            "start_tick": 4440,
            "duration_ticks": 377,
            "effective_duration": 360,
            "velocity": 58
          },
          {
            "pitch": 71,
            "name": "B4",
            "start_tick": 4560,
            "duration_ticks": 257,
            "effective_duration": 240,
            "velocity": 62
          },
          {
            "pitch": 76,
            "name": "E5",
            "start_tick": 4680,
            "duration_ticks": 163,
            "effective_duration": 120,
            "velocity": 62
          }
        ],
        "bass": {
          "pitch": 55,
          "name": "G3",
          "pc": "G"
        },
        "pitch_classes": [
          "E",
          "G",
          "B"
        ],
        "notes_count": 9,
        "chord_label": "Emin/G",
        "root": "E",
        "quality": "min",
        "confidence": 0.941,
        "alternatives": [
          {
            "label": "G6",
            "confidence": 0.824
          },
          {
            "label": "Cmaj7/G",
            "confidence": 0.765
          },
          {
            "label": "C#m7b5/G",
            "confidence": 0.765
          }
        ],
        "is_slash": true
      },
      {
        "event_id": "두 사람_BPM70_4-4_aedaf9df_he_7",
        "source_midi_id": "두 사람_BPM70_4-4_aedaf9df",
        "bar_index": 3,
        "beat_position": "3",
        "tick_start": 4800,
        "tick_end": 5280,
        "raw_notes": [
          {
            "pitch": 76,
            "name": "E5",
            "start_tick": 3720,
            "duration_ticks": 1097,
            "effective_duration": 17,
            "velocity": 72
          },
          {
            "pitch": 55,
            "name": "G3",
            "start_tick": 3840,
            "duration_ticks": 977,
            "effective_duration": 17,
            "velocity": 68
          },
          {
            "pitch": 64,
            "name": "E4",
            "start_tick": 3960,
            "duration_ticks": 857,
            "effective_duration": 17,
            "velocity": 48
          },
          {
            "pitch": 71,
            "name": "B4",
            "start_tick": 4080,
            "duration_ticks": 737,
            "effective_duration": 17,
            "velocity": 60
          },
          {
            "pitch": 76,
            "name": "E5",
            "start_tick": 4200,
            "duration_ticks": 617,
            "effective_duration": 17,
            "velocity": 74
          },
          {
            "pitch": 55,
            "name": "G3",
            "start_tick": 4320,
            "duration_ticks": 498,
            "effective_duration": 18,
            "velocity": 75
          },
          {
            "pitch": 64,
            "name": "E4",
            "start_tick": 4440,
            "duration_ticks": 377,
            "effective_duration": 17,
            "velocity": 58
          },
          {
            "pitch": 71,
            "name": "B4",
            "start_tick": 4560,
            "duration_ticks": 257,
            "effective_duration": 17,
            "velocity": 62
          },
          {
            "pitch": 76,
            "name": "E5",
            "start_tick": 4680,
            "duration_ticks": 163,
            "effective_duration": 43,
            "velocity": 62
          },
          {
            "pitch": 54,
            "name": "F#3",
            "start_tick": 4800,
            "duration_ticks": 486,
            "effective_duration": 480,
            "velocity": 80
          },
          {
            "pitch": 66,
            "name": "F#4",
            "start_tick": 4920,
            "duration_ticks": 366,
            "effective_duration": 360,
            "velocity": 49
          },
          {
            "pitch": 70,
            "name": "A#4",
            "start_tick": 5040,
            "duration_ticks": 246,
            "effective_duration": 240,
            "velocity": 68
          },
          {
            "pitch": 76,
            "name": "E5",
            "start_tick": 5160,
            "duration_ticks": 617,
            "effective_duration": 120,
            "velocity": 79
          }
        ],
        "bass": {
          "pitch": 54,
          "name": "F#3",
          "pc": "F#"
        },
        "pitch_classes": [
          "E",
          "F#",
          "G",
          "A#",
          "B"
        ],
        "notes_count": 13,
        "chord_label": "F#7",
        "root": "F#",
        "quality": "7",
        "confidence": 0.824,
        "alternatives": [
          {
            "label": "F#9",
            "confidence": 0.647
          },
          {
            "label": "F#7b9",
            "confidence": 0.647
          },
          {
            "label": "F#7#9",
            "confidence": 0.647
          }
        ],
        "is_slash": false
      },
      {
        "event_id": "두 사람_BPM70_4-4_aedaf9df_he_8",
        "source_midi_id": "두 사람_BPM70_4-4_aedaf9df",
        "bar_index": 3,
        "beat_position": "4",
        "tick_start": 5280,
        "tick_end": 5760,
        "raw_notes": [
          {
            "pitch": 54,
            "name": "F#3",
            "start_tick": 4800,
            "duration_ticks": 486,
            "effective_duration": 6,
            "velocity": 80
          },
          {
            "pitch": 66,
            "name": "F#4",
            "start_tick": 4920,
            "duration_ticks": 366,
            "effective_duration": 6,
            "velocity": 49
          },
          {
            "pitch": 70,
            "name": "A#4",
            "start_tick": 5040,
            "duration_ticks": 246,
            "effective_duration": 6,
            "velocity": 68
          },
          {
            "pitch": 76,
            "name": "E5",
            "start_tick": 5160,
            "duration_ticks": 617,
            "effective_duration": 480,
            "velocity": 79
          },
          {
            "pitch": 54,
            "name": "F#3",
            "start_tick": 5280,
            "duration_ticks": 497,
            "effective_duration": 480,
            "velocity": 76
          },
          {
            "pitch": 66,
            "name": "F#4",
            "start_tick": 5400,
            "duration_ticks": 377,
            "effective_duration": 360,
            "velocity": 62
          },
          {
            "pitch": 70,
            "name": "A#4",
            "start_tick": 5520,
            "duration_ticks": 257,
            "effective_duration": 240,
            "velocity": 65
          },
          {
            "pitch": 76,
            "name": "E5",
            "start_tick": 5640,
            "duration_ticks": 137,
            "effective_duration": 120,
            "velocity": 83
          }
        ],
        "bass": {
          "pitch": 54,
          "name": "F#3",
          "pc": "F#"
        },
        "pitch_classes": [
          "E",
          "F#",
          "A#"
        ],
        "notes_count": 8,
        "chord_label": "F#7",
        "root": "F#",
        "quality": "7",
        "confidence": 0.824,
        "alternatives": [
          {
            "label": "F#9",
            "confidence": 0.647
          },
          {
            "label": "F#7b9",
            "confidence": 0.647
          },
          {
            "label": "F#7#9",
            "confidence": 0.647
          }
        ],
        "is_slash": false
      },
      {
        "event_id": "두 사람_BPM70_4-4_aedaf9df_he_9",
        "source_midi_id": "두 사람_BPM70_4-4_aedaf9df",
        "bar_index": 4,
        "beat_position": "1",
        "tick_start": 5760,
        "tick_end": 6720,
        "raw_notes": [
          {
            "pitch": 76,
            "name": "E5",
            "start_tick": 5160,
            "duration_ticks": 617,
            "effective_duration": 17,
            "velocity": 79
          },
          {
            "pitch": 54,
            "name": "F#3",
            "start_tick": 5280,
            "duration_ticks": 497,
            "effective_duration": 17,
            "velocity": 76
          },
          {
            "pitch": 66,
            "name": "F#4",
            "start_tick": 5400,
            "duration_ticks": 377,
            "effective_duration": 17,
            "velocity": 62
          },
          {
            "pitch": 70,
            "name": "A#4",
            "start_tick": 5520,
            "duration_ticks": 257,
            "effective_duration": 17,
            "velocity": 65
          },
          {
            "pitch": 76,
            "name": "E5",
            "start_tick": 5640,
            "duration_ticks": 137,
            "effective_duration": 17,
            "velocity": 83
          },
          {
            "pitch": 50,
            "name": "D3",
            "start_tick": 5760,
            "duration_ticks": 938,
            "effective_duration": 938,
            "velocity": 58
          },
          {
            "pitch": 66,
            "name": "F#4",
            "start_tick": 5880,
            "duration_ticks": 818,
            "effective_duration": 818,
            "velocity": 62
          },
          {
            "pitch": 69,
            "name": "A4",
            "start_tick": 6000,
            "duration_ticks": 698,
            "effective_duration": 698,
            "velocity": 60
          },
          {
            "pitch": 74,
            "name": "D5",
            "start_tick": 6120,
            "duration_ticks": 578,
            "effective_duration": 578,
            "velocity": 82
          },
          {
            "pitch": 50,
            "name": "D3",
            "start_tick": 6240,
            "duration_ticks": 458,
            "effective_duration": 458,
            "velocity": 73
          },
          {
            "pitch": 66,
            "name": "F#4",
            "start_tick": 6360,
            "duration_ticks": 338,
            "effective_duration": 338,
            "velocity": 60
          },
          {
            "pitch": 69,
            "name": "A4",
            "start_tick": 6480,
            "duration_ticks": 218,
            "effective_duration": 218,
            "velocity": 50
          },
          {
            "pitch": 73,
            "name": "C#5",
            "start_tick": 6600,
            "duration_ticks": 1075,
            "effective_duration": 120,
            "velocity": 71
          }
        ],
        "bass": {
          "pitch": 50,
          "name": "D3",
          "pc": "D"
        },
        "pitch_classes": [
          "C#",
          "D",
          "E",
          "F#",
          "A",
          "A#"
        ],
        "notes_count": 13,
        "chord_label": "Dadd9",
        "root": "D",
        "quality": "add9",
        "confidence": 1.0,
        "alternatives": [
          {
            "label": "D9",
            "confidence": 0.864
          },
          {
            "label": "Dmaj9",
            "confidence": 0.864
          },
          {
            "label": "D11",
            "confidence": 0.727
          }
        ],
        "is_slash": false
      },
      {
        "event_id": "두 사람_BPM70_4-4_aedaf9df_he_10",
        "source_midi_id": "두 사람_BPM70_4-4_aedaf9df",
        "bar_index": 4,
        "beat_position": "3",
        "tick_start": 6720,
        "tick_end": 7680,
        "raw_notes": [
          {
            "pitch": 73,
            "name": "C#5",
            "start_tick": 6600,
            "duration_ticks": 1075,
            "effective_duration": 955,
            "velocity": 71
          },
          {
            "pitch": 50,
            "name": "D3",
            "start_tick": 6720,
            "duration_ticks": 955,
            "effective_duration": 955,
            "velocity": 72
          },
          {
            "pitch": 65,
            "name": "F4",
            "start_tick": 6840,
            "duration_ticks": 835,
            "effective_duration": 835,
            "velocity": 54
          },
          {
            "pitch": 71,
            "name": "B4",
            "start_tick": 6960,
            "duration_ticks": 715,
            "effective_duration": 715,
            "velocity": 50
          },
          {
            "pitch": 74,
            "name": "D5",
            "start_tick": 7080,
            "duration_ticks": 595,
            "effective_duration": 595,
            "velocity": 81
          },
          {
            "pitch": 50,
            "name": "D3",
            "start_tick": 7200,
            "duration_ticks": 475,
            "effective_duration": 475,
            "velocity": 79
          },
          {
            "pitch": 65,
            "name": "F4",
            "start_tick": 7320,
            "duration_ticks": 355,
            "effective_duration": 355,
            "velocity": 60
          },
          {
            "pitch": 71,
            "name": "B4",
            "start_tick": 7440,
            "duration_ticks": 235,
            "effective_duration": 235,
            "velocity": 74
          },
          {
            "pitch": 74,
            "name": "D5",
            "start_tick": 7560,
            "duration_ticks": 115,
            "effective_duration": 115,
            "velocity": 90
          }
        ],
        "bass": {
          "pitch": 50,
          "name": "D3",
          "pc": "D"
        },
        "pitch_classes": [
          "C#",
          "D",
          "F",
          "B"
        ],
        "notes_count": 9,
        "chord_label": "C#7b9/D",
        "root": "C#",
        "quality": "7b9",
        "confidence": 0.818,
        "alternatives": [
          {
            "label": "Bdim/D",
            "confidence": 0.557
          },
          {
            "label": "Ddim7",
            "confidence": 0.466
          },
          {
            "label": "Dm6",
            "confidence": 0.466
          }
        ],
        "is_slash": true
      },
      {
        "event_id": "두 사람_BPM70_4-4_aedaf9df_he_11",
        "source_midi_id": "두 사람_BPM70_4-4_aedaf9df",
        "bar_index": 5,
        "beat_position": "1",
        "tick_start": 7680,
        "tick_end": 8160,
        "raw_notes": [
          {
            "pitch": 45,
            "name": "A2",
            "start_tick": 7680,
            "duration_ticks": 931,
            "effective_duration": 480,
            "velocity": 62
          },
          {
            "pitch": 64,
            "name": "E4",
            "start_tick": 7800,
            "duration_ticks": 811,
            "effective_duration": 360,
            "velocity": 62
          },
          {
            "pitch": 71,
            "name": "B4",
            "start_tick": 7920,
            "duration_ticks": 691,
            "effective_duration": 240,
            "velocity": 53
          },
          {
            "pitch": 73,
            "name": "C#5",
            "start_tick": 8040,
            "duration_ticks": 571,
            "effective_duration": 120,
            "velocity": 75
          }
        ],
        "bass": {
          "pitch": 45,
          "name": "A2",
          "pc": "A"
        },
        "pitch_classes": [
          "C#",
          "E",
          "A",
          "B"
        ],
        "notes_count": 4,
        "chord_label": "Aadd9",
        "root": "A",
        "quality": "add9",
        "confidence": 1.0,
        "alternatives": [
          {
            "label": "A9",
            "confidence": 0.864
          },
          {
            "label": "Amaj9",
            "confidence": 0.864
          },
          {
            "label": "A11",
            "confidence": 0.727
          }
        ],
        "is_slash": false
      },
      {
        "event_id": "두 사람_BPM70_4-4_aedaf9df_he_12",
        "source_midi_id": "두 사람_BPM70_4-4_aedaf9df",
        "bar_index": 5,
        "beat_position": "2",
        "tick_start": 8160,
        "tick_end": 8640,
        "raw_notes": [
          {
            "pitch": 45,
            "name": "A2",
            "start_tick": 7680,
            "duration_ticks": 931,
            "effective_duration": 451,
            "velocity": 62
          },
          {
            "pitch": 64,
            "name": "E4",
            "start_tick": 7800,
            "duration_ticks": 811,
            "effective_duration": 451,
            "velocity": 62
          },
          {
            "pitch": 71,
            "name": "B4",
            "start_tick": 7920,
            "duration_ticks": 691,
            "effective_duration": 451,
            "velocity": 53
          },
          {
            "pitch": 73,
            "name": "C#5",
            "start_tick": 8040,
            "duration_ticks": 571,
            "effective_duration": 451,
            "velocity": 75
          },
          {
            "pitch": 45,
            "name": "A2",
            "start_tick": 8160,
            "duration_ticks": 466,
            "effective_duration": 466,
            "velocity": 72
          },
          {
            "pitch": 64,
            "name": "E4",
            "start_tick": 8280,
            "duration_ticks": 331,
            "effective_duration": 331,
            "velocity": 55
          },
          {
            "pitch": 71,
            "name": "B4",
            "start_tick": 8400,
            "duration_ticks": 211,
            "effective_duration": 211,
            "velocity": 57
          },
          {
            "pitch": 73,
            "name": "C#5",
            "start_tick": 8520,
            "duration_ticks": 566,
            "effective_duration": 120,
            "velocity": 80
          }
        ],
        "bass": {
          "pitch": 45,
          "name": "A2",
          "pc": "A"
        },
        "pitch_classes": [
          "C#",
          "E",
          "A",
          "B"
        ],
        "notes_count": 8,
        "chord_label": "Aadd9",
        "root": "A",
        "quality": "add9",
        "confidence": 1.0,
        "alternatives": [
          {
            "label": "A9",
            "confidence": 0.864
          },
          {
            "label": "Amaj9",
            "confidence": 0.864
          },
          {
            "label": "A11",
            "confidence": 0.727
          }
        ],
        "is_slash": false
      },
      {
        "event_id": "두 사람_BPM70_4-4_aedaf9df_he_13",
        "source_midi_id": "두 사람_BPM70_4-4_aedaf9df",
        "bar_index": 5,
        "beat_position": "3",
        "tick_start": 8640,
        "tick_end": 9120,
        "raw_notes": [
          {
            "pitch": 73,
            "name": "C#5",
            "start_tick": 8520,
            "duration_ticks": 566,
            "effective_duration": 446,
            "velocity": 80
          },
          {
            "pitch": 44,
            "name": "G#2",
            "start_tick": 8640,
            "duration_ticks": 473,
            "effective_duration": 473,
            "velocity": 68
          },
          {
            "pitch": 64,
            "name": "E4",
            "start_tick": 8760,
            "duration_ticks": 326,
            "effective_duration": 326,
            "velocity": 65
          },
          {
            "pitch": 71,
            "name": "B4",
            "start_tick": 8880,
            "duration_ticks": 206,
            "effective_duration": 206,
            "velocity": 51
          },
          {
            "pitch": 73,
            "name": "C#5",
            "start_tick": 9000,
            "duration_ticks": 614,
            "effective_duration": 120,
            "velocity": 75
          }
        ],
        "bass": {
          "pitch": 44,
          "name": "G#2",
          "pc": "G#"
        },
        "pitch_classes": [
          "C#",
          "E",
          "G#",
          "B"
        ],
        "notes_count": 5,
        "chord_label": "C#m7/G#",
        "root": "C#",
        "quality": "m7",
        "confidence": 0.955,
        "alternatives": [
          {
            "label": "E6/G#",
            "confidence": 0.955
          },
          {
            "label": "C#m9/G#",
            "confidence": 0.818
          },
          {
            "label": "C#7#9/G#",
            "confidence": 0.818
          }
        ],
        "is_slash": true
      },
      {
        "event_id": "두 사람_BPM70_4-4_aedaf9df_he_14",
        "source_midi_id": "두 사람_BPM70_4-4_aedaf9df",
        "bar_index": 5,
        "beat_position": "4",
        "tick_start": 9120,
        "tick_end": 9600,
        "raw_notes": [
          {
            "pitch": 73,
            "name": "C#5",
            "start_tick": 9000,
            "duration_ticks": 614,
            "effective_duration": 480,
            "velocity": 75
          },
          {
            "pitch": 49,
            "name": "C#3",
            "start_tick": 9120,
            "duration_ticks": 529,
            "effective_duration": 480,
            "velocity": 78
          },
          {
            "pitch": 65,
            "name": "F4",
            "start_tick": 9240,
            "duration_ticks": 374,
            "effective_duration": 360,
            "velocity": 69
          },
          {
            "pitch": 71,
            "name": "B4",
            "start_tick": 9360,
            "duration_ticks": 254,
            "effective_duration": 240,
            "velocity": 58
          },
          {
            "pitch": 73,
            "name": "C#5",
            "start_tick": 9480,
            "duration_ticks": 167,
            "effective_duration": 120,
            "velocity": 75
          }
        ],
        "bass": {
          "pitch": 49,
          "name": "C#3",
          "pc": "C#"
        },
        "pitch_classes": [
          "C#",
          "F",
          "B"
        ],
        "notes_count": 5,
        "chord_label": "C#7",
        "root": "C#",
        "quality": "7",
        "confidence": 0.824,
        "alternatives": [
          {
            "label": "C#9",
            "confidence": 0.647
          },
          {
            "label": "C#7b9",
            "confidence": 0.647
          },
          {
            "label": "C#7#9",
            "confidence": 0.647
          }
        ],
        "is_slash": false
      },
      {
        "event_id": "두 사람_BPM70_4-4_aedaf9df_he_15",
        "source_midi_id": "두 사람_BPM70_4-4_aedaf9df",
        "bar_index": 6,
        "beat_position": "1",
        "tick_start": 9600,
        "tick_end": 10560,
        "raw_notes": [
          {
            "pitch": 73,
            "name": "C#5",
            "start_tick": 9000,
            "duration_ticks": 614,
            "effective_duration": 14,
            "velocity": 75
          },
          {
            "pitch": 49,
            "name": "C#3",
            "start_tick": 9120,
            "duration_ticks": 529,
            "effective_duration": 49,
            "velocity": 78
          },
          {
            "pitch": 65,
            "name": "F4",
            "start_tick": 9240,
            "duration_ticks": 374,
            "effective_duration": 14,
            "velocity": 69
          },
          {
            "pitch": 71,
            "name": "B4",
            "start_tick": 9360,
            "duration_ticks": 254,
            "effective_duration": 14,
            "velocity": 58
          },
          {
            "pitch": 73,
            "name": "C#5",
            "start_tick": 9480,
            "duration_ticks": 167,
            "effective_duration": 47,
            "velocity": 75
          },
          {
            "pitch": 54,
            "name": "F#3",
            "start_tick": 9600,
            "duration_ticks": 937,
            "effective_duration": 937,
            "velocity": 78
          },
          {
            "pitch": 69,
            "name": "A4",
            "start_tick": 9720,
            "duration_ticks": 817,
            "effective_duration": 817,
            "velocity": 75
          },
          {
            "pitch": 76,
            "name": "E5",
            "start_tick": 9840,
            "duration_ticks": 697,
            "effective_duration": 697,
            "velocity": 50
          },
          {
            "pitch": 81,
            "name": "A5",
            "start_tick": 9960,
            "duration_ticks": 577,
            "effective_duration": 577,
            "velocity": 82
          },
          {
            "pitch": 54,
            "name": "F#3",
            "start_tick": 10080,
            "duration_ticks": 457,
            "effective_duration": 457,
            "velocity": 72
          },
          {
            "pitch": 69,
            "name": "A4",
            "start_tick": 10200,
            "duration_ticks": 337,
            "effective_duration": 337,
            "velocity": 63
          },
          {
            "pitch": 76,
            "name": "E5",
            "start_tick": 10320,
            "duration_ticks": 217,
            "effective_duration": 217,
            "velocity": 74
          },
          {
            "pitch": 81,
            "name": "A5",
            "start_tick": 10440,
            "duration_ticks": 168,
            "effective_duration": 120,
            "velocity": 90
          }
        ],
        "bass": {
          "pitch": 54,
          "name": "F#3",
          "pc": "F#"
        },
        "pitch_classes": [
          "C#",
          "E",
          "F",
          "F#",
          "A",
          "B"
        ],
        "notes_count": 13,
        "chord_label": "F#m7",
        "root": "F#",
        "quality": "m7",
        "confidence": 0.824,
        "alternatives": [
          {
            "label": "F#m7b5",
            "confidence": 0.824
          },
          {
            "label": "Dadd9/F#",
            "confidence": 0.765
          },
          {
            "label": "A6/F#",
            "confidence": 0.765
          }
        ],
        "is_slash": false
      },
      {
        "event_id": "두 사람_BPM70_4-4_aedaf9df_he_16",
        "source_midi_id": "두 사람_BPM70_4-4_aedaf9df",
        "bar_index": 6,
        "beat_position": "3",
        "tick_start": 10560,
        "tick_end": 11040,
        "raw_notes": [
          {
            "pitch": 81,
            "name": "A5",
            "start_tick": 10440,
            "duration_ticks": 168,
            "effective_duration": 48,
            "velocity": 90
          },
          {
            "pitch": 53,
            "name": "F3",
            "start_tick": 10560,
            "duration_ticks": 863,
            "effective_duration": 480,
            "velocity": 72
          },
          {
            "pitch": 69,
            "name": "A4",
            "start_tick": 10680,
            "duration_ticks": 743,
            "effective_duration": 360,
            "velocity": 70
          },
          {
            "pitch": 73,
            "name": "C#5",
            "start_tick": 10800,
            "duration_ticks": 623,
            "effective_duration": 240,
            "velocity": 54
          },
          {
            "pitch": 80,
            "name": "G#5",
            "start_tick": 10920,
            "duration_ticks": 503,
            "effective_duration": 120,
            "velocity": 80
          }
        ],
        "bass": {
          "pitch": 53,
          "name": "F3",
          "pc": "F"
        },
        "pitch_classes": [
          "C#",
          "F",
          "G#",
          "A"
        ],
        "notes_count": 5,
        "chord_label": "Faug",
        "root": "F",
        "quality": "aug",
        "confidence": 0.602,
        "alternatives": [
          {
            "label": "C#/F",
            "confidence": 0.557
          },
          {
            "label": "C#aug/F",
            "confidence": 0.557
          },
          {
            "label": "Aaug/F",
            "confidence": 0.557
          }
        ],
        "is_slash": false
      },
      {
        "event_id": "두 사람_BPM70_4-4_aedaf9df_he_17",
        "source_midi_id": "두 사람_BPM70_4-4_aedaf9df",
        "bar_index": 6,
        "beat_position": "4",
        "tick_start": 11040,
        "tick_end": 11520,
        "raw_notes": [
          {
            "pitch": 53,
            "name": "F3",
            "start_tick": 10560,
            "duration_ticks": 863,
            "effective_duration": 383,
            "velocity": 72
          },
          {
            "pitch": 69,
            "name": "A4",
            "start_tick": 10680,
            "duration_ticks": 743,
            "effective_duration": 383,
            "velocity": 70
          },
          {
            "pitch": 73,
            "name": "C#5",
            "start_tick": 10800,
            "duration_ticks": 623,
            "effective_duration": 383,
            "velocity": 54
          },
          {
            "pitch": 80,
            "name": "G#5",
            "start_tick": 10920,
            "duration_ticks": 503,
            "effective_duration": 383,
            "velocity": 80
          },
          {
            "pitch": 53,
            "name": "F3",
            "start_tick": 11040,
            "duration_ticks": 453,
            "effective_duration": 453,
            "velocity": 72
          },
          {
            "pitch": 69,
            "name": "A4",
            "start_tick": 11160,
            "duration_ticks": 263,
            "effective_duration": 263,
            "velocity": 61
          },
          {
            "pitch": 73,
            "name": "C#5",
            "start_tick": 11280,
            "duration_ticks": 158,
            "effective_duration": 158,
            "velocity": 68
          },
          {
            "pitch": 80,
            "name": "G#5",
            "start_tick": 11400,
            "duration_ticks": 115,
            "effective_duration": 115,
            "velocity": 84
          }
        ],
        "bass": {
          "pitch": 53,
          "name": "F3",
          "pc": "F"
        },
        "pitch_classes": [
          "C#",
          "F",
          "G#",
          "A"
        ],
        "notes_count": 8,
        "chord_label": "Faug",
        "root": "F",
        "quality": "aug",
        "confidence": 0.602,
        "alternatives": [
          {
            "label": "C#/F",
            "confidence": 0.557
          },
          {
            "label": "C#aug/F",
            "confidence": 0.557
          },
          {
            "label": "Aaug/F",
            "confidence": 0.557
          }
        ],
        "is_slash": false
      },
      {
        "event_id": "두 사람_BPM70_4-4_aedaf9df_he_18",
        "source_midi_id": "두 사람_BPM70_4-4_aedaf9df",
        "bar_index": 7,
        "beat_position": "1",
        "tick_start": 11520,
        "tick_end": 12000,
        "raw_notes": [
          {
            "pitch": 52,
            "name": "E3",
            "start_tick": 11520,
            "duration_ticks": 941,
            "effective_duration": 480,
            "velocity": 61
          },
          {
            "pitch": 69,
            "name": "A4",
            "start_tick": 11640,
            "duration_ticks": 821,
            "effective_duration": 360,
            "velocity": 58
          },
          {
            "pitch": 73,
            "name": "C#5",
            "start_tick": 11760,
            "duration_ticks": 701,
            "effective_duration": 240,
            "velocity": 61
          },
          {
            "pitch": 78,
            "name": "F#5",
            "start_tick": 11880,
            "duration_ticks": 581,
            "effective_duration": 120,
            "velocity": 72
          }
        ],
        "bass": {
          "pitch": 52,
          "name": "E3",
          "pc": "E"
        },
        "pitch_classes": [
          "C#",
          "E",
          "F#",
          "A"
        ],
        "notes_count": 4,
        "chord_label": "F#m7/E",
        "root": "F#",
        "quality": "m7",
        "confidence": 0.955,
        "alternatives": [
          {
            "label": "A6/E",
            "confidence": 0.955
          },
          {
            "label": "Dmaj9/E",
            "confidence": 0.818
          },
          {
            "label": "F#m9/E",
            "confidence": 0.818
          }
        ],
        "is_slash": true
      },
      {
        "event_id": "두 사람_BPM70_4-4_aedaf9df_he_19",
        "source_midi_id": "두 사람_BPM70_4-4_aedaf9df",
        "bar_index": 7,
        "beat_position": "2",
        "tick_start": 12000,
        "tick_end": 12480,
        "raw_notes": [
          {
            "pitch": 52,
            "name": "E3",
            "start_tick": 11520,
            "duration_ticks": 941,
            "effective_duration": 461,
            "velocity": 61
          },
          {
            "pitch": 69,
            "name": "A4",
            "start_tick": 11640,
            "duration_ticks": 821,
            "effective_duration": 461,
            "velocity": 58
          },
          {
            "pitch": 73,
            "name": "C#5",
            "start_tick": 11760,
            "duration_ticks": 701,
            "effective_duration": 461,
            "velocity": 61
          },
          {
            "pitch": 78,
            "name": "F#5",
            "start_tick": 11880,
            "duration_ticks": 581,
            "effective_duration": 461,
            "velocity": 72
          },
          {
            "pitch": 52,
            "name": "E3",
            "start_tick": 12000,
            "duration_ticks": 461,
            "effective_duration": 461,
            "velocity": 75
          },
          {
            "pitch": 69,
            "name": "A4",
            "start_tick": 12120,
            "duration_ticks": 341,
            "effective_duration": 341,
            "velocity": 68
          },
          {
            "pitch": 73,
            "name": "C#5",
            "start_tick": 12240,
            "duration_ticks": 221,
            "effective_duration": 221,
            "velocity": 72
          },
          {
            "pitch": 78,
            "name": "F#5",
            "start_tick": 12360,
            "duration_ticks": 141,
            "effective_duration": 120,
            "velocity": 75
          }
        ],
        "bass": {
          "pitch": 52,
          "name": "E3",
          "pc": "E"
        },
        "pitch_classes": [
          "C#",
          "E",
          "F#",
          "A"
        ],
        "notes_count": 8,
        "chord_label": "F#m7/E",
        "root": "F#",
        "quality": "m7",
        "confidence": 0.955,
        "alternatives": [
          {
            "label": "A6/E",
            "confidence": 0.955
          },
          {
            "label": "Dmaj9/E",
            "confidence": 0.818
          },
          {
            "label": "F#m9/E",
            "confidence": 0.818
          }
        ],
        "is_slash": true
      },
      {
        "event_id": "두 사람_BPM70_4-4_aedaf9df_he_20",
        "source_midi_id": "두 사람_BPM70_4-4_aedaf9df",
        "bar_index": 7,
        "beat_position": "3",
        "tick_start": 12480,
        "tick_end": 12960,
        "raw_notes": [
          {
            "pitch": 78,
            "name": "F#5",
            "start_tick": 12360,
            "duration_ticks": 141,
            "effective_duration": 21,
            "velocity": 75
          },
          {
            "pitch": 47,
            "name": "B2",
            "start_tick": 12480,
            "duration_ticks": 960,
            "effective_duration": 480,
            "velocity": 76
          },
          {
            "pitch": 66,
            "name": "F#4",
            "start_tick": 12600,
            "duration_ticks": 840,
            "effective_duration": 360,
            "velocity": 58
          },
          {
            "pitch": 69,
            "name": "A4",
            "start_tick": 12720,
            "duration_ticks": 720,
            "effective_duration": 240,
            "velocity": 47
          },
          {
            "pitch": 75,
            "name": "D#5",
            "start_tick": 12840,
            "duration_ticks": 600,
            "effective_duration": 120,
            "velocity": 75
          }
        ],
        "bass": {
          "pitch": 47,
          "name": "B2",
          "pc": "B"
        },
        "pitch_classes": [
          "D#",
          "F#",
          "A",
          "B"
        ],
        "notes_count": 5,
        "chord_label": "B7",
        "root": "B",
        "quality": "7",
        "confidence": 1.0,
        "alternatives": [
          {
            "label": "B9",
            "confidence": 0.864
          },
          {
            "label": "B7b9",
            "confidence": 0.864
          },
          {
            "label": "B7#9",
            "confidence": 0.864
          }
        ],
        "is_slash": false
      },
      {
        "event_id": "두 사람_BPM70_4-4_aedaf9df_he_21",
        "source_midi_id": "두 사람_BPM70_4-4_aedaf9df",
        "bar_index": 7,
        "beat_position": "4",
        "tick_start": 12960,
        "tick_end": 13440,
        "raw_notes": [
          {
            "pitch": 47,
            "name": "B2",
            "start_tick": 12480,
            "duration_ticks": 960,
            "effective_duration": 480,
            "velocity": 76
          },
          {
            "pitch": 66,
            "name": "F#4",
            "start_tick": 12600,
            "duration_ticks": 840,
            "effective_duration": 480,
            "velocity": 58
          },
          {
            "pitch": 69,
            "name": "A4",
            "start_tick": 12720,
            "duration_ticks": 720,
            "effective_duration": 480,
            "velocity": 47
          },
          {
            "pitch": 75,
            "name": "D#5",
            "start_tick": 12840,
            "duration_ticks": 600,
            "effective_duration": 480,
            "velocity": 75
          },
          {
            "pitch": 47,
            "name": "B2",
            "start_tick": 12960,
            "duration_ticks": 480,
            "effective_duration": 480,
            "velocity": 82
          },
          {
            "pitch": 66,
            "name": "F#4",
            "start_tick": 13080,
            "duration_ticks": 360,
            "effective_duration": 360,
            "velocity": 59
          },
          {
            "pitch": 69,
            "name": "A4",
            "start_tick": 13200,
            "duration_ticks": 240,
            "effective_duration": 240,
            "velocity": 55
          },
          {
            "pitch": 75,
            "name": "D#5",
            "start_tick": 13320,
            "duration_ticks": 120,
            "effective_duration": 120,
            "velocity": 70
          }
        ],
        "bass": {
          "pitch": 47,
          "name": "B2",
          "pc": "B"
        },
        "pitch_classes": [
          "D#",
          "F#",
          "A",
          "B"
        ],
        "notes_count": 8,
        "chord_label": "B7",
        "root": "B",
        "quality": "7",
        "confidence": 1.0,
        "alternatives": [
          {
            "label": "B9",
            "confidence": 0.864
          },
          {
            "label": "B7b9",
            "confidence": 0.864
          },
          {
            "label": "B7#9",
            "confidence": 0.864
          }
        ],
        "is_slash": false
      },
      {
        "event_id": "두 사람_BPM70_4-4_aedaf9df_he_22",
        "source_midi_id": "두 사람_BPM70_4-4_aedaf9df",
        "bar_index": 8,
        "beat_position": "1",
        "tick_start": 13440,
        "tick_end": 13920,
        "raw_notes": [
          {
            "pitch": 47,
            "name": "B2",
            "start_tick": 13440,
            "duration_ticks": 480,
            "effective_duration": 480,
            "velocity": 52
          },
          {
            "pitch": 66,
            "name": "F#4",
            "start_tick": 13560,
            "duration_ticks": 360,
            "effective_duration": 360,
            "velocity": 48
          },
          {
            "pitch": 69,
            "name": "A4",
            "start_tick": 13680,
            "duration_ticks": 240,
            "effective_duration": 240,
            "velocity": 47
          },
          {
            "pitch": 74,
            "name": "D5",
            "start_tick": 13800,
            "duration_ticks": 600,
            "effective_duration": 120,
            "velocity": 75
          }
        ],
        "bass": {
          "pitch": 47,
          "name": "B2",
          "pc": "B"
        },
        "pitch_classes": [
          "D",
          "F#",
          "A",
          "B"
        ],
        "notes_count": 4,
        "chord_label": "Bm7",
        "root": "B",
        "quality": "m7",
        "confidence": 1.0,
        "alternatives": [
          {
            "label": "D6/B",
            "confidence": 0.955
          },
          {
            "label": "Bm9",
            "confidence": 0.864
          },
          {
            "label": "B7#9",
            "confidence": 0.864
          }
        ],
        "is_slash": false
      },
      {
        "event_id": "두 사람_BPM70_4-4_aedaf9df_he_23",
        "source_midi_id": "두 사람_BPM70_4-4_aedaf9df",
        "bar_index": 8,
        "beat_position": "2",
        "tick_start": 13920,
        "tick_end": 14400,
        "raw_notes": [
          {
            "pitch": 74,
            "name": "D5",
            "start_tick": 13800,
            "duration_ticks": 600,
            "effective_duration": 480,
            "velocity": 75
          },
          {
            "pitch": 47,
            "name": "B2",
            "start_tick": 13920,
            "duration_ticks": 480,
            "effective_duration": 480,
            "velocity": 58
          },
          {
            "pitch": 66,
            "name": "F#4",
            "start_tick": 14040,
            "duration_ticks": 360,
            "effective_duration": 360,
            "velocity": 49
          },
          {
            "pitch": 69,
            "name": "A4",
            "start_tick": 14160,
            "duration_ticks": 240,
            "effective_duration": 240,
            "velocity": 45
          },
          {
            "pitch": 74,
            "name": "D5",
            "start_tick": 14280,
            "duration_ticks": 136,
            "effective_duration": 120,
            "velocity": 65
          }
        ],
        "bass": {
          "pitch": 47,
          "name": "B2",
          "pc": "B"
        },
        "pitch_classes": [
          "D",
          "F#",
          "A",
          "B"
        ],
        "notes_count": 5,
        "chord_label": "Bm7",
        "root": "B",
        "quality": "m7",
        "confidence": 1.0,
        "alternatives": [
          {
            "label": "D6/B",
            "confidence": 0.955
          },
          {
            "label": "Bm9",
            "confidence": 0.864
          },
          {
            "label": "B7#9",
            "confidence": 0.864
          }
        ],
        "is_slash": false
      },
      {
        "event_id": "두 사람_BPM70_4-4_aedaf9df_he_24",
        "source_midi_id": "두 사람_BPM70_4-4_aedaf9df",
        "bar_index": 8,
        "beat_position": "3",
        "tick_start": 14400,
        "tick_end": 14880,
        "raw_notes": [
          {
            "pitch": 74,
            "name": "D5",
            "start_tick": 14280,
            "duration_ticks": 136,
            "effective_duration": 16,
            "velocity": 65
          },
          {
            "pitch": 47,
            "name": "B2",
            "start_tick": 14400,
            "duration_ticks": 480,
            "effective_duration": 480,
            "velocity": 63
          },
          {
            "pitch": 66,
            "name": "F#4",
            "start_tick": 14520,
            "duration_ticks": 360,
            "effective_duration": 360,
            "velocity": 57
          },
          {
            "pitch": 69,
            "name": "A4",
            "start_tick": 14640,
            "duration_ticks": 240,
            "effective_duration": 240,
            "velocity": 52
          },
          {
            "pitch": 74,
            "name": "D5",
            "start_tick": 14760,
            "duration_ticks": 120,
            "effective_duration": 120,
            "velocity": 71
          }
        ],
        "bass": {
          "pitch": 47,
          "name": "B2",
          "pc": "B"
        },
        "pitch_classes": [
          "D",
          "F#",
          "A",
          "B"
        ],
        "notes_count": 5,
        "chord_label": "Bm7",
        "root": "B",
        "quality": "m7",
        "confidence": 1.0,
        "alternatives": [
          {
            "label": "D6/B",
            "confidence": 0.955
          },
          {
            "label": "Bm9",
            "confidence": 0.864
          },
          {
            "label": "B7#9",
            "confidence": 0.864
          }
        ],
        "is_slash": false
      },
      {
        "event_id": "두 사람_BPM70_4-4_aedaf9df_he_25",
        "source_midi_id": "두 사람_BPM70_4-4_aedaf9df",
        "bar_index": 8,
        "beat_position": "4",
        "tick_start": 14880,
        "tick_end": 15360,
        "raw_notes": [
          {
            "pitch": 57,
            "name": "A3",
            "start_tick": 14880,
            "duration_ticks": 480,
            "effective_duration": 480,
            "velocity": 64
          },
          {
            "pitch": 74,
            "name": "D5",
            "start_tick": 15000,
            "duration_ticks": 360,
            "effective_duration": 360,
            "velocity": 69
          },
          {
            "pitch": 69,
            "name": "A4",
            "start_tick": 15120,
            "duration_ticks": 240,
            "effective_duration": 240,
            "velocity": 58
          },
          {
            "pitch": 66,
            "name": "F#4",
            "start_tick": 15240,
            "duration_ticks": 120,
            "effective_duration": 120,
            "velocity": 67
          }
        ],
        "bass": {
          "pitch": 57,
          "name": "A3",
          "pc": "A"
        },
        "pitch_classes": [
          "D",
          "F#",
          "A"
        ],
        "notes_count": 4,
        "chord_label": "D/A",
        "root": "D",
        "quality": "maj",
        "confidence": 0.941,
        "alternatives": [
          {
            "label": "D7/A",
            "confidence": 0.765
          },
          {
            "label": "Dmaj7/A",
            "confidence": 0.765
          },
          {
            "label": "Dadd9/A",
            "confidence": 0.765
          }
        ],
        "is_slash": true
      },
      {
        "event_id": "두 사람_BPM70_4-4_aedaf9df_he_26",
        "source_midi_id": "두 사람_BPM70_4-4_aedaf9df",
        "bar_index": 9,
        "beat_position": "1",
        "tick_start": 15360,
        "tick_end": 15840,
        "raw_notes": [
          {
            "pitch": 52,
            "name": "E3",
            "start_tick": 15360,
            "duration_ticks": 915,
            "effective_duration": 480,
            "velocity": 62
          },
          {
            "pitch": 71,
            "name": "B4",
            "start_tick": 15480,
            "duration_ticks": 795,
            "effective_duration": 360,
            "velocity": 59
          },
          {
            "pitch": 74,
            "name": "D5",
            "start_tick": 15600,
            "duration_ticks": 675,
            "effective_duration": 240,
            "velocity": 52
          },
          {
            "pitch": 71,
            "name": "B4",
            "start_tick": 15720,
            "duration_ticks": 555,
            "effective_duration": 120,
            "velocity": 54
          }
        ],
        "bass": {
          "pitch": 52,
          "name": "E3",
          "pc": "E"
        },
        "pitch_classes": [
          "D",
          "E",
          "B"
        ],
        "notes_count": 4,
        "chord_label": "E7",
        "root": "E",
        "quality": "7",
        "confidence": 0.824,
        "alternatives": [
          {
            "label": "Em7",
            "confidence": 0.824
          },
          {
            "label": "E7sus4",
            "confidence": 0.824
          },
          {
            "label": "G6/E",
            "confidence": 0.765
          }
        ],
        "is_slash": false
      },
      {
        "event_id": "두 사람_BPM70_4-4_aedaf9df_he_27",
        "source_midi_id": "두 사람_BPM70_4-4_aedaf9df",
        "bar_index": 9,
        "beat_position": "2",
        "tick_start": 15840,
        "tick_end": 16320,
        "raw_notes": [
          {
            "pitch": 52,
            "name": "E3",
            "start_tick": 15360,
            "duration_ticks": 915,
            "effective_duration": 435,
            "velocity": 62
          },
          {
            "pitch": 71,
            "name": "B4",
            "start_tick": 15480,
            "duration_ticks": 795,
            "effective_duration": 435,
            "velocity": 59
          },
          {
            "pitch": 74,
            "name": "D5",
            "start_tick": 15600,
            "duration_ticks": 675,
            "effective_duration": 435,
            "velocity": 52
          },
          {
            "pitch": 71,
            "name": "B4",
            "start_tick": 15720,
            "duration_ticks": 555,
            "effective_duration": 435,
            "velocity": 54
          },
          {
            "pitch": 78,
            "name": "F#5",
            "start_tick": 15840,
            "duration_ticks": 435,
            "effective_duration": 435,
            "velocity": 62
          },
          {
            "pitch": 71,
            "name": "B4",
            "start_tick": 15960,
            "duration_ticks": 315,
            "effective_duration": 315,
            "velocity": 49
          },
          {
            "pitch": 74,
            "name": "D5",
            "start_tick": 16080,
            "duration_ticks": 195,
            "effective_duration": 195,
            "velocity": 47
          },
          {
            "pitch": 71,
            "name": "B4",
            "start_tick": 16200,
            "duration_ticks": 118,
            "effective_duration": 118,
            "velocity": 71
          }
        ],
        "bass": {
          "pitch": 71,
          "name": "B4",
          "pc": "B"
        },
        "pitch_classes": [
          "D",
          "E",
          "F#",
          "B"
        ],
        "notes_count": 8,
        "chord_label": "E9/B",
        "root": "E",
        "quality": "9",
        "confidence": 0.818,
        "alternatives": [
          {
            "label": "Em9/B",
            "confidence": 0.818
          },
          {
            "label": "D13/B",
            "confidence": 0.682
          },
          {
            "label": "E11/B",
            "confidence": 0.682
          }
        ],
        "is_slash": true
      },
      {
        "event_id": "두 사람_BPM70_4-4_aedaf9df_he_28",
        "source_midi_id": "두 사람_BPM70_4-4_aedaf9df",
        "bar_index": 9,
        "beat_position": "3",
        "tick_start": 16320,
        "tick_end": 16800,
        "raw_notes": [
          {
            "pitch": 52,
            "name": "E3",
            "start_tick": 16320,
            "duration_ticks": 960,
            "effective_duration": 480,
            "velocity": 62
          },
          {
            "pitch": 71,
            "name": "B4",
            "start_tick": 16440,
            "duration_ticks": 840,
            "effective_duration": 360,
            "velocity": 61
          },
          {
            "pitch": 74,
            "name": "D5",
            "start_tick": 16560,
            "duration_ticks": 720,
            "effective_duration": 240,
            "velocity": 47
          },
          {
            "pitch": 71,
            "name": "B4",
            "start_tick": 16680,
            "duration_ticks": 600,
            "effective_duration": 120,
            "velocity": 49
          }
        ],
        "bass": {
          "pitch": 52,
          "name": "E3",
          "pc": "E"
        },
        "pitch_classes": [
          "D",
          "E",
          "B"
        ],
        "notes_count": 4,
        "chord_label": "E7",
        "root": "E",
        "quality": "7",
        "confidence": 0.824,
        "alternatives": [
          {
            "label": "Em7",
            "confidence": 0.824
          },
          {
            "label": "E7sus4",
            "confidence": 0.824
          },
          {
            "label": "G6/E",
            "confidence": 0.765
          }
        ],
        "is_slash": false
      },
      {
        "event_id": "두 사람_BPM70_4-4_aedaf9df_he_29",
        "source_midi_id": "두 사람_BPM70_4-4_aedaf9df",
        "bar_index": 9,
        "beat_position": "4",
        "tick_start": 16800,
        "tick_end": 17280,
        "raw_notes": [
          {
            "pitch": 52,
            "name": "E3",
            "start_tick": 16320,
            "duration_ticks": 960,
            "effective_duration": 480,
            "velocity": 62
          },
          {
            "pitch": 71,
            "name": "B4",
            "start_tick": 16440,
            "duration_ticks": 840,
            "effective_duration": 480,
            "velocity": 61
          },
          {
            "pitch": 74,
            "name": "D5",
            "start_tick": 16560,
            "duration_ticks": 720,
            "effective_duration": 480,
            "velocity": 47
          },
          {
            "pitch": 71,
            "name": "B4",
            "start_tick": 16680,
            "duration_ticks": 600,
            "effective_duration": 480,
            "velocity": 49
          },
          {
            "pitch": 80,
            "name": "G#5",
            "start_tick": 16800,
            "duration_ticks": 480,
            "effective_duration": 480,
            "velocity": 69
          },
          {
            "pitch": 71,
            "name": "B4",
            "start_tick": 16920,
            "duration_ticks": 360,
            "effective_duration": 360,
            "velocity": 46
          },
          {
            "pitch": 74,
            "name": "D5",
            "start_tick": 17040,
            "duration_ticks": 240,
            "effective_duration": 240,
            "velocity": 49
          },
          {
            "pitch": 71,
            "name": "B4",
            "start_tick": 17160,
            "duration_ticks": 120,
            "effective_duration": 120,
            "velocity": 54
          }
        ],
        "bass": {
          "pitch": 71,
          "name": "B4",
          "pc": "B"
        },
        "pitch_classes": [
          "D",
          "E",
          "G#",
          "B"
        ],
        "notes_count": 8,
        "chord_label": "E7/B",
        "root": "E",
        "quality": "7",
        "confidence": 0.955,
        "alternatives": [
          {
            "label": "E9/B",
            "confidence": 0.818
          },
          {
            "label": "E7b9/B",
            "confidence": 0.818
          },
          {
            "label": "E7#9/B",
            "confidence": 0.818
          }
        ],
        "is_slash": true
      }
    ],
    "retrieval_tags": {
      "style": "comping",
      "tempo_range": "adagio",
      "texture_type": "dyadic",
      "density_level": "dense",
      "chord_family": "",
      "melody_role_context": "",
      "bass_motion_type": "",
      "arpeggio_or_block": "comping",
      "dynamic_profile": "expressive",
      "register": "alto",
      "voicing_type": "semi_open"
    }
  }
}