{
  "file": "외워두세요_BPM72_4-4.mid",
  "midi_id": "외워두세요_BPM72_4-4_0d3ac41c",
  "schema_version": "2.11",
  "extracted_at": "2026-04-01T02:38:09",
  "bpm": 72.0,
  "ticks_per_beat": 480,
  "num_tracks": 4,
  "total_notes": 222,
  "total_cc_events": 62,
  "sustain_pedal_applied": true,
  "analysis_scope": {
    "melody_tracks": [
      "MELODY"
    ],
    "accompaniment_tracks": [
      "PIANO"
    ],
    "melody_excluded_from_harmony": true
  },
  "tracks": [
    {
      "index": 0,
      "name": "ÃÊº½ 65",
      "channel": 0,
      "instrument": 0,
      "note_count": 0,
      "cc_event_count": 0,
      "cc_summary": {}
    },
    {
      "index": 1,
      "name": "´ÜÇ³_BPM66_4-4",
      "channel": 0,
      "instrument": 0,
      "note_count": 0,
      "cc_event_count": 0,
      "cc_summary": {}
    },
    {
      "index": 2,
      "name": "MELODY",
      "channel": 0,
      "instrument": 0,
      "note_count": 53,
      "cc_event_count": 0,
      "cc_summary": {}
    },
    {
      "index": 3,
      "name": "PIANO",
      "channel": 0,
      "instrument": 0,
      "note_count": 169,
      "cc_event_count": 62,
      "cc_summary": {
        "64": {
          "count": 62,
          "name": "Sustain Pedal"
        }
      },
      "cc_events": [
        {
          "tick": 1920,
          "control": 64,
          "value": 127,
          "channel": 0
        },
        {
          "tick": 2862,
          "control": 64,
          "value": 0,
          "channel": 0
        },
        {
          "tick": 2945,
          "control": 64,
          "value": 127,
          "channel": 0
        },
        {
          "tick": 3835,
          "control": 64,
          "value": 0,
          "channel": 0
        },
        {
          "tick": 3918,
          "control": 64,
          "value": 127,
          "channel": 0
        },
        {
          "tick": 4800,
          "control": 64,
          "value": 127,
          "channel": 0
        },
        {
          "tick": 4800,
          "control": 64,
          "value": 0,
          "channel": 0
        },
        {
          "tick": 4878,
          "control": 64,
          "value": 127,
          "channel": 0
        },
        {
          "tick": 5760,
          "control": 64,
          "value": 127,
          "channel": 0
        },
        {
          "tick": 5760,
          "control": 64,
          "value": 0,
          "channel": 0
        },
        {
          "tick": 5838,
          "control": 64,
          "value": 127,
          "channel": 0
        },
        {
          "tick": 6720,
          "control": 64,
          "value": 127,
          "channel": 0
        },
        {
          "tick": 6720,
          "control": 64,
          "value": 0,
          "channel": 0
        },
        {
          "tick": 6798,
          "control": 64,
          "value": 127,
          "channel": 0
        },
        {
          "tick": 7680,
          "control": 64,
          "value": 127,
          "channel": 0
        },
        {
          "tick": 7680,
          "control": 64,
          "value": 0,
          "channel": 0
        },
        {
          "tick": 7758,
          "control": 64,
          "value": 127,
          "channel": 0
        },
        {
          "tick": 8640,
          "control": 64,
          "value": 0,
          "channel": 0
        },
        {
          "tick": 8718,
          "control": 64,
          "value": 127,
          "channel": 0
        },
        {
          "tick": 8718,
          "control": 64,
          "value": 127,
          "channel": 0
        },
        {
          "tick": 8718,
          "control": 64,
          "value": 127,
          "channel": 0
        },
        {
          "tick": 9600,
          "control": 64,
          "value": 127,
          "channel": 0
        },
        {
          "tick": 9600,
          "control": 64,
          "value": 0,
          "channel": 0
        },
        {
          "tick": 9678,
          "control": 64,
          "value": 127,
          "channel": 0
        },
        {
          "tick": 10560,
          "control": 64,
          "value": 127,
          "channel": 0
        },
        {
          "tick": 10560,
          "control": 64,
          "value": 0,
          "channel": 0
        },
        {
          "tick": 10638,
          "control": 64,
          "value": 127,
          "channel": 0
        },
        {
          "tick": 11520,
          "control": 64,
          "value": 127,
          "channel": 0
        },
        {
          "tick": 11520,
          "control": 64,
          "value": 0,
          "channel": 0
        },
        {
          "tick": 11598,
          "control": 64,
          "value": 127,
          "channel": 0
        },
        {
          "tick": 12480,
          "control": 64,
          "value": 127,
          "channel": 0
        },
        {
          "tick": 12480,
          "control": 64,
          "value": 0,
          "channel": 0
        },
        {
          "tick": 12558,
          "control": 64,
          "value": 127,
          "channel": 0
        },
        {
          "tick": 13440,
          "control": 64,
          "value": 127,
          "channel": 0
        },
        {
          "tick": 13440,
          "control": 64,
          "value": 0,
          "channel": 0
        },
        {
          "tick": 13518,
          "control": 64,
          "value": 127,
          "channel": 0
        },
        {
          "tick": 14400,
          "control": 64,
          "value": 0,
          "channel": 0
        },
        {
          "tick": 14478,
          "control": 64,
          "value": 127,
          "channel": 0
        },
        {
          "tick": 15360,
          "control": 64,
          "value": 127,
          "channel": 0
        },
        {
          "tick": 15360,
          "control": 64,
          "value": 0,
          "channel": 0
        },
        {
          "tick": 15438,
          "control": 64,
          "value": 127,
          "channel": 0
        },
        {
          "tick": 16320,
          "control": 64,
          "value": 127,
          "channel": 0
        },
        {
          "tick": 16320,
          "control": 64,
          "value": 0,
          "channel": 0
        },
        {
          "tick": 16398,
          "control": 64,
          "value": 127,
          "channel": 0
        },
        {
          "tick": 17280,
          "control": 64,
          "value": 127,
          "channel": 0
        },
        {
          "tick": 17280,
          "control": 64,
          "value": 0,
          "channel": 0
        },
        {
          "tick": 17358,
          "control": 64,
          "value": 127,
          "channel": 0
        },
        {
          "tick": 18240,
          "control": 64,
          "value": 127,
          "channel": 0
        },
        {
          "tick": 18240,
          "control": 64,
          "value": 0,
          "channel": 0
        },
        {
          "tick": 18305,
          "control": 64,
          "value": 127,
          "channel": 0
        },
        {
          "tick": 19163,
          "control": 64,
          "value": 0,
          "channel": 0
        },
        {
          "tick": 19200,
          "control": 64,
          "value": 0,
          "channel": 0
        },
        {
          "tick": 19278,
          "control": 64,
          "value": 127,
          "channel": 0
        },
        {
          "tick": 20160,
          "control": 64,
          "value": 127,
          "channel": 0
        },
        {
          "tick": 20160,
          "control": 64,
          "value": 0,
          "channel": 0
        },
        {
          "tick": 20210,
          "control": 64,
          "value": 127,
          "channel": 0
        },
        {
          "tick": 21105,
          "control": 64,
          "value": 0,
          "channel": 0
        },
        {
          "tick": 21120,
          "control": 64,
          "value": 0,
          "channel": 0
        },
        {
          "tick": 21198,
          "control": 64,
          "value": 127,
          "channel": 0
        },
        {
          "tick": 22080,
          "control": 64,
          "value": 127,
          "channel": 0
        },
        {
          "tick": 22080,
          "control": 64,
          "value": 0,
          "channel": 0
        },
        {
          "tick": 22158,
          "control": 64,
          "value": 127,
          "channel": 0
        }
      ]
    }
  ],
  "melody": {
    "track_names": [
      "MELODY"
    ],
    "note_count": 53,
    "pitch_range": [
      55,
      69
    ],
    "notes": [
      {
        "pitch": 55,
        "start_tick": 1200,
        "duration_ticks": 224,
        "velocity": 63
      },
      {
        "pitch": 59,
        "start_tick": 1440,
        "duration_ticks": 238,
        "velocity": 51
      },
      {
        "pitch": 60,
        "start_tick": 1680,
        "duration_ticks": 110,
        "velocity": 62
      },
      {
        "pitch": 62,
        "start_tick": 1800,
        "duration_ticks": 868,
        "velocity": 65
      },
      {
        "pitch": 64,
        "start_tick": 2640,
        "duration_ticks": 145,
        "velocity": 62
      },
      {
        "pitch": 64,
        "start_tick": 2880,
        "duration_ticks": 990,
        "velocity": 62
      },
      {
        "pitch": 64,
        "start_tick": 4320,
        "duration_ticks": 228,
        "velocity": 74
      },
      {
        "pitch": 62,
        "start_tick": 4560,
        "duration_ticks": 135,
        "velocity": 39
      },
      {
        "pitch": 65,
        "start_tick": 4680,
        "duration_ticks": 387,
        "velocity": 62
      },
      {
        "pitch": 64,
        "start_tick": 5040,
        "duration_ticks": 123,
        "velocity": 59
      },
      {
        "pitch": 62,
        "start_tick": 5160,
        "duration_ticks": 245,
        "velocity": 62
      },
      {
        "pitch": 60,
        "start_tick": 5400,
        "duration_ticks": 241,
        "velocity": 76
      },
      {
        "pitch": 62,
        "start_tick": 5640,
        "duration_ticks": 691,
        "velocity": 75
      },
      {
        "pitch": 64,
        "start_tick": 6480,
        "duration_ticks": 45,
        "velocity": 56
      },
      {
        "pitch": 64,
        "start_tick": 6600,
        "duration_ticks": 1067,
        "velocity": 60
      },
      {
        "pitch": 64,
        "start_tick": 8160,
        "duration_ticks": 263,
        "velocity": 73
      },
      {
        "pitch": 62,
        "start_tick": 8400,
        "duration_ticks": 109,
        "velocity": 49
      },
      {
        "pitch": 65,
        "start_tick": 8520,
        "duration_ticks": 380,
        "velocity": 62
      },
      {
        "pitch": 64,
        "start_tick": 8880,
        "duration_ticks": 115,
        "velocity": 60
      },
      {
        "pitch": 62,
        "start_tick": 9000,
        "duration_ticks": 224,
        "velocity": 62
      },
      {
        "pitch": 60,
        "start_tick": 9240,
        "duration_ticks": 246,
        "velocity": 76
      },
      {
        "pitch": 67,
        "start_tick": 9480,
        "duration_ticks": 823,
        "velocity": 75
      },
      {
        "pitch": 69,
        "start_tick": 10320,
        "duration_ticks": 62,
        "velocity": 65
      },
      {
        "pitch": 69,
        "start_tick": 10440,
        "duration_ticks": 1056,
        "velocity": 71
      },
      {
        "pitch": 62,
        "start_tick": 12240,
        "duration_ticks": 37,
        "velocity": 69
      },
      {
        "pitch": 62,
        "start_tick": 12360,
        "duration_ticks": 364,
        "velocity": 77
      },
      {
        "pitch": 60,
        "start_tick": 12720,
        "duration_ticks": 127,
        "velocity": 64
      },
      {
        "pitch": 59,
        "start_tick": 12840,
        "duration_ticks": 186,
        "velocity": 61
      },
      {
        "pitch": 69,
        "start_tick": 13080,
        "duration_ticks": 223,
        "velocity": 81
      },
      {
        "pitch": 67,
        "start_tick": 13320,
        "duration_ticks": 360,
        "velocity": 55
      },
      {
        "pitch": 67,
        "start_tick": 13680,
        "duration_ticks": 748,
        "velocity": 55
      },
      {
        "pitch": 64,
        "start_tick": 15240,
        "duration_ticks": 115,
        "velocity": 76
      },
      {
        "pitch": 65,
        "start_tick": 15360,
        "duration_ticks": 228,
        "velocity": 65
      },
      {
        "pitch": 67,
        "start_tick": 15600,
        "duration_ticks": 121,
        "velocity": 65
      },
      {
        "pitch": 64,
        "start_tick": 15720,
        "duration_ticks": 181,
        "velocity": 57
      },
      {
        "pitch": 65,
        "start_tick": 15960,
        "duration_ticks": 235,
        "velocity": 72
      },
      {
        "pitch": 64,
        "start_tick": 16200,
        "duration_ticks": 124,
        "velocity": 58
      },
      {
        "pitch": 62,
        "start_tick": 16320,
        "duration_ticks": 222,
        "velocity": 59
      },
      {
        "pitch": 55,
        "start_tick": 16560,
        "duration_ticks": 240,
        "velocity": 68
      },
      {
        "pitch": 59,
        "start_tick": 16800,
        "duration_ticks": 234,
        "velocity": 76
      },
      {
        "pitch": 60,
        "start_tick": 17040,
        "duration_ticks": 116,
        "velocity": 68
      },
      {
        "pitch": 62,
        "start_tick": 17160,
        "duration_ticks": 824,
        "velocity": 50
      },
      {
        "pitch": 64,
        "start_tick": 18000,
        "duration_ticks": 149,
        "velocity": 64
      },
      {
        "pitch": 64,
        "start_tick": 18240,
        "duration_ticks": 605,
        "velocity": 68
      },
      {
        "pitch": 64,
        "start_tick": 19680,
        "duration_ticks": 272,
        "velocity": 68
      },
      {
        "pitch": 62,
        "start_tick": 19920,
        "duration_ticks": 114,
        "velocity": 58
      },
      {
        "pitch": 65,
        "start_tick": 20040,
        "duration_ticks": 337,
        "velocity": 56
      },
      {
        "pitch": 64,
        "start_tick": 20400,
        "duration_ticks": 138,
        "velocity": 55
      },
      {
        "pitch": 62,
        "start_tick": 20520,
        "duration_ticks": 238,
        "velocity": 60
      },
      {
        "pitch": 60,
        "start_tick": 20760,
        "duration_ticks": 227,
        "velocity": 65
      },
      {
        "pitch": 62,
        "start_tick": 21000,
        "duration_ticks": 764,
        "velocity": 70
      },
      {
        "pitch": 64,
        "start_tick": 21840,
        "duration_ticks": 49,
        "velocity": 59
      },
      {
        "pitch": 64,
        "start_tick": 21960,
        "duration_ticks": 676,
        "velocity": 62
      }
    ]
  },
  "harmony": {
    "overall_score": 95,
    "chord_count": 21,
    "key_estimate": "C",
    "key_confidence": 0.808,
    "ambiguity_count": 0,
    "num_segments": 25,
    "segments": [
      {
        "start_tick": 1920,
        "end_tick": 2880,
        "bar": 2,
        "beat_in_bar": 1,
        "beat_position": "1",
        "duration_beats": 2.0,
        "raw_notes": [
          {
            "pitch": 48,
            "name": "C3",
            "start_tick": 1920,
            "duration_ticks": 942,
            "effective_duration": 942,
            "velocity": 54
          },
          {
            "pitch": 55,
            "name": "G3",
            "start_tick": 1920,
            "duration_ticks": 942,
            "effective_duration": 942,
            "velocity": 61
          },
          {
            "pitch": 62,
            "name": "D4",
            "start_tick": 1920,
            "duration_ticks": 942,
            "effective_duration": 942,
            "velocity": 66
          },
          {
            "pitch": 64,
            "name": "E4",
            "start_tick": 1920,
            "duration_ticks": 942,
            "effective_duration": 942,
            "velocity": 65
          },
          {
            "pitch": 55,
            "name": "G3",
            "start_tick": 2400,
            "duration_ticks": 462,
            "effective_duration": 462,
            "velocity": 70
          },
          {
            "pitch": 62,
            "name": "D4",
            "start_tick": 2400,
            "duration_ticks": 462,
            "effective_duration": 462,
            "velocity": 73
          },
          {
            "pitch": 64,
            "name": "E4",
            "start_tick": 2400,
            "duration_ticks": 462,
            "effective_duration": 462,
            "velocity": 69
          },
          {
            "pitch": 48,
            "name": "C3",
            "start_tick": 2640,
            "duration_ticks": 222,
            "effective_duration": 222,
            "velocity": 54
          },
          {
            "pitch": 55,
            "name": "G3",
            "start_tick": 2640,
            "duration_ticks": 222,
            "effective_duration": 222,
            "velocity": 68
          }
        ],
        "bass": {
          "pitch": 48,
          "name": "C3",
          "pc": "C"
        },
        "pitch_classes": [
          "C",
          "D",
          "E",
          "G"
        ],
        "notes_count": 9,
        "chord": "Cadd9",
        "root": "C",
        "root_pc": 0,
        "quality": "add9",
        "confidence": 1.0,
        "alternatives": [
          {
            "label": "C9",
            "confidence": 0.864
          },
          {
            "label": "Cmaj9",
            "confidence": 0.864
          },
          {
            "label": "C11",
            "confidence": 0.727
          }
        ],
        "is_slash": false,
        "was_ambiguous": false,
        "is_continuation": false
      },
      {
        "start_tick": 2880,
        "end_tick": 3840,
        "bar": 2,
        "beat_in_bar": 3,
        "beat_position": "3",
        "duration_beats": 2.0,
        "raw_notes": [
          {
            "pitch": 48,
            "name": "C3",
            "start_tick": 2880,
            "duration_ticks": 960,
            "effective_duration": 960,
            "velocity": 50
          },
          {
            "pitch": 55,
            "name": "G3",
            "start_tick": 2880,
            "duration_ticks": 955,
            "effective_duration": 955,
            "velocity": 55
          },
          {
            "pitch": 60,
            "name": "C4",
            "start_tick": 2880,
            "duration_ticks": 955,
            "effective_duration": 955,
            "velocity": 69
          },
          {
            "pitch": 64,
            "name": "E4",
            "start_tick": 2880,
            "duration_ticks": 955,
            "effective_duration": 955,
            "velocity": 65
          },
          {
            "pitch": 55,
            "name": "G3",
            "start_tick": 3360,
            "duration_ticks": 475,
            "effective_duration": 475,
            "velocity": 64
          },
          {
            "pitch": 60,
            "name": "C4",
            "start_tick": 3360,
            "duration_ticks": 475,
            "effective_duration": 475,
            "velocity": 80
          },
          {
            "pitch": 64,
            "name": "E4",
            "start_tick": 3360,
            "duration_ticks": 475,
            "effective_duration": 475,
            "velocity": 69
          }
        ],
        "bass": {
          "pitch": 48,
          "name": "C3",
          "pc": "C"
        },
        "pitch_classes": [
          "C",
          "E",
          "G"
        ],
        "notes_count": 7,
        "chord": "C",
        "root": "C",
        "root_pc": 0,
        "quality": "maj",
        "confidence": 1.0,
        "alternatives": [
          {
            "label": "C7",
            "confidence": 0.824
          },
          {
            "label": "Cmaj7",
            "confidence": 0.824
          },
          {
            "label": "Cadd9",
            "confidence": 0.824
          }
        ],
        "is_slash": false,
        "was_ambiguous": false,
        "is_continuation": false
      },
      {
        "start_tick": 3840,
        "end_tick": 4800,
        "bar": 3,
        "beat_in_bar": 1,
        "beat_position": "1",
        "duration_beats": 2.0,
        "raw_notes": [
          {
            "pitch": 47,
            "name": "B2",
            "start_tick": 3840,
            "duration_ticks": 960,
            "effective_duration": 960,
            "velocity": 60
          },
          {
            "pitch": 57,
            "name": "A3",
            "start_tick": 3840,
            "duration_ticks": 960,
            "effective_duration": 960,
            "velocity": 77
          },
          {
            "pitch": 59,
            "name": "B3",
            "start_tick": 3840,
            "duration_ticks": 960,
            "effective_duration": 960,
            "velocity": 79
          },
          {
            "pitch": 64,
            "name": "E4",
            "start_tick": 3840,
            "duration_ticks": 960,
            "effective_duration": 960,
            "velocity": 75
          },
          {
            "pitch": 57,
            "name": "A3",
            "start_tick": 4320,
            "duration_ticks": 480,
            "effective_duration": 480,
            "velocity": 74
          },
          {
            "pitch": 59,
            "name": "B3",
            "start_tick": 4320,
            "duration_ticks": 480,
            "effective_duration": 480,
            "velocity": 79
          },
          {
            "pitch": 64,
            "name": "E4",
            "start_tick": 4320,
            "duration_ticks": 480,
            "effective_duration": 480,
            "velocity": 74
          }
        ],
        "bass": {
          "pitch": 47,
          "name": "B2",
          "pc": "B"
        },
        "pitch_classes": [
          "E",
          "A",
          "B"
        ],
        "notes_count": 7,
        "chord": "Esus4/B",
        "root": "E",
        "root_pc": 4,
        "quality": "sus4",
        "confidence": 0.941,
        "alternatives": [
          {
            "label": "Asus2/B",
            "confidence": 0.941
          },
          {
            "label": "B7sus4",
            "confidence": 0.897
          },
          {
            "label": "E7sus4/B",
            "confidence": 0.765
          }
        ],
        "is_slash": true,
        "was_ambiguous": false,
        "is_continuation": false
      },
      {
        "start_tick": 4800,
        "end_tick": 5760,
        "bar": 3,
        "beat_in_bar": 3,
        "beat_position": "3",
        "duration_beats": 2.0,
        "raw_notes": [
          {
            "pitch": 52,
            "name": "E3",
            "start_tick": 4800,
            "duration_ticks": 960,
            "effective_duration": 960,
            "velocity": 62
          },
          {
            "pitch": 56,
            "name": "G#3",
            "start_tick": 4800,
            "duration_ticks": 960,
            "effective_duration": 960,
            "velocity": 70
          },
          {
            "pitch": 59,
            "name": "B3",
            "start_tick": 4800,
            "duration_ticks": 960,
            "effective_duration": 960,
            "velocity": 68
          },
          {
            "pitch": 65,
            "name": "F4",
            "start_tick": 4800,
            "duration_ticks": 960,
            "effective_duration": 960,
            "velocity": 80
          },
          {
            "pitch": 56,
            "name": "G#3",
            "start_tick": 5280,
            "duration_ticks": 480,
            "effective_duration": 480,
            "velocity": 65
          },
          {
            "pitch": 59,
            "name": "B3",
            "start_tick": 5280,
            "duration_ticks": 480,
            "effective_duration": 480,
            "velocity": 68
          },
          {
            "pitch": 64,
            "name": "E4",
            "start_tick": 5280,
            "duration_ticks": 480,
            "effective_duration": 480,
            "velocity": 62
          }
        ],
        "bass": {
          "pitch": 52,
          "name": "E3",
          "pc": "E"
        },
        "pitch_classes": [
          "E",
          "F",
          "G#",
          "B"
        ],
        "notes_count": 7,
        "chord": "E7b9",
        "root": "E",
        "root_pc": 4,
        "quality": "7b9",
        "confidence": 0.864,
        "alternatives": [
          {
            "label": "C#7#9/E",
            "confidence": 0.818
          },
          {
            "label": "E",
            "confidence": 0.602
          },
          {
            "label": "E7",
            "confidence": 0.466
          }
        ],
        "is_slash": false,
        "was_ambiguous": false,
        "is_continuation": false
      },
      {
        "start_tick": 5760,
        "end_tick": 6720,
        "bar": 4,
        "beat_in_bar": 1,
        "beat_position": "1",
        "duration_beats": 2.0,
        "raw_notes": [
          {
            "pitch": 45,
            "name": "A2",
            "start_tick": 5760,
            "duration_ticks": 960,
            "effective_duration": 960,
            "velocity": 66
          },
          {
            "pitch": 55,
            "name": "G3",
            "start_tick": 5760,
            "duration_ticks": 960,
            "effective_duration": 960,
            "velocity": 67
          },
          {
            "pitch": 59,
            "name": "B3",
            "start_tick": 5760,
            "duration_ticks": 960,
            "effective_duration": 960,
            "velocity": 67
          },
          {
            "pitch": 62,
            "name": "D4",
            "start_tick": 5760,
            "duration_ticks": 960,
            "effective_duration": 960,
            "velocity": 81
          },
          {
            "pitch": 55,
            "name": "G3",
            "start_tick": 6240,
            "duration_ticks": 480,
            "effective_duration": 480,
            "velocity": 62
          },
          {
            "pitch": 59,
            "name": "B3",
            "start_tick": 6240,
            "duration_ticks": 480,
            "effective_duration": 480,
            "velocity": 65
          },
          {
            "pitch": 62,
            "name": "D4",
            "start_tick": 6240,
            "duration_ticks": 480,
            "effective_duration": 480,
            "velocity": 73
          },
          {
            "pitch": 45,
            "name": "A2",
            "start_tick": 6480,
            "duration_ticks": 240,
            "effective_duration": 240,
            "velocity": 60
          }
        ],
        "bass": {
          "pitch": 45,
          "name": "A2",
          "pc": "A"
        },
        "pitch_classes": [
          "D",
          "G",
          "A",
          "B"
        ],
        "notes_count": 8,
        "chord": "Gadd9/A",
        "root": "G",
        "root_pc": 7,
        "quality": "add9",
        "confidence": 0.955,
        "alternatives": [
          {
            "label": "G9/A",
            "confidence": 0.818
          },
          {
            "label": "Gmaj9/A",
            "confidence": 0.818
          },
          {
            "label": "A11",
            "confidence": 0.727
          }
        ],
        "is_slash": true,
        "was_ambiguous": false,
        "is_continuation": false
      },
      {
        "start_tick": 6720,
        "end_tick": 7680,
        "bar": 4,
        "beat_in_bar": 3,
        "beat_position": "3",
        "duration_beats": 2.0,
        "raw_notes": [
          {
            "pitch": 45,
            "name": "A2",
            "start_tick": 6720,
            "duration_ticks": 960,
            "effective_duration": 960,
            "velocity": 68
          },
          {
            "pitch": 55,
            "name": "G3",
            "start_tick": 6720,
            "duration_ticks": 960,
            "effective_duration": 960,
            "velocity": 58
          },
          {
            "pitch": 60,
            "name": "C4",
            "start_tick": 6720,
            "duration_ticks": 960,
            "effective_duration": 960,
            "velocity": 70
          },
          {
            "pitch": 64,
            "name": "E4",
            "start_tick": 6720,
            "duration_ticks": 960,
            "effective_duration": 960,
            "velocity": 70
          },
          {
            "pitch": 55,
            "name": "G3",
            "start_tick": 7200,
            "duration_ticks": 480,
            "effective_duration": 480,
            "velocity": 74
          },
          {
            "pitch": 60,
            "name": "C4",
            "start_tick": 7200,
            "duration_ticks": 480,
            "effective_duration": 480,
            "velocity": 80
          },
          {
            "pitch": 64,
            "name": "E4",
            "start_tick": 7200,
            "duration_ticks": 480,
            "effective_duration": 480,
            "velocity": 80
          }
        ],
        "bass": {
          "pitch": 45,
          "name": "A2",
          "pc": "A"
        },
        "pitch_classes": [
          "C",
          "E",
          "G",
          "A"
        ],
        "notes_count": 7,
        "chord": "Am7",
        "root": "A",
        "root_pc": 9,
        "quality": "m7",
        "confidence": 1.0,
        "alternatives": [
          {
            "label": "C6/A",
            "confidence": 0.955
          },
          {
            "label": "Am9",
            "confidence": 0.864
          },
          {
            "label": "A7#9",
            "confidence": 0.864
          }
        ],
        "is_slash": false,
        "was_ambiguous": false,
        "is_continuation": false
      },
      {
        "start_tick": 7680,
        "end_tick": 8160,
        "bar": 5,
        "beat_in_bar": 1,
        "beat_position": "1",
        "duration_beats": 1.0,
        "raw_notes": [
          {
            "pitch": 31,
            "name": "G1",
            "start_tick": 7680,
            "duration_ticks": 960,
            "effective_duration": 480,
            "velocity": 57
          },
          {
            "pitch": 58,
            "name": "A#3",
            "start_tick": 7680,
            "duration_ticks": 960,
            "effective_duration": 480,
            "velocity": 63
          },
          {
            "pitch": 62,
            "name": "D4",
            "start_tick": 7680,
            "duration_ticks": 960,
            "effective_duration": 480,
            "velocity": 63
          },
          {
            "pitch": 65,
            "name": "F4",
            "start_tick": 7680,
            "duration_ticks": 960,
            "effective_duration": 480,
            "velocity": 72
          }
        ],
        "bass": {
          "pitch": 31,
          "name": "G1",
          "pc": "G"
        },
        "pitch_classes": [
          "D",
          "F",
          "G",
          "A#"
        ],
        "notes_count": 4,
        "chord": "Gm7",
        "root": "G",
        "root_pc": 7,
        "quality": "m7",
        "confidence": 1.0,
        "alternatives": [
          {
            "label": "A#6/G",
            "confidence": 0.955
          },
          {
            "label": "Gm9",
            "confidence": 0.864
          },
          {
            "label": "G7#9",
            "confidence": 0.864
          }
        ],
        "is_slash": false,
        "was_ambiguous": false,
        "is_continuation": false
      },
      {
        "start_tick": 8160,
        "end_tick": 8640,
        "bar": 5,
        "beat_in_bar": 2,
        "beat_position": "2",
        "duration_beats": 1.0,
        "raw_notes": [
          {
            "pitch": 31,
            "name": "G1",
            "start_tick": 7680,
            "duration_ticks": 960,
            "effective_duration": 480,
            "velocity": 57
          },
          {
            "pitch": 58,
            "name": "A#3",
            "start_tick": 7680,
            "duration_ticks": 960,
            "effective_duration": 480,
            "velocity": 63
          },
          {
            "pitch": 62,
            "name": "D4",
            "start_tick": 7680,
            "duration_ticks": 960,
            "effective_duration": 480,
            "velocity": 63
          },
          {
            "pitch": 65,
            "name": "F4",
            "start_tick": 7680,
            "duration_ticks": 960,
            "effective_duration": 480,
            "velocity": 72
          },
          {
            "pitch": 55,
            "name": "G3",
            "start_tick": 8160,
            "duration_ticks": 480,
            "effective_duration": 480,
            "velocity": 67
          },
          {
            "pitch": 60,
            "name": "C4",
            "start_tick": 8160,
            "duration_ticks": 480,
            "effective_duration": 480,
            "velocity": 69
          },
          {
            "pitch": 64,
            "name": "E4",
            "start_tick": 8160,
            "duration_ticks": 480,
            "effective_duration": 480,
            "velocity": 74
          }
        ],
        "bass": {
          "pitch": 55,
          "name": "G3",
          "pc": "G"
        },
        "pitch_classes": [
          "C",
          "D",
          "E",
          "F",
          "G",
          "A#"
        ],
        "notes_count": 7,
        "chord": "C11/G",
        "root": "C",
        "root_pc": 0,
        "quality": "11",
        "confidence": 0.969,
        "alternatives": [
          {
            "label": "C9/G",
            "confidence": 0.695
          },
          {
            "label": "C13/G",
            "confidence": 0.602
          },
          {
            "label": "A#13/G",
            "confidence": 0.602
          }
        ],
        "is_slash": true,
        "was_ambiguous": false,
        "is_continuation": false
      },
      {
        "start_tick": 8640,
        "end_tick": 9120,
        "bar": 5,
        "beat_in_bar": 3,
        "beat_position": "3",
        "duration_beats": 1.0,
        "raw_notes": [
          {
            "pitch": 36,
            "name": "C2",
            "start_tick": 8640,
            "duration_ticks": 960,
            "effective_duration": 480,
            "velocity": 55
          },
          {
            "pitch": 58,
            "name": "A#3",
            "start_tick": 8640,
            "duration_ticks": 960,
            "effective_duration": 480,
            "velocity": 62
          },
          {
            "pitch": 62,
            "name": "D4",
            "start_tick": 8640,
            "duration_ticks": 960,
            "effective_duration": 480,
            "velocity": 55
          },
          {
            "pitch": 65,
            "name": "F4",
            "start_tick": 8640,
            "duration_ticks": 960,
            "effective_duration": 480,
            "velocity": 68
          }
        ],
        "bass": {
          "pitch": 36,
          "name": "C2",
          "pc": "C"
        },
        "pitch_classes": [
          "C",
          "D",
          "F",
          "A#"
        ],
        "notes_count": 4,
        "chord": "A#add9/C",
        "root": "A#",
        "root_pc": 10,
        "quality": "add9",
        "confidence": 0.955,
        "alternatives": [
          {
            "label": "A#9/C",
            "confidence": 0.818
          },
          {
            "label": "A#maj9/C",
            "confidence": 0.818
          },
          {
            "label": "C11",
            "confidence": 0.727
          }
        ],
        "is_slash": true,
        "was_ambiguous": false,
        "is_continuation": false
      },
      {
        "start_tick": 9120,
        "end_tick": 9600,
        "bar": 5,
        "beat_in_bar": 4,
        "beat_position": "4",
        "duration_beats": 1.0,
        "raw_notes": [
          {
            "pitch": 36,
            "name": "C2",
            "start_tick": 8640,
            "duration_ticks": 960,
            "effective_duration": 480,
            "velocity": 55
          },
          {
            "pitch": 58,
            "name": "A#3",
            "start_tick": 8640,
            "duration_ticks": 960,
            "effective_duration": 480,
            "velocity": 62
          },
          {
            "pitch": 62,
            "name": "D4",
            "start_tick": 8640,
            "duration_ticks": 960,
            "effective_duration": 480,
            "velocity": 55
          },
          {
            "pitch": 65,
            "name": "F4",
            "start_tick": 8640,
            "duration_ticks": 960,
            "effective_duration": 480,
            "velocity": 68
          },
          {
            "pitch": 60,
            "name": "C4",
            "start_tick": 9120,
            "duration_ticks": 480,
            "effective_duration": 480,
            "velocity": 67
          },
          {
            "pitch": 64,
            "name": "E4",
            "start_tick": 9120,
            "duration_ticks": 480,
            "effective_duration": 480,
            "velocity": 59
          },
          {
            "pitch": 67,
            "name": "G4",
            "start_tick": 9120,
            "duration_ticks": 480,
            "effective_duration": 480,
            "velocity": 69
          }
        ],
        "bass": {
          "pitch": 60,
          "name": "C4",
          "pc": "C"
        },
        "pitch_classes": [
          "C",
          "D",
          "E",
          "F",
          "G",
          "A#"
        ],
        "notes_count": 7,
        "chord": "C11",
        "root": "C",
        "root_pc": 0,
        "quality": "11",
        "confidence": 1.0,
        "alternatives": [
          {
            "label": "C9",
            "confidence": 0.727
          },
          {
            "label": "C13",
            "confidence": 0.633
          },
          {
            "label": "A#13/C",
            "confidence": 0.602
          }
        ],
        "is_slash": false,
        "was_ambiguous": false,
        "is_continuation": false
      },
      {
        "start_tick": 9600,
        "end_tick": 10560,
        "bar": 6,
        "beat_in_bar": 1,
        "beat_position": "1",
        "duration_beats": 2.0,
        "raw_notes": [
          {
            "pitch": 41,
            "name": "F2",
            "start_tick": 9600,
            "duration_ticks": 960,
            "effective_duration": 960,
            "velocity": 56
          },
          {
            "pitch": 60,
            "name": "C4",
            "start_tick": 9600,
            "duration_ticks": 960,
            "effective_duration": 960,
            "velocity": 69
          },
          {
            "pitch": 65,
            "name": "F4",
            "start_tick": 9600,
            "duration_ticks": 960,
            "effective_duration": 960,
            "velocity": 68
          },
          {
            "pitch": 67,
            "name": "G4",
            "start_tick": 9600,
            "duration_ticks": 960,
            "effective_duration": 960,
            "velocity": 61
          },
          {
            "pitch": 60,
            "name": "C4",
            "start_tick": 10080,
            "duration_ticks": 480,
            "effective_duration": 480,
            "velocity": 60
          },
          {
            "pitch": 65,
            "name": "F4",
            "start_tick": 10080,
            "duration_ticks": 480,
            "effective_duration": 480,
            "velocity": 65
          },
          {
            "pitch": 67,
            "name": "G4",
            "start_tick": 10080,
            "duration_ticks": 480,
            "effective_duration": 480,
            "velocity": 67
          },
          {
            "pitch": 41,
            "name": "F2",
            "start_tick": 10320,
            "duration_ticks": 240,
            "effective_duration": 240,
            "velocity": 50
          }
        ],
        "bass": {
          "pitch": 41,
          "name": "F2",
          "pc": "F"
        },
        "pitch_classes": [
          "C",
          "F",
          "G"
        ],
        "notes_count": 8,
        "chord": "Fsus2",
        "root": "F",
        "root_pc": 5,
        "quality": "sus2",
        "confidence": 1.0,
        "alternatives": [
          {
            "label": "Csus4/F",
            "confidence": 0.941
          },
          {
            "label": "Fadd9",
            "confidence": 0.824
          },
          {
            "label": "Fmadd9",
            "confidence": 0.824
          }
        ],
        "is_slash": false,
        "was_ambiguous": false,
        "is_continuation": false
      },
      {
        "start_tick": 10560,
        "end_tick": 11520,
        "bar": 6,
        "beat_in_bar": 3,
        "beat_position": "3",
        "duration_beats": 2.0,
        "raw_notes": [
          {
            "pitch": 41,
            "name": "F2",
            "start_tick": 10560,
            "duration_ticks": 960,
            "effective_duration": 960,
            "velocity": 62
          },
          {
            "pitch": 60,
            "name": "C4",
            "start_tick": 10560,
            "duration_ticks": 960,
            "effective_duration": 960,
            "velocity": 60
          },
          {
            "pitch": 65,
            "name": "F4",
            "start_tick": 10560,
            "duration_ticks": 960,
            "effective_duration": 960,
            "velocity": 59
          },
          {
            "pitch": 69,
            "name": "A4",
            "start_tick": 10560,
            "duration_ticks": 960,
            "effective_duration": 960,
            "velocity": 71
          },
          {
            "pitch": 60,
            "name": "C4",
            "start_tick": 11040,
            "duration_ticks": 480,
            "effective_duration": 480,
            "velocity": 68
          },
          {
            "pitch": 65,
            "name": "F4",
            "start_tick": 11040,
            "duration_ticks": 480,
            "effective_duration": 480,
            "velocity": 68
          },
          {
            "pitch": 69,
            "name": "A4",
            "start_tick": 11040,
            "duration_ticks": 480,
            "effective_duration": 480,
            "velocity": 74
          },
          {
            "pitch": 41,
            "name": "F2",
            "start_tick": 11280,
            "duration_ticks": 240,
            "effective_duration": 240,
            "velocity": 56
          }
        ],
        "bass": {
          "pitch": 41,
          "name": "F2",
          "pc": "F"
        },
        "pitch_classes": [
          "C",
          "F",
          "A"
        ],
        "notes_count": 8,
        "chord": "F",
        "root": "F",
        "root_pc": 5,
        "quality": "maj",
        "confidence": 1.0,
        "alternatives": [
          {
            "label": "F7",
            "confidence": 0.824
          },
          {
            "label": "Fmaj7",
            "confidence": 0.824
          },
          {
            "label": "Fadd9",
            "confidence": 0.824
          }
        ],
        "is_slash": false,
        "was_ambiguous": false,
        "is_continuation": false
      },
      {
        "start_tick": 11520,
        "end_tick": 13440,
        "bar": 7,
        "beat_in_bar": 1,
        "beat_position": "1",
        "duration_beats": 4.0,
        "raw_notes": [
          {
            "pitch": 41,
            "name": "F2",
            "start_tick": 11520,
            "duration_ticks": 960,
            "effective_duration": 960,
            "velocity": 52
          },
          {
            "pitch": 59,
            "name": "B3",
            "start_tick": 11520,
            "duration_ticks": 960,
            "effective_duration": 960,
            "velocity": 58
          },
          {
            "pitch": 62,
            "name": "D4",
            "start_tick": 11520,
            "duration_ticks": 960,
            "effective_duration": 960,
            "velocity": 65
          },
          {
            "pitch": 65,
            "name": "F4",
            "start_tick": 11520,
            "duration_ticks": 960,
            "effective_duration": 960,
            "velocity": 58
          },
          {
            "pitch": 69,
            "name": "A4",
            "start_tick": 11520,
            "duration_ticks": 960,
            "effective_duration": 960,
            "velocity": 72
          },
          {
            "pitch": 59,
            "name": "B3",
            "start_tick": 12000,
            "duration_ticks": 480,
            "effective_duration": 480,
            "velocity": 57
          },
          {
            "pitch": 62,
            "name": "D4",
            "start_tick": 12000,
            "duration_ticks": 480,
            "effective_duration": 480,
            "velocity": 70
          },
          {
            "pitch": 65,
            "name": "F4",
            "start_tick": 12000,
            "duration_ticks": 480,
            "effective_duration": 480,
            "velocity": 65
          },
          {
            "pitch": 69,
            "name": "A4",
            "start_tick": 12000,
            "duration_ticks": 480,
            "effective_duration": 480,
            "velocity": 73
          },
          {
            "pitch": 41,
            "name": "F2",
            "start_tick": 12240,
            "duration_ticks": 1200,
            "effective_duration": 1200,
            "velocity": 59
          },
          {
            "pitch": 59,
            "name": "B3",
            "start_tick": 12480,
            "duration_ticks": 960,
            "effective_duration": 960,
            "velocity": 60
          },
          {
            "pitch": 62,
            "name": "D4",
            "start_tick": 12480,
            "duration_ticks": 960,
            "effective_duration": 960,
            "velocity": 67
          },
          {
            "pitch": 65,
            "name": "F4",
            "start_tick": 12480,
            "duration_ticks": 960,
            "effective_duration": 960,
            "velocity": 62
          },
          {
            "pitch": 69,
            "name": "A4",
            "start_tick": 12480,
            "duration_ticks": 960,
            "effective_duration": 960,
            "velocity": 73
          }
        ],
        "bass": {
          "pitch": 41,
          "name": "F2",
          "pc": "F"
        },
        "pitch_classes": [
          "D",
          "F",
          "A",
          "B"
        ],
        "notes_count": 14,
        "chord": "Dm6/F",
        "root": "D",
        "root_pc": 2,
        "quality": "m6",
        "confidence": 0.955,
        "alternatives": [
          {
            "label": "Bm7b5/F",
            "confidence": 0.955
          },
          {
            "label": "G9/F",
            "confidence": 0.818
          },
          {
            "label": "G11/F",
            "confidence": 0.682
          }
        ],
        "is_slash": true,
        "was_ambiguous": false,
        "is_continuation": false
      },
      {
        "start_tick": 13440,
        "end_tick": 14400,
        "bar": 8,
        "beat_in_bar": 1,
        "beat_position": "1",
        "duration_beats": 2.0,
        "raw_notes": [
          {
            "pitch": 52,
            "name": "E3",
            "start_tick": 13440,
            "duration_ticks": 960,
            "effective_duration": 960,
            "velocity": 47
          },
          {
            "pitch": 58,
            "name": "A#3",
            "start_tick": 13440,
            "duration_ticks": 960,
            "effective_duration": 960,
            "velocity": 55
          },
          {
            "pitch": 62,
            "name": "D4",
            "start_tick": 13440,
            "duration_ticks": 960,
            "effective_duration": 960,
            "velocity": 50
          },
          {
            "pitch": 67,
            "name": "G4",
            "start_tick": 13440,
            "duration_ticks": 960,
            "effective_duration": 960,
            "velocity": 58
          },
          {
            "pitch": 58,
            "name": "A#3",
            "start_tick": 13920,
            "duration_ticks": 480,
            "effective_duration": 480,
            "velocity": 59
          },
          {
            "pitch": 62,
            "name": "D4",
            "start_tick": 13920,
            "duration_ticks": 480,
            "effective_duration": 480,
            "velocity": 58
          },
          {
            "pitch": 67,
            "name": "G4",
            "start_tick": 13920,
            "duration_ticks": 480,
            "effective_duration": 480,
            "velocity": 62
          },
          {
            "pitch": 52,
            "name": "E3",
            "start_tick": 14160,
            "duration_ticks": 240,
            "effective_duration": 240,
            "velocity": 49
          }
        ],
        "bass": {
          "pitch": 52,
          "name": "E3",
          "pc": "E"
        },
        "pitch_classes": [
          "D",
          "E",
          "G",
          "A#"
        ],
        "notes_count": 8,
        "chord": "Em7b5",
        "root": "E",
        "root_pc": 4,
        "quality": "m7b5",
        "confidence": 1.0,
        "alternatives": [
          {
            "label": "Gm6/E",
            "confidence": 0.955
          },
          {
            "label": "C9/E",
            "confidence": 0.818
          },
          {
            "label": "C11/E",
            "confidence": 0.682
          }
        ],
        "is_slash": false,
        "was_ambiguous": false,
        "is_continuation": false
      },
      {
        "start_tick": 14400,
        "end_tick": 14880,
        "bar": 8,
        "beat_in_bar": 3,
        "beat_position": "3",
        "duration_beats": 1.0,
        "raw_notes": [
          {
            "pitch": 45,
            "name": "A2",
            "start_tick": 14400,
            "duration_ticks": 960,
            "effective_duration": 480,
            "velocity": 47
          },
          {
            "pitch": 57,
            "name": "A3",
            "start_tick": 14400,
            "duration_ticks": 960,
            "effective_duration": 480,
            "velocity": 62
          },
          {
            "pitch": 61,
            "name": "C#4",
            "start_tick": 14400,
            "duration_ticks": 960,
            "effective_duration": 480,
            "velocity": 58
          },
          {
            "pitch": 65,
            "name": "F4",
            "start_tick": 14400,
            "duration_ticks": 960,
            "effective_duration": 480,
            "velocity": 68
          }
        ],
        "bass": {
          "pitch": 45,
          "name": "A2",
          "pc": "A"
        },
        "pitch_classes": [
          "C#",
          "F",
          "A"
        ],
        "notes_count": 4,
        "chord": "Aaug",
        "root": "A",
        "root_pc": 9,
        "quality": "aug",
        "confidence": 1.0,
        "alternatives": [
          {
            "label": "C#aug/A",
            "confidence": 0.941
          },
          {
            "label": "Faug/A",
            "confidence": 0.941
          },
          {
            "label": "A",
            "confidence": 0.309
          }
        ],
        "is_slash": false,
        "was_ambiguous": false,
        "is_continuation": false
      },
      {
        "start_tick": 14880,
        "end_tick": 15360,
        "bar": 8,
        "beat_in_bar": 4,
        "beat_position": "4",
        "duration_beats": 1.0,
        "raw_notes": [
          {
            "pitch": 45,
            "name": "A2",
            "start_tick": 14400,
            "duration_ticks": 960,
            "effective_duration": 480,
            "velocity": 47
          },
          {
            "pitch": 57,
            "name": "A3",
            "start_tick": 14400,
            "duration_ticks": 960,
            "effective_duration": 480,
            "velocity": 62
          },
          {
            "pitch": 61,
            "name": "C#4",
            "start_tick": 14400,
            "duration_ticks": 960,
            "effective_duration": 480,
            "velocity": 58
          },
          {
            "pitch": 65,
            "name": "F4",
            "start_tick": 14400,
            "duration_ticks": 960,
            "effective_duration": 480,
            "velocity": 68
          },
          {
            "pitch": 57,
            "name": "A3",
            "start_tick": 14880,
            "duration_ticks": 480,
            "effective_duration": 480,
            "velocity": 68
          },
          {
            "pitch": 61,
            "name": "C#4",
            "start_tick": 14880,
            "duration_ticks": 480,
            "effective_duration": 480,
            "velocity": 61
          },
          {
            "pitch": 64,
            "name": "E4",
            "start_tick": 14880,
            "duration_ticks": 480,
            "effective_duration": 480,
            "velocity": 68
          }
        ],
        "bass": {
          "pitch": 57,
          "name": "A3",
          "pc": "A"
        },
        "pitch_classes": [
          "C#",
          "E",
          "F",
          "A"
        ],
        "notes_count": 7,
        "chord": "A",
        "root": "A",
        "root_pc": 9,
        "quality": "maj",
        "confidence": 0.602,
        "alternatives": [
          {
            "label": "Aaug",
            "confidence": 0.602
          },
          {
            "label": "C#aug/A",
            "confidence": 0.557
          },
          {
            "label": "Faug/A",
            "confidence": 0.557
          }
        ],
        "is_slash": false,
        "was_ambiguous": false,
        "is_continuation": false
      },
      {
        "start_tick": 15360,
        "end_tick": 16320,
        "bar": 9,
        "beat_in_bar": 1,
        "beat_position": "1",
        "duration_beats": 2.0,
        "raw_notes": [
          {
            "pitch": 50,
            "name": "D3",
            "start_tick": 15360,
            "duration_ticks": 960,
            "effective_duration": 960,
            "velocity": 49
          },
          {
            "pitch": 53,
            "name": "F3",
            "start_tick": 15360,
            "duration_ticks": 960,
            "effective_duration": 960,
            "velocity": 57
          },
          {
            "pitch": 57,
            "name": "A3",
            "start_tick": 15360,
            "duration_ticks": 960,
            "effective_duration": 960,
            "velocity": 59
          },
          {
            "pitch": 60,
            "name": "C4",
            "start_tick": 15360,
            "duration_ticks": 960,
            "effective_duration": 960,
            "velocity": 76
          },
          {
            "pitch": 53,
            "name": "F3",
            "start_tick": 15840,
            "duration_ticks": 480,
            "effective_duration": 480,
            "velocity": 67
          },
          {
            "pitch": 57,
            "name": "A3",
            "start_tick": 15840,
            "duration_ticks": 480,
            "effective_duration": 480,
            "velocity": 68
          },
          {
            "pitch": 60,
            "name": "C4",
            "start_tick": 15840,
            "duration_ticks": 480,
            "effective_duration": 480,
            "velocity": 80
          },
          {
            "pitch": 50,
            "name": "D3",
            "start_tick": 16080,
            "duration_ticks": 240,
            "effective_duration": 240,
            "velocity": 52
          }
        ],
        "bass": {
          "pitch": 50,
          "name": "D3",
          "pc": "D"
        },
        "pitch_classes": [
          "C",
          "D",
          "F",
          "A"
        ],
        "notes_count": 8,
        "chord": "Dm7",
        "root": "D",
        "root_pc": 2,
        "quality": "m7",
        "confidence": 1.0,
        "alternatives": [
          {
            "label": "F6/D",
            "confidence": 0.955
          },
          {
            "label": "Dm9",
            "confidence": 0.864
          },
          {
            "label": "D7#9",
            "confidence": 0.864
          }
        ],
        "is_slash": false,
        "was_ambiguous": false,
        "is_continuation": false
      },
      {
        "start_tick": 16320,
        "end_tick": 16800,
        "bar": 9,
        "beat_in_bar": 3,
        "beat_position": "3",
        "duration_beats": 1.0,
        "raw_notes": [
          {
            "pitch": 43,
            "name": "G2",
            "start_tick": 16320,
            "duration_ticks": 960,
            "effective_duration": 480,
            "velocity": 49
          },
          {
            "pitch": 60,
            "name": "C4",
            "start_tick": 16320,
            "duration_ticks": 960,
            "effective_duration": 480,
            "velocity": 58
          },
          {
            "pitch": 62,
            "name": "D4",
            "start_tick": 16320,
            "duration_ticks": 960,
            "effective_duration": 480,
            "velocity": 66
          },
          {
            "pitch": 67,
            "name": "G4",
            "start_tick": 16320,
            "duration_ticks": 960,
            "effective_duration": 480,
            "velocity": 66
          }
        ],
        "bass": {
          "pitch": 43,
          "name": "G2",
          "pc": "G"
        },
        "pitch_classes": [
          "C",
          "D",
          "G"
        ],
        "notes_count": 4,
        "chord": "Gsus4",
        "root": "G",
        "root_pc": 7,
        "quality": "sus4",
        "confidence": 1.0,
        "alternatives": [
          {
            "label": "Csus2/G",
            "confidence": 0.941
          },
          {
            "label": "G7sus4",
            "confidence": 0.897
          },
          {
            "label": "Cadd9/G",
            "confidence": 0.765
          }
        ],
        "is_slash": false,
        "was_ambiguous": false,
        "is_continuation": false
      },
      {
        "start_tick": 16800,
        "end_tick": 17280,
        "bar": 9,
        "beat_in_bar": 4,
        "beat_position": "4",
        "duration_beats": 1.0,
        "raw_notes": [
          {
            "pitch": 43,
            "name": "G2",
            "start_tick": 16320,
            "duration_ticks": 960,
            "effective_duration": 480,
            "velocity": 49
          },
          {
            "pitch": 60,
            "name": "C4",
            "start_tick": 16320,
            "duration_ticks": 960,
            "effective_duration": 480,
            "velocity": 58
          },
          {
            "pitch": 62,
            "name": "D4",
            "start_tick": 16320,
            "duration_ticks": 960,
            "effective_duration": 480,
            "velocity": 66
          },
          {
            "pitch": 67,
            "name": "G4",
            "start_tick": 16320,
            "duration_ticks": 960,
            "effective_duration": 480,
            "velocity": 66
          },
          {
            "pitch": 55,
            "name": "G3",
            "start_tick": 16800,
            "duration_ticks": 480,
            "effective_duration": 480,
            "velocity": 70
          },
          {
            "pitch": 59,
            "name": "B3",
            "start_tick": 16800,
            "duration_ticks": 480,
            "effective_duration": 480,
            "velocity": 68
          }
        ],
        "bass": {
          "pitch": 55,
          "name": "G3",
          "pc": "G"
        },
        "pitch_classes": [
          "C",
          "D",
          "G",
          "B"
        ],
        "notes_count": 6,
        "chord": "Cmaj9/G",
        "root": "C",
        "root_pc": 0,
        "quality": "maj9",
        "confidence": 0.818,
        "alternatives": [
          {
            "label": "G11",
            "confidence": 0.727
          },
          {
            "label": "G",
            "confidence": 0.602
          },
          {
            "label": "Gsus4",
            "confidence": 0.602
          }
        ],
        "is_slash": true,
        "was_ambiguous": false,
        "is_continuation": false
      },
      {
        "start_tick": 17280,
        "end_tick": 18240,
        "bar": 10,
        "beat_in_bar": 1,
        "beat_position": "1",
        "duration_beats": 2.0,
        "raw_notes": [
          {
            "pitch": 36,
            "name": "C2",
            "start_tick": 17280,
            "duration_ticks": 960,
            "effective_duration": 960,
            "velocity": 50
          },
          {
            "pitch": 55,
            "name": "G3",
            "start_tick": 17280,
            "duration_ticks": 960,
            "effective_duration": 960,
            "velocity": 65
          },
          {
            "pitch": 60,
            "name": "C4",
            "start_tick": 17280,
            "duration_ticks": 960,
            "effective_duration": 960,
            "velocity": 68
          },
          {
            "pitch": 62,
            "name": "D4",
            "start_tick": 17280,
            "duration_ticks": 960,
            "effective_duration": 960,
            "velocity": 67
          },
          {
            "pitch": 43,
            "name": "G2",
            "start_tick": 17520,
            "duration_ticks": 720,
            "effective_duration": 720,
            "velocity": 58
          },
          {
            "pitch": 50,
            "name": "D3",
            "start_tick": 17760,
            "duration_ticks": 480,
            "effective_duration": 480,
            "velocity": 69
          },
          {
            "pitch": 55,
            "name": "G3",
            "start_tick": 17760,
            "duration_ticks": 480,
            "effective_duration": 480,
            "velocity": 72
          },
          {
            "pitch": 60,
            "name": "C4",
            "start_tick": 17760,
            "duration_ticks": 480,
            "effective_duration": 480,
            "velocity": 79
          },
          {
            "pitch": 62,
            "name": "D4",
            "start_tick": 17760,
            "duration_ticks": 480,
            "effective_duration": 480,
            "velocity": 74
          },
          {
            "pitch": 43,
            "name": "G2",
            "start_tick": 18000,
            "duration_ticks": 245,
            "effective_duration": 240,
            "velocity": 56
          }
        ],
        "bass": {
          "pitch": 36,
          "name": "C2",
          "pc": "C"
        },
        "pitch_classes": [
          "C",
          "D",
          "G"
        ],
        "notes_count": 10,
        "chord": "Csus2",
        "root": "C",
        "root_pc": 0,
        "quality": "sus2",
        "confidence": 1.0,
        "alternatives": [
          {
            "label": "Gsus4/C",
            "confidence": 0.941
          },
          {
            "label": "Cadd9",
            "confidence": 0.824
          },
          {
            "label": "Cmadd9",
            "confidence": 0.824
          }
        ],
        "is_slash": false,
        "was_ambiguous": false,
        "is_continuation": false
      },
      {
        "start_tick": 18240,
        "end_tick": 19200,
        "bar": 10,
        "beat_in_bar": 3,
        "beat_position": "3",
        "duration_beats": 2.0,
        "raw_notes": [
          {
            "pitch": 43,
            "name": "G2",
            "start_tick": 18000,
            "duration_ticks": 245,
            "effective_duration": 5,
            "velocity": 56
          },
          {
            "pitch": 52,
            "name": "E3",
            "start_tick": 18240,
            "duration_ticks": 923,
            "effective_duration": 923,
            "velocity": 69
          },
          {
            "pitch": 55,
            "name": "G3",
            "start_tick": 18240,
            "duration_ticks": 923,
            "effective_duration": 923,
            "velocity": 63
          },
          {
            "pitch": 60,
            "name": "C4",
            "start_tick": 18240,
            "duration_ticks": 923,
            "effective_duration": 923,
            "velocity": 73
          },
          {
            "pitch": 62,
            "name": "D4",
            "start_tick": 18240,
            "duration_ticks": 923,
            "effective_duration": 923,
            "velocity": 64
          },
          {
            "pitch": 64,
            "name": "E4",
            "start_tick": 18240,
            "duration_ticks": 923,
            "effective_duration": 923,
            "velocity": 70
          },
          {
            "pitch": 55,
            "name": "G3",
            "start_tick": 18720,
            "duration_ticks": 443,
            "effective_duration": 443,
            "velocity": 66
          },
          {
            "pitch": 60,
            "name": "C4",
            "start_tick": 18720,
            "duration_ticks": 443,
            "effective_duration": 443,
            "velocity": 71
          },
          {
            "pitch": 62,
            "name": "D4",
            "start_tick": 18720,
            "duration_ticks": 443,
            "effective_duration": 443,
            "velocity": 66
          },
          {
            "pitch": 64,
            "name": "E4",
            "start_tick": 18720,
            "duration_ticks": 443,
            "effective_duration": 443,
            "velocity": 68
          },
          {
            "pitch": 48,
            "name": "C3",
            "start_tick": 18960,
            "duration_ticks": 203,
            "effective_duration": 203,
            "velocity": 62
          }
        ],
        "bass": {
          "pitch": 48,
          "name": "C3",
          "pc": "C"
        },
        "pitch_classes": [
          "C",
          "D",
          "E",
          "G"
        ],
        "notes_count": 11,
        "chord": "Cadd9",
        "root": "C",
        "root_pc": 0,
        "quality": "add9",
        "confidence": 1.0,
        "alternatives": [
          {
            "label": "C9",
            "confidence": 0.864
          },
          {
            "label": "Cmaj9",
            "confidence": 0.864
          },
          {
            "label": "C11",
            "confidence": 0.727
          }
        ],
        "is_slash": false,
        "was_ambiguous": false,
        "is_continuation": false
      },
      {
        "start_tick": 19200,
        "end_tick": 20160,
        "bar": 11,
        "beat_in_bar": 1,
        "beat_position": "1",
        "duration_beats": 2.0,
        "raw_notes": [
          {
            "pitch": 47,
            "name": "B2",
            "start_tick": 19200,
            "duration_ticks": 960,
            "effective_duration": 960,
            "velocity": 63
          },
          {
            "pitch": 57,
            "name": "A3",
            "start_tick": 19200,
            "duration_ticks": 960,
            "effective_duration": 960,
            "velocity": 70
          },
          {
            "pitch": 59,
            "name": "B3",
            "start_tick": 19200,
            "duration_ticks": 960,
            "effective_duration": 960,
            "velocity": 71
          },
          {
            "pitch": 64,
            "name": "E4",
            "start_tick": 19200,
            "duration_ticks": 960,
            "effective_duration": 960,
            "velocity": 75
          },
          {
            "pitch": 57,
            "name": "A3",
            "start_tick": 19680,
            "duration_ticks": 480,
            "effective_duration": 480,
            "velocity": 75
          },
          {
            "pitch": 59,
            "name": "B3",
            "start_tick": 19680,
            "duration_ticks": 480,
            "effective_duration": 480,
            "velocity": 79
          },
          {
            "pitch": 64,
            "name": "E4",
            "start_tick": 19680,
            "duration_ticks": 480,
            "effective_duration": 480,
            "velocity": 79
          },
          {
            "pitch": 47,
            "name": "B2",
            "start_tick": 19920,
            "duration_ticks": 240,
            "effective_duration": 240,
            "velocity": 66
          }
        ],
        "bass": {
          "pitch": 47,
          "name": "B2",
          "pc": "B"
        },
        "pitch_classes": [
          "E",
          "A",
          "B"
        ],
        "notes_count": 8,
        "chord": "Esus4/B",
        "root": "E",
        "root_pc": 4,
        "quality": "sus4",
        "confidence": 0.941,
        "alternatives": [
          {
            "label": "Asus2/B",
            "confidence": 0.941
          },
          {
            "label": "B7sus4",
            "confidence": 0.897
          },
          {
            "label": "E7sus4/B",
            "confidence": 0.765
          }
        ],
        "is_slash": true,
        "was_ambiguous": false,
        "is_continuation": false
      },
      {
        "start_tick": 20160,
        "end_tick": 21120,
        "bar": 11,
        "beat_in_bar": 3,
        "beat_position": "3",
        "duration_beats": 2.0,
        "raw_notes": [
          {
            "pitch": 40,
            "name": "E2",
            "start_tick": 20160,
            "duration_ticks": 945,
            "effective_duration": 945,
            "velocity": 57
          },
          {
            "pitch": 56,
            "name": "G#3",
            "start_tick": 20160,
            "duration_ticks": 945,
            "effective_duration": 945,
            "velocity": 64
          },
          {
            "pitch": 59,
            "name": "B3",
            "start_tick": 20160,
            "duration_ticks": 945,
            "effective_duration": 945,
            "velocity": 66
          },
          {
            "pitch": 65,
            "name": "F4",
            "start_tick": 20160,
            "duration_ticks": 945,
            "effective_duration": 945,
            "velocity": 79
          },
          {
            "pitch": 56,
            "name": "G#3",
            "start_tick": 20640,
            "duration_ticks": 465,
            "effective_duration": 465,
            "velocity": 61
          },
          {
            "pitch": 59,
            "name": "B3",
            "start_tick": 20640,
            "duration_ticks": 465,
            "effective_duration": 465,
            "velocity": 68
          },
          {
            "pitch": 64,
            "name": "E4",
            "start_tick": 20640,
            "duration_ticks": 465,
            "effective_duration": 465,
            "velocity": 65
          }
        ],
        "bass": {
          "pitch": 40,
          "name": "E2",
          "pc": "E"
        },
        "pitch_classes": [
          "E",
          "F",
          "G#",
          "B"
        ],
        "notes_count": 7,
        "chord": "E7b9",
        "root": "E",
        "root_pc": 4,
        "quality": "7b9",
        "confidence": 0.864,
        "alternatives": [
          {
            "label": "C#7#9/E",
            "confidence": 0.818
          },
          {
            "label": "E",
            "confidence": 0.602
          },
          {
            "label": "E7",
            "confidence": 0.466
          }
        ],
        "is_slash": false,
        "was_ambiguous": false,
        "is_continuation": false
      },
      {
        "start_tick": 21120,
        "end_tick": 22080,
        "bar": 12,
        "beat_in_bar": 1,
        "beat_position": "1",
        "duration_beats": 2.0,
        "raw_notes": [
          {
            "pitch": 45,
            "name": "A2",
            "start_tick": 21120,
            "duration_ticks": 960,
            "effective_duration": 960,
            "velocity": 62
          },
          {
            "pitch": 55,
            "name": "G3",
            "start_tick": 21120,
            "duration_ticks": 960,
            "effective_duration": 960,
            "velocity": 61
          },
          {
            "pitch": 59,
            "name": "B3",
            "start_tick": 21120,
            "duration_ticks": 960,
            "effective_duration": 960,
            "velocity": 70
          },
          {
            "pitch": 62,
            "name": "D4",
            "start_tick": 21120,
            "duration_ticks": 960,
            "effective_duration": 960,
            "velocity": 73
          },
          {
            "pitch": 55,
            "name": "G3",
            "start_tick": 21600,
            "duration_ticks": 480,
            "effective_duration": 480,
            "velocity": 68
          },
          {
            "pitch": 59,
            "name": "B3",
            "start_tick": 21600,
            "duration_ticks": 480,
            "effective_duration": 480,
            "velocity": 69
          },
          {
            "pitch": 62,
            "name": "D4",
            "start_tick": 21600,
            "duration_ticks": 480,
            "effective_duration": 480,
            "velocity": 76
          },
          {
            "pitch": 45,
            "name": "A2",
            "start_tick": 21840,
            "duration_ticks": 240,
            "effective_duration": 240,
            "velocity": 64
          }
        ],
        "bass": {
          "pitch": 45,
          "name": "A2",
          "pc": "A"
        },
        "pitch_classes": [
          "D",
          "G",
          "A",
          "B"
        ],
        "notes_count": 8,
        "chord": "Gadd9/A",
        "root": "G",
        "root_pc": 7,
        "quality": "add9",
        "confidence": 0.955,
        "alternatives": [
          {
            "label": "G9/A",
            "confidence": 0.818
          },
          {
            "label": "Gmaj9/A",
            "confidence": 0.818
          },
          {
            "label": "A11",
            "confidence": 0.727
          }
        ],
        "is_slash": true,
        "was_ambiguous": false,
        "is_continuation": false
      },
      {
        "start_tick": 22080,
        "end_tick": 23040,
        "bar": 12,
        "beat_in_bar": 3,
        "beat_position": "3",
        "duration_beats": 2.0,
        "raw_notes": [
          {
            "pitch": 45,
            "name": "A2",
            "start_tick": 22080,
            "duration_ticks": 902,
            "effective_duration": 902,
            "velocity": 68
          },
          {
            "pitch": 57,
            "name": "A3",
            "start_tick": 22080,
            "duration_ticks": 902,
            "effective_duration": 902,
            "velocity": 71
          },
          {
            "pitch": 60,
            "name": "C4",
            "start_tick": 22080,
            "duration_ticks": 902,
            "effective_duration": 902,
            "velocity": 65
          },
          {
            "pitch": 64,
            "name": "E4",
            "start_tick": 22080,
            "duration_ticks": 902,
            "effective_duration": 902,
            "velocity": 72
          },
          {
            "pitch": 57,
            "name": "A3",
            "start_tick": 22560,
            "duration_ticks": 422,
            "effective_duration": 422,
            "velocity": 85
          },
          {
            "pitch": 60,
            "name": "C4",
            "start_tick": 22560,
            "duration_ticks": 422,
            "effective_duration": 422,
            "velocity": 78
          },
          {
            "pitch": 64,
            "name": "E4",
            "start_tick": 22560,
            "duration_ticks": 422,
            "effective_duration": 422,
            "velocity": 83
          },
          {
            "pitch": 45,
            "name": "A2",
            "start_tick": 22800,
            "duration_ticks": 182,
            "effective_duration": 182,
            "velocity": 99
          }
        ],
        "bass": {
          "pitch": 45,
          "name": "A2",
          "pc": "A"
        },
        "pitch_classes": [
          "C",
          "E",
          "A"
        ],
        "notes_count": 8,
        "chord": "Amin",
        "root": "A",
        "root_pc": 9,
        "quality": "min",
        "confidence": 1.0,
        "alternatives": [
          {
            "label": "Am7",
            "confidence": 0.824
          },
          {
            "label": "Amadd9",
            "confidence": 0.824
          },
          {
            "label": "Am6",
            "confidence": 0.824
          }
        ],
        "is_slash": false,
        "was_ambiguous": false,
        "is_continuation": false
      }
    ]
  },
  "song_form": {
    "form_type": "through-composed",
    "confidence": 0.71,
    "total_bars": 12,
    "sections": [
      {
        "label": "intro",
        "start_bar": 1,
        "end_bar": 1,
        "start_tick": 0,
        "end_tick": 1920,
        "bars": 1,
        "avg_energy": 0.158,
        "confidence": 0.547
      },
      {
        "label": "chorus",
        "start_bar": 2,
        "end_bar": 4,
        "start_tick": 1920,
        "end_tick": 7680,
        "bars": 3,
        "avg_energy": 0.866,
        "confidence": 0.76
      },
      {
        "label": "chorus",
        "start_bar": 5,
        "end_bar": 8,
        "start_tick": 7680,
        "end_tick": 15360,
        "bars": 4,
        "avg_energy": 0.81,
        "confidence": 0.743
      },
      {
        "label": "chorus",
        "start_bar": 9,
        "end_bar": 12,
        "start_tick": 15360,
        "end_tick": 23040,
        "bars": 4,
        "avg_energy": 0.962,
        "confidence": 0.789
      }
    ]
  },
  "playability": {
    "score": 90,
    "pass": true,
    "num_issues": 1,
    "issues_sample": [
      "Span exceeds 23 semitones in 9/94 clusters (9.6%)"
    ]
  },
  "embedding": [
    0.13963963963963963,
    0.009009009009009009,
    0.15315315315315314,
    0.0,
    0.18468468468468469,
    0.11261261261261261,
    0.0,
    0.14864864864864866,
    0.018018018018018018,
    0.11711711711711711,
    0.018018018018018018,
    0.0990990990990991,
    0.13122171945701358,
    0.004524886877828055,
    0.013574660633484163,
    0.027149321266968326,
    0.004524886877828055,
    0.049773755656108594,
    0.013574660633484163,
    0.049773755656108594,
    0.058823529411764705,
    0.049773755656108594,
    0.058823529411764705,
    0.004524886877828055,
    0.03619909502262444,
    0.01809954751131222,
    0.058823529411764705,
    0.05429864253393665,
    0.06787330316742081,
    0.058823529411764705,
    0.004524886877828055,
    0.06334841628959276,
    0.004524886877828055,
    0.03619909502262444,
    0.01809954751131222,
    0.0,
    0.11312217194570136,
    0.0,
    0.0,
    0.013513513513513514,
    0.38738738738738737,
    0.5540540540540541,
    0.04054054054054054,
    0.0045045045045045045,
    0.0,
    0.04054054054054054,
    0.07657657657657657,
    0.6801801801801802,
    0.09009009009009009,
    0.10810810810810811,
    0.0045045045045045045,
    0.0,
    0.0,
    0.0,
    0.0,
    0.4622047244094488,
    0.18,
    0.515748031496063,
    0.20750000000000002,
    0.0517,
    0.03544,
    0.36,
    0.0665,
    0.16216216216216217,
    0.13963963963963963,
    0.11261261261261261,
    0.08558558558558559,
    0.08558558558558559,
    0.07657657657657657,
    0.04504504504504504,
    0.04504504504504504,
    0.036036036036036036,
    0.036036036036036036,
    0.02702702702702703,
    0.018018018018018018,
    0.018018018018018018,
    0.018018018018018018,
    0.018018018018018018,
    0.013513513513513514,
    0.013513513513513514,
    0.013513513513513514,
    0.009009009009009009,
    0.009009009009009009,
    0.009009009009009009,
    0.0045045045045045045,
    0.0045045045045045045,
    0.0,
    0.0,
    0.0,
    0.0,
    0.0,
    0.0,
    0.0,
    0.0,
    0.0,
    0.0,
    0.0,
    0.0,
    0.0,
    0.0,
    0.0,
    0.0,
    0.0,
    0.0,
    0.0,
    0.0,
    0.0,
    0.0,
    0.0,
    0.0,
    0.0,
    0.0,
    0.0,
    0.0,
    0.0,
    0.0,
    0.0,
    0.0,
    0.0,
    0.0,
    0.0,
    0.0,
    0.0,
    0.0,
    0.0,
    0.0,
    0.0,
    0.0
  ],
  "composer_tags": {
    "rhythm_type": "dense",
    "rhythm_regularity": 0.455,
    "note_density_per_sec": 5.56,
    "avg_ioi": 0.4032,
    "harmony_type": "triadic",
    "harmonic_brightness": 0.538,
    "harmony_ratio": 0.802,
    "avg_polyphony": 3.56,
    "max_polyphony": 6,
    "accompaniment_pattern": "block_chord",
    "arpeggio_ratio": 0.027,
    "voicing_type": "open",
    "avg_voicing_spread": 15.0,
    "pitch_range": 38,
    "register": "tenor",
    "dynamic_profile": "expressive",
    "dynamic_level": "mezzo-forte",
    "velocity_range": 60,
    "tempo_bpm": 72.0,
    "tempo_category": "adagio"
  },
  "db_storage": {
    "harmonic_events": [
      {
        "event_id": "외워두세요_BPM72_4-4_0d3ac41c_he_0",
        "source_midi_id": "외워두세요_BPM72_4-4_0d3ac41c",
        "bar_index": 2,
        "beat_position": "1",
        "tick_start": 1920,
        "tick_end": 2880,
        "raw_notes": [
          {
            "pitch": 48,
            "name": "C3",
            "start_tick": 1920,
            "duration_ticks": 942,
            "effective_duration": 942,
            "velocity": 54
          },
          {
            "pitch": 55,
            "name": "G3",
            "start_tick": 1920,
            "duration_ticks": 942,
            "effective_duration": 942,
            "velocity": 61
          },
          {
            "pitch": 62,
            "name": "D4",
            "start_tick": 1920,
            "duration_ticks": 942,
            "effective_duration": 942,
            "velocity": 66
          },
          {
            "pitch": 64,
            "name": "E4",
            "start_tick": 1920,
            "duration_ticks": 942,
            "effective_duration": 942,
            "velocity": 65
          },
          {
            "pitch": 55,
            "name": "G3",
            "start_tick": 2400,
            "duration_ticks": 462,
            "effective_duration": 462,
            "velocity": 70
          },
          {
            "pitch": 62,
            "name": "D4",
            "start_tick": 2400,
            "duration_ticks": 462,
            "effective_duration": 462,
            "velocity": 73
          },
          {
            "pitch": 64,
            "name": "E4",
            "start_tick": 2400,
            "duration_ticks": 462,
            "effective_duration": 462,
            "velocity": 69
          },
          {
            "pitch": 48,
            "name": "C3",
            "start_tick": 2640,
            "duration_ticks": 222,
            "effective_duration": 222,
            "velocity": 54
          },
          {
            "pitch": 55,
            "name": "G3",
            "start_tick": 2640,
            "duration_ticks": 222,
            "effective_duration": 222,
            "velocity": 68
          }
        ],
        "bass": {
          "pitch": 48,
          "name": "C3",
          "pc": "C"
        },
        "pitch_classes": [
          "C",
          "D",
          "E",
          "G"
        ],
        "notes_count": 9,
        "chord_label": "Cadd9",
        "root": "C",
        "quality": "add9",
        "confidence": 1.0,
        "alternatives": [
          {
            "label": "C9",
            "confidence": 0.864
          },
          {
            "label": "Cmaj9",
            "confidence": 0.864
          },
          {
            "label": "C11",
            "confidence": 0.727
          }
        ],
        "is_slash": false
      },
      {
        "event_id": "외워두세요_BPM72_4-4_0d3ac41c_he_1",
        "source_midi_id": "외워두세요_BPM72_4-4_0d3ac41c",
        "bar_index": 2,
        "beat_position": "3",
        "tick_start": 2880,
        "tick_end": 3840,
        "raw_notes": [
          {
            "pitch": 48,
            "name": "C3",
            "start_tick": 2880,
            "duration_ticks": 960,
            "effective_duration": 960,
            "velocity": 50
          },
          {
            "pitch": 55,
            "name": "G3",
            "start_tick": 2880,
            "duration_ticks": 955,
            "effective_duration": 955,
            "velocity": 55
          },
          {
            "pitch": 60,
            "name": "C4",
            "start_tick": 2880,
            "duration_ticks": 955,
            "effective_duration": 955,
            "velocity": 69
          },
          {
            "pitch": 64,
            "name": "E4",
            "start_tick": 2880,
            "duration_ticks": 955,
            "effective_duration": 955,
            "velocity": 65
          },
          {
            "pitch": 55,
            "name": "G3",
            "start_tick": 3360,
            "duration_ticks": 475,
            "effective_duration": 475,
            "velocity": 64
          },
          {
            "pitch": 60,
            "name": "C4",
            "start_tick": 3360,
            "duration_ticks": 475,
            "effective_duration": 475,
            "velocity": 80
          },
          {
            "pitch": 64,
            "name": "E4",
            "start_tick": 3360,
            "duration_ticks": 475,
            "effective_duration": 475,
            "velocity": 69
          }
        ],
        "bass": {
          "pitch": 48,
          "name": "C3",
          "pc": "C"
        },
        "pitch_classes": [
          "C",
          "E",
          "G"
        ],
        "notes_count": 7,
        "chord_label": "C",
        "root": "C",
        "quality": "maj",
        "confidence": 1.0,
        "alternatives": [
          {
            "label": "C7",
            "confidence": 0.824
          },
          {
            "label": "Cmaj7",
            "confidence": 0.824
          },
          {
            "label": "Cadd9",
            "confidence": 0.824
          }
        ],
        "is_slash": false
      },
      {
        "event_id": "외워두세요_BPM72_4-4_0d3ac41c_he_2",
        "source_midi_id": "외워두세요_BPM72_4-4_0d3ac41c",
        "bar_index": 3,
        "beat_position": "1",
        "tick_start": 3840,
        "tick_end": 4800,
        "raw_notes": [
          {
            "pitch": 47,
            "name": "B2",
            "start_tick": 3840,
            "duration_ticks": 960,
            "effective_duration": 960,
            "velocity": 60
          },
          {
            "pitch": 57,
            "name": "A3",
            "start_tick": 3840,
            "duration_ticks": 960,
            "effective_duration": 960,
            "velocity": 77
          },
          {
            "pitch": 59,
            "name": "B3",
            "start_tick": 3840,
            "duration_ticks": 960,
            "effective_duration": 960,
            "velocity": 79
          },
          {
            "pitch": 64,
            "name": "E4",
            "start_tick": 3840,
            "duration_ticks": 960,
            "effective_duration": 960,
            "velocity": 75
          },
          {
            "pitch": 57,
            "name": "A3",
            "start_tick": 4320,
            "duration_ticks": 480,
            "effective_duration": 480,
            "velocity": 74
          },
          {
            "pitch": 59,
            "name": "B3",
            "start_tick": 4320,
            "duration_ticks": 480,
            "effective_duration": 480,
            "velocity": 79
          },
          {
            "pitch": 64,
            "name": "E4",
            "start_tick": 4320,
            "duration_ticks": 480,
            "effective_duration": 480,
            "velocity": 74
          }
        ],
        "bass": {
          "pitch": 47,
          "name": "B2",
          "pc": "B"
        },
        "pitch_classes": [
          "E",
          "A",
          "B"
        ],
        "notes_count": 7,
        "chord_label": "Esus4/B",
        "root": "E",
        "quality": "sus4",
        "confidence": 0.941,
        "alternatives": [
          {
            "label": "Asus2/B",
            "confidence": 0.941
          },
          {
            "label": "B7sus4",
            "confidence": 0.897
          },
          {
            "label": "E7sus4/B",
            "confidence": 0.765
          }
        ],
        "is_slash": true
      },
      {
        "event_id": "외워두세요_BPM72_4-4_0d3ac41c_he_3",
        "source_midi_id": "외워두세요_BPM72_4-4_0d3ac41c",
        "bar_index": 3,
        "beat_position": "3",
        "tick_start": 4800,
        "tick_end": 5760,
        "raw_notes": [
          {
            "pitch": 52,
            "name": "E3",
            "start_tick": 4800,
            "duration_ticks": 960,
            "effective_duration": 960,
            "velocity": 62
          },
          {
            "pitch": 56,
            "name": "G#3",
            "start_tick": 4800,
            "duration_ticks": 960,
            "effective_duration": 960,
            "velocity": 70
          },
          {
            "pitch": 59,
            "name": "B3",
            "start_tick": 4800,
            "duration_ticks": 960,
            "effective_duration": 960,
            "velocity": 68
          },
          {
            "pitch": 65,
            "name": "F4",
            "start_tick": 4800,
            "duration_ticks": 960,
            "effective_duration": 960,
            "velocity": 80
          },
          {
            "pitch": 56,
            "name": "G#3",
            "start_tick": 5280,
            "duration_ticks": 480,
            "effective_duration": 480,
            "velocity": 65
          },
          {
            "pitch": 59,
            "name": "B3",
            "start_tick": 5280,
            "duration_ticks": 480,
            "effective_duration": 480,
            "velocity": 68
          },
          {
            "pitch": 64,
            "name": "E4",
            "start_tick": 5280,
            "duration_ticks": 480,
            "effective_duration": 480,
            "velocity": 62
          }
        ],
        "bass": {
          "pitch": 52,
          "name": "E3",
          "pc": "E"
        },
        "pitch_classes": [
          "E",
          "F",
          "G#",
          "B"
        ],
        "notes_count": 7,
        "chord_label": "E7b9",
        "root": "E",
        "quality": "7b9",
        "confidence": 0.864,
        "alternatives": [
          {
            "label": "C#7#9/E",
            "confidence": 0.818
          },
          {
            "label": "E",
            "confidence": 0.602
          },
          {
            "label": "E7",
            "confidence": 0.466
          }
        ],
        "is_slash": false
      },
      {
        "event_id": "외워두세요_BPM72_4-4_0d3ac41c_he_4",
        "source_midi_id": "외워두세요_BPM72_4-4_0d3ac41c",
        "bar_index": 4,
        "beat_position": "1",
        "tick_start": 5760,
        "tick_end": 6720,
        "raw_notes": [
          {
            "pitch": 45,
            "name": "A2",
            "start_tick": 5760,
            "duration_ticks": 960,
            "effective_duration": 960,
            "velocity": 66
          },
          {
            "pitch": 55,
            "name": "G3",
            "start_tick": 5760,
            "duration_ticks": 960,
            "effective_duration": 960,
            "velocity": 67
          },
          {
            "pitch": 59,
            "name": "B3",
            "start_tick": 5760,
            "duration_ticks": 960,
            "effective_duration": 960,
            "velocity": 67
          },
          {
            "pitch": 62,
            "name": "D4",
            "start_tick": 5760,
            "duration_ticks": 960,
            "effective_duration": 960,
            "velocity": 81
          },
          {
            "pitch": 55,
            "name": "G3",
            "start_tick": 6240,
            "duration_ticks": 480,
            "effective_duration": 480,
            "velocity": 62
          },
          {
            "pitch": 59,
            "name": "B3",
            "start_tick": 6240,
            "duration_ticks": 480,
            "effective_duration": 480,
            "velocity": 65
          },
          {
            "pitch": 62,
            "name": "D4",
            "start_tick": 6240,
            "duration_ticks": 480,
            "effective_duration": 480,
            "velocity": 73
          },
          {
            "pitch": 45,
            "name": "A2",
            "start_tick": 6480,
            "duration_ticks": 240,
            "effective_duration": 240,
            "velocity": 60
          }
        ],
        "bass": {
          "pitch": 45,
          "name": "A2",
          "pc": "A"
        },
        "pitch_classes": [
          "D",
          "G",
          "A",
          "B"
        ],
        "notes_count": 8,
        "chord_label": "Gadd9/A",
        "root": "G",
        "quality": "add9",
        "confidence": 0.955,
        "alternatives": [
          {
            "label": "G9/A",
            "confidence": 0.818
          },
          {
            "label": "Gmaj9/A",
            "confidence": 0.818
          },
          {
            "label": "A11",
            "confidence": 0.727
          }
        ],
        "is_slash": true
      },
      {
        "event_id": "외워두세요_BPM72_4-4_0d3ac41c_he_5",
        "source_midi_id": "외워두세요_BPM72_4-4_0d3ac41c",
        "bar_index": 4,
        "beat_position": "3",
        "tick_start": 6720,
        "tick_end": 7680,
        "raw_notes": [
          {
            "pitch": 45,
            "name": "A2",
            "start_tick": 6720,
            "duration_ticks": 960,
            "effective_duration": 960,
            "velocity": 68
          },
          {
            "pitch": 55,
            "name": "G3",
            "start_tick": 6720,
            "duration_ticks": 960,
            "effective_duration": 960,
            "velocity": 58
          },
          {
            "pitch": 60,
            "name": "C4",
            "start_tick": 6720,
            "duration_ticks": 960,
            "effective_duration": 960,
            "velocity": 70
          },
          {
            "pitch": 64,
            "name": "E4",
            "start_tick": 6720,
            "duration_ticks": 960,
            "effective_duration": 960,
            "velocity": 70
          },
          {
            "pitch": 55,
            "name": "G3",
            "start_tick": 7200,
            "duration_ticks": 480,
            "effective_duration": 480,
            "velocity": 74
          },
          {
            "pitch": 60,
            "name": "C4",
            "start_tick": 7200,
            "duration_ticks": 480,
            "effective_duration": 480,
            "velocity": 80
          },
          {
            "pitch": 64,
            "name": "E4",
            "start_tick": 7200,
            "duration_ticks": 480,
            "effective_duration": 480,
            "velocity": 80
          }
        ],
        "bass": {
          "pitch": 45,
          "name": "A2",
          "pc": "A"
        },
        "pitch_classes": [
          "C",
          "E",
          "G",
          "A"
        ],
        "notes_count": 7,
        "chord_label": "Am7",
        "root": "A",
        "quality": "m7",
        "confidence": 1.0,
        "alternatives": [
          {
            "label": "C6/A",
            "confidence": 0.955
          },
          {
            "label": "Am9",
            "confidence": 0.864
          },
          {
            "label": "A7#9",
            "confidence": 0.864
          }
        ],
        "is_slash": false
      },
      {
        "event_id": "외워두세요_BPM72_4-4_0d3ac41c_he_6",
        "source_midi_id": "외워두세요_BPM72_4-4_0d3ac41c",
        "bar_index": 5,
        "beat_position": "1",
        "tick_start": 7680,
        "tick_end": 8160,
        "raw_notes": [
          {
            "pitch": 31,
            "name": "G1",
            "start_tick": 7680,
            "duration_ticks": 960,
            "effective_duration": 480,
            "velocity": 57
          },
          {
            "pitch": 58,
            "name": "A#3",
            "start_tick": 7680,
            "duration_ticks": 960,
            "effective_duration": 480,
            "velocity": 63
          },
          {
            "pitch": 62,
            "name": "D4",
            "start_tick": 7680,
            "duration_ticks": 960,
            "effective_duration": 480,
            "velocity": 63
          },
          {
            "pitch": 65,
            "name": "F4",
            "start_tick": 7680,
            "duration_ticks": 960,
            "effective_duration": 480,
            "velocity": 72
          }
        ],
        "bass": {
          "pitch": 31,
          "name": "G1",
          "pc": "G"
        },
        "pitch_classes": [
          "D",
          "F",
          "G",
          "A#"
        ],
        "notes_count": 4,
        "chord_label": "Gm7",
        "root": "G",
        "quality": "m7",
        "confidence": 1.0,
        "alternatives": [
          {
            "label": "A#6/G",
            "confidence": 0.955
          },
          {
            "label": "Gm9",
            "confidence": 0.864
          },
          {
            "label": "G7#9",
            "confidence": 0.864
          }
        ],
        "is_slash": false
      },
      {
        "event_id": "외워두세요_BPM72_4-4_0d3ac41c_he_7",
        "source_midi_id": "외워두세요_BPM72_4-4_0d3ac41c",
        "bar_index": 5,
        "beat_position": "2",
        "tick_start": 8160,
        "tick_end": 8640,
        "raw_notes": [
          {
            "pitch": 31,
            "name": "G1",
            "start_tick": 7680,
            "duration_ticks": 960,
            "effective_duration": 480,
            "velocity": 57
          },
          {
            "pitch": 58,
            "name": "A#3",
            "start_tick": 7680,
            "duration_ticks": 960,
            "effective_duration": 480,
            "velocity": 63
          },
          {
            "pitch": 62,
            "name": "D4",
            "start_tick": 7680,
            "duration_ticks": 960,
            "effective_duration": 480,
            "velocity": 63
          },
          {
            "pitch": 65,
            "name": "F4",
            "start_tick": 7680,
            "duration_ticks": 960,
            "effective_duration": 480,
            "velocity": 72
          },
          {
            "pitch": 55,
            "name": "G3",
            "start_tick": 8160,
            "duration_ticks": 480,
            "effective_duration": 480,
            "velocity": 67
          },
          {
            "pitch": 60,
            "name": "C4",
            "start_tick": 8160,
            "duration_ticks": 480,
            "effective_duration": 480,
            "velocity": 69
          },
          {
            "pitch": 64,
            "name": "E4",
            "start_tick": 8160,
            "duration_ticks": 480,
            "effective_duration": 480,
            "velocity": 74
          }
        ],
        "bass": {
          "pitch": 55,
          "name": "G3",
          "pc": "G"
        },
        "pitch_classes": [
          "C",
          "D",
          "E",
          "F",
          "G",
          "A#"
        ],
        "notes_count": 7,
        "chord_label": "C11/G",
        "root": "C",
        "quality": "11",
        "confidence": 0.969,
        "alternatives": [
          {
            "label": "C9/G",
            "confidence": 0.695
          },
          {
            "label": "C13/G",
            "confidence": 0.602
          },
          {
            "label": "A#13/G",
            "confidence": 0.602
          }
        ],
        "is_slash": true
      },
      {
        "event_id": "외워두세요_BPM72_4-4_0d3ac41c_he_8",
        "source_midi_id": "외워두세요_BPM72_4-4_0d3ac41c",
        "bar_index": 5,
        "beat_position": "3",
        "tick_start": 8640,
        "tick_end": 9120,
        "raw_notes": [
          {
            "pitch": 36,
            "name": "C2",
            "start_tick": 8640,
            "duration_ticks": 960,
            "effective_duration": 480,
            "velocity": 55
          },
          {
            "pitch": 58,
            "name": "A#3",
            "start_tick": 8640,
            "duration_ticks": 960,
            "effective_duration": 480,
            "velocity": 62
          },
          {
            "pitch": 62,
            "name": "D4",
            "start_tick": 8640,
            "duration_ticks": 960,
            "effective_duration": 480,
            "velocity": 55
          },
          {
            "pitch": 65,
            "name": "F4",
            "start_tick": 8640,
            "duration_ticks": 960,
            "effective_duration": 480,
            "velocity": 68
          }
        ],
        "bass": {
          "pitch": 36,
          "name": "C2",
          "pc": "C"
        },
        "pitch_classes": [
          "C",
          "D",
          "F",
          "A#"
        ],
        "notes_count": 4,
        "chord_label": "A#add9/C",
        "root": "A#",
        "quality": "add9",
        "confidence": 0.955,
        "alternatives": [
          {
            "label": "A#9/C",
            "confidence": 0.818
          },
          {
            "label": "A#maj9/C",
            "confidence": 0.818
          },
          {
            "label": "C11",
            "confidence": 0.727
          }
        ],
        "is_slash": true
      },
      {
        "event_id": "외워두세요_BPM72_4-4_0d3ac41c_he_9",
        "source_midi_id": "외워두세요_BPM72_4-4_0d3ac41c",
        "bar_index": 5,
        "beat_position": "4",
        "tick_start": 9120,
        "tick_end": 9600,
        "raw_notes": [
          {
            "pitch": 36,
            "name": "C2",
            "start_tick": 8640,
            "duration_ticks": 960,
            "effective_duration": 480,
            "velocity": 55
          },
          {
            "pitch": 58,
            "name": "A#3",
            "start_tick": 8640,
            "duration_ticks": 960,
            "effective_duration": 480,
            "velocity": 62
          },
          {
            "pitch": 62,
            "name": "D4",
            "start_tick": 8640,
            "duration_ticks": 960,
            "effective_duration": 480,
            "velocity": 55
          },
          {
            "pitch": 65,
            "name": "F4",
            "start_tick": 8640,
            "duration_ticks": 960,
            "effective_duration": 480,
            "velocity": 68
          },
          {
            "pitch": 60,
            "name": "C4",
            "start_tick": 9120,
            "duration_ticks": 480,
            "effective_duration": 480,
            "velocity": 67
          },
          {
            "pitch": 64,
            "name": "E4",
            "start_tick": 9120,
            "duration_ticks": 480,
            "effective_duration": 480,
            "velocity": 59
          },
          {
            "pitch": 67,
            "name": "G4",
            "start_tick": 9120,
            "duration_ticks": 480,
            "effective_duration": 480,
            "velocity": 69
          }
        ],
        "bass": {
          "pitch": 60,
          "name": "C4",
          "pc": "C"
        },
        "pitch_classes": [
          "C",
          "D",
          "E",
          "F",
          "G",
          "A#"
        ],
        "notes_count": 7,
        "chord_label": "C11",
        "root": "C",
        "quality": "11",
        "confidence": 1.0,
        "alternatives": [
          {
            "label": "C9",
            "confidence": 0.727
          },
          {
            "label": "C13",
            "confidence": 0.633
          },
          {
            "label": "A#13/C",
            "confidence": 0.602
          }
        ],
        "is_slash": false
      },
      {
        "event_id": "외워두세요_BPM72_4-4_0d3ac41c_he_10",
        "source_midi_id": "외워두세요_BPM72_4-4_0d3ac41c",
        "bar_index": 6,
        "beat_position": "1",
        "tick_start": 9600,
        "tick_end": 10560,
        "raw_notes": [
          {
            "pitch": 41,
            "name": "F2",
            "start_tick": 9600,
            "duration_ticks": 960,
            "effective_duration": 960,
            "velocity": 56
          },
          {
            "pitch": 60,
            "name": "C4",
            "start_tick": 9600,
            "duration_ticks": 960,
            "effective_duration": 960,
            "velocity": 69
          },
          {
            "pitch": 65,
            "name": "F4",
            "start_tick": 9600,
            "duration_ticks": 960,
            "effective_duration": 960,
            "velocity": 68
          },
          {
            "pitch": 67,
            "name": "G4",
            "start_tick": 9600,
            "duration_ticks": 960,
            "effective_duration": 960,
            "velocity": 61
          },
          {
            "pitch": 60,
            "name": "C4",
            "start_tick": 10080,
            "duration_ticks": 480,
            "effective_duration": 480,
            "velocity": 60
          },
          {
            "pitch": 65,
            "name": "F4",
            "start_tick": 10080,
            "duration_ticks": 480,
            "effective_duration": 480,
            "velocity": 65
          },
          {
            "pitch": 67,
            "name": "G4",
            "start_tick": 10080,
            "duration_ticks": 480,
            "effective_duration": 480,
            "velocity": 67
          },
          {
            "pitch": 41,
            "name": "F2",
            "start_tick": 10320,
            "duration_ticks": 240,
            "effective_duration": 240,
            "velocity": 50
          }
        ],
        "bass": {
          "pitch": 41,
          "name": "F2",
          "pc": "F"
        },
        "pitch_classes": [
          "C",
          "F",
          "G"
        ],
        "notes_count": 8,
        "chord_label": "Fsus2",
        "root": "F",
        "quality": "sus2",
        "confidence": 1.0,
        "alternatives": [
          {
            "label": "Csus4/F",
            "confidence": 0.941
          },
          {
            "label": "Fadd9",
            "confidence": 0.824
          },
          {
            "label": "Fmadd9",
            "confidence": 0.824
          }
        ],
        "is_slash": false
      },
      {
        "event_id": "외워두세요_BPM72_4-4_0d3ac41c_he_11",
        "source_midi_id": "외워두세요_BPM72_4-4_0d3ac41c",
        "bar_index": 6,
        "beat_position": "3",
        "tick_start": 10560,
        "tick_end": 11520,
        "raw_notes": [
          {
            "pitch": 41,
            "name": "F2",
            "start_tick": 10560,
            "duration_ticks": 960,
            "effective_duration": 960,
            "velocity": 62
          },
          {
            "pitch": 60,
            "name": "C4",
            "start_tick": 10560,
            "duration_ticks": 960,
            "effective_duration": 960,
            "velocity": 60
          },
          {
            "pitch": 65,
            "name": "F4",
            "start_tick": 10560,
            "duration_ticks": 960,
            "effective_duration": 960,
            "velocity": 59
          },
          {
            "pitch": 69,
            "name": "A4",
            "start_tick": 10560,
            "duration_ticks": 960,
            "effective_duration": 960,
            "velocity": 71
          },
          {
            "pitch": 60,
            "name": "C4",
            "start_tick": 11040,
            "duration_ticks": 480,
            "effective_duration": 480,
            "velocity": 68
          },
          {
            "pitch": 65,
            "name": "F4",
            "start_tick": 11040,
            "duration_ticks": 480,
            "effective_duration": 480,
            "velocity": 68
          },
          {
            "pitch": 69,
            "name": "A4",
            "start_tick": 11040,
            "duration_ticks": 480,
            "effective_duration": 480,
            "velocity": 74
          },
          {
            "pitch": 41,
            "name": "F2",
            "start_tick": 11280,
            "duration_ticks": 240,
            "effective_duration": 240,
            "velocity": 56
          }
        ],
        "bass": {
          "pitch": 41,
          "name": "F2",
          "pc": "F"
        },
        "pitch_classes": [
          "C",
          "F",
          "A"
        ],
        "notes_count": 8,
        "chord_label": "F",
        "root": "F",
        "quality": "maj",
        "confidence": 1.0,
        "alternatives": [
          {
            "label": "F7",
            "confidence": 0.824
          },
          {
            "label": "Fmaj7",
            "confidence": 0.824
          },
          {
            "label": "Fadd9",
            "confidence": 0.824
          }
        ],
        "is_slash": false
      },
      {
        "event_id": "외워두세요_BPM72_4-4_0d3ac41c_he_12",
        "source_midi_id": "외워두세요_BPM72_4-4_0d3ac41c",
        "bar_index": 7,
        "beat_position": "1",
        "tick_start": 11520,
        "tick_end": 13440,
        "raw_notes": [
          {
            "pitch": 41,
            "name": "F2",
            "start_tick": 11520,
            "duration_ticks": 960,
            "effective_duration": 960,
            "velocity": 52
          },
          {
            "pitch": 59,
            "name": "B3",
            "start_tick": 11520,
            "duration_ticks": 960,
            "effective_duration": 960,
            "velocity": 58
          },
          {
            "pitch": 62,
            "name": "D4",
            "start_tick": 11520,
            "duration_ticks": 960,
            "effective_duration": 960,
            "velocity": 65
          },
          {
            "pitch": 65,
            "name": "F4",
            "start_tick": 11520,
            "duration_ticks": 960,
            "effective_duration": 960,
            "velocity": 58
          },
          {
            "pitch": 69,
            "name": "A4",
            "start_tick": 11520,
            "duration_ticks": 960,
            "effective_duration": 960,
            "velocity": 72
          },
          {
            "pitch": 59,
            "name": "B3",
            "start_tick": 12000,
            "duration_ticks": 480,
            "effective_duration": 480,
            "velocity": 57
          },
          {
            "pitch": 62,
            "name": "D4",
            "start_tick": 12000,
            "duration_ticks": 480,
            "effective_duration": 480,
            "velocity": 70
          },
          {
            "pitch": 65,
            "name": "F4",
            "start_tick": 12000,
            "duration_ticks": 480,
            "effective_duration": 480,
            "velocity": 65
          },
          {
            "pitch": 69,
            "name": "A4",
            "start_tick": 12000,
            "duration_ticks": 480,
            "effective_duration": 480,
            "velocity": 73
          },
          {
            "pitch": 41,
            "name": "F2",
            "start_tick": 12240,
            "duration_ticks": 1200,
            "effective_duration": 1200,
            "velocity": 59
          },
          {
            "pitch": 59,
            "name": "B3",
            "start_tick": 12480,
            "duration_ticks": 960,
            "effective_duration": 960,
            "velocity": 60
          },
          {
            "pitch": 62,
            "name": "D4",
            "start_tick": 12480,
            "duration_ticks": 960,
            "effective_duration": 960,
            "velocity": 67
          },
          {
            "pitch": 65,
            "name": "F4",
            "start_tick": 12480,
            "duration_ticks": 960,
            "effective_duration": 960,
            "velocity": 62
          },
          {
            "pitch": 69,
            "name": "A4",
            "start_tick": 12480,
            "duration_ticks": 960,
            "effective_duration": 960,
            "velocity": 73
          }
        ],
        "bass": {
          "pitch": 41,
          "name": "F2",
          "pc": "F"
        },
        "pitch_classes": [
          "D",
          "F",
          "A",
          "B"
        ],
        "notes_count": 14,
        "chord_label": "Dm6/F",
        "root": "D",
        "quality": "m6",
        "confidence": 0.955,
        "alternatives": [
          {
            "label": "Bm7b5/F",
            "confidence": 0.955
          },
          {
            "label": "G9/F",
            "confidence": 0.818
          },
          {
            "label": "G11/F",
            "confidence": 0.682
          }
        ],
        "is_slash": true
      },
      {
        "event_id": "외워두세요_BPM72_4-4_0d3ac41c_he_13",
        "source_midi_id": "외워두세요_BPM72_4-4_0d3ac41c",
        "bar_index": 8,
        "beat_position": "1",
        "tick_start": 13440,
        "tick_end": 14400,
        "raw_notes": [
          {
            "pitch": 52,
            "name": "E3",
            "start_tick": 13440,
            "duration_ticks": 960,
            "effective_duration": 960,
            "velocity": 47
          },
          {
            "pitch": 58,
            "name": "A#3",
            "start_tick": 13440,
            "duration_ticks": 960,
            "effective_duration": 960,
            "velocity": 55
          },
          {
            "pitch": 62,
            "name": "D4",
            "start_tick": 13440,
            "duration_ticks": 960,
            "effective_duration": 960,
            "velocity": 50
          },
          {
            "pitch": 67,
            "name": "G4",
            "start_tick": 13440,
            "duration_ticks": 960,
            "effective_duration": 960,
            "velocity": 58
          },
          {
            "pitch": 58,
            "name": "A#3",
            "start_tick": 13920,
            "duration_ticks": 480,
            "effective_duration": 480,
            "velocity": 59
          },
          {
            "pitch": 62,
            "name": "D4",
            "start_tick": 13920,
            "duration_ticks": 480,
            "effective_duration": 480,
            "velocity": 58
          },
          {
            "pitch": 67,
            "name": "G4",
            "start_tick": 13920,
            "duration_ticks": 480,
            "effective_duration": 480,
            "velocity": 62
          },
          {
            "pitch": 52,
            "name": "E3",
            "start_tick": 14160,
            "duration_ticks": 240,
            "effective_duration": 240,
            "velocity": 49
          }
        ],
        "bass": {
          "pitch": 52,
          "name": "E3",
          "pc": "E"
        },
        "pitch_classes": [
          "D",
          "E",
          "G",
          "A#"
        ],
        "notes_count": 8,
        "chord_label": "Em7b5",
        "root": "E",
        "quality": "m7b5",
        "confidence": 1.0,
        "alternatives": [
          {
            "label": "Gm6/E",
            "confidence": 0.955
          },
          {
            "label": "C9/E",
            "confidence": 0.818
          },
          {
            "label": "C11/E",
            "confidence": 0.682
          }
        ],
        "is_slash": false
      },
      {
        "event_id": "외워두세요_BPM72_4-4_0d3ac41c_he_14",
        "source_midi_id": "외워두세요_BPM72_4-4_0d3ac41c",
        "bar_index": 8,
        "beat_position": "3",
        "tick_start": 14400,
        "tick_end": 14880,
        "raw_notes": [
          {
            "pitch": 45,
            "name": "A2",
            "start_tick": 14400,
            "duration_ticks": 960,
            "effective_duration": 480,
            "velocity": 47
          },
          {
            "pitch": 57,
            "name": "A3",
            "start_tick": 14400,
            "duration_ticks": 960,
            "effective_duration": 480,
            "velocity": 62
          },
          {
            "pitch": 61,
            "name": "C#4",
            "start_tick": 14400,
            "duration_ticks": 960,
            "effective_duration": 480,
            "velocity": 58
          },
          {
            "pitch": 65,
            "name": "F4",
            "start_tick": 14400,
            "duration_ticks": 960,
            "effective_duration": 480,
            "velocity": 68
          }
        ],
        "bass": {
          "pitch": 45,
          "name": "A2",
          "pc": "A"
        },
        "pitch_classes": [
          "C#",
          "F",
          "A"
        ],
        "notes_count": 4,
        "chord_label": "Aaug",
        "root": "A",
        "quality": "aug",
        "confidence": 1.0,
        "alternatives": [
          {
            "label": "C#aug/A",
            "confidence": 0.941
          },
          {
            "label": "Faug/A",
            "confidence": 0.941
          },
          {
            "label": "A",
            "confidence": 0.309
          }
        ],
        "is_slash": false
      },
      {
        "event_id": "외워두세요_BPM72_4-4_0d3ac41c_he_15",
        "source_midi_id": "외워두세요_BPM72_4-4_0d3ac41c",
        "bar_index": 8,
        "beat_position": "4",
        "tick_start": 14880,
        "tick_end": 15360,
        "raw_notes": [
          {
            "pitch": 45,
            "name": "A2",
            "start_tick": 14400,
            "duration_ticks": 960,
            "effective_duration": 480,
            "velocity": 47
          },
          {
            "pitch": 57,
            "name": "A3",
            "start_tick": 14400,
            "duration_ticks": 960,
            "effective_duration": 480,
            "velocity": 62
          },
          {
            "pitch": 61,
            "name": "C#4",
            "start_tick": 14400,
            "duration_ticks": 960,
            "effective_duration": 480,
            "velocity": 58
          },
          {
            "pitch": 65,
            "name": "F4",
            "start_tick": 14400,
            "duration_ticks": 960,
            "effective_duration": 480,
            "velocity": 68
          },
          {
            "pitch": 57,
            "name": "A3",
            "start_tick": 14880,
            "duration_ticks": 480,
            "effective_duration": 480,
            "velocity": 68
          },
          {
            "pitch": 61,
            "name": "C#4",
            "start_tick": 14880,
            "duration_ticks": 480,
            "effective_duration": 480,
            "velocity": 61
          },
          {
            "pitch": 64,
            "name": "E4",
            "start_tick": 14880,
            "duration_ticks": 480,
            "effective_duration": 480,
            "velocity": 68
          }
        ],
        "bass": {
          "pitch": 57,
          "name": "A3",
          "pc": "A"
        },
        "pitch_classes": [
          "C#",
          "E",
          "F",
          "A"
        ],
        "notes_count": 7,
        "chord_label": "A",
        "root": "A",
        "quality": "maj",
        "confidence": 0.602,
        "alternatives": [
          {
            "label": "Aaug",
            "confidence": 0.602
          },
          {
            "label": "C#aug/A",
            "confidence": 0.557
          },
          {
            "label": "Faug/A",
            "confidence": 0.557
          }
        ],
        "is_slash": false
      },
      {
        "event_id": "외워두세요_BPM72_4-4_0d3ac41c_he_16",
        "source_midi_id": "외워두세요_BPM72_4-4_0d3ac41c",
        "bar_index": 9,
        "beat_position": "1",
        "tick_start": 15360,
        "tick_end": 16320,
        "raw_notes": [
          {
            "pitch": 50,
            "name": "D3",
            "start_tick": 15360,
            "duration_ticks": 960,
            "effective_duration": 960,
            "velocity": 49
          },
          {
            "pitch": 53,
            "name": "F3",
            "start_tick": 15360,
            "duration_ticks": 960,
            "effective_duration": 960,
            "velocity": 57
          },
          {
            "pitch": 57,
            "name": "A3",
            "start_tick": 15360,
            "duration_ticks": 960,
            "effective_duration": 960,
            "velocity": 59
          },
          {
            "pitch": 60,
            "name": "C4",
            "start_tick": 15360,
            "duration_ticks": 960,
            "effective_duration": 960,
            "velocity": 76
          },
          {
            "pitch": 53,
            "name": "F3",
            "start_tick": 15840,
            "duration_ticks": 480,
            "effective_duration": 480,
            "velocity": 67
          },
          {
            "pitch": 57,
            "name": "A3",
            "start_tick": 15840,
            "duration_ticks": 480,
            "effective_duration": 480,
            "velocity": 68
          },
          {
            "pitch": 60,
            "name": "C4",
            "start_tick": 15840,
            "duration_ticks": 480,
            "effective_duration": 480,
            "velocity": 80
          },
          {
            "pitch": 50,
            "name": "D3",
            "start_tick": 16080,
            "duration_ticks": 240,
            "effective_duration": 240,
            "velocity": 52
          }
        ],
        "bass": {
          "pitch": 50,
          "name": "D3",
          "pc": "D"
        },
        "pitch_classes": [
          "C",
          "D",
          "F",
          "A"
        ],
        "notes_count": 8,
        "chord_label": "Dm7",
        "root": "D",
        "quality": "m7",
        "confidence": 1.0,
        "alternatives": [
          {
            "label": "F6/D",
            "confidence": 0.955
          },
          {
            "label": "Dm9",
            "confidence": 0.864
          },
          {
            "label": "D7#9",
            "confidence": 0.864
          }
        ],
        "is_slash": false
      },
      {
        "event_id": "외워두세요_BPM72_4-4_0d3ac41c_he_17",
        "source_midi_id": "외워두세요_BPM72_4-4_0d3ac41c",
        "bar_index": 9,
        "beat_position": "3",
        "tick_start": 16320,
        "tick_end": 16800,
        "raw_notes": [
          {
            "pitch": 43,
            "name": "G2",
            "start_tick": 16320,
            "duration_ticks": 960,
            "effective_duration": 480,
            "velocity": 49
          },
          {
            "pitch": 60,
            "name": "C4",
            "start_tick": 16320,
            "duration_ticks": 960,
            "effective_duration": 480,
            "velocity": 58
          },
          {
            "pitch": 62,
            "name": "D4",
            "start_tick": 16320,
            "duration_ticks": 960,
            "effective_duration": 480,
            "velocity": 66
          },
          {
            "pitch": 67,
            "name": "G4",
            "start_tick": 16320,
            "duration_ticks": 960,
            "effective_duration": 480,
            "velocity": 66
          }
        ],
        "bass": {
          "pitch": 43,
          "name": "G2",
          "pc": "G"
        },
        "pitch_classes": [
          "C",
          "D",
          "G"
        ],
        "notes_count": 4,
        "chord_label": "Gsus4",
        "root": "G",
        "quality": "sus4",
        "confidence": 1.0,
        "alternatives": [
          {
            "label": "Csus2/G",
            "confidence": 0.941
          },
          {
            "label": "G7sus4",
            "confidence": 0.897
          },
          {
            "label": "Cadd9/G",
            "confidence": 0.765
          }
        ],
        "is_slash": false
      },
      {
        "event_id": "외워두세요_BPM72_4-4_0d3ac41c_he_18",
        "source_midi_id": "외워두세요_BPM72_4-4_0d3ac41c",
        "bar_index": 9,
        "beat_position": "4",
        "tick_start": 16800,
        "tick_end": 17280,
        "raw_notes": [
          {
            "pitch": 43,
            "name": "G2",
            "start_tick": 16320,
            "duration_ticks": 960,
            "effective_duration": 480,
            "velocity": 49
          },
          {
            "pitch": 60,
            "name": "C4",
            "start_tick": 16320,
            "duration_ticks": 960,
            "effective_duration": 480,
            "velocity": 58
          },
          {
            "pitch": 62,
            "name": "D4",
            "start_tick": 16320,
            "duration_ticks": 960,
            "effective_duration": 480,
            "velocity": 66
          },
          {
            "pitch": 67,
            "name": "G4",
            "start_tick": 16320,
            "duration_ticks": 960,
            "effective_duration": 480,
            "velocity": 66
          },
          {
            "pitch": 55,
            "name": "G3",
            "start_tick": 16800,
            "duration_ticks": 480,
            "effective_duration": 480,
            "velocity": 70
          },
          {
            "pitch": 59,
            "name": "B3",
            "start_tick": 16800,
            "duration_ticks": 480,
            "effective_duration": 480,
            "velocity": 68
          }
        ],
        "bass": {
          "pitch": 55,
          "name": "G3",
          "pc": "G"
        },
        "pitch_classes": [
          "C",
          "D",
          "G",
          "B"
        ],
        "notes_count": 6,
        "chord_label": "Cmaj9/G",
        "root": "C",
        "quality": "maj9",
        "confidence": 0.818,
        "alternatives": [
          {
            "label": "G11",
            "confidence": 0.727
          },
          {
            "label": "G",
            "confidence": 0.602
          },
          {
            "label": "Gsus4",
            "confidence": 0.602
          }
        ],
        "is_slash": true
      },
      {
        "event_id": "외워두세요_BPM72_4-4_0d3ac41c_he_19",
        "source_midi_id": "외워두세요_BPM72_4-4_0d3ac41c",
        "bar_index": 10,
        "beat_position": "1",
        "tick_start": 17280,
        "tick_end": 18240,
        "raw_notes": [
          {
            "pitch": 36,
            "name": "C2",
            "start_tick": 17280,
            "duration_ticks": 960,
            "effective_duration": 960,
            "velocity": 50
          },
          {
            "pitch": 55,
            "name": "G3",
            "start_tick": 17280,
            "duration_ticks": 960,
            "effective_duration": 960,
            "velocity": 65
          },
          {
            "pitch": 60,
            "name": "C4",
            "start_tick": 17280,
            "duration_ticks": 960,
            "effective_duration": 960,
            "velocity": 68
          },
          {
            "pitch": 62,
            "name": "D4",
            "start_tick": 17280,
            "duration_ticks": 960,
            "effective_duration": 960,
            "velocity": 67
          },
          {
            "pitch": 43,
            "name": "G2",
            "start_tick": 17520,
            "duration_ticks": 720,
            "effective_duration": 720,
            "velocity": 58
          },
          {
            "pitch": 50,
            "name": "D3",
            "start_tick": 17760,
            "duration_ticks": 480,
            "effective_duration": 480,
            "velocity": 69
          },
          {
            "pitch": 55,
            "name": "G3",
            "start_tick": 17760,
            "duration_ticks": 480,
            "effective_duration": 480,
            "velocity": 72
          },
          {
            "pitch": 60,
            "name": "C4",
            "start_tick": 17760,
            "duration_ticks": 480,
            "effective_duration": 480,
            "velocity": 79
          },
          {
            "pitch": 62,
            "name": "D4",
            "start_tick": 17760,
            "duration_ticks": 480,
            "effective_duration": 480,
            "velocity": 74
          },
          {
            "pitch": 43,
            "name": "G2",
            "start_tick": 18000,
            "duration_ticks": 245,
            "effective_duration": 240,
            "velocity": 56
          }
        ],
        "bass": {
          "pitch": 36,
          "name": "C2",
          "pc": "C"
        },
        "pitch_classes": [
          "C",
          "D",
          "G"
        ],
        "notes_count": 10,
        "chord_label": "Csus2",
        "root": "C",
        "quality": "sus2",
        "confidence": 1.0,
        "alternatives": [
          {
            "label": "Gsus4/C",
            "confidence": 0.941
          },
          {
            "label": "Cadd9",
            "confidence": 0.824
          },
          {
            "label": "Cmadd9",
            "confidence": 0.824
          }
        ],
        "is_slash": false
      },
      {
        "event_id": "외워두세요_BPM72_4-4_0d3ac41c_he_20",
        "source_midi_id": "외워두세요_BPM72_4-4_0d3ac41c",
        "bar_index": 10,
        "beat_position": "3",
        "tick_start": 18240,
        "tick_end": 19200,
        "raw_notes": [
          {
            "pitch": 43,
            "name": "G2",
            "start_tick": 18000,
            "duration_ticks": 245,
            "effective_duration": 5,
            "velocity": 56
          },
          {
            "pitch": 52,
            "name": "E3",
            "start_tick": 18240,
            "duration_ticks": 923,
            "effective_duration": 923,
            "velocity": 69
          },
          {
            "pitch": 55,
            "name": "G3",
            "start_tick": 18240,
            "duration_ticks": 923,
            "effective_duration": 923,
            "velocity": 63
          },
          {
            "pitch": 60,
            "name": "C4",
            "start_tick": 18240,
            "duration_ticks": 923,
            "effective_duration": 923,
            "velocity": 73
          },
          {
            "pitch": 62,
            "name": "D4",
            "start_tick": 18240,
            "duration_ticks": 923,
            "effective_duration": 923,
            "velocity": 64
          },
          {
            "pitch": 64,
            "name": "E4",
            "start_tick": 18240,
            "duration_ticks": 923,
            "effective_duration": 923,
            "velocity": 70
          },
          {
            "pitch": 55,
            "name": "G3",
            "start_tick": 18720,
            "duration_ticks": 443,
            "effective_duration": 443,
            "velocity": 66
          },
          {
            "pitch": 60,
            "name": "C4",
            "start_tick": 18720,
            "duration_ticks": 443,
            "effective_duration": 443,
            "velocity": 71
          },
          {
            "pitch": 62,
            "name": "D4",
            "start_tick": 18720,
            "duration_ticks": 443,
            "effective_duration": 443,
            "velocity": 66
          },
          {
            "pitch": 64,
            "name": "E4",
            "start_tick": 18720,
            "duration_ticks": 443,
            "effective_duration": 443,
            "velocity": 68
          },
          {
            "pitch": 48,
            "name": "C3",
            "start_tick": 18960,
            "duration_ticks": 203,
            "effective_duration": 203,
            "velocity": 62
          }
        ],
        "bass": {
          "pitch": 48,
          "name": "C3",
          "pc": "C"
        },
        "pitch_classes": [
          "C",
          "D",
          "E",
          "G"
        ],
        "notes_count": 11,
        "chord_label": "Cadd9",
        "root": "C",
        "quality": "add9",
        "confidence": 1.0,
        "alternatives": [
          {
            "label": "C9",
            "confidence": 0.864
          },
          {
            "label": "Cmaj9",
            "confidence": 0.864
          },
          {
            "label": "C11",
            "confidence": 0.727
          }
        ],
        "is_slash": false
      },
      {
        "event_id": "외워두세요_BPM72_4-4_0d3ac41c_he_21",
        "source_midi_id": "외워두세요_BPM72_4-4_0d3ac41c",
        "bar_index": 11,
        "beat_position": "1",
        "tick_start": 19200,
        "tick_end": 20160,
        "raw_notes": [
          {
            "pitch": 47,
            "name": "B2",
            "start_tick": 19200,
            "duration_ticks": 960,
            "effective_duration": 960,
            "velocity": 63
          },
          {
            "pitch": 57,
            "name": "A3",
            "start_tick": 19200,
            "duration_ticks": 960,
            "effective_duration": 960,
            "velocity": 70
          },
          {
            "pitch": 59,
            "name": "B3",
            "start_tick": 19200,
            "duration_ticks": 960,
            "effective_duration": 960,
            "velocity": 71
          },
          {
            "pitch": 64,
            "name": "E4",
            "start_tick": 19200,
            "duration_ticks": 960,
            "effective_duration": 960,
            "velocity": 75
          },
          {
            "pitch": 57,
            "name": "A3",
            "start_tick": 19680,
            "duration_ticks": 480,
            "effective_duration": 480,
            "velocity": 75
          },
          {
            "pitch": 59,
            "name": "B3",
            "start_tick": 19680,
            "duration_ticks": 480,
            "effective_duration": 480,
            "velocity": 79
          },
          {
            "pitch": 64,
            "name": "E4",
            "start_tick": 19680,
            "duration_ticks": 480,
            "effective_duration": 480,
            "velocity": 79
          },
          {
            "pitch": 47,
            "name": "B2",
            "start_tick": 19920,
            "duration_ticks": 240,
            "effective_duration": 240,
            "velocity": 66
          }
        ],
        "bass": {
          "pitch": 47,
          "name": "B2",
          "pc": "B"
        },
        "pitch_classes": [
          "E",
          "A",
          "B"
        ],
        "notes_count": 8,
        "chord_label": "Esus4/B",
        "root": "E",
        "quality": "sus4",
        "confidence": 0.941,
        "alternatives": [
          {
            "label": "Asus2/B",
            "confidence": 0.941
          },
          {
            "label": "B7sus4",
            "confidence": 0.897
          },
          {
            "label": "E7sus4/B",
            "confidence": 0.765
          }
        ],
        "is_slash": true
      },
      {
        "event_id": "외워두세요_BPM72_4-4_0d3ac41c_he_22",
        "source_midi_id": "외워두세요_BPM72_4-4_0d3ac41c",
        "bar_index": 11,
        "beat_position": "3",
        "tick_start": 20160,
        "tick_end": 21120,
        "raw_notes": [
          {
            "pitch": 40,
            "name": "E2",
            "start_tick": 20160,
            "duration_ticks": 945,
            "effective_duration": 945,
            "velocity": 57
          },
          {
            "pitch": 56,
            "name": "G#3",
            "start_tick": 20160,
            "duration_ticks": 945,
            "effective_duration": 945,
            "velocity": 64
          },
          {
            "pitch": 59,
            "name": "B3",
            "start_tick": 20160,
            "duration_ticks": 945,
            "effective_duration": 945,
            "velocity": 66
          },
          {
            "pitch": 65,
            "name": "F4",
            "start_tick": 20160,
            "duration_ticks": 945,
            "effective_duration": 945,
            "velocity": 79
          },
          {
            "pitch": 56,
            "name": "G#3",
            "start_tick": 20640,
            "duration_ticks": 465,
            "effective_duration": 465,
            "velocity": 61
          },
          {
            "pitch": 59,
            "name": "B3",
            "start_tick": 20640,
            "duration_ticks": 465,
            "effective_duration": 465,
            "velocity": 68
          },
          {
            "pitch": 64,
            "name": "E4",
            "start_tick": 20640,
            "duration_ticks": 465,
            "effective_duration": 465,
            "velocity": 65
          }
        ],
        "bass": {
          "pitch": 40,
          "name": "E2",
          "pc": "E"
        },
        "pitch_classes": [
          "E",
          "F",
          "G#",
          "B"
        ],
        "notes_count": 7,
        "chord_label": "E7b9",
        "root": "E",
        "quality": "7b9",
        "confidence": 0.864,
        "alternatives": [
          {
            "label": "C#7#9/E",
            "confidence": 0.818
          },
          {
            "label": "E",
            "confidence": 0.602
          },
          {
            "label": "E7",
            "confidence": 0.466
          }
        ],
        "is_slash": false
      },
      {
        "event_id": "외워두세요_BPM72_4-4_0d3ac41c_he_23",
        "source_midi_id": "외워두세요_BPM72_4-4_0d3ac41c",
        "bar_index": 12,
        "beat_position": "1",
        "tick_start": 21120,
        "tick_end": 22080,
        "raw_notes": [
          {
            "pitch": 45,
            "name": "A2",
            "start_tick": 21120,
            "duration_ticks": 960,
            "effective_duration": 960,
            "velocity": 62
          },
          {
            "pitch": 55,
            "name": "G3",
            "start_tick": 21120,
            "duration_ticks": 960,
            "effective_duration": 960,
            "velocity": 61
          },
          {
            "pitch": 59,
            "name": "B3",
            "start_tick": 21120,
            "duration_ticks": 960,
            "effective_duration": 960,
            "velocity": 70
          },
          {
            "pitch": 62,
            "name": "D4",
            "start_tick": 21120,
            "duration_ticks": 960,
            "effective_duration": 960,
            "velocity": 73
          },
          {
            "pitch": 55,
            "name": "G3",
            "start_tick": 21600,
            "duration_ticks": 480,
            "effective_duration": 480,
            "velocity": 68
          },
          {
            "pitch": 59,
            "name": "B3",
            "start_tick": 21600,
            "duration_ticks": 480,
            "effective_duration": 480,
            "velocity": 69
          },
          {
            "pitch": 62,
            "name": "D4",
            "start_tick": 21600,
            "duration_ticks": 480,
            "effective_duration": 480,
            "velocity": 76
          },
          {
            "pitch": 45,
            "name": "A2",
            "start_tick": 21840,
            "duration_ticks": 240,
            "effective_duration": 240,
            "velocity": 64
          }
        ],
        "bass": {
          "pitch": 45,
          "name": "A2",
          "pc": "A"
        },
        "pitch_classes": [
          "D",
          "G",
          "A",
          "B"
        ],
        "notes_count": 8,
        "chord_label": "Gadd9/A",
        "root": "G",
        "quality": "add9",
        "confidence": 0.955,
        "alternatives": [
          {
            "label": "G9/A",
            "confidence": 0.818
          },
          {
            "label": "Gmaj9/A",
            "confidence": 0.818
          },
          {
            "label": "A11",
            "confidence": 0.727
          }
        ],
        "is_slash": true
      },
      {
        "event_id": "외워두세요_BPM72_4-4_0d3ac41c_he_24",
        "source_midi_id": "외워두세요_BPM72_4-4_0d3ac41c",
        "bar_index": 12,
        "beat_position": "3",
        "tick_start": 22080,
        "tick_end": 23040,
        "raw_notes": [
          {
            "pitch": 45,
            "name": "A2",
            "start_tick": 22080,
            "duration_ticks": 902,
            "effective_duration": 902,
            "velocity": 68
          },
          {
            "pitch": 57,
            "name": "A3",
            "start_tick": 22080,
            "duration_ticks": 902,
            "effective_duration": 902,
            "velocity": 71
          },
          {
            "pitch": 60,
            "name": "C4",
            "start_tick": 22080,
            "duration_ticks": 902,
            "effective_duration": 902,
            "velocity": 65
          },
          {
            "pitch": 64,
            "name": "E4",
            "start_tick": 22080,
            "duration_ticks": 902,
            "effective_duration": 902,
            "velocity": 72
          },
          {
            "pitch": 57,
            "name": "A3",
            "start_tick": 22560,
            "duration_ticks": 422,
            "effective_duration": 422,
            "velocity": 85
          },
          {
            "pitch": 60,
            "name": "C4",
            "start_tick": 22560,
            "duration_ticks": 422,
            "effective_duration": 422,
            "velocity": 78
          },
          {
            "pitch": 64,
            "name": "E4",
            "start_tick": 22560,
            "duration_ticks": 422,
            "effective_duration": 422,
            "velocity": 83
          },
          {
            "pitch": 45,
            "name": "A2",
            "start_tick": 22800,
            "duration_ticks": 182,
            "effective_duration": 182,
            "velocity": 99
          }
        ],
        "bass": {
          "pitch": 45,
          "name": "A2",
          "pc": "A"
        },
        "pitch_classes": [
          "C",
          "E",
          "A"
        ],
        "notes_count": 8,
        "chord_label": "Amin",
        "root": "A",
        "quality": "min",
        "confidence": 1.0,
        "alternatives": [
          {
            "label": "Am7",
            "confidence": 0.824
          },
          {
            "label": "Amadd9",
            "confidence": 0.824
          },
          {
            "label": "Am6",
            "confidence": 0.824
          }
        ],
        "is_slash": false
      }
    ],
    "retrieval_tags": {
      "style": "block_chord",
      "tempo_range": "adagio",
      "texture_type": "triadic",
      "density_level": "dense",
      "chord_family": "",
      "melody_role_context": "",
      "bass_motion_type": "",
      "arpeggio_or_block": "block_chord",
      "dynamic_profile": "expressive",
      "register": "tenor",
      "voicing_type": "open"
    }
  }
}